<svg xmlns="http://www.w3.org/2000/svg" width="103.521" height="29.937" viewBox="0 0 103.521 29.937">
  <g id="apple-itunes-logo-svgrepo-com" transform="translate(-7104.333 -7172.338)">
    <path id="Path_24617" data-name="Path 24617" d="M7130.063,7200.248a21.331,21.331,0,0,1-1.944,3.631c-1.263,1.924-3.043,4.316-5.25,4.339-1.961.017-2.465-1.275-5.127-1.263s-3.215,1.285-5.175,1.267c-2.207-.02-3.894-2.182-5.158-4.1-3.53-5.377-3.9-11.687-1.724-15.04a7.82,7.82,0,0,1,6.288-3.777c2.339,0,3.809,1.281,5.742,1.281,1.875,0,3.017-1.284,5.723-1.284a7.646,7.646,0,0,1,5.752,3.035A6.578,6.578,0,0,0,7130.063,7200.248Z" transform="translate(0 -5.947)"/>
    <path id="Path_24618" data-name="Path 24618" d="M7131.874,7177.2a6.561,6.561,0,0,0,1.458-4.859,7.083,7.083,0,0,0-4.577,2.462,6.1,6.1,0,0,0-1.5,4.741A5.985,5.985,0,0,0,7131.874,7177.2Z" transform="translate(-10.489)"/>
    <g id="Group_13694" data-name="Group 13694" transform="translate(7134.846 7183.753)">
      <path id="Path_24619" data-name="Path 24619" d="M7164.912,7195.435a1.981,1.981,0,0,1-2.131,1.973,1.987,1.987,0,1,1,.025-3.972A1.981,1.981,0,0,1,7164.912,7195.435Zm-4.077,16.232v-12.7h3.947v12.7Zm10.624-14.183h-4.7v-3.324h13.453v3.324h-4.778v14.182h-3.976Zm21.295,10.106c0,1.662.052,3.013.1,4.078h-3.428l-.183-1.791h-.078a4.534,4.534,0,0,1-3.975,2.079c-2.571,0-4.468-1.613-4.468-5.534v-7.453h3.975v6.831c0,1.844.6,2.96,1.973,2.96a2.124,2.124,0,0,0,1.975-1.376,2.209,2.209,0,0,0,.128-.856v-7.559h3.976v8.622h0Zm3.165-4.571c0-1.586-.052-2.936-.1-4.051h3.429l.182,1.74h.079a4.649,4.649,0,0,1,3.921-2.026c2.6,0,4.544,1.715,4.544,5.455v7.531h-3.947v-7.039c0-1.634-.571-2.752-2-2.752a2.107,2.107,0,0,0-2,1.479,2.843,2.843,0,0,0-.155.987v7.324h-3.948v-8.647h0Zm18.261,3.56c.13,1.637,1.74,2.416,3.584,2.416a11.192,11.192,0,0,0,3.5-.519l.521,2.674a12.52,12.52,0,0,1-4.6.8c-4.312,0-6.778-2.518-6.778-6.493,0-3.221,2-6.776,6.415-6.776,4.1,0,5.661,3.191,5.661,6.337a9.779,9.779,0,0,1-.128,1.558Zm4.648-2.7a2.293,2.293,0,0,0-2.233-2.57,2.593,2.593,0,0,0-2.442,2.57Zm6,4.336a7.74,7.74,0,0,0,3.4.96c1.194,0,1.688-.416,1.688-1.065s-.39-.96-1.87-1.454c-2.624-.882-3.637-2.311-3.609-3.791,0-2.39,2.026-4.183,5.169-4.183a8.506,8.506,0,0,1,3.585.729l-.7,2.728a6.234,6.234,0,0,0-2.753-.729c-.959,0-1.507.39-1.507,1.039,0,.6.494.909,2.052,1.455,2.416.83,3.43,2.052,3.455,3.921,0,2.364-1.87,4.13-5.507,4.13a8.959,8.959,0,0,1-4.1-.911Z" transform="translate(-7160.729 -7193.436)"/>
    </g>
  </g>
</svg>
