<svg xmlns="http://www.w3.org/2000/svg" width="112.349" height="46.813" viewBox="0 0 112.349 46.813">
  <g id="Group_15286" data-name="Group 15286" transform="translate(-1010.651 -3039.681)">
    <path id="Path_27945" data-name="Path 27945" d="M1034.251,3080.754h.221c1.665,0,2.89-.6,2.89-2.317a1.982,1.982,0,0,0-2.207-1.975h-1.439l0,9.985h-1.693v-11.336h3.542a3.343,3.343,0,0,1,1.253,6.52l3.216,4.816h-2.121Z" fill="#231f20"/>
    <path id="Path_27946" data-name="Path 27946" d="M1024.658,3079.771l4.009,0v1.467h-4.009l0,3.744h4.816l0,1.469-6.542,0V3075.11h6.37v1.469l-4.638,0Z" fill="#231f20"/>
    <path id="Path_27947" data-name="Path 27947" d="M1045.637,3076.593v9.853h-1.73v-9.853h-3.178v-1.483h8.083v1.483Z" fill="#231f20"/>
    <path id="Path_27948" data-name="Path 27948" d="M1016.408,3085.1h-1.914v-8.682h1.809c1.645,0,2.14.763,2.14,1.515,0,1.617-1.525,1.761-2.409,1.761l-.6,1.336h.525c1.673,0,3,.635,3,2.181,0,1.216-1.051,1.889-2.551,1.889m2.281-4.873a2.675,2.675,0,0,0,1.488-2.346c0-1.509-1.043-2.825-3.7-2.825h-3.656v11.433h3.625c3.033,0,4.266-1.621,4.266-3.4a2.884,2.884,0,0,0-2.027-2.863" fill="#231f20"/>
    <path id="Path_27949" data-name="Path 27949" d="M1052.494,3079.771l4.007,0,0,1.467h-4.009l0,3.744h4.814v1.469l-6.542,0V3075.11h6.37v1.469l-4.64,0Z" fill="#231f20"/>
    <path id="Path_27950" data-name="Path 27950" d="M1107.462,3082.955v-7.845h1.663v11.337h-1.21l-5.894-8.109v8.109h-1.661V3075.11h1.4Z" fill="#231f20"/>
    <path id="Path_27951" data-name="Path 27951" d="M1113.724,3086.447h-1.663V3075.11h1.4l5.7,7.845v-7.845h1.663v11.337h-1.21l-5.894-8.109Z" fill="#231f20"/>
    <path id="Path_27952" data-name="Path 27952" d="M1077.469,3078.472l-.717,7.975h-1.786l1.193-11.336h1.521l3.4,7.11,3.278-7.11h1.523l1.189,11.336h-1.759l-.746-8.15-3.18,6.9h-.7Z" fill="#231f20"/>
    <path id="Path_27953" data-name="Path 27953" d="M1069.806,3074.8a6.289,6.289,0,0,1,3.108.892l-.612,1.351a5.162,5.162,0,0,0-2.474-.766c-1.238,0-2.012.532-2.012,1.475,0,2.436,5.66,1.1,5.66,5.351,0,1.93-1.541,3.344-4.239,3.344l-2.827,0,.673-1.483h2.106c1.471,0,2.47-.554,2.47-1.732,0-2.885-5.635-1.36-5.635-5.353,0-1.87,1.483-3.077,3.782-3.077" fill="#231f20"/>
    <path id="Path_27954" data-name="Path 27954" d="M1061.233,3084.96h4.5l-.675,1.488h-5.555v-11.337h1.73Z" fill="#231f20"/>
    <path id="Path_27955" data-name="Path 27955" d="M1091.925,3082.291l1.672-4.561,1.669,4.561Zm2.342-7.277h-1.218l-4.484,11.433h1.837l.992-2.706h4.4l.99,2.706h1.912Z" fill="#231f20"/>
    <path id="Path_27956" data-name="Path 27956" d="M1044.17,3045.965a7.262,7.262,0,0,0-5.614,2.167l-.564-2.167h-4.437v20.5h5.26v-14.268a5.387,5.387,0,0,1,3.882-1.344,4.965,4.965,0,0,1,1.473.224Z" fill="#007cb6"/>
    <path id="Path_27957" data-name="Path 27957" d="M1066.089,3045.966h-5.344l-4.948,13.307-4.77-13.307h-5.764l8.353,20.5h3.949Z" fill="#007cb6"/>
    <path id="Path_27958" data-name="Path 27958" d="M1099.821,3062.258v4.2h-3.681c-4.006,0-5.692-2.3-5.692-5.43V3050.2h-3.033v-4.229h3.033v-4.724l5.2-1.561v6.285h4.79v4.229h-4.79v9.266c0,1.932.718,2.8,2.569,2.8Z" fill="#007cb6"/>
    <path id="Path_27959" data-name="Path 27959" d="M1028.546,3066.462h-4.814l-.428-1.82a8.489,8.489,0,0,1-5.938,2.252,6.48,6.48,0,0,1-6.715-6.709c0-4.247,3.336-6.667,8.579-6.84l3.7-.132v-.459c0-2.47-1.795-3.078-3.962-3.078-1.84,0-5.772.19-5.772.19v-3.9s3.658-.188,6.811-.188c5.071,0,8.148,1.932,8.148,7.306v7.96a20.562,20.562,0,0,0,.389,5.418m-5.614-4.983v-4.668l-3.009.086c-2.816.081-4.074,1.164-4.074,2.9,0,1.69,1.17,2.983,3.337,2.983a5.605,5.605,0,0,0,3.746-1.3" fill="#007cb6"/>
    <path id="Path_27960" data-name="Path 27960" d="M1117.67,3056.215c0,3.856-1.646,6.878-4.9,6.878-3.163,0-5.025-2.892-5.025-6.878,0-3.813,1.6-6.793,4.895-6.793,3.207,0,5.027,2.848,5.027,6.793m5.33-.044c0-6.968-4.54-10.846-10.271-10.846-5.56,0-10.269,4.011-10.269,11.019,0,6.044,3.794,10.76,10.227,10.76,6.318,0,10.313-4.736,10.313-10.933" fill="#007cb6"/>
    <path id="Path_27961" data-name="Path 27961" d="M1084.548,3066.462h-4.814l-.428-1.82a8.492,8.492,0,0,1-5.938,2.252,6.481,6.481,0,0,1-6.717-6.709c0-4.247,3.336-6.667,8.58-6.84l3.7-.132v-.459c0-2.47-1.795-3.078-3.962-3.078-1.84,0-5.772.19-5.772.19v-3.9s3.658-.188,6.811-.188c5.071,0,8.146,1.932,8.146,7.306v7.96a20.531,20.531,0,0,0,.391,5.418m-5.614-4.983v-4.668l-3.009.086c-2.816.081-4.074,1.164-4.074,2.9,0,1.69,1.17,2.983,3.337,2.983a5.6,5.6,0,0,0,3.746-1.3" fill="#007cb6"/>
  </g>
</svg>
