<?xml version="1.0" encoding="UTF-8"?>
<svg id="BMG_Logo_Lockup_Horizontal_Primary" xmlns="http://www.w3.org/2000/svg" viewBox="0 0 1378.05 671.75">
  <defs>
    <style>
      .cls-1 {
        fill: #656869;
      }

      .cls-2 {
        fill: #006fac;
      }
    </style>
  </defs>
  <path class="cls-2" d="M355.15,66.96c-20.66,0-37.71,2.93-59.49,22.95l-5.97-22.94h-47.02v217.15h55.75v-151.18c12.83-12.09,28.27-14.23,41.12-14.23,4.37,0,9.83.56,15.61,2.38v-54.13Z"/>
  <polygon class="cls-2" points="587.37 66.96 530.75 66.96 478.34 207.95 427.8 66.96 366.73 66.96 455.23 284.12 497.05 284.12 587.37 66.96"/>
  <path class="cls-2" d="M944.76,239.58v44.54h-39.01c-42.43,0-60.28-24.4-60.28-57.53v-114.83h-32.15v-44.8h32.15V16.9L900.57.38v66.58h50.76v44.8h-50.76v98.17c0,20.5,7.62,29.65,27.22,29.65h16.98Z"/>
  <path class="cls-2" d="M189.61,284.12h-51l-4.56-19.28c-14.22,12.86-33.97,23.87-62.89,23.87C31.22,288.7,0,260.3,0,217.61c0-44.99,35.35-70.64,90.9-72.48l39.22-1.37v-4.88c0-26.17-19.02-32.59-41.98-32.59-19.51,0-61.15,2-61.15,2v-41.32s38.76-2,72.17-2c53.71,0,86.31,20.48,86.31,77.41v84.35c0,31.22.92,47.29,4.13,57.39M130.12,231.32v-49.45l-31.88.91c-29.84.86-43.15,12.33-43.15,30.69s12.39,31.62,35.35,31.62c19.28,0,32.33-7.35,39.68-13.78"/>
  <path class="cls-2" d="M1133.88,175.54c0,40.86-17.45,72.87-51.89,72.87s-53.25-30.63-53.25-72.87,16.99-71.95,51.88-71.95,53.26,30.17,53.26,71.95M1190.34,175.08c0-73.81-48.1-114.91-108.81-114.91s-108.81,42.5-108.81,116.75c0,64.04,40.2,114,108.35,114s109.27-50.17,109.27-115.83"/>
  <path class="cls-2" d="M782.95,284.12h-51l-4.55-19.28c-14.24,12.86-33.97,23.87-62.9,23.87-39.94,0-71.16-28.4-71.16-71.1,0-44.99,35.36-70.64,90.91-72.48l39.22-1.37v-4.88c0-26.17-19.03-32.59-41.98-32.59-19.51,0-61.15,2-61.15,2v-41.32s38.75-2,72.17-2c53.71,0,86.31,20.48,86.31,77.41v84.35c0,31.22.93,47.29,4.14,57.39M723.46,231.32v-49.45l-31.87.91c-29.85.86-43.16,12.33-43.16,30.69s12.4,31.62,35.35,31.62c19.28,0,32.34-7.35,39.69-13.78"/>
  <path class="cls-1" d="M1371.76,419.71c-4.67-12.88-11.68-23.81-21.02-32.8-9.34-8.99-20.95-15.93-34.82-20.81-13.87-4.88-29.94-7.32-48.2-7.32-16.71,0-31.53,1.37-44.49,4.13-12.95,2.76-24.74,5.98-35.36,9.66v299.18h51.81v-102.99c4.54,1.56,9.46,2.72,14.77,3.5,5.31.78,10.6,1.17,15.85,1.17,15.74,0,30.23-2.65,43.49-7.96,13.25-5.31,24.7-12.81,34.35-22.51,9.64-9.69,17.15-21.34,22.54-34.93,5.39-13.59,8.08-28.59,8.08-45.01s-2.34-30.43-7.01-43.32M1320.58,493.07c-2.55,8.14-6.32,15.11-11.28,20.92-4.97,5.8-11.03,10.3-18.2,13.48-7.16,3.18-15.29,4.78-24.38,4.78-5.39,0-10.25-.5-14.58-1.48s-8.48-2.26-12.45-3.82v-122.09c3.54-.85,7.2-1.56,10.96-2.12,3.76-.56,8.13-.85,13.09-.85,8.51,0,16.46,1.28,23.84,3.82,7.38,2.55,13.8,6.48,19.26,11.79,5.46,5.31,9.75,11.97,12.88,19.96,3.12,7.99,4.68,17.44,4.68,28.35,0,10.05-1.28,19.14-3.83,27.28M1148.59,569.19c-.85-2.55-1.52-5.48-2.02-8.81-.5-3.33-.88-7.21-1.17-11.68-.29-4.46-.46-9.66-.53-15.61-.07-5.95-.1-12.88-.1-20.81v-148.84h-52.24v151.82c-2.13,1.98-4.62,3.96-7.45,5.95-2.84,1.98-5.96,3.79-9.37,5.41-3.41,1.63-7.03,2.97-10.86,4.03-3.84,1.07-7.88,1.6-12.14,1.6-12.63,0-21.97-3.75-28-11.25-6.03-7.5-9.05-17.7-9.05-30.57v-126.98h-51.81v130.16c0,11.04,1.1,20.67,3.3,28.88,2.19,8.21,5.09,15.25,8.7,21.13,3.61,5.88,7.79,10.76,12.53,14.65,4.74,3.9,9.69,6.94,14.87,9.13,5.16,2.2,10.33,3.75,15.5,4.68,5.17.91,10.01,1.37,14.54,1.37,6.8,0,13.24-.67,19.32-2.01,6.09-1.35,11.79-3.15,17.1-5.42,5.31-2.26,10.19-4.88,14.65-7.85,4.45-2.98,8.45-6.09,12-9.35l9.13,20.38h43.1ZM932.86,422.37c-4.67-13.09-11.47-24.45-20.38-34.08-9.2-9.35-20.1-16.6-32.7-21.76-12.6-5.17-26.9-7.75-42.89-7.75-15.01,0-28.64,2.55-40.88,7.64-12.25,5.1-22.97,12.25-32.17,21.44-9.63,9.77-17.02,21.42-22.19,34.93-5.17,13.52-7.75,28.42-7.75,44.69s2.72,31.71,8.17,45.44c5.45,13.73,13.27,25.41,23.46,35.04,8.92,8.21,19.36,14.51,31.32,18.9,11.97,4.39,25.16,6.58,39.6,6.58,15.43,0,29.37-2.58,41.84-7.75,12.45-5.17,23.28-12.42,32.48-21.76,9.63-9.62,16.88-21.13,21.76-34.5,4.88-13.38,7.33-27.93,7.33-43.63s-2.34-30.33-7.01-43.42M883.49,492.96c-2.05,8.21-5.13,15.29-9.23,21.24-4.1,5.95-9.23,10.58-15.39,13.9-6.15,3.33-13.34,4.99-21.55,4.99s-15.01-1.63-21.24-4.88c-6.23-3.26-11.5-7.79-15.82-13.59-4.32-5.8-7.61-12.81-9.87-21.02-2.26-8.21-3.4-17.34-3.4-27.39s.99-18.48,2.98-26.54c1.98-8.07,5.02-15.04,9.13-20.92,4.1-5.87,9.2-10.47,15.28-13.8,6.09-3.33,13.31-4.99,21.66-4.99s15.25,1.59,21.56,4.78c6.29,3.18,11.57,7.68,15.82,13.48,4.25,5.8,7.5,12.77,9.77,20.92,2.26,8.14,3.39,17.16,3.39,27.07s-1.02,18.54-3.08,26.75M587.52,579.81c-4.03-6.38-9.34-11.61-15.92-15.71s-14.09-7.36-22.51-9.77c-8.42-2.41-17.03-4.35-25.8-5.84-8.78-1.48-17.38-2.76-25.79-3.82-8.43-1.06-15.93-2.26-22.51-3.61-6.58-1.34-11.89-3.15-15.92-5.41-4.04-2.26-6.05-5.31-6.05-9.13,0-3.26.45-6.12,1.38-8.6.91-2.47,2.23-5.13,3.93-7.96,4.39,1.57,8.77,2.63,13.16,3.19,4.39.56,9.27.85,14.65.85,11.47,0,22.33-1.73,32.59-5.2,10.26-3.47,19.22-8.42,26.86-14.86,7.64-6.44,13.7-14.23,18.15-23.36,4.46-9.13,6.69-19.28,6.69-30.47,0-11.74-1.73-21.69-5.2-29.83-3.47-8.14-8.25-15.46-14.33-21.97,4.1-1.7,8.63-2.41,13.58-2.12,4.96.28,10.12.99,15.51,2.12v-38.71c-8.64-.85-6.39-.39-13.44-.47-6.65.5-11.05,1.48-16.29,2.97-5.24,1.49-9.81,3.44-13.7,5.84-3.9,2.41-7.4,5.03-10.51,7.86-.71.85-1.42,1.45-2.12,1.8-.71.35-1.7.18-2.98-.53-4.53-2.69-10.12-4.88-16.77-6.58-6.66-1.69-14.09-2.55-22.3-2.55-14.01,0-26.33,2.16-36.94,6.48-10.62,4.32-19.51,10.08-26.65,17.3-7.15,7.22-12.57,15.43-16.25,24.63-3.68,9.2-5.52,18.68-5.52,28.45,0,6.52.81,12.95,2.44,19.32,1.63,6.37,3.99,12.31,7.11,17.84,3.11,5.52,6.87,10.51,11.25,14.97,4.39,4.46,9.35,8.11,14.86,10.93-8.77,5.38-15.32,11.51-19.64,18.36-4.32,6.87-6.47,13.49-6.47,19.86,0,2.26.24,4.64.74,7.11.5,2.48,1.31,4.88,2.44,7.22,1.13,2.33,2.58,4.49,4.35,6.47,1.77,1.99,3.93,3.61,6.48,4.88-5.24,2.26-10.16,4.99-14.76,8.17-4.6,3.19-8.6,6.87-12,11.05-3.4,4.17-6.09,8.74-8.07,13.7-1.99,4.95-2.98,10.41-2.98,16.35,0,8.2,2.2,15.99,6.58,23.35,4.39,7.36,10.76,13.81,19.11,19.32,8.35,5.52,18.58,9.91,30.69,13.17,12.1,3.25,25.87,4.88,41.3,4.88,19.39,0,36.2-1.88,50.42-5.63,14.23-3.76,26.01-8.78,35.36-15.08,9.35-6.3,16.32-13.56,20.92-21.76,4.59-8.22,6.9-16.78,6.9-25.7,0-9.48-2.01-17.41-6.05-23.78M516.39,452.62c-1.91,4.67-4.49,8.6-7.75,11.79-3.26,3.18-7.11,5.55-11.57,7.11-4.45,1.56-9.23,2.34-14.33,2.34-5.8,0-10.97-1.06-15.5-3.19-4.53-2.12-8.35-4.99-11.46-8.6-3.12-3.61-5.49-7.85-7.12-12.74-1.63-4.88-2.44-10.01-2.44-15.4,0-5.95.88-11.15,2.66-15.61,1.77-4.45,4.17-8.2,7.22-11.25,3.04-3.04,6.66-5.34,10.83-6.9,4.18-1.56,8.67-2.34,13.49-2.34,6.08,0,11.54,1.1,16.35,3.29,4.81,2.2,8.89,5.1,12.21,8.71s5.87,7.68,7.65,12.21c1.77,4.53,2.66,9.2,2.66,14.01,0,6.37-.96,11.89-2.87,16.56M532.74,619.94c-2.62,3.11-6.27,5.8-10.93,8.07-4.68,2.26-10.19,3.96-16.56,5.1-6.38,1.13-13.31,1.69-20.81,1.69-8.91,0-16.92-.85-23.99-2.55-7.08-1.7-13.09-4-18.05-6.9-4.95-2.9-8.74-6.29-11.36-10.19-2.62-3.89-3.93-8.03-3.93-12.42,0-3.54.56-6.73,1.7-9.55,1.13-2.84,2.58-5.34,4.35-7.54,1.77-2.2,3.64-4.1,5.63-5.73,1.98-1.63,3.82-3.01,5.52-4.14,3.82,1.56,8.77,2.87,14.86,3.93,6.09,1.06,12.56,2.09,19.43,3.08,6.86.99,13.72,2.09,20.59,3.29,6.87,1.2,13.09,2.76,18.69,4.68,5.59,1.91,10.12,4.35,13.58,7.33,3.47,2.97,5.2,6.65,5.2,11.04,0,4.1-1.31,7.71-3.93,10.83"/>
  <path class="cls-1" d="M722.16,364.63c-19.43,0-35.47,2.76-55.95,21.59l-5.61-21.58h-44.23v204.23h52.43v-142.18c12.07-11.37,26.59-13.38,38.67-13.38,4.11,0,9.25.53,14.68,2.23v-50.91Z"/>
</svg>