<svg xmlns="http://www.w3.org/2000/svg" width="54.84" height="46.315" viewBox="0 0 54.84 46.315">
  <g id="Group_14939" data-name="Group 14939" transform="translate(0.5)">
    <g id="Group_14938" data-name="Group 14938" transform="translate(0)">
      <path id="Path_25915" data-name="Path 25915" d="M132.35,203.582V168.353h53.84v35.229Z" transform="translate(-132.35 -157.767)" fill="none" stroke="#002d66" stroke-width="1"/>
      <path id="Path_25916" data-name="Path 25916" d="M186.19,156.567v-7.145H132.35v7.145" transform="translate(-132.35 -145.981)" fill="none" stroke="#002d66" stroke-width="1"/>
      <path id="Path_25917" data-name="Path 25917" d="M192.233,200.321a.875.875,0,0,0-.252.775l1.222,7.125-6.4-3.364a.875.875,0,0,0-.814,0l-6.4,3.364,1.222-7.125a.875.875,0,0,0-.251-.775l-5.177-5.046,7.154-1.04a.874.874,0,0,0,.659-.479l3.2-6.483,3.2,6.483a.875.875,0,0,0,.659.479l7.154,1.04-5.176,5.046Z" transform="translate(-159.142 -169.547)" fill="none" stroke="#002d66" stroke-width="1"/>
      <g id="Group_14922" data-name="Group 14922" transform="translate(9.574 0)">
        <line id="Line_429" data-name="Line 429" y2="5.591" transform="translate(0 0)" fill="none" stroke="#002d66" stroke-width="1"/>
        <line id="Line_430" data-name="Line 430" y2="5.591" transform="translate(34.691 0)" fill="none" stroke="#002d66" stroke-width="1"/>
      </g>
    </g>
  </g>
</svg>
