<?xml version="1.0" encoding="UTF-8"?>
<svg id="BMG_Logo_Lockup_Horizontal_Primary" xmlns="http://www.w3.org/2000/svg" viewBox="0 0 984.81 653.61">
  <defs>
    <style>
      .cls-1 {
        fill: #1b3662;
      }

      .cls-2 {
        fill: #009bd8;
      }
    </style>
  </defs>
  <path class="cls-1" d="M685.69,480.29c4.88-1.19,9.63-2.94,14.25-5.25,4.62-2.31,8.84-5.18,12.67-8.61l-13.46-18.81c-4.36,3.56-8.45,6.07-12.28,7.52-3.83,1.45-8.05,2.18-12.67,2.18-6.73,0-12.57-1.29-17.52-3.87-4.95-2.57-8.78-6.16-11.48-10.79-2.71-4.62-4.06-10.1-4.06-16.43s1.06-11.48,3.17-15.84c2.11-4.35,5.18-7.65,9.21-9.9,4.03-2.24,8.94-3.37,14.75-3.37,3.96,0,7.52.83,10.69,2.48,3.17,1.65,5.77,3.9,7.82,6.73,2.05,2.84,3.2,6.04,3.46,9.61v4.35l3.17-3.57h-65.54l4.55,17.23h84.15l.2-8.71c.26-7.39-.79-14.29-3.17-20.69-2.38-6.4-5.78-11.94-10.2-16.63-4.42-4.68-9.67-8.34-15.74-10.99-6.08-2.64-12.68-3.96-19.8-3.96-7.66,0-14.75,1.35-21.29,4.06-6.53,2.71-12.18,6.53-16.93,11.48-4.75,4.95-8.45,10.79-11.09,17.52-2.64,6.73-3.96,14.19-3.96,22.37,0,10.43,2.34,19.67,7.03,27.72,4.69,8.05,11.29,14.39,19.8,19.01,8.52,4.62,18.45,6.93,29.8,6.93,4.75,0,9.57-.6,14.45-1.78M585,476.82c7.98-3.5,14.16-8.09,18.51-13.76l-15.24-18.61c-2.25,2.78-4.72,5.15-7.43,7.13-2.71,1.98-5.58,3.44-8.61,4.35-3.04.93-6.28,1.39-9.7,1.39-5.28,0-10.03-1.32-14.26-3.96-4.23-2.64-7.56-6.2-10-10.69-2.45-4.49-3.66-9.51-3.66-15.05s1.19-10.96,3.56-15.45c2.38-4.48,5.64-8.02,9.8-10.59,4.16-2.58,8.94-3.86,14.36-3.86,3.43,0,6.76.6,10,1.78,3.23,1.19,6.24,2.81,9.01,4.85,2.77,2.05,5.08,4.33,6.93,6.83l15.44-18.61c-4.35-6.07-10.43-10.82-18.22-14.25-7.79-3.43-16.37-5.15-25.74-5.15-10.03,0-19.01,2.38-26.93,7.13-7.92,4.75-14.16,11.22-18.72,19.4-4.55,8.19-6.83,17.49-6.83,27.92s2.28,19.73,6.83,27.92c4.56,8.19,10.79,14.65,18.72,19.4,7.92,4.75,16.89,7.13,26.93,7.13,8.84,0,17.26-1.76,25.25-5.25M486.39,349.6c3.1-2.9,4.65-6.6,4.65-11.09,0-4.75-1.52-8.48-4.55-11.19-3.04-2.7-7.26-4.06-12.67-4.06s-9.48,1.42-12.57,4.26c-3.1,2.84-4.65,6.51-4.65,10.99,0,4.89,1.51,8.68,4.55,11.38,3.03,2.71,7.26,4.06,12.68,4.06s9.47-1.45,12.57-4.36M488.08,375.34h-28.12v104.74h28.12v-104.74ZM396.2,480.09l46.14-104.74h-30.09l-29.3,79.4,6.53-1.19-27.92-78.21h-30.89l43.96,104.74h21.58ZM277.4,480.09v-54.25c0-3.3.56-6.34,1.69-9.11,1.12-2.77,2.67-5.18,4.65-7.23,1.98-2.05,4.32-3.63,7.03-4.75,2.7-1.12,5.64-1.68,8.81-1.68,2.37,0,4.72.3,7.03.89,2.31.6,4.19,1.29,5.64,2.08l7.53-30.89c-1.46-.53-3.24-.99-5.35-1.39-2.12-.4-4.3-.6-6.53-.6-5.28,0-10.33,1.26-15.15,3.76-4.82,2.51-9,5.97-12.57,10.39-3.57,4.42-6.14,9.34-7.73,14.75l4.76,6.93-.99-33.66h-27.12v104.74h28.31ZM197.21,480.29c4.89-1.19,9.64-2.94,14.26-5.25,4.62-2.31,8.84-5.18,12.67-8.61l-13.47-18.81c-4.35,3.56-8.45,6.07-12.27,7.52-3.83,1.45-8.06,2.18-12.68,2.18-6.73,0-12.57-1.29-17.52-3.87-4.95-2.57-8.78-6.16-11.48-10.79-2.71-4.62-4.05-10.1-4.05-16.43s1.05-11.48,3.17-15.84c2.11-4.35,5.18-7.65,9.2-9.9,4.03-2.24,8.94-3.37,14.75-3.37,3.96,0,7.52.83,10.69,2.48,3.17,1.65,5.77,3.9,7.82,6.73,2.05,2.84,3.2,6.04,3.47,9.61v4.35l3.17-3.57h-65.54l4.55,17.23h84.15l.19-8.71c.26-7.39-.79-14.29-3.17-20.69-2.37-6.4-5.78-11.94-10.2-16.63-4.42-4.68-9.67-8.34-15.74-10.99s-12.67-3.96-19.8-3.96c-7.66,0-14.75,1.35-21.28,4.06-6.54,2.71-12.18,6.53-16.93,11.48-4.76,4.95-8.45,10.79-11.09,17.52-2.64,6.73-3.96,14.19-3.96,22.37,0,10.43,2.34,19.67,7.03,27.72,4.68,8.05,11.29,14.39,19.8,19.01,8.51,4.62,18.44,6.93,29.8,6.93,4.75,0,9.57-.6,14.45-1.78M84.75,476.82c7.92-3.5,14.13-8.54,18.61-15.15,4.48-6.6,6.73-14.58,6.73-23.96,0-5.68-1.12-10.8-3.37-15.35-2.25-4.55-5.44-8.52-9.61-11.88-4.16-3.36-9.14-6.23-14.95-8.61-5.81-2.37-12.35-4.28-19.6-5.74-3.83-.79-7.33-1.71-10.5-2.77-3.17-1.06-5.87-2.28-8.12-3.67-2.25-1.39-3.96-3-5.15-4.85-1.19-1.85-1.78-3.96-1.78-6.34,0-2.9.89-5.45,2.67-7.62,1.78-2.18,4.26-3.83,7.43-4.95,3.17-1.12,6.93-1.69,11.29-1.69,3.96,0,7.82.63,11.59,1.88,3.76,1.26,7.25,3.14,10.49,5.64,3.23,2.51,6.24,5.61,9.01,9.3l18.81-18.22c-3.17-5.15-7.1-9.54-11.78-13.16-4.69-3.63-10.2-6.37-16.54-8.22-6.34-1.85-13.73-2.77-22.18-2.77-6.86,0-13.36.99-19.5,2.97-6.14,1.98-11.55,4.82-16.24,8.52-4.69,3.69-8.35,8.09-10.99,13.17-2.64,5.08-3.96,10.59-3.96,16.54s.9,11.02,2.67,15.64c1.78,4.62,4.52,8.75,8.22,12.38,3.69,3.63,8.32,6.67,13.86,9.11,5.55,2.45,12.01,4.53,19.4,6.24,3.44.53,6.6,1.22,9.51,2.08,2.9.86,5.54,1.85,7.92,2.97,2.37,1.12,4.42,2.37,6.14,3.76,1.71,1.39,3.03,2.97,3.96,4.75.92,1.78,1.39,3.74,1.39,5.85,0,2.9-.92,5.38-2.78,7.42-1.85,2.05-4.39,3.67-7.62,4.85-3.24,1.19-6.9,1.78-10.99,1.78-7.53,0-14.49-1.62-20.89-4.85-6.41-3.23-12.84-9.34-19.31-18.31L0,454.74c4.35,5.81,9.27,10.76,14.75,14.85,5.48,4.09,11.75,7.2,18.81,9.3,7.06,2.11,14.88,3.17,23.46,3.17,10.56,0,19.8-1.76,27.72-5.25"/>
  <path class="cls-1" d="M912.2,280.52c-4.09-2.51-7.29-6.04-9.6-10.59-2.31-4.55-3.47-9.8-3.47-15.74s1.15-10.99,3.47-15.54c2.31-4.55,5.51-8.12,9.6-10.7,4.09-2.57,8.84-3.85,14.26-3.85s10.39,1.25,14.56,3.76c4.16,2.51,7.36,6.04,9.6,10.59,2.24,4.55,3.37,9.8,3.37,15.74s-1.12,11.36-3.37,15.84c-2.24,4.49-5.44,7.99-9.6,10.5-4.16,2.51-9.01,3.76-14.56,3.76s-10.17-1.26-14.26-3.76M948.94,348.83c6.93-2.37,12.8-5.84,17.62-10.39,4.82-4.55,8.48-10.13,10.98-16.73,2.51-6.6,3.76-14.2,3.76-22.77v-96.83h-26.93l-.79,23.96,5.74-1.58c-.4-2.37-1.39-4.75-2.97-7.12-1.58-2.38-3.6-4.59-6.03-6.64-2.44-2.05-5.22-3.89-8.32-5.55-3.1-1.65-6.47-2.93-10.1-3.86-3.63-.92-7.43-1.39-11.39-1.39-9.5,0-17.99,2.35-25.44,7.03-7.46,4.69-13.34,11.09-17.63,19.21-4.29,8.12-6.43,17.4-6.43,27.82s2.17,19.6,6.53,27.52c4.35,7.92,10.29,14.13,17.82,18.61,7.52,4.49,16.1,6.73,25.74,6.73,5.81,0,11.39-1.09,16.73-3.27,5.35-2.17,9.84-5.08,13.47-8.71s5.84-7.62,6.64-11.98l-4.76-.99v18.22c0,6.34-1.12,11.61-3.37,15.84-2.24,4.23-5.58,7.39-10,9.51-4.42,2.11-10.07,3.17-16.93,3.17-3.96,0-7.82-.4-11.58-1.19-3.76-.79-7.36-1.92-10.8-3.37-3.43-1.45-6.46-3.1-9.11-4.95l-10.1,20c5.15,3.96,11.75,7.16,19.8,9.61,8.05,2.44,16.24,3.66,24.55,3.66s16.34-1.19,23.27-3.57M760.93,306.85h21.98v-62.97c0-2.77.56-5.34,1.68-7.72,1.12-2.37,2.64-4.49,4.55-6.34,1.91-1.85,4.23-3.27,6.93-4.26,2.71-.99,5.64-1.48,8.81-1.48,3.96-.13,7.29.53,10,1.98,2.71,1.46,4.72,3.76,6.05,6.93,1.32,3.17,1.98,7.13,1.98,11.88v61.97h28.12v-64.15c0-9.37-1.35-17.26-4.06-23.66-2.71-6.4-6.73-11.19-12.08-14.36-5.34-3.17-11.98-4.75-19.9-4.75-5.81,0-11.36,1.19-16.63,3.57-5.28,2.38-9.8,5.51-13.56,9.41-3.76,3.89-6.37,8.21-7.82,12.97l5.55-2.37-.79-21.38h-26.93v104.74h6.14ZM723.01,176.37c3.1-2.9,4.65-6.6,4.65-11.09,0-4.75-1.52-8.48-4.55-11.19-3.04-2.7-7.26-4.05-12.67-4.05s-9.48,1.42-12.57,4.25c-3.1,2.84-4.65,6.5-4.65,10.99,0,4.89,1.51,8.68,4.55,11.39,3.03,2.71,7.25,4.06,12.67,4.06s9.47-1.46,12.57-4.35M724.69,202.11h-28.12v104.74h28.12v-104.74ZM675.98,202.11h-69.3v25.15h69.3v-25.15ZM654.4,175.58h-28.12v131.28h28.12v-131.28ZM565.3,307.05c4.88-1.19,9.63-2.94,14.25-5.25,4.62-2.3,8.84-5.18,12.67-8.61l-13.47-18.81c-4.35,3.57-8.45,6.07-12.27,7.52-3.83,1.45-8.05,2.18-12.67,2.18-6.73,0-12.57-1.29-17.52-3.87-4.95-2.57-8.78-6.16-11.48-10.79-2.71-4.62-4.06-10.1-4.06-16.43s1.05-11.48,3.17-15.84c2.11-4.35,5.18-7.65,9.21-9.9,4.02-2.24,8.94-3.37,14.75-3.37,3.96,0,7.53.83,10.7,2.47,3.17,1.65,5.77,3.9,7.82,6.73,2.04,2.84,3.19,6.04,3.46,9.61v4.35l3.17-3.56h-65.54l4.55,17.22h84.15l.2-8.71c.26-7.39-.79-14.29-3.17-20.69-2.37-6.4-5.77-11.94-10.2-16.63-4.42-4.69-9.67-8.35-15.74-10.99-6.07-2.64-12.67-3.96-19.8-3.96-7.66,0-14.75,1.36-21.28,4.06-6.53,2.71-12.18,6.53-16.93,11.48-4.75,4.95-8.45,10.79-11.09,17.52-2.65,6.73-3.96,14.19-3.96,22.38,0,10.43,2.34,19.67,7.03,27.72,4.69,8.05,11.29,14.38,19.8,19.01,8.52,4.62,18.45,6.93,29.8,6.93,4.75,0,9.57-.6,14.46-1.78M490.06,306.85l-51.68-63.16-19.8,15.84,37.62,47.32h33.86ZM413.43,160.33h-28.12v146.53h28.12v-146.53ZM490.25,202.11h-37.02l-49.5,50.09,8.32,23.17,78.21-73.26ZM326.9,306.85v-54.25c0-3.3.56-6.34,1.69-9.11,1.12-2.78,2.67-5.18,4.65-7.23,1.98-2.04,4.33-3.62,7.03-4.75,2.7-1.12,5.64-1.68,8.8-1.68,2.38,0,4.72.3,7.03.89,2.31.59,4.19,1.29,5.64,2.08l7.52-30.89c-1.45-.53-3.23-.99-5.35-1.39-2.11-.4-4.29-.6-6.53-.6-5.28,0-10.32,1.26-15.15,3.76-4.82,2.51-9.01,5.98-12.57,10.39-3.57,4.42-6.14,9.34-7.72,14.75l4.75,6.93-.99-33.66h-27.13v104.74h28.32ZM203.05,280.72c-3.9-2.51-6.96-6.04-9.21-10.59-2.24-4.56-3.37-9.87-3.37-15.94s1.12-11.15,3.37-15.64c2.24-4.49,5.31-8.02,9.21-10.6,3.89-2.57,8.41-3.85,13.56-3.85s9.9,1.28,13.86,3.85c3.96,2.58,7.03,6.11,9.2,10.6,2.18,4.49,3.27,9.7,3.27,15.64s-1.09,11.38-3.27,15.94c-2.17,4.55-5.25,8.09-9.2,10.59-3.96,2.51-8.59,3.76-13.86,3.76s-9.67-1.26-13.56-3.76M222.75,306.55c4.36-1.51,8.28-3.56,11.79-6.14,3.5-2.57,6.43-5.51,8.81-8.81,2.37-3.3,4.09-6.8,5.15-10.49l-6.34.59v25.15h28.31v-104.74h-27.92v25.54l5.94.99c-.93-3.96-2.51-7.66-4.75-11.09-2.25-3.43-4.99-6.46-8.22-9.11-3.24-2.64-7-4.72-11.29-6.24-4.29-1.51-9.01-2.28-14.16-2.28-9.11,0-17.22,2.31-24.35,6.93-7.13,4.62-12.77,11.02-16.93,19.21-4.16,8.19-6.24,17.56-6.24,28.12s2.05,19.94,6.14,28.12c4.09,8.18,9.64,14.65,16.63,19.4,7,4.75,14.85,7.13,23.56,7.13,4.88,0,9.5-.76,13.86-2.28M35.84,306.85v-47.52c0-12.81-.3-23.86-.89-33.17-.6-9.3-1.62-18.38-3.07-27.22l-3.37,9.7,39.8,62.57h13.07l40.59-62.97-3.56-9.3c-1.45,9.37-2.48,18.81-3.07,28.32-.6,9.5-.89,20.19-.89,32.07v47.52h29.11v-138.6h-25.94l-51.09,81.97,17.82.19-50.49-82.17H6.73v138.6h29.11Z"/>
  <path class="cls-1" d="M798.94,406.03l15.05-16.63c-3.3-3.3-7.16-6.17-11.59-8.61-4.42-2.44-9.2-4.32-14.35-5.64-5.15-1.32-10.43-1.98-15.84-1.98s-10.56.76-15.44,2.28c-4.89,1.52-9.21,3.66-12.97,6.44-3.76,2.77-6.7,6.1-8.81,10-2.12,3.9-3.17,8.22-3.17,12.97,0,3.96.62,7.55,1.88,10.79,1.26,3.24,3.07,6.24,5.44,9.01,2.78,2.9,6.5,5.51,11.19,7.82,4.68,2.31,10.39,4.33,17.13,6.04,4.36,1.19,7.92,2.28,10.7,3.26,2.77.99,4.82,1.88,6.14,2.68,2.38,1.58,3.57,3.83,3.57,6.73,0,1.45-.3,2.81-.89,4.06-.6,1.26-1.49,2.31-2.67,3.17-1.19.86-2.61,1.52-4.26,1.98-1.65.47-3.46.69-5.44.69-5.02,0-10.03-.96-15.05-2.87-5.02-1.91-9.5-5.05-13.47-9.4l-17.62,15.05c4.62,5.68,10.72,10.13,18.31,13.36,1.01.43,2.09.76,3.14,1.13l64.6-30.81c-.09-3.26-.55-6.29-1.5-9.03-1.06-3.03-2.71-5.74-4.95-8.12-2.64-2.77-6.17-5.21-10.59-7.32-4.42-2.11-9.8-4.03-16.13-5.74-4.89-1.32-8.75-2.51-11.59-3.57-2.84-1.05-4.98-1.98-6.43-2.77-1.33-.92-2.35-2.05-3.07-3.37-.72-1.32-1.09-2.71-1.09-4.16s.3-2.78.89-3.96c.6-1.19,1.49-2.21,2.67-3.07,1.19-.85,2.67-1.48,4.46-1.88,1.78-.4,3.79-.6,6.04-.6,2.5,0,5.34.53,8.52,1.58,3.17,1.06,6.23,2.51,9.2,4.36,2.97,1.85,5.64,3.89,8.02,6.14"/>
  <polygon class="cls-2" points="455.07 625.89 454.83 653.61 980.19 403.02 980.43 375.3 455.07 625.89"/>
  <path class="cls-1" d="M96.92,98.06c0-18.93-11.39-27.88-28.75-31.03,14.56-3.86,23.67-12.97,23.67-28.76,0-22.97-20.52-31.74-40.33-31.74H6.8v126.77h42.61c23.32,0,47.51-6.66,47.51-35.24M74.83,39.68c0,16.66-12.62,22.09-27.35,22.09h-24.55V19.51h27.01c13.32,0,24.89,5.43,24.89,20.16M79.74,97.37c0,21.21-18.24,22.96-35.07,22.96h-21.74v-46.46h26.82c16.49,0,29.99,4.74,29.99,23.49M191.43,91.93c0-25.78-8.42-48.74-38.05-48.74s-42.08,20.86-42.08,47.34,13.32,44.71,40.85,44.71c20.17,0,35.25-9.65,38.75-30.51h-14.73c-1.93,12.45-10.17,20.17-22.8,20.17-17.88,0-26.65-14.91-26.65-31.22v-1.75h64.7ZM176.18,81.76h-49.09c1.4-14.73,9.47-28.05,25.78-28.05s23.49,13.5,23.32,28.05M256.82,59.14v-14.56c-1.76-.17-3.32-.34-4.91-.34-12.1,0-20.69,4.38-27,14.72l-.7-14.2h-15.08c.17,8.59.53,17.35.53,25.95v62.59h15.43v-47.69c0-16.84,5.96-27.18,24.2-27.18,2.45,0,4.91.35,7.53.7M316.97,133.13v-11.75c-2.98.18-5.44.88-8.24.88-11.22,0-12.1-4.74-12.1-14.73v-52.07h19.82v-10.7h-19.82v-23.67l-15.43,6.48v17.19h-17.36v10.7h17.36v58.21c0,14.73,7.36,20.51,21.57,20.51,4.74,0,9.29-.35,14.2-1.05M409.19,91.93c0-25.78-8.42-48.74-38.04-48.74s-42.08,20.86-42.08,47.34,13.32,44.71,40.85,44.71c20.17,0,35.25-9.65,38.76-30.51h-14.73c-1.93,12.45-10.17,20.17-22.79,20.17-17.89,0-26.65-14.91-26.65-31.22v-1.75h64.7ZM393.94,81.76h-49.09c1.4-14.73,9.47-28.05,25.77-28.05s23.49,13.5,23.32,28.05M442.86,6.54h-15.43v126.77h15.43V6.54ZM533.51,107.71c0-16.13-13.33-21.21-26.66-24.72-5.96-1.58-12.62-2.81-18.23-5.61-4.91-2.46-8.24-5.62-8.24-11.04,0-9.48,10.17-13.15,18.23-13.15,10.35,0,17.19,5.96,17.54,16.31h15.25c-.7-19.46-14.73-26.83-32.43-26.83-15.61,0-33.66,6.84-33.66,25.25,0,15.78,13.5,21.05,26.65,24.38,5.96,1.4,12.62,2.81,18.06,5.43,4.91,2.46,8.24,5.97,8.24,11.75,0,10.52-10.7,15.08-19.99,15.08-12.1,0-19.11-5.79-19.81-18.06h-15.44c0,21.4,15.78,28.76,34.54,28.76,17.36,0,35.95-7.37,35.95-27.53M684.82,133.31v-51.9c0-21.56-5.96-37.7-30.68-37.7-14.02,0-24.37,5.79-30.68,18.23-5.26-12.97-14.38-18.23-28.23-18.23-12.27,0-21.74,5.26-28.05,15.78l-.53-14.73h-15.25c.17,10.16.53,20.34.53,30.33,0,0,.18,23.84,0,58.21h15.43v-49.09c0-14.73,6.83-28.75,23.15-28.75s20.17,12.1,20.17,26.47v51.38h15.43v-49.09c0-15.96,5.43-28.75,22.97-28.75,16.48,0,20.34,11.22,20.34,25.59v52.25h15.43ZM779.15,133.31c-1.23-4.03-2.81-14.37-2.81-25.95v-32.61c0-23.15-11.04-31.74-33.66-31.74-16.65,0-32.26,6.31-33.14,25.6h15.08c1.05-11.57,7.53-15.61,18.41-15.61,14.56,0,19.29,7.72,19.29,21.39,0,1.75.17,5.08.17,5.08-2.63,0-5.61-.17-8.77-.17-21.57,0-50.67,3.15-50.67,29.63,0,18.06,14.56,26.3,31.03,26.3,12.8,0,22.61-3.68,29.98-14.38.53,4.03.88,8.24,1.58,12.45h13.5ZM762.49,89.12c0,17.88-2.28,35.77-24.55,35.77-10.17,0-19.46-5.79-19.46-16.66,0-18.06,22.44-19.63,36.12-19.63,2.98,0,4.38.35,7.89.53M878.39,133.31v-55.05c0-21.74-8.42-34.54-31.56-34.54-12.8,0-21.75,5.09-28.93,15.25l-.53-14.2h-15.25c.17,5.08.53,15.25.53,22.79v65.75h15.43v-44.18c0-16.31,5.26-33.66,24.38-33.66s20.52,13.32,20.52,28.75v49.09h15.43ZM980.44,133.31v-55.05c0-21.74-8.41-34.54-31.56-34.54-12.8,0-21.74,5.09-28.93,15.25l-.53-14.2h-15.26c.18,5.08.53,15.25.53,22.79v65.75h15.43v-44.18c0-16.31,5.26-33.66,24.36-33.66s20.53,13.32,20.53,28.75v49.09h15.43Z"/>
</svg>