<svg id="Group_858" data-name="Group 858" xmlns="http://www.w3.org/2000/svg" width="686.534" height="686.534" viewBox="0 0 686.534 686.534">
  <g id="Group_858-2" data-name="Group 858">
    <path id="Path_4039" data-name="Path 4039" d="M818.219,925.795A342.988,342.988,0,0,0,1134.5,1135.444a346.086,346.086,0,0,0,53.177-4.081l-1.559-11.483a331.947,331.947,0,0,1-51.618,4.014c-182.912,0-331.713-148.811-331.713-331.722S951.591,460.46,1134.5,460.46s331.722,148.8,331.722,331.713A329.623,329.623,0,0,1,1437.792,926.5l1.252.462,5.226,13.321q3.422-7.146,6.526-14.485a343.267,343.267,0,1,0-632.577,0Z" transform="translate(-791.24 -448.91)" fill="#f4847a"/>
  </g>
  <path id="Path_4048" data-name="Path 4048" d="M826.05,646.534c112.689-17.681,206.733-92.293,251.672-193.383l1.251.462,5.226,13.321a343.126,343.126,0,0,1-256.59,191.083Z" transform="translate(-431.169 24.437)" fill="#fff"/>
</svg>
