<svg xmlns="http://www.w3.org/2000/svg" width="97.784" height="64.36" viewBox="0 0 97.784 64.36">
  <g id="Group_15291" data-name="Group 15291" transform="translate(-250.283 -3263.515)">
    <path id="Path_27973" data-name="Path 27973" d="M348.067,3294.023c-.121.369-.215.75-.365,1.107a4.92,4.92,0,0,1-4.584,2.981,8.073,8.073,0,0,1-4.615-1.008c-.406-.223-.524-.458-.265-.878a10.016,10.016,0,0,0,.58-1.146c.158-.35.346-.38.684-.2a5.393,5.393,0,0,0,3.546.651,2.339,2.339,0,0,0,2.02-2.969c-.183-.039-.276.117-.4.2a4.937,4.937,0,0,1-7.627-3.589,6.017,6.017,0,0,1,1.067-4.477,4.807,4.807,0,0,1,6.672-1.009c.121.086.245.169.413.284a2.369,2.369,0,0,0,.056-.392c-.021-.424.168-.593.595-.576.739.028,1.48.024,2.22.033Zm-2.828-5.76a2.6,2.6,0,0,0-2.344-2.885c-2.05-.159-2.988,1.381-2.963,3.01a2.73,2.73,0,0,0,1.813,2.666C343.632,3291.652,345.237,3290.37,345.239,3288.263Z" fill="#1c335d"/>
    <path id="Path_27974" data-name="Path 27974" d="M256.137,3263.515a7.864,7.864,0,0,1,1.921.661,3.021,3.021,0,0,1-.1,5.175,3.394,3.394,0,0,0-.3.177c.058.24.263.227.412.287a2.855,2.855,0,0,1,1.91,2.75,3.112,3.112,0,0,1-1.47,2.989,5.2,5.2,0,0,1-2.622.717c-1.5.035-3,.007-4.5.016-.355,0-.545-.112-.543-.5q.021-6.135.03-12.271Zm-3.5,9.106c0,.583,0,1.166,0,1.748,0,.313.132.467.453.463.913-.011,1.831.041,2.739-.036a2.177,2.177,0,1,0,.189-4.349c-.949-.06-1.9-.017-2.856-.033-.366-.006-.536.143-.528.517C252.643,3271.494,252.634,3272.058,252.635,3272.621Zm0-5.684c0,.525,0,1.05,0,1.575,0,.3.112.478.442.475.856-.008,1.715.035,2.568-.024a1.989,1.989,0,0,0,1.981-1.92,1.843,1.843,0,0,0-1.755-2.011,17.531,17.531,0,0,0-2.853-.078c-.318-.007-.382.206-.382.466C252.635,3265.926,252.634,3266.432,252.635,3266.937Z" fill="#1c335d"/>
    <path id="Path_27975" data-name="Path 27975" d="M348.067,3276.256c-1.673.126-1.664.126-1.676-1.552-.01-1.419.05-2.839-.088-4.257-.1-1.056-.5-1.655-1.311-1.842a2.144,2.144,0,0,0-2.5,1.044,4.543,4.543,0,0,0-.47,2.145c-.016,1.265-.026,2.53.005,3.8.013.532-.162.718-.7.706-1-.022-1,.005-1-.988,0-2.394,0-4.788-.016-7.182,0-.473-.008-.826.652-.8,1,.036,1,0,1.042.787,0,.076.015.153.022.217.129.091.195,0,.257-.064a3.648,3.648,0,0,1,3.784-.879,2.561,2.561,0,0,1,1.889,2.224c.038.19.072.38.109.57Z" fill="#1c335d"/>
    <path id="Path_27976" data-name="Path 27976" d="M294.5,3263.515q0,5.981,0,11.961c0,.272.125.673-.24.759a2.03,2.03,0,0,1-1.371-.05c-.234-.118-.143-.462-.143-.709q0-5.981,0-11.961Z" fill="#1c335d"/>
    <path id="Path_27977" data-name="Path 27977" d="M261.667,3284.975c-1,1.546-1.925,2.984-2.856,4.42a1.226,1.226,0,0,1-2.247-.037c-.875-1.38-1.75-2.76-2.722-4.295,0,.778-.039,1.386.007,1.987.15,1.985.023,3.972.07,5.957.01.42-.159.6-.59.582-.6-.022-1.21-.029-1.812,0-.505.026-.691-.153-.681-.669.026-1.441.008-2.883.008-4.325q0-4.09,0-8.181c0-.79.019-.713.764-.818a2.657,2.657,0,0,1,3.122,1.692,49.978,49.978,0,0,0,2.69,4.447c.316.51.368.506.688-.007,1.156-1.85,2.321-3.7,3.457-5.557a1,1,0,0,1,1.04-.565,6.866,6.866,0,0,0,1.227,0c.58-.054.778.15.773.752-.027,3.272-.013,6.545-.013,9.817,0,.936-.018,1.871.007,2.8.012.463-.169.624-.618.607-.622-.025-1.247-.017-1.871,0-.375.007-.518-.154-.514-.525C261.623,3290.415,261.544,3287.768,261.667,3284.975Z" fill="#1c335d"/>
    <path id="Path_27978" data-name="Path 27978" d="M255.974,3311.006a6.578,6.578,0,0,1-5.4-2.214c-.323-.361-.447-.63-.036-1.021a11.978,11.978,0,0,0,1.112-1.276c.294-.373.5-.446.832,0a4.37,4.37,0,0,0,3.063,1.846,3.455,3.455,0,0,0,1.667-.177,1.184,1.184,0,0,0,.892-.976,1.231,1.231,0,0,0-.6-1.24,4.733,4.733,0,0,0-1.732-.671,11.383,11.383,0,0,1-2.455-.743,3.823,3.823,0,0,1-2.448-3.357,3.886,3.886,0,0,1,1.769-3.6c2.008-1.454,6.18-1.366,7.961.794.535.649.563.671-.037,1.268-.29.289-.609.552-.87.865-.355.425-.613.447-1.008.005a3.367,3.367,0,0,0-3.488-1.094,1.284,1.284,0,0,0-1.149,1.082c-.078.607.184.985.9,1.343a5.89,5.89,0,0,0,1.443.459,11.208,11.208,0,0,1,2.708.9,3.968,3.968,0,0,1,.355,6.91A5.857,5.857,0,0,1,255.974,3311.006Z" fill="#1c335d"/>
    <path id="Path_27979" data-name="Path 27979" d="M291.494,3286.818c1.162-1.136,2.251-2.163,3.291-3.236a1.646,1.646,0,0,1,1.373-.587c.816.044,1.636.007,2.454.015.144,0,.349-.074.414.109s-.125.268-.233.369c-1.3,1.227-2.6,2.467-3.93,3.663-.424.381-.4.623-.048,1.033,1.332,1.576,2.63,3.181,3.931,4.782.125.154.39.307.263.531-.1.173-.359.083-.548.085-.74.006-1.481-.017-2.221.01a1.051,1.051,0,0,1-.941-.46c-.787-1.016-1.582-2.026-2.4-3.019-.166-.2-.3-.658-.61-.49-.362.2-.789.472-.794,1-.007.739-.04,1.481.007,2.218.039.61-.2.79-.775.749s-1.129-.019-1.694-.008c-.346.007-.5-.148-.5-.487,0-.272,0-.545,0-.817q0-6.308,0-12.615c0-.849.009-.855.836-.858.487,0,.975.024,1.46-.006.51-.032.68.165.675.675-.022,2.2-.009,4.4-.009,6.6Z" fill="#1c335d"/>
    <path id="Path_27980" data-name="Path 27980" d="M274.225,3292.469a4.741,4.741,0,0,1-2.211,1.214,4.246,4.246,0,0,1-4.442-1.663,6.279,6.279,0,0,1,.332-7.864,4.388,4.388,0,0,1,6.2-.212,1.2,1.2,0,0,0,.141.1c.034-.029.083-.049.085-.075.1-.961.1-.961,1.092-.961.409,0,.82.026,1.227-.006.524-.041.671.193.669.685q-.021,4.612,0,9.225c0,.5-.155.713-.674.682a12.731,12.731,0,0,0-1.635,0c-.546.037-.816-.145-.748-.719A2.658,2.658,0,0,0,274.225,3292.469Zm.121-4.218c0-.175.015-.351,0-.525a2.609,2.609,0,0,0-1.746-2.272,2.43,2.43,0,0,0-2.674.83,3.46,3.46,0,0,0,.188,4.209,2.223,2.223,0,0,0,1.556.7C273.326,3291.26,274.364,3290.128,274.346,3288.251Z" fill="#1c335d"/>
    <path id="Path_27981" data-name="Path 27981" d="M305.99,3289.016c-1.014,0-2.027,0-3.04,0-.59,0-.648.113-.365.65a3.227,3.227,0,0,0,3.258,1.482,3.52,3.52,0,0,0,1.663-.666c.309-.243.532-.241.759.112.274.425.581.829.886,1.233a.361.361,0,0,1-.083.591,6.29,6.29,0,0,1-6.457.872,4.924,4.924,0,0,1-3.185-4.985,5.286,5.286,0,0,1,7.367-5.144c2.266.955,3.149,3.051,2.938,5.452-.034.393-.3.4-.584.4C308.094,3289.016,307.042,3289.015,305.99,3289.016Zm-1.357-1.912v0c.585,0,1.169,0,1.754,0s.638-.1.409-.6a2.235,2.235,0,0,0-2.055-1.2,2.4,2.4,0,0,0-2.249,1.405c-.1.29-.025.4.27.4C303.386,3287.1,304.009,3287.1,304.633,3287.1Z" fill="#1c335d"/>
    <path id="Path_27982" data-name="Path 27982" d="M318.017,3306.214c-1.032,0-2.064,0-3.1,0-.6,0-.647.091-.372.633a2.484,2.484,0,0,0,1.382,1.279,3.619,3.619,0,0,0,3.556-.375c.354-.259.558-.244.792.124.259.411.556.8.848,1.188a.4.4,0,0,1-.084.642c-2.457,1.948-6.668,1.8-8.615-.829-1.968-2.661-1.114-7.761,3.074-8.717a5.04,5.04,0,0,1,6.269,5.612c-.041.367-.226.445-.54.443C320.16,3306.209,319.088,3306.213,318.017,3306.214Zm-1.366-1.824c.565,0,1.13.005,1.694,0,.584-.007.7-.193.411-.7a2.117,2.117,0,0,0-2.159-1.095,2.268,2.268,0,0,0-2.067,1.289c-.157.335-.1.517.311.51C315.444,3304.382,316.048,3304.389,316.651,3304.39Z" fill="#1c335d"/>
    <path id="Path_27983" data-name="Path 27983" d="M269.32,3306.215c-1.052,0-2.105.015-3.157-.007-.482-.01-.536.173-.351.555a2.578,2.578,0,0,0,1.453,1.368,3.573,3.573,0,0,0,3.5-.364c.373-.27.593-.265.836.126a8.855,8.855,0,0,0,.748,1.045c.329.39.206.64-.165.9a6.035,6.035,0,0,1-2.677,1.1c-2.327.3-4.431-.147-5.844-2.2a5.6,5.6,0,0,1-.358-5.736,4.907,4.907,0,0,1,4.307-2.949c3.034-.3,5.708,1.97,5.478,5.664-.023.37-.2.5-.559.5-1.072-.011-2.144,0-3.216,0Zm-1.348-1.825c.565,0,1.13,0,1.7,0,.6,0,.67-.119.433-.636a2.216,2.216,0,0,0-2.241-1.165,2.353,2.353,0,0,0-2.068,1.392c-.117.327-.009.419.309.413C266.724,3304.382,267.348,3304.39,267.972,3304.39Z" fill="#1c335d"/>
    <path id="Path_27984" data-name="Path 27984" d="M328.364,3284.119a4.407,4.407,0,0,1,3.771-1.3,3.277,3.277,0,0,1,2.953,3.431c.079,2.276.021,4.556.033,6.835,0,.392-.185.506-.54.5-.584-.012-1.171-.028-1.753.006-.515.029-.684-.177-.678-.679.019-1.674.007-3.349.007-5.024,0-.175,0-.351,0-.526-.012-1.446-.443-1.976-1.614-1.985a1.952,1.952,0,0,0-2.2,2.08c-.013,1.753,0,3.506,0,5.258,0,.866,0,.867-.869.868-.507,0-1.014-.014-1.52,0-.391.013-.575-.134-.574-.538q.008-4.761,0-9.523c0-.362.149-.534.526-.523.526.015,1.054.023,1.578,0,.476-.024.807.068.78.642A2.154,2.154,0,0,0,328.364,3284.119Z" fill="#1c335d"/>
    <path id="Path_27985" data-name="Path 27985" d="M305.936,3311.015c-2.824.163-5.013-2.393-5.2-4.939a5.358,5.358,0,0,1,4.215-5.917,5.617,5.617,0,0,1,5.15,1.4c.321.308.415.564.068.922s-.663.764-.976,1.161c-.219.278-.372.292-.641.021a3.094,3.094,0,0,0-2.35-.988,2.586,2.586,0,0,0-2.574,2.739,2.718,2.718,0,0,0,2.482,2.981,2.9,2.9,0,0,0,2.382-.881c.322-.336.528-.287.781.054a9.026,9.026,0,0,0,.852,1.036c.382.381.27.661-.081.965A5.893,5.893,0,0,1,305.936,3311.015Z" fill="#1c335d"/>
    <path id="Path_27986" data-name="Path 27986" d="M288.777,3307c.525-1.413.992-2.667,1.457-3.922.284-.767.579-1.529.84-2.3a.7.7,0,0,1,.759-.567c.681.021,1.363.009,2.044.005.375,0,.56.1.374.52q-2.151,4.857-4.287,9.719a.878.878,0,0,1-.115.2c-.39.47-2.294.23-2.532-.33q-1.525-3.6-3.035-7.207c-.332-.789-.654-1.583-1-2.367-.17-.39-.049-.54.356-.537.74,0,1.48.015,2.219,0,.465-.012.579.307.7.646q1,2.805,2,5.607C288.6,3306.593,288.658,3306.715,288.777,3307Z" fill="#1c335d"/>
    <path id="Path_27987" data-name="Path 27987" d="M306.895,3268.512a3.284,3.284,0,0,1,2.988-1.282,2.619,2.619,0,0,1,2.283,1.292c.173.3.275.276.485.018a3.655,3.655,0,0,1,4.27-1.058,2.5,2.5,0,0,1,1.444,1.731,5.877,5.877,0,0,1,.224,1.614c.017,1.6.011,3.192,0,4.788,0,.657-.038.656-.9.677-.5.012-.8-.052-.784-.68.042-1.264.009-2.53.013-3.8a10.725,10.725,0,0,0-.094-1.571,1.689,1.689,0,0,0-1.5-1.67,2.033,2.033,0,0,0-2.35,1.2,3.942,3.942,0,0,0-.229,1.548c0,1.4,0,2.8-.005,4.2,0,.257.1.629-.234.709a2.04,2.04,0,0,1-1.315-.051c-.172-.079-.119-.314-.12-.485,0-1.012-.008-2.024,0-3.036a21.831,21.831,0,0,0-.094-2.272c-.105-1.053-.574-1.673-1.425-1.808a2.1,2.1,0,0,0-2.367,1.192,3.6,3.6,0,0,0-.29,1.535c.008,1.382,0,2.764,0,4.147,0,.812-.016.824-.8.827-.136,0-.273-.01-.409,0-.412.032-.564-.178-.545-.561.029-.6.084-1.2.078-1.805-.02-1.945-.067-3.889-.09-5.834,0-.253-.116-.627.233-.7a2.286,2.286,0,0,1,1.32.043c.136.053.108.235.125.368A1.661,1.661,0,0,0,306.895,3268.512Z" fill="#1c335d"/>
    <path id="Path_27988" data-name="Path 27988" d="M314.054,3293.584c-1.679-.024-1.442.226-1.453-1.455-.012-1.946-.018-3.893.008-5.839.007-.522-.17-.662-.674-.659-1.439.009-1.312.229-1.313-1.292,0-1.562-.122-1.327,1.347-1.324.481,0,.667-.149.637-.636-.032-.5,0-1.011-.009-1.517-.009-.366.138-.54.513-.534.643.009,1.286.012,1.928,0,.416-.009.546.2.535.577-.012.447.03.9-.01,1.342-.051.574.13.846.743.767.287-.037.584,0,.875,0,.334-.01.51.122.505.476-.009.565-.007,1.129,0,1.694,0,.311-.127.471-.451.463s-.626.029-.934,0c-.551-.059-.748.137-.739.712.03,2.082.012,4.165.011,6.248,0,.988,0,.988-.992.988Z" fill="#1c335d"/>
    <path id="Path_27989" data-name="Path 27989" d="M327.047,3300.053a6.23,6.23,0,0,1,4.076,1.34c.3.243.34.445.047.7a1.04,1.04,0,0,0-.079.086c-.355.387-.643.93-1.083,1.121-.516.225-.842-.474-1.32-.656a2.861,2.861,0,0,0-2.028-.285.826.826,0,0,0-.653.734.793.793,0,0,0,.511.782,8.787,8.787,0,0,0,1.541.536,7.114,7.114,0,0,1,2.5,1.095,2.384,2.384,0,0,1,.611.7c.549.946.43,1.335-.551,1.8-1.634.779-3.286,1.525-4.9,2.352a1.52,1.52,0,0,1-1.63-.067c-1.452-.849-1.481-1.034-.248-2.09.118-.1.241-.2.352-.308.263-.26.474-.274.787-.006a3.389,3.389,0,0,0,2.92.835.833.833,0,0,0,.766-.765c.044-.472-.27-.705-.663-.84-.46-.158-.925-.3-1.392-.436a9.368,9.368,0,0,1-1.8-.682,2.889,2.889,0,0,1-1.686-2.947,2.942,2.942,0,0,1,1.889-2.532A4.172,4.172,0,0,1,327.047,3300.053Z" fill="#1c335d"/>
    <path id="Path_27990" data-name="Path 27990" d="M277.934,3301.66a3.809,3.809,0,0,1,3.419-1.592c.78.072.864.165.676.937-.157.642-.33,1.281-.468,1.927-.081.379-.205.531-.63.379a2.152,2.152,0,0,0-2.937,2.241c.084,1.513,0,3.035.025,4.552.009.541-.159.793-.732.76s-1.168-.015-1.752-.006c-.386.005-.571-.158-.57-.556q.006-4.758,0-9.515c0-.435.209-.583.614-.574.525.012,1.053.026,1.577,0,.557-.033.794.191.745.746A5.623,5.623,0,0,0,277.934,3301.66Z" fill="#1c335d"/>
    <path id="Path_27991" data-name="Path 27991" d="M283.034,3284.388a4.744,4.744,0,0,1,.525-.684,3.361,3.361,0,0,1,3.023-.853c.429.079.556.265.444.678-.194.713-.386,1.427-.535,2.15-.085.412-.242.479-.642.372a2.157,2.157,0,0,0-2.672.956,2.5,2.5,0,0,0-.253,1.242c0,1.537-.018,3.074.009,4.611.01.557-.179.772-.742.733s-1.129-.019-1.693-.007c-.355.007-.54-.109-.539-.5q.012-4.785,0-9.57c0-.381.163-.52.527-.511a15.011,15.011,0,0,0,1.576-.008c.6-.049.82.207.763.776-.015.152,0,.307,0,.46Z" fill="#1c335d"/>
    <path id="Path_27992" data-name="Path 27992" d="M266.128,3272.185h-2.687c-.246,0-.495.013-.48.353.077,1.692,1.293,3.135,3.2,2.676a1.937,1.937,0,0,0,1.42-1.342,1.306,1.306,0,0,1,1.588-.524c.191.131.111.321.07.48a3.245,3.245,0,0,1-1.8,2.24,4.14,4.14,0,0,1-6.168-3.492,5.688,5.688,0,0,1,.793-3.7,4.15,4.15,0,0,1,4.433-1.623,3.521,3.521,0,0,1,2.741,3.06c.35,1.867.35,1.867-1.538,1.867Zm-.753-1.2h1.864c.268,0,.438-.081.449-.4a2.386,2.386,0,0,0-1.489-2.113,2.436,2.436,0,0,0-3.119,2.055c-.036.342.119.457.43.456C264.131,3270.987,264.753,3270.989,265.375,3270.989Z" fill="#1c335d"/>
    <path id="Path_27993" data-name="Path 27993" d="M287.864,3272.186c-.9,0-1.791.006-2.687,0-.339,0-.484.121-.487.481a2.565,2.565,0,0,0,2.917,2.612,2.02,2.02,0,0,0,1.715-1.473,1.3,1.3,0,0,1,1.575-.42c.164.142.092.32.049.487a3.384,3.384,0,0,1-1.279,1.9,4.582,4.582,0,0,1-5.6-.476,3.57,3.57,0,0,1-.894-1.681,6.76,6.76,0,0,1,.1-3.686,3.808,3.808,0,0,1,4.182-2.749,3.542,3.542,0,0,1,3.553,3.546c.145,1.515.457,1.47-1.335,1.459-.6,0-1.207,0-1.811,0Zm-.808-1.2c.643,0,1.286,0,1.929,0,.226,0,.462-.027.428-.337a2.39,2.39,0,0,0-1.58-2.183,2.452,2.452,0,0,0-3.074,2.146c-.04.378.186.373.426.375C285.808,3270.994,286.432,3270.991,287.056,3270.99Z" fill="#1c335d"/>
    <path id="Path_27994" data-name="Path 27994" d="M326.318,3275.3a3.972,3.972,0,0,1-4.261.971,2.432,2.432,0,0,1-1.816-2.322,2.516,2.516,0,0,1,1.436-2.533,8.557,8.557,0,0,1,3.759-.672c.725-.016.8-.1.708-.815a1.9,1.9,0,0,0-2.948-1.378,1.124,1.124,0,0,0-.557.787.547.547,0,0,1-.685.519,3.859,3.859,0,0,0-.526,0c-.47.024-.57-.216-.475-.626a2.48,2.48,0,0,1,1.928-1.905,5.383,5.383,0,0,1,2.828-.015c1.33.345,1.967,1.286,2,2.983.028,1.284.024,2.569.017,3.853a9.007,9.007,0,0,0,.161,1.682c.066.354-.08.439-.4.46C326.564,3276.348,326.524,3276.326,326.318,3275.3Zm-1.15-3.453a5.747,5.747,0,0,0-2.172.374,1.56,1.56,0,0,0-.6,2.577,2.262,2.262,0,0,0,3.436-.677,5.041,5.041,0,0,0,.336-1.767c.017-.334-.113-.521-.47-.508C325.519,3271.853,325.344,3271.848,325.168,3271.848Z" fill="#1c335d"/>
    <path id="Path_27995" data-name="Path 27995" d="M331.891,3268.488a3.559,3.559,0,0,1,2.858-1.268c2.017.033,3.023,1.009,3.123,3.263.077,1.75.014,3.506.023,5.259,0,.4-.169.539-.565.55-1.112.029-1.1.042-1.115-1.042-.026-1.615.08-3.232-.088-4.845-.11-1.053-.52-1.639-1.349-1.808a2.142,2.142,0,0,0-2.45,1.043,4.551,4.551,0,0,0-.478,2.145c-.017,1.266-.025,2.533,0,3.8.012.525-.15.724-.7.712-1.005-.023-1.005,0-1.007-.986q0-3.565-.008-7.13c0-.412-.126-.869.591-.855,1.051.02,1.052-.018,1.1.847C331.837,3268.229,331.854,3268.285,331.891,3268.488Z" fill="#1c335d"/>
    <path id="Path_27996" data-name="Path 27996" d="M300.028,3267.1a4.022,4.022,0,0,1,2.179.591,2.478,2.478,0,0,1,1.046,1.813c.015.106,0,.282-.063.324-.388.251-.829.108-1.249.115-.284,0-.306-.231-.374-.439a1.876,1.876,0,0,0-3.009-.729,1.013,1.013,0,0,0,.03,1.54,2.849,2.849,0,0,0,1.153.541c.693.2,1.4.355,2.072.606a2.254,2.254,0,0,1,1.691,2.147,2.446,2.446,0,0,1-1.462,2.4,5.028,5.028,0,0,1-4.246.078,2.39,2.39,0,0,1-1.446-2.044c-.051-.376.064-.609.49-.595.234.008.468,0,.7,0a.443.443,0,0,1,.51.432c.248,1.688,2.533,1.673,3.377.853a1.146,1.146,0,0,0-.215-1.882,5.961,5.961,0,0,0-1.762-.6,7.1,7.1,0,0,1-1.651-.571,2.06,2.06,0,0,1-1.235-1.835,2.238,2.238,0,0,1,1.125-2.156A4.57,4.57,0,0,1,300.028,3267.1Z" fill="#1c335d"/>
    <path id="Path_27997" data-name="Path 27997" d="M296,3305.478c0-1.539.013-3.078-.008-4.617-.006-.481.169-.67.648-.651.6.023,1.208.012,1.812.006.365,0,.523.152.522.528q-.011,4.793,0,9.584c0,.376-.158.532-.522.528-.6,0-1.209-.017-1.813.007-.479.019-.653-.171-.647-.652C296.013,3308.633,296,3307.055,296,3305.478Z" fill="#1c335d"/>
    <path id="Path_27998" data-name="Path 27998" d="M319.611,3288.27c0-1.539.012-3.078-.008-4.617-.006-.469.136-.678.63-.653.6.03,1.209.019,1.813,0,.379-.009.526.163.525.525q0,4.763,0,9.525c0,.408-.191.545-.578.534-.6-.017-1.209-.02-1.813,0-.431.015-.581-.161-.577-.586C319.62,3291.426,319.611,3289.848,319.611,3288.27Z" fill="#1c335d"/>
    <path id="Path_27999" data-name="Path 27999" d="M278.206,3271.862c0-.9-.017-1.792.008-2.687.012-.444-.12-.668-.593-.616-.154.017-.312-.01-.467,0-.475.042-.713-.1-.709-.644s.275-.618.7-.582a.511.511,0,0,0,.058,0c1.1-.006.992.1,1.008-1.007,0-.259-.112-.584.183-.748a3.622,3.622,0,0,1,1.295-.506c.2-.026.2.205.2.355.01.467.021.935.005,1.4-.013.381.15.53.523.508.291-.018.586.017.876-.007.476-.039.6.194.6.628,0,.411-.136.591-.573.606-1.422.051-1.422.065-1.422,1.472,0,1.266,0,2.531,0,3.8.006.975.367,1.3,1.333,1.2.273-.025.593-.2.66.291.094.679-.008.908-.531,1a4.363,4.363,0,0,1-1.512.013,1.725,1.725,0,0,1-1.638-1.916c-.014-.856,0-1.713,0-2.569Z" fill="#1c335d"/>
    <path id="Path_28000" data-name="Path 28000" d="M272.8,3268.44a3.081,3.081,0,0,1,2.313-1.172c.28-.016.659-.112.758.247a1.823,1.823,0,0,1-.04,1.254c-.087.187-.309.1-.48.08a2.715,2.715,0,0,0-1.317.17,1.973,1.973,0,0,0-1.246,2.051c-.039,1.5-.013,2.995-.02,4.493,0,.71-.023.722-.847.722s-.835,0-.837-.727c-.005-2.121,0-4.241-.01-6.361,0-.407-.043-.814-.076-1.22s.082-.692.573-.641a1.512,1.512,0,0,0,.35,0c.535-.071.818.116.764.7A1.463,1.463,0,0,0,272.8,3268.44Z" fill="#1c335d"/>
    <path id="Path_28001" data-name="Path 28001" d="M322.832,3279.384a1.656,1.656,0,0,1-1.791,1.657,1.587,1.587,0,0,1-1.774-1.6,1.632,1.632,0,0,1,1.794-1.645A1.563,1.563,0,0,1,322.832,3279.384Z" fill="#1c335d"/>
    <path id="Path_28002" data-name="Path 28002" d="M297.436,3298.262a1.577,1.577,0,0,1-1.776-1.58,1.678,1.678,0,0,1,1.831-1.625,1.617,1.617,0,0,1,1.775,1.6A1.641,1.641,0,0,1,297.436,3298.262Z" fill="#1c335d"/>
    <path id="Path_28003" data-name="Path 28003" d="M347.653,3300.014l-.005,0c-5.716,2.721-11.728,6-17.443,8.725q-6.279,2.989-12.555,5.983c-6.839,3.261-13.686,6.507-20.513,9.793-.506.243-.852.384-1.09.5v2.862c.13-.052.293-.128.5-.227q7.754-3.7,15.507-7.4,8.808-4.2,17.618-8.4c5.7-2.719,11.672-6.032,17.389-8.7a4.514,4.514,0,0,0,.593-.323Z" fill="#1799d5"/>
  </g>
</svg>
