<svg xmlns="http://www.w3.org/2000/svg" width="100.759" height="27.353" viewBox="0 0 100.759 27.353">
  <g id="Group_688" data-name="Group 688" transform="translate(-170.25 -14.181)">
    <path id="Path_4009" data-name="Path 4009" d="M208.712,14.181h-5.735V41.413h5.735Zm-10.989,0h-5.736V41.413h5.736Zm-15.5,19.111c0,3.615-1.928,4.193-4.41,4.193h-2V29.267h2c3.085,0,4.41,1.013,4.41,4.025m-.217-11.616c0,2.94-1.421,3.808-4.193,3.76l-2-.049V18.134h2.121c2.361,0,4.072.6,4.072,3.542m5.881,12.243c0-4-1.278-6.17-5.085-6.821,3.3-.674,4.7-2.675,4.7-6.169,0-5.47-3.35-6.748-7.88-6.748H170.25V41.413h8.17c5.494,0,9.471-.964,9.471-7.494" fill="#de2c34"/>
    <path id="Path_4010" data-name="Path 4010" d="M271.009,40.04c0-.868-.7-1.133-1.4-1.3-.169-.048-.337-.072-.506-.12a1.435,1.435,0,0,1-.458-.145c-.265-.1-.41-.241-.41-.482,0-.361.362-.506.675-.506a.677.677,0,0,1,.7.723h1.277c-.072-1.108-.964-1.47-1.952-1.47-.867,0-1.928.289-1.928,1.374,0,.843.675,1.108,1.35,1.277.169.048.337.072.482.121a1.839,1.839,0,0,1,.434.144c.241.1.433.241.433.506a.681.681,0,0,1-.747.6c-.53,0-.747-.289-.771-.8h-1.325c0,1.23.964,1.567,2.024,1.567.964,0,2.121-.313,2.121-1.494m-4.748-2.29v-.867H265.2V35.6l-1.277.531v.747h-.868v.867h.868v2.507c0,.988.482,1.205,1.4,1.205a6.19,6.19,0,0,0,.94-.073v-.843c-.144,0-.289.024-.409.024-.6,0-.627-.241-.627-.771V37.75Zm-3.807,3.663V38.5a1.472,1.472,0,0,0-1.639-1.662,1.728,1.728,0,0,0-1.494.771l-.024-.7h-1.3c.024.313.024.6.024.892v3.614h1.3V39.148c0-.506.12-1.422.94-1.422.8,0,.843.7.843,1.326v2.385h1.35Zm-6.411-2.771h-1.976a1.007,1.007,0,0,1,1.036-1.109c.627,0,.94.434.94,1.109m1.253.771a3.413,3.413,0,0,0-.192-1.422,1.993,1.993,0,0,0-2-1.205,2.178,2.178,0,0,0-2.337,2.458,2.081,2.081,0,0,0,2.289,2.29c1.061,0,2.024-.386,2.193-1.567h-1.277a.832.832,0,0,1-.916.8c-.771,0-1.036-.651-1.036-1.326H257.3Zm-5.277,2V38.618c0-1.06-.458-1.783-1.615-1.783a1.778,1.778,0,0,0-1.615.867,1.376,1.376,0,0,0-1.422-.867,1.663,1.663,0,0,0-1.518.771l-.024-.7h-1.277c.024.506.024,1.012.024,1.494v3.012h1.3V38.907c0-.626.217-1.205.94-1.205s.844.6.844,1.205v2.506h1.3V38.931c0-.626.145-1.229.916-1.229s.843.579.843,1.181v2.53ZM243.7,37.75v-.867h-1.06V35.6l-1.277.531v.747H240.5v.867h.868v2.507c0,.988.482,1.205,1.4,1.205a6.187,6.187,0,0,0,.939-.073v-.843c-.144,0-.289.024-.409.024-.6,0-.627-.241-.627-.771V37.75Zm-3.542,2.29c0-.868-.7-1.133-1.4-1.3-.169-.048-.337-.072-.506-.12a1.436,1.436,0,0,1-.458-.145c-.265-.1-.41-.241-.41-.482,0-.361.362-.506.675-.506a.677.677,0,0,1,.7.723h1.277c-.072-1.108-.964-1.47-1.952-1.47-.867,0-1.928.289-1.928,1.374,0,.843.675,1.108,1.35,1.277.169.048.337.072.482.121a1.839,1.839,0,0,1,.434.144c.241.1.433.241.433.506a.681.681,0,0,1-.747.6c-.53,0-.747-.289-.771-.8h-1.325c0,1.23.964,1.567,2.024,1.567.988,0,2.121-.313,2.121-1.494m-6.049-1.4h-1.976a1.007,1.007,0,0,1,1.036-1.109c.627,0,.94.434.94,1.109m1.277.771a3.4,3.4,0,0,0-.193-1.422,1.991,1.991,0,0,0-2-1.205,2.178,2.178,0,0,0-2.337,2.458,2.081,2.081,0,0,0,2.289,2.29c1.06,0,2.024-.386,2.193-1.567h-1.277a.832.832,0,0,1-.916.8c-.771,0-1.036-.651-1.036-1.326h3.277Zm-4.723-2.506h-1.278L228.16,40.4l-1.18-3.494h-1.4l1.831,4.506h1.422Zm-5.543,4.506V38.5a1.472,1.472,0,0,0-1.639-1.662,1.729,1.729,0,0,0-1.494.771l-.024-.7h-1.3c.024.313.024.6.024.892v3.614h1.3V39.148c0-.506.121-1.422.94-1.422.795,0,.843.7.843,1.326v2.385h1.35Zm-5.688-6.482h-1.4v6.482h1.4Z" fill="#192853"/>
    <path id="Path_4011" data-name="Path 4011" d="M236.933,28.906c0,.675-.145,1.422-.989,1.422a.685.685,0,0,1-.723-.675c0-.7.844-.843,1.4-.843h.338v.1Zm1.349,2.1a11.253,11.253,0,0,1-.072-1.543V28.111c0-1.47-.747-1.76-1.976-1.76-.94,0-2,.314-2.025,1.422h1.326a.624.624,0,0,1,.7-.7c.578,0,.674.458.674.94v.169h-.361c-1.036,0-2.651.12-2.651,1.542,0,.94.7,1.374,1.566,1.374a1.561,1.561,0,0,0,1.446-.7,2.837,2.837,0,0,0,.1.627h1.277ZM233.125,26.5h-1.3v4.531h1.3Zm.024-1.952H231.8V25.58h1.35Zm-3.76,4.193c0,.651-.241,1.518-1.036,1.518-.867,0-1.06-.843-1.06-1.542,0-.675.193-1.494.988-1.494.843,0,1.108.819,1.108,1.518M230.715,31a10.33,10.33,0,0,1-.048-1.2V24.544h-1.3v2.53a1.718,1.718,0,0,0-1.47-.674c-1.4,0-1.952,1.229-1.952,2.361,0,1.253.627,2.338,2,2.338a1.61,1.61,0,0,0,1.4-.7l.048.6Zm-5.591,0V28.087a1.472,1.472,0,0,0-1.639-1.663,1.729,1.729,0,0,0-1.494.771l-.024-.7h-1.3c.024.313.024.6.024.892V31h1.3V28.737c0-.506.121-1.422.94-1.422.795,0,.843.7.843,1.326v2.386h1.35Zm-5.688-6.459h-1.4v6.483h1.4Z" fill="#192853"/>
    <path id="Path_4012" data-name="Path 4012" d="M267.731,20.664v-2.82c0-1.108-.433-1.759-1.614-1.759a1.685,1.685,0,0,0-1.47.771l-.024-.723h-.772c0,.265.024.771.024,1.157v3.35h.8V18.375c0-.844.265-1.711,1.253-1.711.964,0,1.036.674,1.036,1.47V20.64h.771Zm-5.2,0v-2.82c0-1.108-.434-1.759-1.615-1.759a1.687,1.687,0,0,0-1.47.771l-.024-.723h-.771c0,.265.024.771.024,1.157v3.35h.795V18.375c0-.844.265-1.711,1.253-1.711.964,0,1.037.674,1.037,1.47V20.64h.771Zm-5.9-2.265c0,.915-.121,1.831-1.254,1.831a.878.878,0,0,1-.988-.843c0-.916,1.157-1.012,1.832-1.012.144,0,.217.024.41.024m.843,2.265a5.011,5.011,0,0,1-.145-1.325V17.676c0-1.181-.554-1.615-1.711-1.615-.843,0-1.638.313-1.687,1.3h.772c.048-.6.385-.8.94-.8.747,0,.988.386.988,1.085v.265h-.458c-1.109,0-2.579.168-2.579,1.518,0,.916.747,1.349,1.591,1.349a1.742,1.742,0,0,0,1.542-.723c.024.217.048.41.072.627h.675Zm-4.82,0V18.013c0-1.109-.313-1.928-1.566-1.928a1.592,1.592,0,0,0-1.567.94,1.4,1.4,0,0,0-1.446-.94,1.551,1.551,0,0,0-1.421.8l-.025-.747h-.771c0,.531.024,1.037.024,1.543V20.64h.8V18.158c0-.747.337-1.47,1.18-1.47.868,0,1.037.626,1.037,1.349v2.627h.795V18.158c0-.82.289-1.47,1.181-1.47.843,0,1.036.578,1.036,1.3v2.675Zm-7.712-1.325c0-.82-.674-1.085-1.349-1.254a4.21,4.21,0,0,1-.94-.289.618.618,0,0,1-.41-.554c0-.482.531-.675.94-.675a.823.823,0,0,1,.892.844h.771c-.024-.988-.747-1.374-1.663-1.374-.795,0-1.711.337-1.711,1.277,0,.8.7,1.085,1.35,1.253a3.73,3.73,0,0,1,.916.29.657.657,0,0,1,.409.6c0,.53-.554.771-1.012.771a.888.888,0,0,1-1.012-.916h-.795c0,1.085.795,1.47,1.759,1.47.891-.024,1.855-.409,1.855-1.445m-4.627-5.158h-.795v6.483h.795ZM237.8,18.013h-2.506c.072-.747.482-1.422,1.325-1.422.82,0,1.181.7,1.181,1.422m.771.53c0-1.325-.434-2.482-1.952-2.482-1.47,0-2.145,1.06-2.145,2.41a2.006,2.006,0,0,0,2.1,2.289,1.787,1.787,0,0,0,1.976-1.566H237.8a1.133,1.133,0,0,1-1.157,1.036,1.411,1.411,0,0,1-1.349-1.59v-.1Zm-4.7,2.1v-.6c-.145,0-.289.049-.41.049-.578,0-.626-.241-.626-.747V16.688h1.012v-.555h-1.012v-1.2l-.8.338v.867h-.891v.555h.891v2.964c0,.747.386,1.036,1.109,1.036a3.663,3.663,0,0,0,.723-.048m-3.061-3.784v-.723c-.1,0-.168-.024-.241-.024a1.439,1.439,0,0,0-1.373.747l-.024-.723H228.4c0,.434.025.892.025,1.326v3.2h.795V18.23c0-.868.313-1.4,1.229-1.4.1,0,.217.024.361.024m-4.121,1.157h-2.506c.072-.747.482-1.422,1.325-1.422.8,0,1.181.7,1.181,1.422m.772.53c0-1.325-.434-2.482-1.953-2.482-1.47,0-2.144,1.06-2.144,2.41a2.005,2.005,0,0,0,2.1,2.289,1.786,1.786,0,0,0,1.976-1.566h-.747a1.133,1.133,0,0,1-1.156,1.036,1.411,1.411,0,0,1-1.35-1.59v-.1Zm-5.712.265c0,1.085-.94,1.181-1.783,1.181h-1.109V17.627h1.374c.843,0,1.518.241,1.518,1.181m-.241-2.94c0,.844-.651,1.133-1.4,1.133h-1.253V14.832h1.374c.675.024,1.277.289,1.277,1.036m1.133,2.989a1.534,1.534,0,0,0-1.47-1.591,1.418,1.418,0,0,0,1.205-1.47c0-1.181-1.037-1.615-2.049-1.615h-2.289v6.483h2.169c1.205,0,2.434-.362,2.434-1.807" fill="#192853"/>
  </g>
</svg>
