<svg xmlns="http://www.w3.org/2000/svg" width="713.29" height="713.29" viewBox="0 0 713.29 713.29">
  <g id="Group_985" data-name="Group 985" transform="translate(-448.68 381.36)">
    <g id="Group_800" data-name="Group 800">
      <path id="Path_4042" data-name="Path 4042" d="M1133.94-163.54a355.4,355.4,0,0,0-76.43-113.36,355.4,355.4,0,0,0-113.36-76.43,354.384,354.384,0,0,0-138.82-28.03A354.4,354.4,0,0,0,666.5-353.33,355.4,355.4,0,0,0,553.14-276.9a355.4,355.4,0,0,0-76.43,113.36A354.383,354.383,0,0,0,448.68-24.72,354.743,354.743,0,0,0,467,88.41l-.16-3.19,9.51-7.11A343.325,343.325,0,0,1,460.68-24.72c0-190.03,154.61-344.64,344.65-344.64s344.64,154.61,344.64,344.64c0,102.03-44.57,193.85-115.26,257.01l2.89,13.64q10.26-8.8,19.91-18.46a355.4,355.4,0,0,0,76.43-113.36,354.431,354.431,0,0,0,28.03-138.83A354.382,354.382,0,0,0,1133.94-163.54Z" fill="#c1d2e7"/>
    </g>
    <path id="Path_4044" data-name="Path 4044" d="M1037.6,245.93a354.348,354.348,0,0,1-93.45,57.97,354.384,354.384,0,0,1-138.82,28.03A354.4,354.4,0,0,1,666.5,303.9a355.4,355.4,0,0,1-113.36-76.43,355.4,355.4,0,0,1-76.43-113.36Q471.34,101.4,467,88.41l-.16-3.19,9.51-7.11c43.84,139.98,174.74,241.82,328.98,241.82a343.267,343.267,0,0,0,229.38-87.64Z" fill="#fff"/>
  </g>
</svg>
