<?xml version="1.0" encoding="UTF-8"?>
<svg id="BMG_Logo_Lockup_Horizontal_Primary" xmlns="http://www.w3.org/2000/svg" viewBox="0 0 1981.57 665.06">
  <defs>
    <style>
      .cls-1, .cls-2 {
        fill: #14394c;
      }

      .cls-2 {
        fill-rule: evenodd;
      }
    </style>
  </defs>
  <path class="cls-2" d="M56.08,147.78l62.19-29.4h0l29.51-62.3c-36.18,24.31-67.39,55.4-91.7,91.7ZM147.89,609.09c35.62,23.86,76.09,40.93,119.74,49.52l-38.22-65.69-81.52,16.06v.11ZM230.2,72.14L267.63,6.44c-43.64,8.59-84.12,25.78-119.85,49.64l82.43,16.06ZM6.33,397.43c8.59,43.64,25.78,84.12,49.64,119.85l15.94-82.09L6.22,397.54l.11-.11ZM658.61,267.51c-8.59-43.53-25.78-84.01-49.52-119.62l-16.06,81.97,65.58,37.65ZM56.08,517.39c24.2,36.18,55.4,67.27,91.58,91.58l-29.4-62.19-62.19-29.28v-.11ZM267.85,658.72c20.92,4.07,42.51,6.33,64.67,6.33s43.76-2.15,64.79-6.33l-64.79-23.07-64.67,23.07h0ZM29.62,332.53l-23.29-64.9,65.69-37.76-16.06-82.09C20.58,200.58,0,264.12,0,332.53s2.15,43.87,6.33,64.9l23.29-64.9h0ZM608.97,517.05h0c23.74-35.62,40.93-75.98,49.52-119.51l-65.58,37.54,16.06,81.97ZM546.79,546.79l-29.28,61.96c36.07-24.2,67.16-55.29,91.24-91.36l-61.96,29.28h0v.11ZM658.61,267.97l-23.18,64.56,23.18,64.56c4.18-20.92,6.33-42.51,6.33-64.56s-2.15-43.64-6.33-64.56ZM435.42,72.14l81.75-16.06c-35.62-23.86-76.09-40.93-119.62-49.64l37.99,65.69h-.11ZM435.08,592.92l-37.54,65.58c43.53-8.59,84.01-25.78,119.62-49.52h0l-81.97-16.06h-.11ZM608.86,147.66c-24.2-36.07-55.29-67.16-91.36-91.47l29.28,61.96,62.07,29.4v.11ZM267.74,6.33l64.67,23.07h0l64.79-23.07c-21.03-4.18-42.63-6.33-64.79-6.33s-43.76,2.15-64.67,6.33Z"/>
  <path class="cls-1" d="M546.79,118.27h-156.82l-57.44-88.76,214.26,88.76,88.64,214.26-88.53-57.32M546.9,389.85l88.53-57.32-88.64,214.26-214.26,88.76,57.32-88.87h-114.65l57.32,88.87-214.15-88.87L29.74,332.53,118.38,118.38,332.53,29.51l-57.32,88.87H118.38v156.82l-88.64,57.32,88.64,57.55v156.71h428.41"/>
  <path class="cls-1" d="M447.52,332.64l-172.31-99.72v199.34l172.31-99.61h0Z"/>
  <path class="cls-1" d="M432.03,390.08l57.1,99.39,57.44-99.39h-114.54ZM546.68,275.32l-57.55-99.39-57.1,99.39h114.65ZM447.4,332.64l99.16,57.44v-114.76l-99.16,57.32h0ZM489.12,489.46l-99.39-57.1v114.31l99.39-57.21ZM275.09,546.68v-114.31l-99.39,57.1,99.39,57.21ZM118.27,390.08l57.55,99.39,57.1-99.39h-114.65ZM232.8,275.32l-57.1-99.39-57.55,99.39h114.65ZM175.82,175.82l99.39,57.1v-114.65l-99.39,57.55ZM389.85,118.38v114.65l99.27-57.1-99.27-57.55h0ZM389.85,118.38l-57.44,99.16-57.32-99.16h114.76ZM275.09,546.68l57.32-99.16,57.44,99.16h-114.76ZM217.43,332.64l-99.16-57.32v114.76l99.16-57.44h0Z"/>
  <g>
    <path class="cls-1" d="M1848.29,465.27h-54.5c-105.83,0-137.83-22.39-137.83-105.38v-54.16c0-82.54,32-105.38,137.83-105.38h54.5c92.04,0,129.01,18.2,136.58,82.54h-45.79c-6.9-35.16-28.38-42.63-90.23-42.63h-51.22c-74.96,0-91.92,13.12-91.92,67.16v50.54c0,53.82,16.96,67.61,91.92,67.61h46.13c75.3,0,93.05-14.92,93.05-64.11h-135.57v-38.67h184.3v34.94c0,81.29-33.58,107.64-137.38,107.64h0l.11-.11Z"/>
    <path class="cls-1" d="M879.66,309.58h158.63c26.23,0,43.19-12.89,43.19-35.16s-16.96-35.39-43.19-35.39h-158.63v70.55h0ZM879.66,348.13v75.42h170.73c26.23,0,43.19-15.49,43.19-37.88s-17.07-37.42-43.3-37.42h-170.62v-.11ZM1040.55,200.35c63.09,0,90.79,31.77,90.79,74.17s-10.85,39.91-30.87,51.33c28.83,10.97,43.42,32.79,43.42,59.7,0,42.51-27.7,76.66-90.79,76.66h-222.74V200.35h210.19Z"/>
    <path class="cls-1" d="M1490.89,199.22c64,0,114.76,39.91,114.76,98.71v164.29h-48.73v-162.59c0-36.75-27.14-60.6-66.03-60.6s-66.48,23.74-66.6,60.6l-.57,162.59h-47.6l-.57-162.59c-.11-36.75-27.25-60.6-66.6-60.6s-66.03,23.74-66.03,60.6v162.59h-48.73v-164.29c0-58.79,50.77-98.71,114.76-98.71s71.34,16.28,91.02,37.54c20.01-21.26,52.46-37.54,91.02-37.54h-.11Z"/>
  </g>
</svg>