<svg xmlns="http://www.w3.org/2000/svg" width="57.844" height="38.892" viewBox="0 0 57.844 38.892">
  <g id="Group_15014" data-name="Group 15014" transform="translate(-193.448 -1579.098)">
    <path id="Path_131" data-name="Path 131" d="M1565.042,3316.579c.026.29.054.579.074.866a26.008,26.008,0,0,0,1.582,7.457,24.353,24.353,0,0,0,5.081,8.1,22.594,22.594,0,0,0,9.587,6.136,22.975,22.975,0,0,0,4.6,1.025,8.65,8.65,0,0,0,1.371-.015,24.826,24.826,0,0,1-8.141-12.487c.429-.08.839-.158,1.249-.229a13.3,13.3,0,0,0,10.868-11.3,12.687,12.687,0,0,0-3.593-10.842,12.528,12.528,0,0,0-7.621-3.864,13.069,13.069,0,0,0-14.617,9.84,13.646,13.646,0,0,0-.41,2.593.631.631,0,0,1-.031.131Z" transform="translate(-1371.594 -1722.195)" fill="#f26558"/>
    <path id="Path_132" data-name="Path 132" d="M1590.331,3327.657c.35-.064.686-.132,1.025-.189a13.308,13.308,0,0,0,11.09-11.273,12.7,12.7,0,0,0-3.348-10.66,12.491,12.491,0,0,0-7.99-4.132,12.872,12.872,0,0,0-11.047,3.725,13.085,13.085,0,0,0-3.635,7,19.862,19.862,0,0,0-.215,4.607,27.019,27.019,0,0,0,.822,5.626,24.11,24.11,0,0,0,5.6,10.335,22.8,22.8,0,0,0,6.971,5.268,24.268,24.268,0,0,0,6.335,2.031,8.259,8.259,0,0,0,2.551.139A24.674,24.674,0,0,1,1590.331,3327.657Z" transform="translate(-1351.286 -1722.192)" fill="#f26558"/>
  </g>
</svg>
