<svg xmlns="http://www.w3.org/2000/svg" width="162.638" height="35.792" viewBox="0 0 162.638 35.792">
  <g id="Group_15287" data-name="Group 15287" transform="translate(-473.74 -3277.8)">
    <path id="Path_27962" data-name="Path 27962" d="M493.113,3287.566a3.16,3.16,0,0,0-3.069-3.311,3,3,0,0,0,2.507-3.106,3.244,3.244,0,0,0-2.468-3.162,9.06,9.06,0,0,0-2.359-.187H484v13.527h3.722c2.526,0,5.389-.655,5.389-3.761m-1.87-6.322c0,1.926-1.424,2.581-3.144,2.581h-2.881v-4.94h3.236c1.516,0,2.789.674,2.789,2.359m.579,6.3c0,2.565-2.246,2.695-4.209,2.695h-2.4V3284.8h3.106c1.87,0,3.5.525,3.5,2.75m11.6-.766c0-2.526-.8-5.051-3.817-5.051-2.975,0-4.3,2.319-4.3,5.032,0,2.657,1.271,4.771,4.152,4.771a3.622,3.622,0,0,0,3.91-3.2H502.28a2.592,2.592,0,0,1-2.676,2.357c-2.077,0-3.142-1.778-3.142-3.686v-.224Zm-1.16-.843H496.5c.149-1.72,1.123-3.329,3.031-3.329,1.8,0,2.731,1.478,2.731,3.142Zm8.291-2.937v-1.141a4.882,4.882,0,0,0-.525-.037,3.145,3.145,0,0,0-2.9,1.534l-.076-1.479h-1.123c-.037.917.058,1.854.058,2.771v6.678h1.141v-5.351c0-1.871.635-3.049,2.655-3.049a5.4,5.4,0,0,1,.769.074m6.565,8.307v-.972c-.281.019-.561.111-.861.111-1.179,0-1.327-.5-1.327-1.571v-6.155h2.113v-.843h-2.113v-2.449l-1.141.505v1.944h-1.872v.843h1.872v6.66a1.757,1.757,0,0,0,2,2.02,10.618,10.618,0,0,0,1.329-.093m9.448-4.527c0-2.526-.8-5.051-3.817-5.051-2.974,0-4.3,2.319-4.3,5.032,0,2.657,1.273,4.771,4.153,4.771a3.623,3.623,0,0,0,3.912-3.2h-1.086a2.591,2.591,0,0,1-2.676,2.357c-2.076,0-3.143-1.778-3.143-3.686v-.224Zm-1.159-.843h-5.764c.15-1.72,1.123-3.329,3.032-3.329,1.8,0,2.732,1.478,2.732,3.142Zm4.9-8.138h-1.141v13.527H530.3Zm9.524,10.833c0-3.35-5.613-2-5.613-4.472,0-1.141,1.236-1.59,2.19-1.59a1.8,1.8,0,0,1,2.076,1.853h1.141c-.055-1.965-1.421-2.77-3.254-2.77-1.629,0-3.294.787-3.294,2.62,0,3.349,5.65,1.983,5.65,4.528,0,1.272-1.31,1.851-2.414,1.851-1.384,0-2.338-.673-2.338-2.095h-1.122c0,2.077,1.46,2.956,3.405,2.956,1.8,0,3.573-.861,3.573-2.881m16.109,2.694v-5.407c0-2.32-.431-4.134-3.2-4.134a3.242,3.242,0,0,0-3.238,2.02,2.848,2.848,0,0,0-3.03-2.02,3.1,3.1,0,0,0-2.919,1.74l-.075-1.648h-1.122c0,.75.056,1.516.056,2.264v7.185h1.141v-5.257c0-1.7.786-3.331,2.713-3.331,1.965,0,2.339,1.348,2.339,3.012v5.576h1.142v-5.257c0-1.852.56-3.331,2.692-3.331,1.872,0,2.359,1.255,2.359,2.882v5.706Zm9.961,0a31.543,31.543,0,0,1-.187-3.5v-2.807c0-2.338-1.085-3.311-3.424-3.311-1.664,0-3.291.711-3.31,2.6H560.1c.15-1.347.974-1.74,2.189-1.74,1.665,0,2.3.823,2.3,2.432,0,.225,0,.431-.02.655h-.486c-2.32,0-5.838.093-5.838,3.106,0,1.908,1.573,2.769,3.294,2.769a3.339,3.339,0,0,0,3.162-1.572c.055.449.111.917.148,1.366Zm-1.289-4.826c0,2.076-.169,4.208-2.863,4.208a2.1,2.1,0,0,1-2.34-1.982c0-2.171,2.694-2.264,4.266-2.264.319,0,.618.019.937.038m11.758,4.826v-5.78c0-2.34-.75-3.761-3.312-3.761a3.4,3.4,0,0,0-3.086,1.664l-.076-1.572h-1.123c0,.9.057,1.778.057,2.676v6.773h1.142v-5.032c0-1.871.747-3.556,2.88-3.556,2.17,0,2.376,1.5,2.376,3.257v5.331Zm10.637,0v-5.78c0-2.34-.748-3.761-3.312-3.761a3.4,3.4,0,0,0-3.086,1.664l-.075-1.572h-1.122c0,.9.055,1.778.055,2.676v6.773H580.6v-5.032c0-1.871.747-3.556,2.881-3.556,2.17,0,2.375,1.5,2.375,3.257v5.331Z" fill="#003465"/>
    <rect id="Rectangle_1622" data-name="Rectangle 1622" width="2.566" height="32.227" transform="translate(473.74 3277.809)" fill="#0095a5"/>
    <path id="Path_27963" data-name="Path 27963" d="M493.337,3310.036v-2.095h-6.456V3304.2h5.931v-2.077h-5.931V3298.6h6.268v-2.095H484v13.526Zm11.445,0c-.074-.843-.074-1.7-.074-2.526v-11h-2.731v5.294a3.507,3.507,0,0,0-3.051-1.421c-2.919,0-4.078,2.581-4.078,4.956,0,2.62,1.291,4.884,4.173,4.884a3.433,3.433,0,0,0,2.935-1.44l.076,1.253Zm-2.75-4.753c0,1.366-.486,3.181-2.17,3.181-1.834,0-2.227-1.739-2.227-3.236,0-1.385.393-3.125,2.078-3.125,1.739,0,2.319,1.7,2.319,3.18m14.527,4.753c-.056-1.179-.056-2.32-.056-3.48v-5.949h-2.731v4.882c0,1.366-.319,2.882-2.021,2.882s-1.759-1.442-1.759-2.75v-5.014h-2.731v6.1c0,2.264,1.122,3.481,3.442,3.481a3.542,3.542,0,0,0,3.087-1.59l.038,1.44Zm11.429-3.387v-.093H525.2c-.038,1.179-.468,2.058-1.741,2.058-1.776,0-2.076-1.946-2.076-3.349,0-1.459.319-3.312,2.134-3.312,1.141,0,1.645.805,1.683,1.89h2.712c-.224-2.506-2.039-3.518-4.377-3.518-3.143,0-4.995,1.984-4.995,5.072s1.815,4.863,4.9,4.863c2.226,0,4.546-1.067,4.546-3.611m10.416,3.387a23.505,23.505,0,0,1-.151-3.237v-2.807c0-3.086-1.571-3.667-4.115-3.667-1.984,0-4.172.655-4.211,2.975h2.789a1.308,1.308,0,0,1,1.459-1.477c1.215,0,1.421.972,1.421,1.965v.354h-.766c-2.19,0-5.537.262-5.537,3.2,0,1.984,1.458,2.882,3.292,2.882a3.223,3.223,0,0,0,3.011-1.479,4.394,4.394,0,0,0,.225,1.292Zm-2.808-4.4c0,1.421-.317,2.956-2.076,2.956a1.436,1.436,0,0,1-1.535-1.4c0-1.479,1.741-1.741,2.9-1.741.261,0,.449.019.71.019Zm10.782-3.257v-1.794h-2.226v-2.657l-2.657,1.085v1.572H539.68v1.794h1.815v5.259c0,2.058,1.029,2.525,2.918,2.525a13.722,13.722,0,0,0,1.947-.15v-1.778c-.319.019-.581.076-.88.076-1.273,0-1.328-.525-1.328-1.629v-4.3Zm4.481-5.873h-2.845v2.171h2.845Zm-.056,4.079h-2.731v9.448H550.8Zm12.244,4.694c0-3.143-1.963-4.939-5.069-4.939-3.068,0-5.183,1.8-5.183,4.939,0,3.181,1.965,4.977,5.108,4.977,3.1,0,5.144-1.833,5.144-4.977m-2.843.019c0,1.5-.486,3.331-2.3,3.331-1.833,0-2.263-1.834-2.263-3.331,0-1.514.43-3.31,2.263-3.31,1.815,0,2.3,1.8,2.3,3.31m14.1,4.734v-6.1c0-2.245-1.141-3.479-3.442-3.479a3.571,3.571,0,0,0-3.1,1.59l-.038-1.44H565c.057.635.076,1.253.076,1.852v7.577h2.731v-4.753c0-1.067.262-2.993,1.982-2.993,1.685,0,1.778,1.44,1.778,2.75v5Zm18.372-.5v-6.81h-5.65v2h2.863v3.18a8.343,8.343,0,0,1-2.264.281c-2.919,0-4.115-2.32-4.115-4.958,0-2.339.916-4.845,3.629-4.845a2.274,2.274,0,0,1,2.544,2.039h2.975c-.262-3.069-2.507-4.229-5.35-4.229-4.3,0-6.868,2.882-6.868,7.109,0,4.435,2.639,6.979,7.035,6.979a19.647,19.647,0,0,0,5.2-.748m8.7-6.586v-2.377a3.91,3.91,0,0,0-.449-.018,2.984,2.984,0,0,0-2.919,1.8l-.076-1.739H595.3c0,.785.074,1.552.074,2.3v7.128H598.1v-4.454c0-1.683.692-2.692,2.451-2.692a6.614,6.614,0,0,1,.824.055m11.271,2.338c0-3.143-1.965-4.939-5.071-4.939-3.067,0-5.182,1.8-5.182,4.939,0,3.181,1.965,4.977,5.108,4.977,3.106,0,5.145-1.833,5.145-4.977m-2.844.019c0,1.5-.486,3.331-2.3,3.331-1.833,0-2.264-1.834-2.264-3.331,0-1.514.431-3.31,2.264-3.31,1.815,0,2.3,1.8,2.3,3.31m14.135,4.734c-.056-1.179-.056-2.32-.056-3.48v-5.949h-2.732v4.882c0,1.366-.319,2.882-2.02,2.882s-1.759-1.442-1.759-2.75v-5.014H614.64v6.1c0,2.264,1.123,3.481,3.442,3.481a3.542,3.542,0,0,0,3.088-1.59l.037,1.44Zm12.438-4.883c0-2.564-1.271-4.752-4.1-4.752a3.485,3.485,0,0,0-3.123,1.646l-.039-1.44h-2.674c.037.785.074,1.57.074,2.32v10.664h2.732v-4.771a3.329,3.329,0,0,0,2.881,1.4c2.919,0,4.246-2.451,4.246-5.07m-2.806.093c0,1.479-.505,3.312-2.3,3.312-1.664,0-2.076-1.853-2.076-3.2,0-1.44.486-3.255,2.227-3.255,1.664,0,2.15,1.778,2.15,3.143" fill="#003465"/>
  </g>
</svg>
