<svg xmlns="http://www.w3.org/2000/svg" width="35.993" height="35.712" viewBox="0 0 35.993 35.712">
  <g id="Group_15333" data-name="Group 15333" transform="translate(-2815.549 -1708.28)">
    <g id="Group_13823" data-name="Group 13823" transform="translate(2815.549 1708.28)">
      <g id="Group_13821" data-name="Group 13821" transform="translate(0 0)">
        <path id="Path_24682" data-name="Path 24682" d="M2822.7,1738.131h0a.427.427,0,0,1-.3-.125l-4.233-4.24a.428.428,0,0,1,0-.6l2.612-2.614-1.118-2.674h-3.685a.427.427,0,0,1-.427-.427v-6a.427.427,0,0,1,.427-.427h3.685l1.118-2.674-2.611-2.611a.427.427,0,0,1,0-.6l4.233-4.24a.427.427,0,0,1,.3-.125h0a.426.426,0,0,1,.3.125l2.607,2.606,2.685-1.1v-3.694a.427.427,0,0,1,.427-.427h5.991a.427.427,0,0,1,.427.427v3.694l2.684,1.1,2.607-2.606a.428.428,0,0,1,.3-.125h0a.426.426,0,0,1,.3.125l4.233,4.24a.426.426,0,0,1,0,.6l-2.814,2.813a.427.427,0,0,1-.6-.6l2.511-2.512-3.63-3.635-2.505,2.505a.428.428,0,0,1-.464.093l-3.212-1.317a.428.428,0,0,1-.265-.4v-3.554h-5.137v3.554a.428.428,0,0,1-.265.4l-3.213,1.317a.428.428,0,0,1-.464-.093l-2.505-2.505-3.629,3.635,2.511,2.512a.428.428,0,0,1,.092.467l-1.338,3.2a.427.427,0,0,1-.394.263H2816.4v5.142h3.542a.427.427,0,0,1,.394.263l1.338,3.2a.427.427,0,0,1-.092.466l-2.511,2.514,3.629,3.635,2.505-2.505a.427.427,0,0,1,.464-.093l3.213,1.317a.427.427,0,1,1-.325.79l-2.949-1.209-2.607,2.606A.426.426,0,0,1,2822.7,1738.131Z" transform="translate(-2815.549 -1708.28)" fill="#fff"/>
      </g>
      <g id="Group_13822" data-name="Group 13822" transform="translate(8.449 8.452)">
        <path id="Path_24683" data-name="Path 24683" d="M2873.441,1774.17h-.016a7.718,7.718,0,1,1,3.926-14.517.427.427,0,1,1-.4.753,6.863,6.863,0,1,0-3.491,12.91.427.427,0,0,1-.015.854Z" transform="translate(-2865.991 -1758.74)" fill="#fff"/>
      </g>
    </g>
    <g id="Group_13826" data-name="Group 13826" transform="translate(2826.576 1720.247)">
      <g id="Group_13824" data-name="Group 13824" transform="translate(0 15.935)">
        <path id="Path_24684" data-name="Path 24684" d="M2905.924,1882.672a.427.427,0,0,1-.427-.427c0-3.6-5.216-6.528-11.628-6.528s-11.629,2.928-11.629,6.528a.427.427,0,1,1-.854,0c0-4.071,5.6-7.382,12.483-7.382s12.482,3.312,12.482,7.382A.427.427,0,0,1,2905.924,1882.672Z" transform="translate(-2881.386 -1874.863)" fill="#fff"/>
      </g>
      <g id="Group_13825" data-name="Group 13825" transform="translate(6.047 0)">
        <path id="Path_24685" data-name="Path 24685" d="M2923.922,1792.6a6.436,6.436,0,1,1,6.436-6.436A6.443,6.443,0,0,1,2923.922,1792.6Zm0-12.018a5.582,5.582,0,1,0,5.582,5.582A5.588,5.588,0,0,0,2923.922,1780.582Z" transform="translate(-2917.486 -1779.728)" fill="#fff"/>
      </g>
    </g>
  </g>
</svg>
