<svg xmlns="http://www.w3.org/2000/svg" width="145.51" height="41.709" viewBox="0 0 145.51 41.709">
  <g id="Group_13749" data-name="Group 13749" transform="translate(-64 -333.815)">
    <g id="Logo_copy_Eruditus_Black_copy" data-name="Logo copy_Eruditus Black copy" transform="translate(63.984 333.83)">
      <path id="Path_3736" data-name="Path 3736" d="M249.237,79.616c-.233,0-.466-.029-.669-.029H146.94c-.2,0-.64.233-.64-.233s.407-.262.64-.262H248.567c.233,0,.466-.029.669-.029Z" transform="translate(-103.711 -56.053)" fill="#92b14b"/>
      <path id="Path_3737" data-name="Path 3737" d="M21.9,39.417c0-.349,0-.669.029-1.019.058-.378.233-.378.524-.349a15.13,15.13,0,0,0,5.122-.029,5.587,5.587,0,0,0,4.8-5.791,16.112,16.112,0,0,0-.2-2.357,4.62,4.62,0,0,0-2.183-3.143,12.235,12.235,0,0,0-4.773-1.717c-.407-.087-.582-.233-.582-.64a6.648,6.648,0,0,1,0-1.077c.029-.233.116-.378.378-.32h.2a1.668,1.668,0,0,0,1.921-1.863c0-.9-.029-1.8,0-2.736.087-1.63.029-1.426,1.513-1.339.087,0,.2.029.291.029.291,0,.407.087.378.437a13.5,13.5,0,0,0,.553,4.569,3.713,3.713,0,0,0,.553,1.193c.407.553.844.611,1.339.146A3.569,3.569,0,0,0,32.784,19.8a.932.932,0,0,1,.291-1.019,5.06,5.06,0,0,1,.437-.378c.7-.466.7-.466,1.164.2.495.757,1.164.757,1.63,0a13.656,13.656,0,0,1,1.688-2.183h0a6.314,6.314,0,0,1,1.95-1.164c.262-.087.437-.116.524.233.116.407.466.815.437,1.193s-.553.582-.873.844a15.589,15.589,0,0,0-2.008,2.154,3.438,3.438,0,0,0-.64,3.114c.233.844.757,1.135,1.542.728a6.809,6.809,0,0,0,2.881-3.056c.146-.291.291-.378.582-.32a7.231,7.231,0,0,0,1.106.058c.2,0,.291.058.2.291a6.346,6.346,0,0,0-.32,1.281c-.058.844.407,1.251,1.222,1.077a10.524,10.524,0,0,1,4.569-.058c.378.087.466.233.437.64-.116,1.193-.087,1.193-1.281,1.106A8.958,8.958,0,0,0,43,25.68a5.758,5.758,0,0,0-2.736,3.958,13.655,13.655,0,0,0-.087,5.209A3.422,3.422,0,0,0,42.8,37.584a8.831,8.831,0,0,0,3.376.291c.349-.029.495.058.524.407.029.378.233.844.116,1.135-.146.349-.7.146-1.048.233a5.67,5.67,0,0,0-.669.175,1.243,1.243,0,0,0-1.019,1.659,12.586,12.586,0,0,1,.291,3.463c-.029.32,0,.757-.378.873a2.777,2.777,0,0,1-1.542.087c-.233-.058-.146-.262-.146-.407a11.12,11.12,0,0,0-.146-2.416,3.153,3.153,0,0,0-.611-1.513,1.342,1.342,0,0,0-1.368-.553c-.553.116-.757.553-.9,1.048a4,4,0,0,0-.116,1.31.547.547,0,0,1-.32.582,11.7,11.7,0,0,1-1.368.64c-.233.087-.349.058-.437-.2a3.348,3.348,0,0,0-.582-1.048c-.437-.495-.844-.437-1.106.146a10.272,10.272,0,0,1-1.95,2.881,4.353,4.353,0,0,1-2.037,1.164c-.2.058-.32.029-.378-.146a.029.029,0,0,0-.029-.029c-.7-1.135-.7-1.135.378-1.863a5.444,5.444,0,0,0,1.746-1.8,2.215,2.215,0,0,0,.291-.873,1.58,1.58,0,0,0-.524-1.63c-.553-.407-1.077-.146-1.6.116a1.806,1.806,0,0,0-1.077,1.222.4.4,0,0,1-.495.32c-.466-.029-.9-.058-1.368-.058-.32,0-.349-.116-.291-.407.116-.582.175-1.193.32-1.775.087-.32-.029-.378-.32-.407a6.357,6.357,0,0,0-1.659.087,8.825,8.825,0,0,1-3.9-.175c-.349-.058-.611-.233-.495-.669.087-.058.262.116.32-.087C22.1,39.33,21.987,39.475,21.9,39.417Z" transform="translate(-15.515 -10.791)" fill="#2b1710"/>
      <path id="Path_3738" data-name="Path 3738" d="M298.621,19.622a18.576,18.576,0,0,0-4.947-.291c-.99.087-2.1,0-3.2,0-.145,0-.349-.058-.378.116-.029.2.2.116.349.146.873.087,1.077.291,1.106,1.193.087,2.823.058,5.646.029,8.469a14.837,14.837,0,0,1-.116,2.27c-.087.466-.291.757-.786.757-.116,0-.32-.058-.32.116,0,.2.233.146.349.116a32.979,32.979,0,0,1,4.162.116,14.69,14.69,0,0,0,1.6.029,6.6,6.6,0,0,0,6.839-6.141A6.013,6.013,0,0,0,298.621,19.622ZM300.8,29.954a5.16,5.16,0,0,1-4.249,2.1,7.915,7.915,0,0,1-2.474-.2,1.128,1.128,0,0,1-.96-1.106c-.087-1.775-.029-3.521-.058-5.3V20.524c0-.32.087-.524.407-.553,2.212-.175,4.395-.087,6.2,1.484A6.7,6.7,0,0,1,300.8,29.954Z" transform="translate(-205.655 -13.696)" fill="#2b1710"/>
      <path id="Path_3739" data-name="Path 3739" d="M208.467,32.324a3.976,3.976,0,0,1-3.056-1.572c-1.135-1.281-2.154-2.648-3.2-3.958-.146-.2-.146-.32.029-.466a6.669,6.669,0,0,0,1.484-2.008c1.048-2.328-.029-4.424-2.532-4.831-1.863-.291-3.725.029-5.588-.116-.087,0-.2.029-.2.146,0,.146.146.087.233.116,1.077.146,1.222.262,1.222,1.4.029,2.154.029,4.307.029,6.461,0,1.251.029,2.532-.087,3.783-.087.815-.2.931-.96,1.077-.087,0-.175,0-.2.116a16.638,16.638,0,0,0,4.336,0c-.116-.175-.291-.087-.437-.116-.931-.116-1.106-.233-1.164-1.193s-.058-1.921-.058-2.881c0-.407-.145-.931.058-1.164.233-.291.786-.029,1.193-.087.9-.175,1.4.291,1.892.989a28.117,28.117,0,0,0,2.91,3.754,2.544,2.544,0,0,0,1.8.815c.669.029,1.368.029,2.037.029.116,0,.262.029.349-.146C208.555,32.354,208.525,32.324,208.467,32.324Zm-8.061-5.908a6.087,6.087,0,0,1-1.63-.175.458.458,0,0,1-.407-.553c.029-.9,0-1.775,0-2.677v-2.59c0-.32.087-.466.437-.495a5.61,5.61,0,0,1,1.4,0,2.647,2.647,0,0,1,2.212,1.8,4.431,4.431,0,0,1-.029,3.289A2,2,0,0,1,200.406,26.417Z" transform="translate(-138.522 -13.738)" fill="#2b1710"/>
      <path id="Path_3740" data-name="Path 3740" d="M246.267,19.425H250.2c-.146.291-.378.2-.553.233a.777.777,0,0,0-.669.728,12.468,12.468,0,0,0-.058,1.8c-.058,2.037.116,4.045-.116,6.082a5.192,5.192,0,0,1-8,3.871,4.671,4.671,0,0,1-2.154-3.7,21.031,21.031,0,0,1-.087-2.707c0-1.6,0-3.2-.029-4.8,0-.989-.2-1.193-1.164-1.281-.116,0-.262.058-.262-.116s.175-.146.291-.146c1.222.029,2.445.058,3.638,0,.116,0,.291,0,.291.116,0,.2-.175.116-.291.146-.7.116-.873.291-.873.989-.058,2.474-.087,4.918,0,7.392a4.464,4.464,0,0,0,1.251,3.172,3.719,3.719,0,0,0,5.966-1.31,8.544,8.544,0,0,0,.437-2.968c0-1.979,0-3.958-.029-5.937-.029-1.106-.175-1.222-1.281-1.339C246.442,19.6,246.355,19.628,246.267,19.425Z" transform="translate(-168.086 -13.76)" fill="#2b1710"/>
      <path id="Path_3741" data-name="Path 3741" d="M408.1,19.437c.058-.175.2-.146.32-.146,1.193.029,2.386.058,3.609,0h.2c.087.029.175.029.146.146,0,.087-.087.087-.146.087-1.019.291-1.019.291-1.048,1.339-.058,2.241-.058,4.511,0,6.752a6.664,6.664,0,0,0,.437,2.241,3.517,3.517,0,0,0,3.492,2.212,3.56,3.56,0,0,0,3.318-2.328,8.522,8.522,0,0,0,.407-2.968c0-1.95,0-3.929-.029-5.879,0-1.106-.175-1.222-1.251-1.368a.9.9,0,0,1-.233-.058,14.293,14.293,0,0,1,3.871-.087c-.029.146-.116.116-.233.146-.815.146-.99.32-.99,1.164-.029,1.688-.029,3.376-.029,5.064a20.643,20.643,0,0,1-.146,2.677c-.437,3.23-2.939,4.6-5.7,4.307a4.52,4.52,0,0,1-4.395-4.22,20.574,20.574,0,0,1-.087-2.677c0-1.659,0-3.347-.029-5.006-.029-1.019-.2-1.164-1.222-1.281C408.275,19.524,408.158,19.553,408.1,19.437Z" transform="translate(-289.32 -13.685)" fill="#2b1710"/>
      <path id="Path_3742" data-name="Path 3742" d="M166.03,24.3c-.175.96-.2,1.8-.291,2.677-.291-.087-.2-.291-.233-.407-.058-.582-.262-.844-.844-.9-.815-.087-1.659-.087-2.474-.116-.2,0-.291.087-.291.291,0,1.513-.029,3.027.029,4.511.029.9.32,1.135,1.222,1.222a7.731,7.731,0,0,0,1.833-.029,1.314,1.314,0,0,0,1.339-1.222c.029-.146,0-.32.175-.407.175.058.116.175.116.291-.029.349-.058.7-.116,1.077-.116,1.019-.175,1.048-1.193,1.048-1.921.029-3.871-.175-5.791-.058-.116,0-.262.029-.349-.116.029-.175.2-.116.291-.146.611-.116.728-.233.844-.873a13.724,13.724,0,0,0,.087-1.892V20.836c0-.96-.029-1.513-1.339-1.542a.149.149,0,0,1-.146-.116c.146-.2.349-.116.524-.116,1.717,0,3.434.029,5.151.029a4.57,4.57,0,0,0,1.4-.146c.146-.058.262,0,.233.116-.2.7-.087,1.426-.291,2.1,0,.029-.058.029-.087.029-.116-.029-.116-.146-.116-.233-.116-.844-.262-1.077-1.077-1.164-.844-.087-1.688-.058-2.532-.087-.2,0-.233.116-.233.291v4.569c0,.233.116.291.32.291.931,0,1.892,0,2.823-.058C165.448,24.794,165.652,24.561,166.03,24.3Z" transform="translate(-112.644 -13.426)" fill="#2b1710"/>
      <path id="Path_3743" data-name="Path 3743" d="M377.323,20.939a.636.636,0,0,0-.087-.146c-.175-.873-.32-1.048-1.193-1.193a25.312,25.312,0,0,0-2.968-.116c-.146,0-.2.058-.2.2v.146c.029,3.463-.058,6.9.058,10.361a1.661,1.661,0,0,0,.029.378c.087.873.233,1.019,1.106,1.106.175.029.349-.029.495.116a18.367,18.367,0,0,1-4.395.058c.029-.2.2-.146.291-.146.553-.029.757-.349.815-.844a13.756,13.756,0,0,0,.116-1.892c0-3,0-6,.029-8.993,0-.349-.058-.524-.466-.495-.844.058-1.688.058-2.532.058a1.511,1.511,0,0,0-1.63,1.019.452.452,0,0,1-.175.233c-.2-.116-.087-.291-.058-.437l.349-1.572c.029-.146.058-.378.349-.262a5.518,5.518,0,0,0,2.066.233H375.9a7.588,7.588,0,0,0,1.4-.146c.116-.029.291-.116.291.087.029.728,0,1.455,0,2.212A1,1,0,0,1,377.323,20.939Z" transform="translate(-259.824 -13.121)" fill="#2b1710"/>
      <path id="Path_3744" data-name="Path 3744" d="M467.849,21.12c-.2-.2-.146-.466-.2-.669a1.484,1.484,0,0,0-.495-.815,2.976,2.976,0,0,0-3.172-.146,2.082,2.082,0,0,0-.378,2.968,8.808,8.808,0,0,0,1.688,1.6,13.3,13.3,0,0,1,2.037,1.8,3.766,3.766,0,0,1,.728,4.045,3.535,3.535,0,0,1-3.23,2.27,5.887,5.887,0,0,1-2.736-.349.647.647,0,0,1-.495-.728c.058-.611.058-1.193.087-1.8,0-.146-.029-.349.146-.378.2,0,.116.233.146.349a2.218,2.218,0,0,0,2.154,2.212,2.407,2.407,0,0,0,2.852-1.63,2.638,2.638,0,0,0-.495-2.474,10.441,10.441,0,0,0-1.863-1.717,12.9,12.9,0,0,1-1.6-1.484,3.807,3.807,0,0,1-.931-1.833,3.13,3.13,0,0,1,3.143-3.871,11.432,11.432,0,0,1,2.619.262c.116.029.233.029.233.2l-.087,2.1A.16.16,0,0,0,467.849,21.12Z" transform="translate(-327.243 -13.099)" fill="#2b1710"/>
      <path id="Path_3745" data-name="Path 3745" d="M18.714,59.951c-.029-.175.116-.32.262-.466.349-.32.7-.669,1.077-.989.233-.2.2-.291-.029-.466a13.9,13.9,0,0,1-2.037-1.63,9.232,9.232,0,0,1-1.8-2.677.684.684,0,0,1,.2-.9,1.232,1.232,0,0,1,.2-.146c.815-.495.873-.495,1.31.32a8.914,8.914,0,0,0,3.318,3.26,18.392,18.392,0,0,0,3.58,1.717c.116.029.291.029.291.2,0,.146-.175.175-.291.233A22.1,22.1,0,0,0,21.3,59.98a8.726,8.726,0,0,0-1.426,1.077c-.262.262-.466.291-.7-.058A2.633,2.633,0,0,1,18.714,59.951Z" transform="translate(-11.398 -37.116)" fill="#2b1710"/>
      <path id="Path_3746" data-name="Path 3746" d="M116.581,34.179a4.628,4.628,0,0,0-1.251-1.484c-.7-.378-.757-.815-.611-1.542a2.925,2.925,0,0,0-.553-2.474,1.865,1.865,0,0,0-2.736-.466,3.427,3.427,0,0,0-1.281,1.6.482.482,0,0,1-.611.378c-.349-.058-.7-.087-1.048-.116-.146-.029-.233-.087-.2-.262a5.4,5.4,0,0,1,3.987-3.842,3.637,3.637,0,0,1,3.463,1.921,7.553,7.553,0,0,1,1.019,4.627C116.726,33.044,116.639,33.539,116.581,34.179Z" transform="translate(-76.757 -18.416)" fill="#8aab3e"/>
      <path id="Path_3747" data-name="Path 3747" d="M344.7,19.518a14.718,14.718,0,0,1,4.074-.029.149.149,0,0,1-.175.116c-.873.146-1.019.291-1.019,1.164-.029,1.339-.029,2.648-.029,3.987,0,2.1-.087,4.191.058,6.257.087,1.106.175,1.193,1.251,1.31.116,0,.262-.058.349.116-.087.2-.262.146-.407.146-1.193-.029-2.386-.058-3.609,0-.116,0-.349.058-.349-.116,0-.2.233-.116.349-.146a.734.734,0,0,0,.728-.7,18.161,18.161,0,0,0,.146-2.823c0-2.59,0-5.18-.029-7.77,0-1.164-.058-1.164-1.164-1.426A.971.971,0,0,0,344.7,19.518Z" transform="translate(-244.371 -13.738)" fill="#2b1710"/>
      <path id="Path_3748" data-name="Path 3748" d="M128.66,78.08a8.91,8.91,0,0,1-.873,4.191,3.8,3.8,0,0,1-1.833,1.863c-.146.058-.291.2-.437.087-.116-.116-.029-.262,0-.407a7.783,7.783,0,0,1,.844-2.677,5.942,5.942,0,0,0-.32-6.053,5.059,5.059,0,0,1-.291-.553c-.495-1.019-.495-.99.2-1.863a.535.535,0,0,1,.757-.175,2.447,2.447,0,0,1,1.164,1.31A10.373,10.373,0,0,1,128.66,78.08Z" transform="translate(-88.895 -51.345)" fill="#8aab3e"/>
      <path id="Path_3749" data-name="Path 3749" d="M103.723,68.544a1.84,1.84,0,0,1-1.164,1.4c-.175.029-.175-.087-.2-.175a5.562,5.562,0,0,0-2.328-2.939,20.14,20.14,0,0,0-4.045-2.183c-.407-.175-.349-.349-.087-.553a15.2,15.2,0,0,1,3.521-2.037l.175-.087c.99-.407.99-.407,1.484.524.146.291-.029.466-.175.64a3.139,3.139,0,0,1-1.077.757c-.349.175-.349.378-.146.64a5.818,5.818,0,0,0,1.164,1.077,18.223,18.223,0,0,1,2.212,1.746A1.791,1.791,0,0,1,103.723,68.544Z" transform="translate(-67.828 -43.759)" fill="#2b1710"/>
      <path id="Path_3750" data-name="Path 3750" d="M3.1,35.149A9,9,0,0,1,4.291,31.22a2.685,2.685,0,0,1,1.921-1.368c.291-.058.407,0,.32.349-.175.611-.291,1.251-.466,1.892a.731.731,0,0,1-.175.407,4.624,4.624,0,0,0-1.019,4.133,8.66,8.66,0,0,0,1.251,3.551.6.6,0,0,1-.087.9c-.2.175-.32.407-.495.582-.2.233-.466.233-.611-.029A12.412,12.412,0,0,1,3.1,35.149Z" transform="translate(-2.185 -21.161)" fill="#8aab3e"/>
      <path id="Path_3751" data-name="Path 3751" d="M36.351,133.277A6.361,6.361,0,0,1,33,132.433a3.2,3.2,0,0,1-1.717-2.59c-.029-.32.058-.437.349-.378a4.08,4.08,0,0,1,2.27.96,4.209,4.209,0,0,0,4.133.931,7.779,7.779,0,0,0,2.27-.931.619.619,0,0,1,.815.058c1.048.786,1.048.99-.058,1.6A8.806,8.806,0,0,1,36.351,133.277Z" transform="translate(-22.167 -91.787)" fill="#89ab3e"/>
      <path id="Path_3752" data-name="Path 3752" d="M82.759,5.325a20.464,20.464,0,0,1-3.027-1.106,7.727,7.727,0,0,0-7.974.669c-.291.175-.407.175-.64-.058-.669-.728-.669-.728.146-1.31a10.32,10.32,0,0,1,4.365-2.008,6.315,6.315,0,0,1,5.355,1.746A10.47,10.47,0,0,1,82.759,5.325Z" transform="translate(-50.066 -1.029)" fill="#89ab3e"/>
      <path id="Path_3753" data-name="Path 3753" d="M89.1,119.7a4.227,4.227,0,0,0,1.6-1.688c.058-.2.233-.146.378-.146a3.815,3.815,0,0,0,2.5-1.048c1.106-1.048,1.019-2.386-.32-3.085a1.456,1.456,0,0,1-.844-1.688c.058-.7.029-.7.7-.437a7.743,7.743,0,0,1,2.183,1.251,2.8,2.8,0,0,1,.291,4.249,7.647,7.647,0,0,1-4.715,2.474A5.957,5.957,0,0,1,89.1,119.7Z" transform="translate(-63.158 -79.023)" fill="#8aab3e"/>
      <path id="Path_3754" data-name="Path 3754" d="M5.334,93.483a10.093,10.093,0,0,0,.553,2.1,3.658,3.658,0,0,0,.844,1.251A1.34,1.34,0,0,0,8.768,96.8,4.245,4.245,0,0,0,9.554,95.7c.058-.116.087-.262.262-.262.466.058.931.116,1.4.2.175.029.146.175.116.32A3.334,3.334,0,0,1,8.885,98.78,3.392,3.392,0,0,1,5.16,97.674a6.9,6.9,0,0,1-1.542-5.151c.029-.175-.058-.407.146-.466.233-.087.291.175.407.262a.637.637,0,0,1,.146.087c.029,0,.029.029.058.029.291.32.582.611.9.9A.16.16,0,0,1,5.334,93.483Z" transform="translate(-2.529 -65.264)" fill="#89ab3e"/>
      <path id="Path_3755" data-name="Path 3755" d="M2.805,73.179l-.029-.029c-.32-.349-.7-.64-.989-1.019h0a10.209,10.209,0,0,1-1.6-3.7A6.459,6.459,0,0,1,1.03,63.4a9.862,9.862,0,0,0,1.077,1.8.431.431,0,0,1,.058.378,6.775,6.775,0,0,0,1.659,5.559,1.854,1.854,0,0,1,.291,1.717c-.175.99-.175.99-1.019.466A.4.4,0,0,0,2.805,73.179Z" transform="translate(0 -44.96)" fill="#8aab3e"/>
      <path id="Path_3756" data-name="Path 3756" d="M64.623,133.281a9.246,9.246,0,0,1-2.416-.291c-.146-.058-.407,0-.407-.262,0-.2.2-.233.32-.32a11.552,11.552,0,0,1,3.26-.9,9.884,9.884,0,0,0,2.881-.96,2.16,2.16,0,0,0,.99-1.106c.087-.262.233-.291.466-.262a11.445,11.445,0,0,0,1.4.175c.32.029.349.175.291.437a3.767,3.767,0,0,1-2.328,2.619A9.679,9.679,0,0,1,64.623,133.281Z" transform="translate(-43.803 -91.588)" fill="#89ab3e"/>
      <path id="Path_3757" data-name="Path 3757" d="M55.925.659A17.558,17.558,0,0,0,53.6,1.881a2.014,2.014,0,0,1-.815.146A8.132,8.132,0,0,0,48.824,3.6a.987.987,0,0,1-.844.2c-.466-.116-.96-.2-1.426-.291-.175-.029-.32-.087-.146-.291C48.824.4,52.083-.913,55.925.659Z" transform="translate(-32.835 0)" fill="#89ab3e"/>
      <path id="Path_3758" data-name="Path 3758" d="M125.168,46.6c3.609,2.154,4.249,6.286,3.056,10.04a6.993,6.993,0,0,0-.7-1.484A2.814,2.814,0,0,1,127,53.323a6.749,6.749,0,0,0-1.95-4.627.691.691,0,0,1-.2-.7C124.964,47.531,125.052,47.095,125.168,46.6Z" transform="translate(-88.487 -33.049)" fill="#89ab3e"/>
      <path id="Path_3759" data-name="Path 3759" d="M25.212,120.01a12.846,12.846,0,0,1-5.7-2.1,2.334,2.334,0,0,1-.96-1.368.3.3,0,0,1,.2-.407c.233-.087.437-.2.669-.291a1.248,1.248,0,0,1,1.484.233,7.335,7.335,0,0,0,3.812,1.688c.378.058.611.175.64.611a10,10,0,0,0,.262,1.281C25.707,120.01,25.707,120.01,25.212,120.01Z" transform="translate(-13.124 -82.042)" fill="#8aab3e"/>
      <path id="Path_3760" data-name="Path 3760" d="M114.35,100.037a3.538,3.538,0,0,0,.262-1.222c.029-.146,0-.291.175-.378a4.921,4.921,0,0,1,1.4-.349c.2-.029.291.058.291.291-.029,2.416-.407,4.686-2.27,6.432l-.146.146c-.553.466-.553.466-.815-.2a2.259,2.259,0,0,0-.349-.64c-.291-.291-.262-.495,0-.815a7.677,7.677,0,0,0,1.4-2.852.228.228,0,0,0-.029-.233C114.2,100.095,114.291,100.066,114.35,100.037Z" transform="translate(-79.881 -69.548)" fill="#8aab3e"/>
      <path id="Path_3761" data-name="Path 3761" d="M89.487,22.437c-1.775,2.386-4.715,2.59-7.887,1.106.378-.407.757-.786,1.135-1.193.087-.087.175-.058.262-.029a5.761,5.761,0,0,0,4.278-.524,1.022,1.022,0,0,1,1.077.058C88.73,22.059,89.109,22.233,89.487,22.437Z" transform="translate(-57.841 -15.376)" fill="#2b1710"/>
      <path id="Path_3762" data-name="Path 3762" d="M14.029,27.167a10.936,10.936,0,0,1,1.63-5.18,3.108,3.108,0,0,1,1.106-.931c.233-.116.349-.058.553.146.815.9.7,1.63-.116,2.532a6.058,6.058,0,0,0-1.426,2.939.548.548,0,0,1-.058.233c-.087.233.175.553-.116.7a2.65,2.65,0,0,1-1.339.378c-.175,0-.262-.116-.262-.291A2.232,2.232,0,0,0,14.029,27.167Z" transform="translate(-9.914 -14.896)" fill="#8aab3e"/>
      <path id="Path_3763" data-name="Path 3763" d="M36.465,111.7a3.06,3.06,0,0,1,2.037.524c.437.378.407.524-.029.873a3.214,3.214,0,0,1-1.892.7c-.466.029-.931.029-1.4.087a3.281,3.281,0,0,0-1.717.582.828.828,0,0,1-.989.058,10.154,10.154,0,0,0-1.281-.582c-.349-.146-.291-.378-.058-.582a1.2,1.2,0,0,1,.32-.2A12.011,12.011,0,0,1,36.465,111.7Z" transform="translate(-21.931 -79.203)" fill="#2b1710"/>
      <path id="Path_3764" data-name="Path 3764" d="M95.744,12.651a8.65,8.65,0,0,1,5.471,2.008,7.694,7.694,0,0,1,.989,1.193c.2.262.116.407-.175.495-.029,0-.029,0-.058.029a1.526,1.526,0,0,1-2.357-.291,4.545,4.545,0,0,0-3.405-1.455c-.262,0-.32-.116-.378-.32-.116-.378-.2-.786-.349-1.164C95.395,12.768,95.395,12.564,95.744,12.651Z" transform="translate(-67.648 -8.966)" fill="#89ab3e"/>
      <path id="Path_3765" data-name="Path 3765" d="M111.708,89.675a.414.414,0,0,0-.058.175c-.291.407-.553.815-.844,1.251a6.561,6.561,0,0,1-1.164-7.45.3.3,0,0,1,.378-.175,1.549,1.549,0,0,1,1.077,1.863,5.072,5.072,0,0,0,.087,2.794C111.33,88.656,111.534,89.151,111.708,89.675Z" transform="translate(-77.239 -59.186)" fill="#2b1710"/>
      <path id="Path_3766" data-name="Path 3766" d="M33.65,2.9A3.343,3.343,0,0,1,31.7,4.646a8.856,8.856,0,0,0-2.1.873,1.875,1.875,0,0,0-1.048,1.368.346.346,0,0,1-.233.291c-.495.233-.989.466-1.484.728-.32.175-.349.029-.378-.233a3.217,3.217,0,0,1,1.484-3.085,10.106,10.106,0,0,1,4.045-1.455C32.485,3.075,33.009,3.016,33.65,2.9Z" transform="translate(-18.738 -2.067)" fill="#89ab3e"/>
      <path id="Path_3767" data-name="Path 3767" d="M77.5,113.449c.029.175-.058.262-.2.349a18.93,18.93,0,0,0-3.521,2.328.853.853,0,0,1-1.164,0c-.058-.029-.087-.087-.146-.116-.786-.728-.786-.989,0-1.688a12.461,12.461,0,0,1,4.453-2.386c.175-.058.262-.029.291.175C77.3,112.518,77.412,112.983,77.5,113.449Z" transform="translate(-50.946 -79.351)" fill="#2b1710"/>
      <path id="Path_3768" data-name="Path 3768" d="M37.6,13.186a6.765,6.765,0,0,1,3.551,1.048c.32.2.291.378.116.611a3.062,3.062,0,0,1-.989.844.5.5,0,0,1-.407,0,9.74,9.74,0,0,0-4.1-.2c-.378.058-.582-.029-.64-.407,0-.058-.029-.087-.029-.146-.2-1.135-.087-1.31,1.048-1.542A4.193,4.193,0,0,1,37.6,13.186Z" transform="translate(-24.816 -9.356)" fill="#2b1710"/>
      <path id="Path_3769" data-name="Path 3769" d="M14.4,90.529a10.837,10.837,0,0,1,.815-4.249c.175-.437.378-.407.669-.146a1.766,1.766,0,0,1,.7,2.037,7.714,7.714,0,0,0-.116,3.463c.029.378.058.728-.378.9a1.7,1.7,0,0,1-1.455-.029c-.116-.058-.116-.233-.116-.349C14.458,91.577,14.4,90.995,14.4,90.529Z" transform="translate(-10.198 -60.942)" fill="#2b1710"/>
      <path id="Path_3770" data-name="Path 3770" d="M119.6,36.669a5.944,5.944,0,0,1-.349,2.474,3.065,3.065,0,0,1-.582.989c-.378.437-.32.407-.728,0a1.845,1.845,0,0,1-.437-2.008,8.559,8.559,0,0,0,.116-3.842c-.058-.262.029-.378.262-.437.116-.029.233-.087.378-.116.9-.32.9-.32,1.077.611A11.876,11.876,0,0,1,119.6,36.669Z" transform="translate(-83.214 -23.788)" fill="#2b1710"/>
      <path id="Path_3771" data-name="Path 3771" d="M23.056,31.8c1.281,2.125,2.212,4.278,1.135,6.781a.469.469,0,0,1-.116.2c-.2.262-.233.757-.64.728-.349-.029-.786-.96-.7-1.368a6.726,6.726,0,0,0,.087-2.852,2.73,2.73,0,0,0-.291-.815A1.975,1.975,0,0,1,23.056,31.8Z" transform="translate(-15.74 -22.556)" fill="#2b1710"/>
      <path id="Path_3772" data-name="Path 3772" d="M65.425,124.722c-.058.029-.175-.029-.262-.116a28.307,28.307,0,0,1-3.347-2.561.6.6,0,0,1-.175-.757,2.423,2.423,0,0,1,.844-1.164c.116-.087.262-.2.407,0a6.729,6.729,0,0,0,2.3,2.037,9.374,9.374,0,0,1,1.63,1.193c.466.495.437.582-.146.873A3.881,3.881,0,0,1,65.425,124.722Z" transform="translate(-43.645 -85.095)" fill="#2b1710"/>
      <path id="Path_3773" data-name="Path 3773" d="M48.107,20.307c-.175-.757.262-1.251,1.106-1.63a11.21,11.21,0,0,0,2.677-1.833c.2-.175.349-.2.553-.029.058.058.146.087.2.146.9.669.931.931.116,1.688a11.85,11.85,0,0,1-2.707,1.95,7,7,0,0,1-1.222.466C48.078,21.209,48.078,21.209,48.107,20.307Z" transform="translate(-34.069 -11.848)" fill="#2b1710"/>
      <path id="Path_3774" data-name="Path 3774" d="M119.164,58.9c.058.029.146.029.233.058a1.686,1.686,0,0,1,.7,1.892,10.144,10.144,0,0,1-1.6,2.241c-.087.087-.175.2-.262.291-.291.291-.495.873-.815.844-.437-.058-.815-.495-1.193-.757-.175-.116-.116-.233-.029-.378.844-1.339,1.659-2.648,2.5-3.987A.633.633,0,0,1,119.164,58.9Z" transform="translate(-82.309 -41.769)" fill="#2b1710"/>
      <path id="Path_3775" data-name="Path 3775" d="M86.422,121.441a9.4,9.4,0,0,1,3.929,1.164c.087.058.2.116.291.175.495.349.466.32.058.757a1.594,1.594,0,0,1-2.154.407,9.346,9.346,0,0,0-2.823-.7c-.349-.058-.524-.175-.524-.524,0-.116-.029-.262-.029-.378C85.113,121.47,85.229,121.354,86.422,121.441Z" transform="translate(-60.364 -86.092)" fill="#2b1710"/>
      <path id="Path_3776" data-name="Path 3776" d="M107.6,48.177a1.492,1.492,0,0,1,1.775,1.193,7.869,7.869,0,0,0,1.746,2.707.445.445,0,0,1,.058.669c-.844,1.31-.757,1.048-1.6.146a11.562,11.562,0,0,1-2.416-4.278C107.047,48.206,107.076,48.031,107.6,48.177Z" transform="translate(-75.925 -34.131)" fill="#2b1710"/>
      <path id="Path_3777" data-name="Path 3777" d="M85.154,9.089c.087-.029.175.087.262.2A8.909,8.909,0,0,1,87.1,12.7c.058.291,0,.378-.262.407-.495.058-1.048.349-1.455.2s-.524-.815-.786-1.251c-.437-.7-.815-1.426-1.222-2.154-.175-.291-.087-.378.175-.466A10.945,10.945,0,0,1,85.154,9.089Z" transform="translate(-59.038 -6.451)" fill="#8aab3e"/>
      <path id="Path_3778" data-name="Path 3778" d="M45.253,124.75c-.32.087-.524-.116-.7-.378a8.5,8.5,0,0,1-1.4-3.492c-.058-.262.029-.378.291-.407A7.958,7.958,0,0,1,44.9,120.3c.146,0,.291-.029.291.2a7.6,7.6,0,0,0,1.368,3.492c.2.32.116.437-.175.582A4.862,4.862,0,0,1,45.253,124.75Z" transform="translate(-30.574 -85.297)" fill="#2b1710"/>
      <path id="Path_3779" data-name="Path 3779" d="M8.8,68.959a3.156,3.156,0,0,1,.437-1.048,22.76,22.76,0,0,1,1.95-2.474c.2-.233.349-.262.553-.029.029.058.116.087.146.116.757.7.786.844.233,1.717A22.239,22.239,0,0,1,10.75,69.25a3.116,3.116,0,0,1-.553.524.612.612,0,0,1-.728.029A2.006,2.006,0,0,1,8.8,68.959Z" transform="translate(-6.228 -46.269)" fill="#8aab3e"/>
      <path id="Path_3780" data-name="Path 3780" d="M472.973,106.11v-3.318c0-.437-.087-.757-.611-.757h1.513c-.495.058-.437.437-.437.786,0,1.31,0,2.619-.029,3.929a1.235,1.235,0,0,1-.087.611c-1.513-1.31-2.794-2.794-4.22-4.249V104.6c0,.582.029,1.135.058,1.688,0,.437-.029.931.611.96H468.2c.524-.058.495-.437.495-.815v-4.074c0-.146-.087-.32.087-.407.2-.087.262.116.378.233,1.164,1.193,2.3,2.416,3.463,3.609C472.74,105.877,472.827,106.052,472.973,106.11Z" transform="translate(-331.929 -72.274)" fill="#2b1710"/>
      <path id="Path_3781" data-name="Path 3781" d="M343.018,102.059a18,18,0,0,0-3.318-.029c.611.029.582.437.582.815,0,1.193,0,2.357-.029,3.551,0,.349,0,.7-.437.815.32.029.582.029.844.029a14.4,14.4,0,0,0,2.241.029,2.665,2.665,0,0,0,2.3-2.648A2.472,2.472,0,0,0,343.018,102.059Zm1.339,3.551a2.2,2.2,0,0,1-2.5,1.426c-.786-.087-.873-.175-.873-.96v-3.463c0-.175,0-.349.262-.378C343.745,101.972,344.88,103.806,344.356,105.61Z" transform="translate(-240.826 -72.298)" fill="#2b1710"/>
      <path id="Path_3782" data-name="Path 3782" d="M20.389,80.576c-.64-.175-1.251-.2-1.659-.873-.524-.844-1.135-1.63-1.63-2.474-.2-.378-.262-.669.087-.989a.291.291,0,0,0,.116-.146c.553-.669.669-.669,1.193.058a20.557,20.557,0,0,1,2.125,4.133C20.768,80.605,20.506,80.547,20.389,80.576Z" transform="translate(-11.997 -53.608)" fill="#2b1710"/>
      <path id="Path_3783" data-name="Path 3783" d="M448.538,101.7a2.76,2.76,0,0,0-2.939,2.707,2.66,2.66,0,0,0,2.794,2.736,2.788,2.788,0,0,0,2.939-2.765A2.6,2.6,0,0,0,448.538,101.7Zm.32,5.151a2.256,2.256,0,0,1-2.445-2.154,2.7,2.7,0,0,1,.029-1.077,1.858,1.858,0,0,1,1.688-1.63,2.069,2.069,0,0,1,2.183,1.106,3,3,0,0,1,.291,1.4C450.575,105.89,449.935,106.733,448.858,106.85Z" transform="translate(-315.905 -72.112)" fill="#2b1710"/>
      <path id="Path_3784" data-name="Path 3784" d="M63.78,12.835a5.608,5.608,0,0,1-4.715-1.426c-.087-.058-.175-.146-.262-.2-.64-.524-.611-.669.175-.96a2.154,2.154,0,0,1,1.746.087,8.942,8.942,0,0,1,3,2.416c.058-.029.058.058.058.087Z" transform="translate(-41.36 -7.17)" fill="#89ab3e"/>
      <path id="Path_3785" data-name="Path 3785" d="M10.145,46.478c-.087-.32.087-.553.407-.757a6.815,6.815,0,0,1,2.707-1.368c.582-.116.611-.116.669.495.029.32.32.7.146.96-.146.233-.553.262-.844.407a11.223,11.223,0,0,0-2.3,1.513c-.291.233-.437.146-.553-.116A2.217,2.217,0,0,1,10.145,46.478Z" transform="translate(-7.166 -31.414)" fill="#89ab3e"/>
      <path id="Path_3786" data-name="Path 3786" d="M120.7,87.308a1.715,1.715,0,0,1-1.339,2.008,16.057,16.057,0,0,1-1.572.466c-.291.058-.466.029-.495-.32a3.407,3.407,0,0,1-.087-1.193c.087-.378.64-.349.96-.553.611-.407,1.251-.786,1.892-1.193.407-.262.553-.2.64.262A3.149,3.149,0,0,0,120.7,87.308Z" transform="translate(-83.055 -61.242)" fill="#8aab3e"/>
      <path id="Path_3787" data-name="Path 3787" d="M229.7,102.1h1.659c-.466.146-.407.524-.407.9.029.931-.058,1.863.058,2.765a1.5,1.5,0,0,0,3,.029,23.508,23.508,0,0,0,.029-3.2c0-.349-.291-.349-.524-.495h1.455c-.495.146-.407.553-.407.9,0,.786.029,1.6-.029,2.386a2.181,2.181,0,0,1-3.289,1.833,2,2,0,0,1-1.019-1.921c-.029-.786-.029-1.6,0-2.386C230.224,102.537,230.253,102.129,229.7,102.1Z" transform="translate(-162.84 -72.397)" fill="#2b1710"/>
      <path id="Path_3788" data-name="Path 3788" d="M326.521,103.893c.029,1.135,0,1.164-1.019,1.164-.815,0-1.6,0-2.445-.058.524-.087.524-.466.553-.815,0-1.542,0-3.085.029-4.627,0-.495-.291-.582-.64-.728h.786c.757,0,1.513,0,2.27-.029.262,0,.349,0,.291.291a5.425,5.425,0,0,0-.087.757,1.558,1.558,0,0,0-1.775-.669.236.236,0,0,0-.146.262V101.3c0,.116,0,.262.146.262a3.987,3.987,0,0,0,1.746-.175q-.044.524-.087,1.135a1.537,1.537,0,0,0-1.659-.611.236.236,0,0,0-.146.262v1.95c0,.407.2.582.611.611h.378C326.114,104.708,326.2,104.65,326.521,103.893Z" transform="translate(-228.987 -70.057)" fill="#2b1710"/>
      <path id="Path_3789" data-name="Path 3789" d="M160.3,98.9h3.376c-.029.291-.058.611-.116,1.077-.146-.437-.262-.757-.7-.757-.349,0-.669,0-1.019-.029-.175,0-.175.146-.175.262v1.833c0,.116-.029.262.146.262a3.6,3.6,0,0,0,1.746-.175c-.029.378-.058.728-.087,1.222-.233-.96-.931-.611-1.455-.7-.262-.029-.349.058-.349.32.029.611,0,1.222,0,1.833a.6.6,0,0,0,.611.669h.378c.553,0,1.048-.058,1.135-.844a3.666,3.666,0,0,1,0,.99c-.058.175-.175.2-.349.2-.99,0-2.008,0-3.027-.058.524-.116.524-.524.553-.9,0-1.4.029-2.794,0-4.191C160.969,99.22,160.94,99.22,160.3,98.9Z" transform="translate(-113.637 -70.128)" fill="#2b1710"/>
      <path id="Path_3790" data-name="Path 3790" d="M361.4,102.1h1.659c-.378.146-.437.437-.437.786.029.9-.029,1.775.029,2.677a1.5,1.5,0,0,0,2.008,1.513,1.274,1.274,0,0,0,.96-1.048,20.012,20.012,0,0,0,.087-3.492c0-.32-.291-.32-.524-.437h1.6c-.64.146-.524.582-.553.96,0,.815.029,1.63-.029,2.416a2.175,2.175,0,0,1-3.434,1.63,2,2,0,0,1-.844-1.775c-.029-.815,0-1.63,0-2.416C361.924,102.537,361.924,102.158,361.4,102.1Z" transform="translate(-256.211 -72.397)" fill="#2b1710"/>
      <path id="Path_3791" data-name="Path 3791" d="M29.16,18.3a1.731,1.731,0,0,0,1.31,1.717c.2.087.291.2.262.407v.291c-.029.466.087,1.135-.32,1.339-.349.175-.844-.262-1.222-.524a6.29,6.29,0,0,1-1.775-2.037c-.116-.2-.116-.291.116-.407C28.025,18.853,28.549,18.591,29.16,18.3Z" transform="translate(-19.37 -12.985)" fill="#2b1710"/>
      <path id="Path_3792" data-name="Path 3792" d="M176,102.1h1.8c-.437.146-.437.32-.291.582.291.466.553.96.873,1.542.349-.524.64-1.019.931-1.484.175-.262.291-.495-.146-.64h1.368c-.96.495-1.251,1.513-1.863,2.27-.116.116,0,.233.058.349.407.669.844,1.339,1.251,2.008a1.216,1.216,0,0,0,.757.553,4.521,4.521,0,0,1-1.251.058c-.058,0-.146,0-.146-.087-.116-.873-.815-1.426-1.164-2.328-.437.728-.815,1.339-1.164,1.979-.146.233.087.291.291.437H175.8c1.135-.495,1.4-1.717,2.1-2.561.116-.146,0-.233-.058-.349-.378-.582-.728-1.193-1.106-1.775A1.268,1.268,0,0,0,176,102.1Z" transform="translate(-124.626 -72.397)" fill="#2b1710"/>
      <path id="Path_3793" data-name="Path 3793" d="M404.8,106.253c-.553-1.368-1.135-2.765-1.688-4.133-.058-.116-.058-.32-.233-.32s-.175.2-.233.32c-.524,1.339-1.019,2.648-1.542,3.987-.175.437-.291.931-.9,1.019h1.542c-.407-.233-.407-.233-.32-.582.058-.2.175-.437.233-.64.116-.582.407-.757,1.019-.728.989.058.989.029,1.4.96.116.32.175.815.407.931.32.175.786.029,1.193.029,0,0,.029,0,.146-.116A.928.928,0,0,1,404.8,106.253Zm-1.455-1.339h-.087c-1.28.116-1.28.116-.844-1.077.116-.291.2-.582.378-1.019.262.7.495,1.31.7,1.892C403.489,104.827,403.46,104.914,403.343,104.914Z" transform="translate(-283.719 -72.184)" fill="#2b1710"/>
      <path id="Path_3794" data-name="Path 3794" d="M214.8,103.172c-.291-.99-1.135-1.368-2.445-1.106-1.455.262-1.8,1.688-1.484,2.91a2.589,2.589,0,0,0,3.2,1.8c.466-.087.669-.466.786-.931.233.7-.058,1.222-.7,1.31a4.74,4.74,0,0,1-2.212-.146,2.7,2.7,0,0,1,.524-5.268,7.885,7.885,0,0,1,2.183.146c.146.029.291.029.262.262-.029.349,0,.7,0,1.048C214.888,103.172,214.859,103.172,214.8,103.172Z" transform="translate(-148.9 -72.13)" fill="#2b1710"/>
      <path id="Path_3795" data-name="Path 3795" d="M387.072,103.07a1.39,1.39,0,0,0-1.281-1.135,4.506,4.506,0,0,0-1.251,0,2.171,2.171,0,0,0-1.455,2.968,2.6,2.6,0,0,0,3.172,1.717c.495-.087.669-.495.844-.989.116,1.048-.116,1.339-.99,1.4a5.322,5.322,0,0,1-1.921-.146,2.7,2.7,0,0,1,.407-5.268,7.85,7.85,0,0,1,2.328.146c.116.029.233.058.2.2C387.131,102.343,387.1,102.721,387.072,103.07Z" transform="translate(-270.999 -72.028)" fill="#2b1710"/>
      <path id="Path_3796" data-name="Path 3796" d="M280.92,102.1h1.4c-.466.146-.64.524-.815.931-.582,1.368-1.164,2.707-1.746,4.045-.058.116-.087.32-.233.349-.2,0-.2-.233-.262-.349-.553-1.339-1.106-2.677-1.688-4.045-.175-.407-.291-.873-.873-.931h1.775c-.378.116-.349.32-.233.64l1.4,3.58c.146,0,.146-.146.2-.262.437-1.106.873-2.241,1.339-3.347C281.269,102.449,281.386,102.158,280.92,102.1Z" transform="translate(-196.161 -72.397)" fill="#2b1710"/>
      <path id="Path_3797" data-name="Path 3797" d="M198.672,106.436c.146.2.029.378.029.553,0,.291-.146.378-.437.378-.873,0-1.746,0-2.648-.029.495-.2.437-.64.437-1.019v-3.405c0-.407,0-.786-.553-.815h2.3c.786,0,.786,0,.669.786a1.67,1.67,0,0,0-1.6-.524c-.175.058-.145.146-.145.262v1.513c0,.233.116.262.291.262a2.715,2.715,0,0,0,1.426-.2q-.044.524-.087.96a1.53,1.53,0,0,0-1.513-.466c-.175.058-.116.175-.116.262v1.542c0,.262.087.466.378.495a3.341,3.341,0,0,0,1.077,0C198.468,106.989,198.614,106.756,198.672,106.436Z" transform="translate(-138.593 -72.397)" fill="#2b1710"/>
      <path id="Path_3798" data-name="Path 3798" d="M298.1,107.1c.495,0,.495-.32.495-.611,0-1.281,0-2.561.029-3.842,0-.378-.087-.64-.524-.728h.7c.669,0,1.368.029,2.037-.029.291-.029.32.058.262.291a1.04,1.04,0,0,1-.145.611c-.087-.669-.582-.553-.99-.553-.7-.029-.7-.029-.7.669,0,.32.029.611,0,.931-.029.349.116.466.437.407a5.134,5.134,0,0,1,.669,0,1.416,1.416,0,0,0,.64-.175c-.029.349-.058.64-.116.989a1.531,1.531,0,0,0-1.542-.495c-.116.058-.087.175-.087.262v1.542c0,.349.2.495.524.524h.524c.437,0,.815-.087.873-.7.175.815.029.99-.64.99h-2.386A.417.417,0,0,0,298.1,107.1Z" transform="translate(-211.333 -72.242)" fill="#2b1710"/>
      <path id="Path_3799" data-name="Path 3799" d="M417,102.7a1.474,1.474,0,0,0,.058-.378c.029-.378.175-.466.582-.437,1.193.058,2.357.058,3.551.029.407-.029.437.087.407.407-.029.146-.029.32-.058.495a.751.751,0,0,0-.757-.524c-.32,0-.64-.029-.96-.029-.175,0-.146.146-.146.262,0,1.339.029,2.677,0,4.045,0,.437.262.524.611.611h-1.833c.495-.116.524-.437.524-.786v-3.783c0-.291-.087-.378-.349-.349a3.885,3.885,0,0,1-.582,0c-.407,0-.786,0-.96.524Z" transform="translate(-295.63 -72.242)" fill="#2b1710"/>
      <path id="Path_3800" data-name="Path 3800" d="M253.152,107.162H251.26c.582-.175.524-.553.524-.931,0-1.222,0-2.416.029-3.638,0-.262-.058-.407-.349-.349a3.149,3.149,0,0,1-.524,0c-.407,0-.844-.029-1.019.495-.146-.175-.029-.291-.029-.407.029-.407.175-.524.64-.466a33.793,33.793,0,0,0,3.434.029c.437-.029.495.087.437.466a2.351,2.351,0,0,0-.029.466,1.73,1.73,0,0,0-1.746-.553c-.2.087-.116.262-.116.378V106.2C252.483,106.9,252.483,106.9,253.152,107.162Z" transform="translate(-177.124 -72.221)" fill="#2b1710"/>
      <path id="Path_3801" data-name="Path 3801" d="M269.1,102.1h1.542c-.466.058-.437.437-.437.757v3.638c0,.437.058.786.611.815H269.1c.349-.116.407-.378.407-.7,0-1.31,0-2.59.029-3.9C269.507,102.42,269.449,102.187,269.1,102.1Z" transform="translate(-190.773 -72.397)" fill="#2b1710"/>
      <path id="Path_3802" data-name="Path 3802" d="M436.4,102.1h1.542c-.407.146-.437.437-.437.786.029,1.222.029,2.416,0,3.638,0,.407.058.757.582.786H436.4c.407-.058.407-.407.407-.7,0-1.281,0-2.59.029-3.871A.58.58,0,0,0,436.4,102.1Z" transform="translate(-309.384 -72.397)" fill="#2b1710"/>
      <path id="Path_3803" data-name="Path 3803" d="M21.9,97.814c.029-.029.087-.058.116-.087.116-.116.233-.262.378-.029s-.116.233-.2.349c-.233.262-.2-.087-.291-.116Z" transform="translate(-15.515 -69.188)" fill="#2b1811"/>
      <path id="Path_3804" data-name="Path 3804" d="M6.1,93.4a5.468,5.468,0,0,1,.989,1.019A2.761,2.761,0,0,1,6.1,93.4Z" transform="translate(-4.314 -66.229)" fill="#fdfdfd"/>
    </g>
  </g>
</svg>
