<svg id="Group_15355" data-name="Group 15355" xmlns="http://www.w3.org/2000/svg" width="145.404" height="126.552" viewBox="0 0 145.404 126.552">
  <path id="Path_28395" data-name="Path 28395" d="M451.482,278.877a47.941,47.941,0,1,1-95.882,0c0-26.492,17.573-43.8,40.49-47.377v16.143a7.413,7.413,0,1,0,14.826,0V231.5a47.925,47.925,0,0,1,40.49,47.377Z" transform="translate(-330.839 -231.5)" fill="#f0f3f6"/>
  <g id="Group_15329" data-name="Group 15329" transform="translate(68.412 8.918)">
    <path id="Path_28396" data-name="Path 28396" d="M476.642,258.8h-1.016l-.151.9h1.016l-.113.79h-1.054l-.263,1.505h-.828l.263-1.505h-1.016l-.263,1.505h-.828l.263-1.505H471.6l.113-.79h1.054l.151-.9h-1.054l.113-.79h1.054l.263-1.505h.828l-.263,1.505h1.016l.263-1.505h.828l-.263,1.505h1.016l-.113.79Zm-1.994.9.151-.9h-1.016l-.15.9Z" transform="translate(-471.6 -256.011)" fill="#f26558"/>
    <path id="Path_28397" data-name="Path 28397" d="M487.893,255.2h.9v6.435h-1.054v-5.306l-1.279.376-.263-.9Z" transform="translate(-480.706 -255.2)" fill="#f26558"/>
  </g>
  <g id="Group_15336" data-name="Group 15336" transform="translate(0 9.295)">
    <g id="Group_15332" data-name="Group 15332" transform="translate(0 0)">
      <g id="Group_15330" data-name="Group 15330" transform="translate(10.273 10.311)">
        <path id="Path_28398" data-name="Path 28398" d="M426.1,482.3c8.542,6.924,9.6,14.036,9.6,14.036C428.885,493.25,427.154,490.654,426.1,482.3Z" transform="translate(-385.083 -407.529)" fill="#c2cad8"/>
        <path id="Path_28399" data-name="Path 28399" d="M405.4,472.838c7.714,7.413,8.73,14.488,8.73,14.488a33.805,33.805,0,0,1-2.9-1.769c-2.785-1.881-5.344-3.8-5.833-12.757Z" transform="translate(-372.172 -401.603)" fill="#c2cad8"/>
        <path id="Path_28400" data-name="Path 28400" d="M386.518,461.6c6.623,7.789,7.413,15.09,7.413,15.127C388.249,473.077,386.1,470.18,386.518,461.6Z" transform="translate(-360.365 -394.618)" fill="#c2cad8"/>
        <path id="Path_28401" data-name="Path 28401" d="M369.207,448.2a37.264,37.264,0,0,1,5.532,15.729C369.169,459.451,367.739,455.726,369.207,448.2Z" transform="translate(-349.263 -386.26)" fill="#c2cad8"/>
        <path id="Path_28402" data-name="Path 28402" d="M354.474,432.5a46.75,46.75,0,0,1,3.123,16.256C352.931,443.751,351.84,439.462,354.474,432.5Z" transform="translate(-339.534 -376.468)" fill="#c2cad8"/>
        <path id="Path_28403" data-name="Path 28403" d="M342.423,414.4a62.7,62.7,0,0,1,.3,16.6C338.773,424.9,338.773,420.647,342.423,414.4Z" transform="translate(-331.209 -365.18)" fill="#c2cad8"/>
        <path id="Path_28404" data-name="Path 28404" d="M333.7,394c-.075,12.945-2.107,12.606-2.484,16.633C328.888,404.687,328.775,400.171,333.7,394Z" transform="translate(-324.937 -352.456)" fill="#c2cad8"/>
        <path id="Path_28405" data-name="Path 28405" d="M328.455,372.4c-2.107,12.079-3.8,12.042-5.118,16.181C322.133,382.184,323.112,377.4,328.455,372.4Z" transform="translate(-320.704 -338.984)" fill="#c2cad8"/>
        <path id="Path_28406" data-name="Path 28406" d="M325.964,350.1c-3.65,11.176-4.93,10.687-7.564,15.391C318.4,358.83,320.093,354.428,325.964,350.1Z" transform="translate(-317.911 -325.076)" fill="#c2cad8"/>
        <path id="Path_28407" data-name="Path 28407" d="M326.771,327.5c-3.8,8.241-5.08,9.219-9.671,14.45C318.267,335.214,320.637,331.338,326.771,327.5Z" transform="translate(-317.1 -310.98)" fill="#c2cad8"/>
        <path id="Path_28408" data-name="Path 28408" d="M331.1,305.2a43.23,43.23,0,0,1-11.4,13.434C321.845,311.635,325.57,308.135,331.1,305.2Z" transform="translate(-318.722 -297.072)" fill="#c2cad8"/>
        <path id="Path_28409" data-name="Path 28409" d="M338.594,283.6c-3.462,4.666-7.564,9.332-12.794,12.343C329.111,289.245,332.724,286.2,338.594,283.6Z" transform="translate(-322.526 -283.6)" fill="#c2cad8"/>
      </g>
      <g id="Group_15331" data-name="Group 15331" transform="translate(0 2.408)">
        <path id="Path_28410" data-name="Path 28410" d="M406.6,529.843c11.289,2.07,16.9-4.177,16.9-4.177C415.293,523.86,413.9,525.026,406.6,529.843Z" transform="translate(-362.648 -426.171)" fill="#c2cad8"/>
        <path id="Path_28411" data-name="Path 28411" d="M381.6,519.223c11.214,3.8,15.918-2.559,17.5-2.521a35.465,35.465,0,0,0-7.677-1.2,6.359,6.359,0,0,0-1.242.113c-1.994.414-6.247,2.446-8.58,3.575Z" transform="translate(-347.055 -420.33)" fill="#c2cad8"/>
        <path id="Path_28412" data-name="Path 28412" d="M357.4,505.926c11.515,5.419,15.842-.188,17.987-.188-2.183-.715-6.623-2.107-8.956-1.957C364.738,503.894,361.8,504.722,357.4,505.926Z" transform="translate(-331.962 -413.017)" fill="#c2cad8"/>
        <path id="Path_28413" data-name="Path 28413" d="M334.9,488.978c10.348,7.488,16.068,2.747,18.138,2.86C344.044,487.736,344.308,488.526,334.9,488.978Z" transform="translate(-317.929 -403.557)" fill="#c2cad8"/>
        <path id="Path_28414" data-name="Path 28414" d="M315.6,465.1c8.843,9.709,15.278,6.171,17.649,6.585C325.083,466.191,324.1,466.831,315.6,465.1Z" transform="translate(-305.891 -388.899)" fill="#c2cad8"/>
        <path id="Path_28415" data-name="Path 28415" d="M301.3,436.7c6.811,11.515,13.472,9.709,16.068,10.536C310.068,440.237,309.165,440.425,301.3,436.7Z" transform="translate(-296.973 -371.186)" fill="#c2cad8"/>
        <path id="Path_28416" data-name="Path 28416" d="M292.8,406.6c3.537,11.59,12.042,13.1,13.622,13.923C300.326,411.755,299.611,412.056,292.8,406.6Z" transform="translate(-291.671 -352.412)" fill="#c2cad8"/>
        <path id="Path_28417" data-name="Path 28417" d="M289.8,375.5c1.731,11.7,7.3,14.224,10.725,16.6C295.106,381.22,296.987,384.418,289.8,375.5Z" transform="translate(-289.8 -333.015)" fill="#c2cad8"/>
        <path id="Path_28418" data-name="Path 28418" d="M292.1,344.938v1.279c0,.414.038.9.075,1.43s.113,1.129.188,1.769a32.7,32.7,0,0,0,.753,4.026c1.279,4.854,3.575,7.037,6.472,9.934-2.484-9.332-3.424-10.838-5.155-14.036-.263-.452-.489-.9-.715-1.355-.9-1.731-1.618-3.086-1.618-3.086Z" transform="translate(-291.234 -313.93)" fill="#c2cad8"/>
        <path id="Path_28419" data-name="Path 28419" d="M298.043,315.8a2.325,2.325,0,0,1-.038.339c0,.226-.075.527-.113.941-.075.79-.188,1.882-.226,3.161a21.422,21.422,0,0,0,4.779,15.127c-1.242-10.273-1.054-9.37-3.311-16.256-.6-1.844-1.091-3.274-1.091-3.274Z" transform="translate(-294.694 -295.781)" fill="#c2cad8"/>
        <path id="Path_28420" data-name="Path 28420" d="M306.539,288.3c-1.957,6.924-2.107,13.509,1.543,20.019C308.345,297.331,308.27,298.5,306.539,288.3Z" transform="translate(-299.389 -278.629)" fill="#c2cad8"/>
        <path id="Path_28421" data-name="Path 28421" d="M317.442,262.6c-3.5,8.2-2.973,15.692-1.091,20.132C317.969,272.045,317.668,272.61,317.442,262.6Z" transform="translate(-305.438 -262.6)" fill="#c2cad8"/>
      </g>
      <path id="Path_28422" data-name="Path 28422" d="M330.5,271.064c4.892-3.688,6.247-10.574,8.091-14.864C335.129,258.8,329.484,266.134,330.5,271.064Z" transform="translate(-315.109 -256.2)" fill="#c2cad8"/>
      <path id="Path_28423" data-name="Path 28423" d="M352.719,370.952c15.2,6.472,37.969,9.332,38.12,21.374-.64.226-1.468.3-2.145.527-.339-11.966-19.982-13.547-37.442-21.374-37.894-16.934-46.1-50.124-29.766-84.179-16.407,34.62-7.338,67.133,31.233,83.69Z" transform="translate(-304.59 -275.597)" fill="#c2cad8"/>
    </g>
    <g id="Group_15335" data-name="Group 15335" transform="translate(59.193 0)">
      <g id="Group_15333" data-name="Group 15333" transform="translate(25.325 10.311)">
        <path id="Path_28424" data-name="Path 28424" d="M524,482.3c-8.542,6.924-9.6,14.036-9.6,14.036C521.211,493.25,522.942,490.654,524,482.3Z" transform="translate(-514.4 -407.529)" fill="#c2cad8"/>
        <path id="Path_28425" data-name="Path 28425" d="M546.13,472.838c-7.714,7.413-8.73,14.488-8.73,14.488a33.812,33.812,0,0,0,2.9-1.769c2.785-1.881,5.344-3.8,5.833-12.757Z" transform="translate(-528.745 -401.603)" fill="#c2cad8"/>
        <path id="Path_28426" data-name="Path 28426" d="M567.213,461.6c-6.623,7.789-7.413,15.09-7.413,15.127C565.482,473.077,567.627,470.18,567.213,461.6Z" transform="translate(-542.716 -394.618)" fill="#c2cad8"/>
        <path id="Path_28427" data-name="Path 28427" d="M586.732,448.2a37.265,37.265,0,0,0-5.532,15.729C586.769,459.451,588.2,455.726,586.732,448.2Z" transform="translate(-556.063 -386.26)" fill="#c2cad8"/>
        <path id="Path_28428" data-name="Path 28428" d="M604.022,432.5a46.751,46.751,0,0,0-3.123,16.256C605.564,443.751,606.656,439.462,604.022,432.5Z" transform="translate(-568.348 -376.468)" fill="#c2cad8"/>
        <path id="Path_28429" data-name="Path 28429" d="M617.927,414.4a62.7,62.7,0,0,0-.3,16.6C621.577,424.9,621.577,420.647,617.927,414.4Z" transform="translate(-578.528 -365.18)" fill="#c2cad8"/>
        <path id="Path_28430" data-name="Path 28430" d="M625.6,394c.075,12.945,2.107,12.606,2.484,16.633C630.417,404.687,630.529,400.171,625.6,394Z" transform="translate(-583.755 -352.456)" fill="#c2cad8"/>
        <path id="Path_28431" data-name="Path 28431" d="M628.4,372.4c2.107,12.079,3.8,12.042,5.118,16.181C634.722,382.184,633.744,377.4,628.4,372.4Z" transform="translate(-585.501 -338.984)" fill="#c2cad8"/>
        <path id="Path_28432" data-name="Path 28432" d="M627.5,350.1c3.65,11.176,4.929,10.687,7.564,15.391C635.064,358.83,633.37,354.428,627.5,350.1Z" transform="translate(-584.94 -325.076)" fill="#c2cad8"/>
        <path id="Path_28433" data-name="Path 28433" d="M623.2,327.5c3.8,8.241,5.08,9.219,9.671,14.45C631.7,335.214,629.334,331.338,623.2,327.5Z" transform="translate(-582.258 -310.98)" fill="#c2cad8"/>
        <path id="Path_28434" data-name="Path 28434" d="M616,305.2a43.231,43.231,0,0,0,11.4,13.434C625.257,311.635,621.532,308.135,616,305.2Z" transform="translate(-577.768 -297.072)" fill="#c2cad8"/>
        <path id="Path_28435" data-name="Path 28435" d="M606.2,283.6c3.462,4.666,7.564,9.332,12.794,12.343C615.683,289.245,612.07,286.2,606.2,283.6Z" transform="translate(-571.655 -283.6)" fill="#c2cad8"/>
      </g>
      <g id="Group_15334" data-name="Group 15334" transform="translate(25.363 2.408)">
        <path id="Path_28436" data-name="Path 28436" d="M531.4,529.843c-11.289,2.07-16.9-4.177-16.9-4.177C522.7,523.86,524.1,525.026,531.4,529.843Z" transform="translate(-514.5 -426.171)" fill="#c2cad8"/>
        <path id="Path_28437" data-name="Path 28437" d="M555.4,519.223c-11.214,3.8-15.918-2.559-17.5-2.521a35.462,35.462,0,0,1,7.677-1.2,6.358,6.358,0,0,1,1.242.113c1.994.414,6.247,2.446,8.58,3.575Z" transform="translate(-529.095 -420.33)" fill="#c2cad8"/>
        <path id="Path_28438" data-name="Path 28438" d="M578.787,505.926c-11.515,5.419-15.842-.188-17.987-.188,2.182-.715,6.623-2.107,8.956-1.957C571.449,503.894,574.385,504.722,578.787,505.926Z" transform="translate(-543.377 -413.017)" fill="#c2cad8"/>
        <path id="Path_28439" data-name="Path 28439" d="M601.138,488.978c-10.348,7.488-16.068,2.747-18.138,2.86C591.994,487.736,591.73,488.526,601.138,488.978Z" transform="translate(-557.223 -403.557)" fill="#c2cad8"/>
        <path id="Path_28440" data-name="Path 28440" d="M621.249,465.1c-8.843,9.709-15.278,6.171-17.649,6.585C611.766,466.191,612.744,466.831,621.249,465.1Z" transform="translate(-570.071 -388.899)" fill="#c2cad8"/>
        <path id="Path_28441" data-name="Path 28441" d="M638.168,436.7c-6.811,11.515-13.472,9.709-16.068,10.536C629.4,440.237,630.3,440.425,638.168,436.7Z" transform="translate(-581.61 -371.186)" fill="#c2cad8"/>
        <path id="Path_28442" data-name="Path 28442" d="M650.722,406.6c-3.537,11.59-12.042,13.1-13.622,13.923C643.2,411.755,643.911,412.056,650.722,406.6Z" transform="translate(-590.965 -352.412)" fill="#c2cad8"/>
        <path id="Path_28443" data-name="Path 28443" d="M658.425,375.5c-1.731,11.7-7.3,14.224-10.725,16.6C653.119,381.22,651.237,384.418,658.425,375.5Z" transform="translate(-597.576 -333.015)" fill="#c2cad8"/>
        <path id="Path_28444" data-name="Path 28444" d="M661.488,344.938v1.279c0,.414-.038.9-.075,1.43s-.113,1.129-.188,1.769a32.674,32.674,0,0,1-.752,4.026c-1.279,4.854-3.575,7.037-6.472,9.934,2.484-9.332,3.424-10.838,5.155-14.036.263-.452.489-.9.715-1.355.9-1.731,1.618-3.086,1.618-3.086Z" transform="translate(-601.506 -313.93)" fill="#c2cad8"/>
        <path id="Path_28445" data-name="Path 28445" d="M660.1,315.8a2.321,2.321,0,0,0,.038.339c0,.226.075.527.113.941.075.79.188,1.882.226,3.161a21.423,21.423,0,0,1-4.779,15.127c1.242-10.273,1.054-9.37,3.311-16.256.6-1.844,1.091-3.274,1.091-3.274Z" transform="translate(-602.566 -295.781)" fill="#c2cad8"/>
        <path id="Path_28446" data-name="Path 28446" d="M654.554,288.3c1.957,6.924,2.107,13.509-1.543,20.019C652.748,297.331,652.823,298.5,654.554,288.3Z" transform="translate(-600.818 -278.629)" fill="#c2cad8"/>
        <path id="Path_28447" data-name="Path 28447" d="M644,262.6c3.5,8.2,2.973,15.692,1.091,20.132C643.474,272.045,643.775,272.61,644,262.6Z" transform="translate(-595.156 -262.6)" fill="#c2cad8"/>
      </g>
      <path id="Path_28448" data-name="Path 28448" d="M621.891,271.064C617,267.376,615.644,260.49,613.8,256.2,617.262,258.8,622.906,266.134,621.891,271.064Z" transform="translate(-551.07 -256.2)" fill="#c2cad8"/>
      <path id="Path_28449" data-name="Path 28449" d="M485.22,370.952c-15.2,6.472-37.969,9.332-38.12,21.374.64.226,1.468.3,2.145.527.339-11.966,19.982-13.547,37.442-21.374,37.894-16.934,46.1-50.124,29.766-84.179,16.407,34.62,7.338,67.133-31.233,83.69Z" transform="translate(-447.1 -275.597)" fill="#c2cad8"/>
    </g>
  </g>
  <g id="Group_15337" data-name="Group 15337" transform="translate(36.539 33.039)">
    <path id="Path_28450" data-name="Path 28450" d="M426.234,319.7a.737.737,0,0,0-.263.038.563.563,0,0,0-.263.113.64.64,0,0,0-.226.226,1.354,1.354,0,0,0-.188.339c-.188.452-.489,1.166-.866,2.107s-.753,1.957-1.167,2.973h-.339c-.414-1.091-.79-2.145-1.166-3.161s-.64-1.693-.753-2.07c0-.075-.075-.15-.151-.226a1.2,1.2,0,0,0-.226-.188,1.842,1.842,0,0,0-.263-.113c-.075,0-.188-.038-.263-.038v-.3h2.484v.3a1.116,1.116,0,0,0-.527.075c-.151.075-.226.075-.226.151v.226c.113.263.263.715.527,1.355.226.64.564,1.505,1.016,2.672.226-.527.452-1.129.753-1.844q.4-1.072.564-1.467a4.483,4.483,0,0,0,.151-.527v-.226a.15.15,0,0,0-.075-.151l-.226-.113a1.161,1.161,0,0,1-.3-.075h-.3v-.3h2.22v.3Z" transform="translate(-407.607 -319.362)"/>
    <path id="Path_28451" data-name="Path 28451" d="M444.318,323.652l-.113,1.769h-5v-.3h.339c.15,0,.226,0,.263-.075a.816.816,0,0,0,.188-.151c.038-.038.038-.15.038-.263V320.3a.64.64,0,0,0-.038-.263c0-.075-.113-.113-.188-.188a1.546,1.546,0,0,1-.3-.113.938.938,0,0,0-.3-.038v-.3h4.666v1.468h-.3a2.04,2.04,0,0,0-.376-.677,1.193,1.193,0,0,0-.527-.414h-1.656v2.408h.677a.889.889,0,0,0,.489-.075.675.675,0,0,0,.263-.188.71.71,0,0,0,.151-.339,1.656,1.656,0,0,0,.075-.376h.3v2.371h-.3a1.6,1.6,0,0,0-.075-.414,1.476,1.476,0,0,0-.151-.339.585.585,0,0,0-.3-.226c-.113,0-.263-.038-.452-.038h-.677v1.806a1.17,1.17,0,0,0,.038.414.254.254,0,0,0,.151.226,2.612,2.612,0,0,0,.3.113h1.279a.559.559,0,0,0,.339-.075.321.321,0,0,0,.226-.113,5.332,5.332,0,0,0,.414-.6,3.206,3.206,0,0,0,.263-.6h.3Z" transform="translate(-419.519 -319.362)"/>
    <path id="Path_28452" data-name="Path 28452" d="M462.31,319.639a.9.9,0,0,0-.376.075c-.188.075-.263.075-.339.113a.441.441,0,0,0-.188.414c0,.188-.038.452-.038.753v4.4h-.376l-3.65-4.93v3.086a2.329,2.329,0,0,0,.075.79.647.647,0,0,0,.6.6,1.159,1.159,0,0,0,.414.075v.3h-2.484v-.3a.9.9,0,0,0,.376-.075c.188-.075.3-.075.339-.151.113-.075.151-.188.188-.376,0-.15.038-.452.038-.828v-2.973a.678.678,0,0,0-.075-.376.818.818,0,0,0-.188-.3,1.08,1.08,0,0,0-.414-.226,1.143,1.143,0,0,0-.414-.113v-.3h1.731l3.387,4.591v-2.86a2.332,2.332,0,0,0-.075-.79.7.7,0,0,0-.188-.376,2.062,2.062,0,0,0-.79-.226v-.3h2.446Z" transform="translate(-429.873 -319.3)"/>
    <path id="Path_28453" data-name="Path 28453" d="M480.968,321.018h-.3a.976.976,0,0,0-.151-.376c-.075-.151-.151-.263-.226-.414-.075-.113-.188-.226-.263-.339a.389.389,0,0,0-.3-.151h-.978v4.817a.358.358,0,0,0,.075.264c.075.075.113.15.226.188.038,0,.15.038.339.075.151,0,.3.038.376.038v.3h-2.822v-.3h.376a.752.752,0,0,0,.339-.075.25.25,0,0,0,.188-.151.545.545,0,0,0,.075-.263v-4.854h-.978a.741.741,0,0,0-.3.151,2.071,2.071,0,0,0-.263.339,4.126,4.126,0,0,0-.226.414c-.075.151-.113.264-.151.339h-.3V319.4h5.231v1.618Z" transform="translate(-442.284 -319.362)"/>
    <path id="Path_28454" data-name="Path 28454" d="M499.171,319.7a1.3,1.3,0,0,0-.339.038,1.128,1.128,0,0,0-.376.151c-.113.075-.15.188-.188.414a4.554,4.554,0,0,0-.038.753v2.6a1.558,1.558,0,0,1-.226.865,1.741,1.741,0,0,1-.564.6,2.5,2.5,0,0,1-.715.339,2.56,2.56,0,0,1-.715.113,2.676,2.676,0,0,1-.978-.151,2.536,2.536,0,0,1-.715-.376,1.23,1.23,0,0,1-.414-.565,1.975,1.975,0,0,1-.151-.64V320.3a.559.559,0,0,0-.038-.263c-.038-.075-.113-.113-.188-.188a1.831,1.831,0,0,0-.263-.113c-.113,0-.188-.038-.263-.038v-.3h2.521v.3a.935.935,0,0,0-.3.038.439.439,0,0,0-.263.075c-.113,0-.15.075-.188.188,0,.075-.038.15-.038.263v3.311a2.152,2.152,0,0,0,.038.489,1.427,1.427,0,0,0,.226.489,1.106,1.106,0,0,0,.452.376,1.556,1.556,0,0,0,.79.151,1.647,1.647,0,0,0,.79-.151,1.3,1.3,0,0,0,.489-.376,2.027,2.027,0,0,0,.263-.489,2.206,2.206,0,0,0,.075-.489v-2.446a2.205,2.205,0,0,0-.075-.753.579.579,0,0,0-.188-.376,1.059,1.059,0,0,0-.414-.151,3.156,3.156,0,0,0-.376-.075v-.3h2.446v.3Z" transform="translate(-453.074 -319.362)"/>
    <path id="Path_28455" data-name="Path 28455" d="M518.87,325.421h-1.618c-.376-.565-.677-1.054-.979-1.468s-.6-.828-.941-1.28h-.6v1.919a.557.557,0,0,0,.038.263c0,.075.113.151.188.188a2.125,2.125,0,0,0,.264.038h.339v.3H513v-.3h.3c.113,0,.226,0,.263-.038a.25.25,0,0,0,.188-.151.543.543,0,0,0,.075-.263v-4.365a.559.559,0,0,0-.038-.263c0-.075-.113-.151-.188-.188a.958.958,0,0,1-.263-.075.734.734,0,0,1-.3-.038v-.3h2.785a2.2,2.2,0,0,1,.715.075,1.73,1.73,0,0,1,.6.263,1.2,1.2,0,0,1,.414.452,1.289,1.289,0,0,1,.15.677.963.963,0,0,1-.113.6,1.383,1.383,0,0,1-.753.753c-.188.075-.376.151-.6.226.3.376.527.715.753.978.188.263.452.6.715.978a1.132,1.132,0,0,0,.339.376,1.325,1.325,0,0,0,.3.188c.075,0,.15.075.263.075h.263v.376Zm-2.22-4.478a1.27,1.27,0,0,0-.3-.866,1.148,1.148,0,0,0-.9-.3h-.715v2.559h.565a1.333,1.333,0,0,0,.978-.376,1.362,1.362,0,0,0,.376-1.016Z" transform="translate(-465.548 -319.362)"/>
    <path id="Path_28456" data-name="Path 28456" d="M536.418,323.652l-.113,1.769H531.3v-.3h.339c.151,0,.226,0,.263-.075a.818.818,0,0,0,.188-.151c.038-.038.038-.15.038-.263V320.3a.639.639,0,0,0-.038-.263c0-.075-.113-.113-.188-.188a1.55,1.55,0,0,1-.3-.113.938.938,0,0,0-.3-.038v-.3h4.666v1.468h-.3a2.04,2.04,0,0,0-.376-.677,1.194,1.194,0,0,0-.527-.414h-1.656v2.408h.677a.89.89,0,0,0,.489-.075.677.677,0,0,0,.263-.188.71.71,0,0,0,.15-.339,1.655,1.655,0,0,0,.076-.376h.3v2.371h-.3a1.6,1.6,0,0,0-.076-.414,1.476,1.476,0,0,0-.15-.339.586.586,0,0,0-.3-.226c-.113,0-.263-.038-.451-.038h-.677v1.806a1.175,1.175,0,0,0,.037.414.254.254,0,0,0,.151.226,2.609,2.609,0,0,0,.3.113h1.279a.559.559,0,0,0,.339-.075.322.322,0,0,0,.226-.113,5.318,5.318,0,0,0,.414-.6,3.188,3.188,0,0,0,.263-.6h.3Z" transform="translate(-476.962 -319.362)"/>
    <path id="Path_28457" data-name="Path 28457" d="M389.609,353.484a2.241,2.241,0,0,1-1.016-.226,2.759,2.759,0,0,1-.866-.6,2.86,2.86,0,0,1-.6-.978,3.516,3.516,0,0,1-.226-1.279,3.876,3.876,0,0,1,.226-1.317,3.457,3.457,0,0,1,.6-1.016,3.037,3.037,0,0,1,.9-.64,2.75,2.75,0,0,1,1.129-.226,1.522,1.522,0,0,1,.79.113c.226.113.452.188.677.3l.188-.3h.339v2.145h-.3a4.54,4.54,0,0,0-.188-.677,2.252,2.252,0,0,0-.3-.6,1.845,1.845,0,0,0-.489-.452,1.237,1.237,0,0,0-.64-.15,1.85,1.85,0,0,0-.753.188,1.611,1.611,0,0,0-.6.527,2.616,2.616,0,0,0-.376.865,5.482,5.482,0,0,0-.151,1.167,2.966,2.966,0,0,0,.151,1.054,2.843,2.843,0,0,0,.414.828,2.3,2.3,0,0,0,.64.564,1.578,1.578,0,0,0,.828.188,1.633,1.633,0,0,0,1.129-.414,1.974,1.974,0,0,0,.376-.414,2.3,2.3,0,0,0,.263-.527l.3.151a2.49,2.49,0,0,1-.978,1.279,2.538,2.538,0,0,1-1.43.376Z" transform="translate(-386.9 -336.701)"/>
    <path id="Path_28458" data-name="Path 28458" d="M409,353.458h-2.484v-.3a2.282,2.282,0,0,0,.564-.075c.151-.038.226-.113.226-.15v-.188l-.489-1.355h-2.107a4.568,4.568,0,0,0-.188.527,1.349,1.349,0,0,1-.15.414c0,.113-.075.226-.075.3v.188c0,.113.075.188.263.263a1.562,1.562,0,0,0,.6.113v.3H402.9v-.3a.733.733,0,0,0,.263-.038.562.562,0,0,0,.263-.113,1.641,1.641,0,0,0,.263-.226,1.356,1.356,0,0,0,.188-.339c.3-.753.64-1.618,1.016-2.559s.677-1.769.978-2.521h.339l1.994,5.193a.605.605,0,0,0,.151.263c.075.075.113.151.226.188a1.833,1.833,0,0,0,.263.113.733.733,0,0,0,.264.038v.3Zm-2.446-2.446-.9-2.333-.9,2.333Z" transform="translate(-396.879 -336.826)"/>
    <path id="Path_28459" data-name="Path 28459" d="M426.4,349.13a1.916,1.916,0,0,1-.188.828,1.612,1.612,0,0,1-.527.6,2.5,2.5,0,0,1-.715.339,2.933,2.933,0,0,1-.828.113h-.677v1.806a.558.558,0,0,0,.038.263.454.454,0,0,0,.188.188,2.118,2.118,0,0,0,.263.038h.339v.3h-2.6v-.3h.3c.113,0,.226,0,.263-.038a.25.25,0,0,0,.188-.151.544.544,0,0,0,.075-.263v-4.327a.556.556,0,0,0-.038-.263c0-.075-.113-.15-.188-.188-.113,0-.226-.075-.339-.075H421.7v-.3h2.747a2.153,2.153,0,0,1,1.355.414,1.338,1.338,0,0,1,.527,1.091Zm-1.28,1.016a1.017,1.017,0,0,0,.188-.414c0-.151.038-.263.038-.376a1.2,1.2,0,0,0-.075-.489,2.3,2.3,0,0,0-.188-.452.955.955,0,0,0-.376-.3,1.433,1.433,0,0,0-.6-.113h-.6v2.672h.414a1.493,1.493,0,0,0,.753-.151,1.326,1.326,0,0,0,.414-.339Z" transform="translate(-408.605 -337.013)"/>
    <path id="Path_28460" data-name="Path 28460" d="M440.809,353.583H438.1v-.3h.339c.151,0,.263,0,.3-.038a.25.25,0,0,0,.188-.151.544.544,0,0,0,.075-.263v-4.365a.558.558,0,0,0-.038-.263.345.345,0,0,0-.226-.151,3.456,3.456,0,0,1-.339-.113c-.113,0-.226-.037-.3-.037v-.3h2.709v.3h-.3a.708.708,0,0,0-.3.075.254.254,0,0,0-.226.15.559.559,0,0,0-.038.263v4.365a.358.358,0,0,0,.075.263,1.191,1.191,0,0,0,.226.188,1.69,1.69,0,0,1,.3.075,1.3,1.3,0,0,0,.339.038v.3Z" transform="translate(-418.833 -336.951)"/>
    <path id="Path_28461" data-name="Path 28461" d="M453.806,349.218h-.3a.976.976,0,0,0-.151-.376c-.075-.151-.151-.263-.226-.414-.075-.113-.188-.226-.263-.339a.389.389,0,0,0-.3-.151h-.978v4.817a.359.359,0,0,0,.075.264.386.386,0,0,0,.226.188c.038,0,.151.038.3.075.151,0,.3.038.376.038v.3h-2.822v-.3h.376a.751.751,0,0,0,.339-.075.25.25,0,0,0,.188-.151.543.543,0,0,0,.075-.263v-4.854h-.978a.742.742,0,0,0-.3.15,2.07,2.07,0,0,0-.263.339,4.083,4.083,0,0,0-.226.414c-.075.151-.113.263-.151.339h-.3V347.6h5.231v1.618Z" transform="translate(-425.32 -336.951)"/>
    <path id="Path_28462" data-name="Path 28462" d="M471,353.458h-2.484v-.3a2.282,2.282,0,0,0,.564-.075c.151-.038.226-.113.226-.15v-.188l-.489-1.355h-2.107a4.551,4.551,0,0,0-.188.527,1.348,1.348,0,0,1-.151.414c0,.113-.075.226-.075.3v.188c0,.113.075.188.263.263a1.562,1.562,0,0,0,.6.113v.3H464.9v-.3a.733.733,0,0,0,.263-.038,1.827,1.827,0,0,0,.263-.113,1.638,1.638,0,0,0,.263-.226,1.353,1.353,0,0,0,.188-.339c.3-.753.64-1.618,1.016-2.559s.677-1.769.978-2.521h.339l1.994,5.193a.605.605,0,0,0,.15.263c.075.075.113.151.226.188a1.834,1.834,0,0,0,.263.113c.113,0,.188.038.263.038v.3Zm-2.408-2.446-.9-2.333-.9,2.333Z" transform="translate(-435.548 -336.826)"/>
    <path id="Path_28463" data-name="Path 28463" d="M488.817,351.877l-.113,1.806H484v-.3h.3c.113,0,.226,0,.264-.038a.25.25,0,0,0,.188-.151.544.544,0,0,0,.075-.263v-4.29a.558.558,0,0,0-.038-.263c0-.075-.113-.151-.188-.188-.075,0-.15-.075-.263-.113a.709.709,0,0,1-.3-.075v-.3h2.521v.3a.935.935,0,0,0-.3.038.438.438,0,0,0-.263.075c-.113,0-.151.075-.188.188a.735.735,0,0,0-.038.263v4.478a.322.322,0,0,0,.113.226,1.273,1.273,0,0,0,.3.113h1.2a.543.543,0,0,0,.263-.075.32.32,0,0,0,.188-.113,3.213,3.213,0,0,0,.414-.6,3.011,3.011,0,0,0,.3-.64h.3Z" transform="translate(-447.461 -337.013)"/>
    <path id="Path_28464" data-name="Path 28464" d="M512.6,349.23h-.3a2.639,2.639,0,0,0-.376-.715.966.966,0,0,0-.527-.414h-1.731v2.408h.677a.889.889,0,0,0,.489-.075.819.819,0,0,0,.3-.188.567.567,0,0,0,.151-.3,1.352,1.352,0,0,0,.075-.414h.3V351.9h-.3a.882.882,0,0,0-.075-.414,1.473,1.473,0,0,0-.151-.339.548.548,0,0,0-.339-.226,1.614,1.614,0,0,0-.452-.075h-.677v2.07a.641.641,0,0,0,.038.263.453.453,0,0,0,.188.188,1.536,1.536,0,0,1,.263.075c.151,0,.263.038.339.038v.3h-2.6v-.3h.339c.151,0,.226,0,.263-.038a.25.25,0,0,0,.188-.151.542.542,0,0,0,.075-.263V348.7a.64.64,0,0,0-.038-.263c0-.075-.113-.113-.188-.188a1.546,1.546,0,0,1-.3-.113c-.113,0-.226-.038-.3-.038v-.3h4.7v1.505Z" transform="translate(-462.367 -337.075)"/>
    <path id="Path_28465" data-name="Path 28465" d="M530.071,347.9a1.3,1.3,0,0,0-.339.038.669.669,0,0,0-.376.151c-.113.075-.151.188-.188.414a4.558,4.558,0,0,0-.038.753v2.6a1.559,1.559,0,0,1-.226.866,1.745,1.745,0,0,1-.565.6,2.494,2.494,0,0,1-.715.339,2.554,2.554,0,0,1-.715.113,2.674,2.674,0,0,1-.979-.15,2.533,2.533,0,0,1-.715-.376,1.23,1.23,0,0,1-.414-.564,1.33,1.33,0,0,1-.151-.64V348.5a.559.559,0,0,0-.038-.263c-.038-.075-.113-.113-.188-.188a1.835,1.835,0,0,0-.263-.113c-.113,0-.188-.038-.263-.038v-.3h2.521v.3a.935.935,0,0,0-.3.038.439.439,0,0,0-.264.075c-.113,0-.151.075-.188.188,0,.075-.038.151-.038.263v3.311a2.148,2.148,0,0,0,.038.489.84.84,0,0,0,.226.489,1.106,1.106,0,0,0,.452.376,1.557,1.557,0,0,0,.79.151,1.649,1.649,0,0,0,.79-.151,1.3,1.3,0,0,0,.489-.376,2.028,2.028,0,0,0,.263-.489,2.208,2.208,0,0,0,.075-.489v-2.446a2.209,2.209,0,0,0-.075-.753.58.58,0,0,0-.188-.376,1.059,1.059,0,0,0-.414-.151,3.164,3.164,0,0,0-.376-.075v-.3h2.446v.3Z" transform="translate(-472.346 -336.951)"/>
    <path id="Path_28466" data-name="Path 28466" d="M549.51,347.839a.9.9,0,0,0-.376.075,1.736,1.736,0,0,0-.339.113.441.441,0,0,0-.188.414c0,.188-.037.452-.037.753v4.4h-.376l-3.65-4.93v3.086a2.33,2.33,0,0,0,.075.79.647.647,0,0,0,.6.6,3.345,3.345,0,0,0,.414.075v.3h-2.484v-.3a.9.9,0,0,0,.376-.075c.188-.075.3-.075.339-.151.113-.075.151-.188.188-.376,0-.151.038-.452.038-.828v-2.973a.68.68,0,0,0-.075-.376,2.113,2.113,0,0,0-.188-.3,1.078,1.078,0,0,0-.414-.226A1.143,1.143,0,0,0,543,347.8v-.3h1.731l3.387,4.591v-2.86a2.33,2.33,0,0,0-.075-.79,1.139,1.139,0,0,0-.188-.376,1.926,1.926,0,0,0-.376-.151,2.455,2.455,0,0,0-.414-.075v-.3h2.446Z" transform="translate(-484.259 -336.888)"/>
    <path id="Path_28467" data-name="Path 28467" d="M569.6,350.773a2.835,2.835,0,0,1-.3,1.317,3.078,3.078,0,0,1-.753.941,3.462,3.462,0,0,1-1.054.527,4.242,4.242,0,0,1-1.2.188H563.8v-.3h.339c.113,0,.226,0,.263-.038a.25.25,0,0,0,.188-.151.545.545,0,0,0,.075-.263v-4.327a.557.557,0,0,0-.038-.263c0-.075-.113-.151-.188-.188a.71.71,0,0,0-.3-.075.558.558,0,0,1-.264-.038v-.3h2.634a3.247,3.247,0,0,1,1.054.15,3.38,3.38,0,0,1,.9.452,2.619,2.619,0,0,1,.828.978,3.466,3.466,0,0,1,.3,1.43Zm-1.054-.038a3.326,3.326,0,0,0-.151-1.091,3.15,3.15,0,0,0-.452-.866,2.637,2.637,0,0,0-.715-.564,2.008,2.008,0,0,0-.941-.188h-.715v4.629c0,.263.075.451.226.527a1.132,1.132,0,0,0,.677.151,2.619,2.619,0,0,0,.941-.188,1.469,1.469,0,0,0,.64-.527,2.084,2.084,0,0,0,.376-.828,4.636,4.636,0,0,0,.113-1.091Z" transform="translate(-497.232 -337.075)"/>
  </g>
  <g id="Group_15338" data-name="Group 15338" transform="translate(44.178 67.509)">
    <g id="CBInsights" transform="translate(10.649 0)">
      <path id="Path_28468" data-name="Path 28468" d="M441.6,415.553a3.139,3.139,0,0,1-2.86,1.844,3.285,3.285,0,0,1-3.236-3.236A3.164,3.164,0,0,1,438.7,411a2.574,2.574,0,0,1,2.9,1.882h-1.317a2.067,2.067,0,0,0-1.656-.79,2.148,2.148,0,0,0,.075,4.29,1.774,1.774,0,0,0,1.581-.753H441.6Z" transform="translate(-435.5 -410.962)" fill="#036"/>
      <path id="Path_28469" data-name="Path 28469" d="M453.9,411.2h1.242a2.56,2.56,0,0,1,1.882.489,1.543,1.543,0,0,1,.527,1.167,1.274,1.274,0,0,1-.677,1.166,1.481,1.481,0,0,1,1.054,1.543,1.736,1.736,0,0,1-.753,1.468,3.278,3.278,0,0,1-1.618.376H453.9V411.2Zm1.129,2.408h.376c.263,0,.978,0,.978-.677s-.226-.677-.9-.677h-.489v1.355Zm0,2.709h.564c.226,0,1.129,0,1.129-.79s-.113-.828-1.129-.828h-.6v1.656Z" transform="translate(-446.976 -411.087)" fill="#036"/>
      <path id="Path_28470" data-name="Path 28470" d="M467.1,411.2h.6v6.171h-.6Z" transform="translate(-455.209 -411.087)" fill="#069"/>
      <path id="Path_28471" data-name="Path 28471" d="M472.3,411.2h.828l3.424,5.118h0V411.2h.6v6.171h-.6l-3.65-5.419h0v5.419h-.6V411.2Z" transform="translate(-458.452 -411.087)" fill="#069"/>
      <path id="Path_28472" data-name="Path 28472" d="M488.4,415.453a1.246,1.246,0,0,0,1.279,1.279,1.221,1.221,0,0,0,1.242-1.2h0c0-.978-.978-1.2-1.392-1.355-.564-.151-1.618-.414-1.618-1.618a1.526,1.526,0,0,1,1.731-1.656,1.7,1.7,0,0,1,1.731,1.693h-.6a1.125,1.125,0,0,0-1.091-1.129,1.176,1.176,0,0,0-1.129,1.054c0,.753.64.941,1.468,1.167a1.791,1.791,0,0,1,1.505,1.769h0a1.792,1.792,0,0,1-1.844,1.806h0a1.794,1.794,0,0,1-1.881-1.844h.64Z" transform="translate(-468.119 -410.9)" fill="#069"/>
      <path id="Path_28473" data-name="Path 28473" d="M500.2,411.2h.6v6.171h-.6V411.2Z" transform="translate(-475.853 -411.087)" fill="#069"/>
      <path id="Path_28474" data-name="Path 28474" d="M511.185,414.362a3.228,3.228,0,0,1-3.274,2.935,3.515,3.515,0,0,1-3.311-3.2,3.2,3.2,0,0,1,3.311-3.2,2.846,2.846,0,0,1,2.935,1.769h-.715a2.593,2.593,0,0,0-2.183-1.167,2.635,2.635,0,1,0,.038,5.268,2.383,2.383,0,0,0,2.484-1.806h-3.424V414.4h4.177Z" transform="translate(-478.597 -410.9)" fill="#069"/>
      <path id="Path_28475" data-name="Path 28475" d="M525,411.2h.6v2.709h3.2V411.2h.6v6.171h-.6v-2.9h-3.2v2.9H525Z" transform="translate(-491.321 -411.087)" fill="#069"/>
      <path id="Path_28476" data-name="Path 28476" d="M540.23,411.764H538.8V411.2h3.424v.564h-1.393v5.607h-.6Z" transform="translate(-499.928 -411.087)" fill="#069"/>
      <path id="Path_28477" data-name="Path 28477" d="M549.5,415.453a1.246,1.246,0,0,0,1.279,1.279,1.166,1.166,0,0,0,1.242-1.242c0-.753-.978-1.2-1.392-1.317-.564-.151-1.618-.414-1.618-1.618a1.525,1.525,0,0,1,1.731-1.656,1.7,1.7,0,0,1,1.731,1.693h-.6a1.125,1.125,0,0,0-1.091-1.129,1.176,1.176,0,0,0-1.129,1.054c0,.753.64.941,1.468,1.166a1.769,1.769,0,0,1,1.505,1.769h0a1.792,1.792,0,0,1-1.844,1.806h0a1.794,1.794,0,0,1-1.881-1.844h.6Z" transform="translate(-506.227 -410.9)" fill="#069"/>
    </g>
    <g id="Layer_14_Image" data-name="Layer 14 Image" transform="translate(0 0.113)">
      <path id="Path_28478" data-name="Path 28478" d="M426.185,413.872H423.4V411.2h1.656a1.132,1.132,0,0,1,1.129,1.129v1.543Z" transform="translate(-417.304 -411.2)" fill="#069"/>
      <path id="Path_28479" data-name="Path 28479" d="M425.056,422.96H423.4V420.1h2.785v1.731a1.125,1.125,0,0,1-1.091,1.129h-.038Z" transform="translate(-417.304 -416.751)" fill="#f63"/>
      <path id="Path_28480" data-name="Path 28480" d="M410.1,414.549v-.677h2.709V411.2h-4.478a1.132,1.132,0,0,0-1.129,1.129h0v3.951a1.141,1.141,0,0,0,1.167,1.129h4.478v-2.9H410.1Z" transform="translate(-407.2 -411.2)" fill="#036"/>
    </g>
  </g>
  <rect id="Rectangle_1338" data-name="Rectangle 1338" width="7.263" height="0.865" transform="translate(69.089 56.822)" fill="#f26558"/>
</svg>
