<svg id="Group_15354" data-name="Group 15354" xmlns="http://www.w3.org/2000/svg" width="145.404" height="126.552" viewBox="0 0 145.404 126.552">
  <path id="Path_28481" data-name="Path 28481" d="M911.482,278.877a47.941,47.941,0,0,1-95.882,0c0-26.492,17.573-43.8,40.49-47.377v16.143a7.413,7.413,0,1,0,14.826,0V231.5a47.925,47.925,0,0,1,40.49,47.377Z" transform="translate(-790.839 -231.5)" fill="#f0f3f6"/>
  <g id="Group_15340" data-name="Group 15340" transform="translate(68.412 8.918)">
    <path id="Path_28482" data-name="Path 28482" d="M936.643,258.8h-1.016l-.151.9h1.016l-.113.79h-1.054l-.263,1.505h-.828l.263-1.505h-1.016l-.263,1.505h-.828l.264-1.505H931.6l.113-.79h1.054l.151-.9h-1.054l.113-.79h1.054l.263-1.505h.828l-.264,1.505h1.016l.263-1.505h.828l-.263,1.505h1.016l-.113.79Zm-1.995.9.151-.9h-1.016l-.15.9Z" transform="translate(-931.6 -256.011)" fill="#f26558"/>
    <path id="Path_28483" data-name="Path 28483" d="M947.893,255.2h.9v6.435h-1.054v-5.306l-1.279.376-.263-.9Z" transform="translate(-940.706 -255.2)" fill="#f26558"/>
  </g>
  <g id="Group_15347" data-name="Group 15347" transform="translate(0 9.295)">
    <g id="Group_15343" data-name="Group 15343" transform="translate(0 0)">
      <g id="Group_15341" data-name="Group 15341" transform="translate(10.273 10.311)">
        <path id="Path_28484" data-name="Path 28484" d="M886.1,482.3c8.542,6.924,9.6,14.036,9.6,14.036C888.885,493.25,887.154,490.654,886.1,482.3Z" transform="translate(-845.083 -407.529)" fill="#c2cad8"/>
        <path id="Path_28485" data-name="Path 28485" d="M865.4,472.838c7.714,7.413,8.73,14.488,8.73,14.488a33.858,33.858,0,0,1-2.9-1.769c-2.785-1.882-5.343-3.8-5.833-12.757Z" transform="translate(-832.172 -401.603)" fill="#c2cad8"/>
        <path id="Path_28486" data-name="Path 28486" d="M846.518,461.6c6.623,7.79,7.413,15.09,7.413,15.127C848.249,473.077,846.1,470.18,846.518,461.6Z" transform="translate(-820.364 -394.618)" fill="#c2cad8"/>
        <path id="Path_28487" data-name="Path 28487" d="M829.207,448.2a37.267,37.267,0,0,1,5.532,15.729C829.169,459.451,827.74,455.726,829.207,448.2Z" transform="translate(-809.263 -386.26)" fill="#c2cad8"/>
        <path id="Path_28488" data-name="Path 28488" d="M814.474,432.5a46.751,46.751,0,0,1,3.123,16.256C812.931,443.751,811.84,439.462,814.474,432.5Z" transform="translate(-799.534 -376.468)" fill="#c2cad8"/>
        <path id="Path_28489" data-name="Path 28489" d="M802.423,414.4a62.7,62.7,0,0,1,.3,16.6C798.773,424.9,798.773,420.647,802.423,414.4Z" transform="translate(-791.209 -365.18)" fill="#c2cad8"/>
        <path id="Path_28490" data-name="Path 28490" d="M793.705,394c-.075,12.945-2.107,12.606-2.484,16.633C788.888,404.687,788.775,400.171,793.705,394Z" transform="translate(-784.937 -352.456)" fill="#c2cad8"/>
        <path id="Path_28491" data-name="Path 28491" d="M788.456,372.4c-2.107,12.079-3.8,12.042-5.118,16.181C782.134,382.184,783.112,377.4,788.456,372.4Z" transform="translate(-780.704 -338.984)" fill="#c2cad8"/>
        <path id="Path_28492" data-name="Path 28492" d="M785.964,350.1c-3.65,11.176-4.93,10.687-7.564,15.391C778.4,358.83,780.093,354.428,785.964,350.1Z" transform="translate(-777.911 -325.076)" fill="#c2cad8"/>
        <path id="Path_28493" data-name="Path 28493" d="M786.771,327.5c-3.8,8.241-5.08,9.219-9.671,14.45C778.267,335.214,780.637,331.338,786.771,327.5Z" transform="translate(-777.1 -310.98)" fill="#c2cad8"/>
        <path id="Path_28494" data-name="Path 28494" d="M791.1,305.2a43.23,43.23,0,0,1-11.4,13.434C781.845,311.635,785.57,308.135,791.1,305.2Z" transform="translate(-778.722 -297.072)" fill="#c2cad8"/>
        <path id="Path_28495" data-name="Path 28495" d="M798.594,283.6c-3.462,4.666-7.564,9.332-12.794,12.343C789.111,289.245,792.724,286.2,798.594,283.6Z" transform="translate(-782.526 -283.6)" fill="#c2cad8"/>
      </g>
      <g id="Group_15342" data-name="Group 15342" transform="translate(0 2.408)">
        <path id="Path_28496" data-name="Path 28496" d="M866.6,529.843c11.289,2.07,16.9-4.177,16.9-4.177C875.293,523.86,873.9,525.026,866.6,529.843Z" transform="translate(-822.648 -426.171)" fill="#c2cad8"/>
        <path id="Path_28497" data-name="Path 28497" d="M841.6,519.223c11.214,3.8,15.918-2.559,17.5-2.521a35.464,35.464,0,0,0-7.677-1.2,6.347,6.347,0,0,0-1.242.113c-1.994.414-6.247,2.446-8.58,3.575Z" transform="translate(-807.055 -420.33)" fill="#c2cad8"/>
        <path id="Path_28498" data-name="Path 28498" d="M817.4,505.926c11.515,5.419,15.842-.188,17.987-.188-2.182-.715-6.623-2.107-8.956-1.957C824.738,503.894,821.8,504.722,817.4,505.926Z" transform="translate(-791.962 -413.017)" fill="#c2cad8"/>
        <path id="Path_28499" data-name="Path 28499" d="M794.9,488.978c10.348,7.488,16.068,2.747,18.138,2.86C804.044,487.736,804.308,488.526,794.9,488.978Z" transform="translate(-777.929 -403.557)" fill="#c2cad8"/>
        <path id="Path_28500" data-name="Path 28500" d="M775.6,465.1c8.843,9.709,15.278,6.171,17.649,6.585C785.083,466.191,784.1,466.831,775.6,465.1Z" transform="translate(-765.891 -388.899)" fill="#c2cad8"/>
        <path id="Path_28501" data-name="Path 28501" d="M761.3,436.7c6.811,11.515,13.472,9.709,16.068,10.536C770.068,440.237,769.165,440.425,761.3,436.7Z" transform="translate(-756.973 -371.186)" fill="#c2cad8"/>
        <path id="Path_28502" data-name="Path 28502" d="M752.8,406.6c3.537,11.59,12.042,13.1,13.622,13.923C760.326,411.755,759.611,412.056,752.8,406.6Z" transform="translate(-751.671 -352.412)" fill="#c2cad8"/>
        <path id="Path_28503" data-name="Path 28503" d="M749.8,375.5c1.731,11.7,7.3,14.224,10.725,16.6C755.106,381.22,756.987,384.418,749.8,375.5Z" transform="translate(-749.8 -333.015)" fill="#c2cad8"/>
        <path id="Path_28504" data-name="Path 28504" d="M752.1,344.938v1.279c0,.414.038.9.075,1.43s.113,1.129.188,1.769a32.689,32.689,0,0,0,.753,4.026c1.279,4.854,3.575,7.037,6.472,9.934-2.484-9.332-3.424-10.837-5.155-14.036-.263-.452-.489-.9-.715-1.355-.9-1.731-1.618-3.086-1.618-3.086Z" transform="translate(-751.235 -313.93)" fill="#c2cad8"/>
        <path id="Path_28505" data-name="Path 28505" d="M758.043,315.8a2.328,2.328,0,0,1-.038.339c0,.226-.075.527-.113.941-.075.79-.188,1.882-.226,3.161a21.422,21.422,0,0,0,4.779,15.127c-1.242-10.273-1.054-9.37-3.311-16.256-.6-1.844-1.091-3.274-1.091-3.274Z" transform="translate(-754.694 -295.781)" fill="#c2cad8"/>
        <path id="Path_28506" data-name="Path 28506" d="M766.539,288.3c-1.957,6.924-2.107,13.509,1.543,20.019C768.345,297.331,768.27,298.5,766.539,288.3Z" transform="translate(-759.389 -278.629)" fill="#c2cad8"/>
        <path id="Path_28507" data-name="Path 28507" d="M777.442,262.6c-3.5,8.2-2.973,15.692-1.091,20.132C777.969,272.045,777.668,272.61,777.442,262.6Z" transform="translate(-765.438 -262.6)" fill="#c2cad8"/>
      </g>
      <path id="Path_28508" data-name="Path 28508" d="M790.5,271.064c4.892-3.688,6.247-10.574,8.091-14.864C795.129,258.8,789.484,266.134,790.5,271.064Z" transform="translate(-775.109 -256.2)" fill="#c2cad8"/>
      <path id="Path_28509" data-name="Path 28509" d="M812.719,370.952c15.2,6.472,37.969,9.332,38.12,21.374-.64.226-1.468.3-2.145.527-.339-11.966-19.982-13.547-37.442-21.374-37.894-16.934-46.1-50.124-29.766-84.179-16.407,34.62-7.338,67.133,31.233,83.69Z" transform="translate(-764.59 -275.597)" fill="#c2cad8"/>
    </g>
    <g id="Group_15346" data-name="Group 15346" transform="translate(59.193 0)">
      <g id="Group_15344" data-name="Group 15344" transform="translate(25.325 10.311)">
        <path id="Path_28510" data-name="Path 28510" d="M984,482.3c-8.542,6.924-9.6,14.036-9.6,14.036C981.211,493.25,982.942,490.654,984,482.3Z" transform="translate(-974.4 -407.529)" fill="#c2cad8"/>
        <path id="Path_28511" data-name="Path 28511" d="M1006.13,472.838c-7.714,7.413-8.73,14.488-8.73,14.488a33.858,33.858,0,0,0,2.9-1.769c2.785-1.882,5.344-3.8,5.833-12.757Z" transform="translate(-988.745 -401.603)" fill="#c2cad8"/>
        <path id="Path_28512" data-name="Path 28512" d="M1027.213,461.6c-6.623,7.79-7.413,15.09-7.413,15.127C1025.482,473.077,1027.627,470.18,1027.213,461.6Z" transform="translate(-1002.716 -394.618)" fill="#c2cad8"/>
        <path id="Path_28513" data-name="Path 28513" d="M1046.732,448.2a37.266,37.266,0,0,0-5.531,15.729C1046.77,459.451,1048.2,455.726,1046.732,448.2Z" transform="translate(-1016.063 -386.26)" fill="#c2cad8"/>
        <path id="Path_28514" data-name="Path 28514" d="M1064.021,432.5a46.751,46.751,0,0,0-3.123,16.256C1065.564,443.751,1066.656,439.462,1064.021,432.5Z" transform="translate(-1028.348 -376.468)" fill="#c2cad8"/>
        <path id="Path_28515" data-name="Path 28515" d="M1077.927,414.4a62.709,62.709,0,0,0-.3,16.6C1081.577,424.9,1081.577,420.647,1077.927,414.4Z" transform="translate(-1038.528 -365.18)" fill="#c2cad8"/>
        <path id="Path_28516" data-name="Path 28516" d="M1085.6,394c.075,12.945,2.107,12.606,2.484,16.633C1090.417,404.687,1090.529,400.171,1085.6,394Z" transform="translate(-1043.755 -352.456)" fill="#c2cad8"/>
        <path id="Path_28517" data-name="Path 28517" d="M1088.4,372.4c2.107,12.079,3.8,12.042,5.118,16.181C1094.722,382.184,1093.744,377.4,1088.4,372.4Z" transform="translate(-1045.502 -338.984)" fill="#c2cad8"/>
        <path id="Path_28518" data-name="Path 28518" d="M1087.5,350.1c3.65,11.176,4.93,10.687,7.563,15.391C1095.063,358.83,1093.37,354.428,1087.5,350.1Z" transform="translate(-1044.94 -325.076)" fill="#c2cad8"/>
        <path id="Path_28519" data-name="Path 28519" d="M1083.2,327.5c3.8,8.241,5.08,9.219,9.671,14.45C1091.7,335.214,1089.334,331.338,1083.2,327.5Z" transform="translate(-1042.258 -310.98)" fill="#c2cad8"/>
        <path id="Path_28520" data-name="Path 28520" d="M1076,305.2a43.234,43.234,0,0,0,11.4,13.434C1085.257,311.635,1081.532,308.135,1076,305.2Z" transform="translate(-1037.768 -297.072)" fill="#c2cad8"/>
        <path id="Path_28521" data-name="Path 28521" d="M1066.2,283.6c3.462,4.666,7.564,9.332,12.794,12.343C1075.683,289.245,1072.07,286.2,1066.2,283.6Z" transform="translate(-1031.655 -283.6)" fill="#c2cad8"/>
      </g>
      <g id="Group_15345" data-name="Group 15345" transform="translate(25.363 2.408)">
        <path id="Path_28522" data-name="Path 28522" d="M991.4,529.843c-11.289,2.07-16.9-4.177-16.9-4.177C982.7,523.86,984.1,525.026,991.4,529.843Z" transform="translate(-974.5 -426.171)" fill="#c2cad8"/>
        <path id="Path_28523" data-name="Path 28523" d="M1015.4,519.223c-11.214,3.8-15.918-2.559-17.5-2.521a35.465,35.465,0,0,1,7.677-1.2,6.348,6.348,0,0,1,1.242.113c1.995.414,6.247,2.446,8.58,3.575Z" transform="translate(-989.095 -420.33)" fill="#c2cad8"/>
        <path id="Path_28524" data-name="Path 28524" d="M1038.787,505.926c-11.515,5.419-15.842-.188-17.987-.188,2.182-.715,6.623-2.107,8.956-1.957C1031.449,503.894,1034.385,504.722,1038.787,505.926Z" transform="translate(-1003.377 -413.017)" fill="#c2cad8"/>
        <path id="Path_28525" data-name="Path 28525" d="M1061.138,488.978c-10.348,7.488-16.068,2.747-18.138,2.86C1051.994,487.736,1051.73,488.526,1061.138,488.978Z" transform="translate(-1017.223 -403.557)" fill="#c2cad8"/>
        <path id="Path_28526" data-name="Path 28526" d="M1081.249,465.1c-8.843,9.709-15.278,6.171-17.649,6.585C1071.766,466.191,1072.744,466.831,1081.249,465.1Z" transform="translate(-1030.071 -388.899)" fill="#c2cad8"/>
        <path id="Path_28527" data-name="Path 28527" d="M1098.168,436.7c-6.811,11.515-13.472,9.709-16.068,10.536C1089.4,440.237,1090.3,440.425,1098.168,436.7Z" transform="translate(-1041.61 -371.186)" fill="#c2cad8"/>
        <path id="Path_28528" data-name="Path 28528" d="M1110.722,406.6c-3.537,11.59-12.042,13.1-13.622,13.923C1103.2,411.755,1103.911,412.056,1110.722,406.6Z" transform="translate(-1050.965 -352.412)" fill="#c2cad8"/>
        <path id="Path_28529" data-name="Path 28529" d="M1118.425,375.5c-1.731,11.7-7.3,14.224-10.725,16.6C1113.119,381.22,1111.237,384.418,1118.425,375.5Z" transform="translate(-1057.576 -333.015)" fill="#c2cad8"/>
        <path id="Path_28530" data-name="Path 28530" d="M1121.488,344.938v1.279c0,.414-.037.9-.075,1.43s-.113,1.129-.188,1.769a32.711,32.711,0,0,1-.752,4.026c-1.28,4.854-3.575,7.037-6.473,9.934,2.484-9.332,3.424-10.837,5.155-14.036.263-.452.489-.9.715-1.355.9-1.731,1.618-3.086,1.618-3.086Z" transform="translate(-1061.506 -313.93)" fill="#c2cad8"/>
        <path id="Path_28531" data-name="Path 28531" d="M1120.1,315.8a2.317,2.317,0,0,0,.038.339c0,.226.075.527.113.941.075.79.188,1.882.226,3.161a21.423,21.423,0,0,1-4.779,15.127c1.242-10.273,1.054-9.37,3.312-16.256.6-1.844,1.091-3.274,1.091-3.274Z" transform="translate(-1062.566 -295.781)" fill="#c2cad8"/>
        <path id="Path_28532" data-name="Path 28532" d="M1114.555,288.3c1.957,6.924,2.107,13.509-1.543,20.019C1112.748,297.331,1112.824,298.5,1114.555,288.3Z" transform="translate(-1060.819 -278.629)" fill="#c2cad8"/>
        <path id="Path_28533" data-name="Path 28533" d="M1104,262.6c3.5,8.2,2.973,15.692,1.091,20.132C1103.474,272.045,1103.775,272.61,1104,262.6Z" transform="translate(-1055.156 -262.6)" fill="#c2cad8"/>
      </g>
      <path id="Path_28534" data-name="Path 28534" d="M1081.891,271.064c-4.892-3.688-6.246-10.574-8.09-14.864C1077.262,258.8,1082.907,266.134,1081.891,271.064Z" transform="translate(-1011.07 -256.2)" fill="#c2cad8"/>
      <path id="Path_28535" data-name="Path 28535" d="M945.22,370.952c-15.2,6.472-37.969,9.332-38.12,21.374.64.226,1.468.3,2.145.527.339-11.966,19.982-13.547,37.442-21.374,37.894-16.934,46.1-50.124,29.766-84.179,16.407,34.62,7.338,67.133-31.233,83.69Z" transform="translate(-907.1 -275.597)" fill="#c2cad8"/>
    </g>
  </g>
  <g id="Group_15348" data-name="Group 15348" transform="translate(35.41 30.631)">
    <path id="Path_28536" data-name="Path 28536" d="M874.59,316.6a1.3,1.3,0,0,1,.452.452,1.453,1.453,0,0,1,0,1.43,1.609,1.609,0,0,1-.489.527,3.334,3.334,0,0,1-.64.3,2.426,2.426,0,0,1-.753.113H870.3v-.3h.3a.439.439,0,0,0,.263-.075.376.376,0,0,0,.188-.151.558.558,0,0,0,.038-.263V314.3a.559.559,0,0,0-.038-.263c0-.075-.113-.15-.188-.188a2.585,2.585,0,0,0-.3-.113c-.113-.038-.188,0-.263-.038v-.3h2.785a1.56,1.56,0,0,1,.6.075,1.776,1.776,0,0,1,.565.226,1.444,1.444,0,0,1,.414.414,1.1,1.1,0,0,1,.151.6,1.257,1.257,0,0,1-.113.564,1.178,1.178,0,0,1-.339.414,1.351,1.351,0,0,1-.452.3,2.958,2.958,0,0,1-.527.188h0a3.128,3.128,0,0,0,.565.15,1.967,1.967,0,0,1,.564.263Zm-1.054-.9a.9.9,0,0,0,.226-.414,1.968,1.968,0,0,0,.075-.527,1.06,1.06,0,0,0-.263-.79,1.143,1.143,0,0,0-.865-.3h-.677v2.3h.527a1.25,1.25,0,0,0,1.016-.339Zm.6,1.919a1.09,1.09,0,0,0-.376-.866,1.38,1.38,0,0,0-1.016-.339h-.715v2.107a.472.472,0,0,0,.226.414.955.955,0,0,0,.6.151,1.224,1.224,0,0,0,.978-.376,1.58,1.58,0,0,0,.339-1.091Z" transform="translate(-860.366 -313.212)"/>
    <path id="Path_28537" data-name="Path 28537" d="M892.718,317.652l-.113,1.769h-5v-.3h.339c.151,0,.226,0,.263-.075a.817.817,0,0,0,.188-.151c.038-.038.038-.151.038-.263V314.3a.639.639,0,0,0-.038-.263c-.038-.075-.113-.113-.188-.188a1.549,1.549,0,0,1-.3-.113c-.113,0-.226-.038-.3-.038v-.3h4.666v1.468h-.3a2.046,2.046,0,0,0-.376-.677,1.193,1.193,0,0,0-.527-.414h-1.656v2.408h.677a.889.889,0,0,0,.489-.075,1.586,1.586,0,0,0,.264-.188.709.709,0,0,0,.151-.339,1.665,1.665,0,0,0,.075-.376h.3v2.371h-.3a1.6,1.6,0,0,0-.075-.414,1.469,1.469,0,0,0-.151-.339.585.585,0,0,0-.3-.226c-.113,0-.263-.038-.452-.038h-.677v1.806a1.168,1.168,0,0,0,.038.414.254.254,0,0,0,.151.226,2.578,2.578,0,0,0,.3.113h1.279a.559.559,0,0,0,.339-.075.321.321,0,0,0,.226-.113,5.312,5.312,0,0,0,.414-.6,3.2,3.2,0,0,0,.263-.6h.3Z" transform="translate(-871.156 -313.212)"/>
    <path id="Path_28538" data-name="Path 28538" d="M908.7,316.324a1.408,1.408,0,0,1,.263.452,1.466,1.466,0,0,1,.075.6,1.623,1.623,0,0,1-.6,1.317,2.122,2.122,0,0,1-1.468.527,1.6,1.6,0,0,1-.79-.113,2.825,2.825,0,0,1-.677-.3l-.188.3h-.339l-.075-2.07h.339a2.822,2.822,0,0,0,.263.677,2.945,2.945,0,0,0,.376.564,1.978,1.978,0,0,0,.527.414,1.377,1.377,0,0,0,.677.151,1.04,1.04,0,0,0,.527-.075.766.766,0,0,0,.339-.226.988.988,0,0,0,.188-.339,1.4,1.4,0,0,0,.075-.452,1.534,1.534,0,0,0-.188-.677,1.131,1.131,0,0,0-.6-.489,6.116,6.116,0,0,0-.64-.226,4.729,4.729,0,0,1-.6-.263,1.848,1.848,0,0,1-.79-.6,1.584,1.584,0,0,1-.263-.978.881.881,0,0,1,.151-.64,1.354,1.354,0,0,1,.414-.527,1.739,1.739,0,0,1,.565-.339,2.19,2.19,0,0,1,.715-.113,2.426,2.426,0,0,1,.753.113,3,3,0,0,1,.6.3l.188-.3h.339v1.994h-.3c-.075-.226-.15-.452-.226-.64a2,2,0,0,0-.3-.564,1.107,1.107,0,0,0-.452-.376,1.153,1.153,0,0,0-.64-.151.907.907,0,0,0-.677.263.861.861,0,0,0-.3.64,1.078,1.078,0,0,0,.188.64,1.183,1.183,0,0,0,.527.414,4.184,4.184,0,0,0,.6.263l.564.226a2.029,2.029,0,0,1,.489.263,1.176,1.176,0,0,1,.414.339Z" transform="translate(-881.946 -312.9)"/>
    <path id="Path_28539" data-name="Path 28539" d="M924.506,315.018h-.3a.978.978,0,0,0-.151-.376c-.075-.151-.151-.263-.226-.414-.075-.113-.188-.226-.263-.339a.389.389,0,0,0-.3-.151h-.979v4.817a.358.358,0,0,0,.075.263.385.385,0,0,0,.226.188c.038,0,.151.038.3.075.15,0,.3.038.376.038v.3h-2.822v-.3h.376a.753.753,0,0,0,.339-.075.25.25,0,0,0,.188-.151.545.545,0,0,0,.075-.263v-4.854h-.978a.741.741,0,0,0-.3.151,2.087,2.087,0,0,0-.264.339,4.152,4.152,0,0,0-.226.414c-.075.15-.113.263-.15.339h-.3V313.4h5.231v1.618Z" transform="translate(-890.864 -313.212)"/>
    <path id="Path_28540" data-name="Path 28540" d="M949.4,315.03h-.3a2.639,2.639,0,0,0-.376-.715.966.966,0,0,0-.527-.414h-1.731v2.408h.677a.889.889,0,0,0,.489-.075.819.819,0,0,0,.3-.188.567.567,0,0,0,.151-.3,1.348,1.348,0,0,0,.075-.414h.3V317.7h-.3a1.933,1.933,0,0,0-.075-.414,1.47,1.47,0,0,0-.151-.339.548.548,0,0,0-.339-.226,1.617,1.617,0,0,0-.452-.075h-.677v2.07a.643.643,0,0,0,.037.263.454.454,0,0,0,.188.188,1.537,1.537,0,0,1,.263.075c.151,0,.263.038.339.038v.3h-2.6v-.3h.339c.15,0,.226,0,.263-.038a.25.25,0,0,0,.188-.151.546.546,0,0,0,.075-.263V314.5a.639.639,0,0,0-.038-.263c-.037-.075-.113-.113-.188-.188a1.546,1.546,0,0,1-.3-.113.935.935,0,0,0-.3-.038v-.3h4.7v1.505Z" transform="translate(-906.768 -313.337)"/>
    <path id="Path_28541" data-name="Path 28541" d="M966.871,313.7a1.3,1.3,0,0,0-.339.038.668.668,0,0,0-.376.151c-.113.075-.151.188-.188.414a4.567,4.567,0,0,0-.038.753v2.6a1.558,1.558,0,0,1-.226.866,1.742,1.742,0,0,1-.565.6,2.5,2.5,0,0,1-.715.339,2.557,2.557,0,0,1-.715.113,2.673,2.673,0,0,1-.978-.151,2.535,2.535,0,0,1-.715-.376,1.229,1.229,0,0,1-.414-.564,1.329,1.329,0,0,1-.151-.64V314.3a.559.559,0,0,0-.038-.263c0-.075-.113-.113-.188-.188a1.833,1.833,0,0,0-.264-.113c-.113,0-.188-.038-.263-.038v-.3h2.521v.3a.935.935,0,0,0-.3.038.439.439,0,0,0-.263.075c-.113,0-.151.075-.188.188,0,.075-.038.151-.038.263v3.312a2.14,2.14,0,0,0,.038.489,1.42,1.42,0,0,0,.226.489,1.106,1.106,0,0,0,.452.376,1.556,1.556,0,0,0,.79.151,1.647,1.647,0,0,0,.79-.151,1.3,1.3,0,0,0,.489-.376,2.023,2.023,0,0,0,.263-.489,1.2,1.2,0,0,0,.075-.489v-2.446a2.206,2.206,0,0,0-.075-.753.579.579,0,0,0-.188-.376,1.061,1.061,0,0,0-.414-.151,3.143,3.143,0,0,0-.376-.075v-.3h2.446v.3Z" transform="translate(-916.748 -313.212)"/>
    <path id="Path_28542" data-name="Path 28542" d="M986.21,313.639a.9.9,0,0,0-.376.075c-.188.075-.263.075-.339.113a.441.441,0,0,0-.188.414c0,.188-.038.452-.038.753v4.4h-.376l-3.65-4.93v3.086a2.328,2.328,0,0,0,.075.79.647.647,0,0,0,.6.6,3.359,3.359,0,0,0,.414.075v.3h-2.484v-.3a.9.9,0,0,0,.376-.075c.188-.075.3-.075.339-.151.113-.075.151-.188.188-.376,0-.151.038-.452.038-.828v-2.973a.679.679,0,0,0-.075-.376,2.09,2.09,0,0,0-.188-.3,1.08,1.08,0,0,0-.414-.226,1.142,1.142,0,0,0-.414-.113v-.3h1.731l3.387,4.591v-2.86a2.332,2.332,0,0,0-.075-.79,1.139,1.139,0,0,0-.188-.376,1.922,1.922,0,0,0-.376-.151,1.942,1.942,0,0,0-.414-.075v-.3h2.446Z" transform="translate(-928.598 -313.15)"/>
    <path id="Path_28543" data-name="Path 28543" d="M1006.3,316.573a2.834,2.834,0,0,1-.3,1.317,3.079,3.079,0,0,1-.752.941,3.465,3.465,0,0,1-1.054.527,4.242,4.242,0,0,1-1.2.188H1000.5v-.3h.3c.113,0,.226,0,.263-.038a.25.25,0,0,0,.188-.151.544.544,0,0,0,.075-.263v-4.327a.558.558,0,0,0-.038-.263.453.453,0,0,0-.188-.188.709.709,0,0,0-.3-.075.557.557,0,0,1-.263-.038v-.3h2.634a3.245,3.245,0,0,1,1.054.151,3.381,3.381,0,0,1,.9.452,2.622,2.622,0,0,1,.828.978,3.466,3.466,0,0,1,.3,1.43Zm-1.016,0a3.33,3.33,0,0,0-.15-1.091,3.151,3.151,0,0,0-.452-.865,2.635,2.635,0,0,0-.715-.564,2.008,2.008,0,0,0-.941-.188h-.715v4.629c0,.263.076.452.226.527a1.131,1.131,0,0,0,.677.151,2.622,2.622,0,0,0,.941-.188,1.469,1.469,0,0,0,.64-.527,2.08,2.08,0,0,0,.376-.828,4.629,4.629,0,0,0,.113-1.091Z" transform="translate(-941.571 -313.337)"/>
    <path id="Path_28544" data-name="Path 28544" d="M848.6,343.13a1.915,1.915,0,0,1-.188.828,1.611,1.611,0,0,1-.527.6,2.5,2.5,0,0,1-.715.339,2.936,2.936,0,0,1-.828.113h-.677v1.806a.558.558,0,0,0,.038.263c0,.075.113.151.188.188a2.125,2.125,0,0,0,.263.038h.339v.3h-2.6v-.3h.3c.113,0,.226,0,.263-.038a.25.25,0,0,0,.188-.151.545.545,0,0,0,.075-.263v-4.328a.559.559,0,0,0-.038-.263.454.454,0,0,0-.188-.188c-.113,0-.226-.075-.3-.075h-.263v-.3h2.747a2.153,2.153,0,0,1,1.355.414,1.338,1.338,0,0,1,.527,1.091Zm-1.279,1.016a1.016,1.016,0,0,0,.188-.414c0-.151.038-.263.038-.376a1.2,1.2,0,0,0-.075-.489,2.292,2.292,0,0,0-.188-.452.956.956,0,0,0-.376-.3,1.432,1.432,0,0,0-.6-.113h-.6v2.672h.414a1.493,1.493,0,0,0,.753-.151,1.328,1.328,0,0,0,.414-.339Z" transform="translate(-843.9 -330.862)"/>
    <path id="Path_28545" data-name="Path 28545" d="M865.518,345.752l-.113,1.769h-5v-.3h.339c.151,0,.226,0,.264-.075a.816.816,0,0,0,.188-.151c.038-.038.038-.151.038-.263V342.4a.639.639,0,0,0-.038-.263c-.038-.075-.113-.113-.188-.188a1.549,1.549,0,0,1-.3-.113c-.113,0-.226-.038-.3-.038v-.3h4.666v1.468h-.3a2.042,2.042,0,0,0-.376-.677,1.192,1.192,0,0,0-.527-.414h-1.656v2.408h.677a.89.89,0,0,0,.489-.075,1.6,1.6,0,0,0,.263-.188.71.71,0,0,0,.151-.339,1.658,1.658,0,0,0,.075-.376h.3v2.371h-.3a1.6,1.6,0,0,0-.075-.414,1.48,1.48,0,0,0-.151-.339.585.585,0,0,0-.3-.226c-.113,0-.263-.038-.452-.038h-.677v1.806a1.169,1.169,0,0,0,.038.414.254.254,0,0,0,.151.226,2.6,2.6,0,0,0,.3.113h1.279a.559.559,0,0,0,.339-.075.322.322,0,0,0,.226-.113,5.338,5.338,0,0,0,.414-.6,3.2,3.2,0,0,0,.263-.6h.3Z" transform="translate(-854.191 -330.738)"/>
    <path id="Path_28546" data-name="Path 28546" d="M883.77,347.521h-1.618c-.376-.564-.677-1.054-.978-1.468s-.6-.828-.941-1.279h-.6v1.919a.559.559,0,0,0,.038.263c0,.075.113.151.188.188a2.119,2.119,0,0,0,.263.038h.339v.3H877.9v-.3h.3c.113,0,.226,0,.263-.038a.25.25,0,0,0,.188-.151.544.544,0,0,0,.075-.263v-4.365a.558.558,0,0,0-.038-.263c0-.075-.113-.151-.188-.188a.958.958,0,0,1-.263-.075.734.734,0,0,1-.3-.038v-.3h2.785a2.2,2.2,0,0,1,.715.075,1.73,1.73,0,0,1,.6.263,1.2,1.2,0,0,1,.414.452,1.289,1.289,0,0,1,.151.677.962.962,0,0,1-.113.6,1.383,1.383,0,0,1-.753.753c-.188.075-.376.151-.6.226.3.376.527.715.753.978.188.263.452.6.715.978a1.127,1.127,0,0,0,.339.376,1.318,1.318,0,0,0,.3.188c.075,0,.15.075.263.075h.263v.376Zm-2.258-4.478a1.27,1.27,0,0,0-.3-.865,1.148,1.148,0,0,0-.9-.3h-.715v2.559h.564a1.332,1.332,0,0,0,.978-.376A1.362,1.362,0,0,0,881.513,343.043Z" transform="translate(-865.106 -330.738)"/>
    <path id="Path_28547" data-name="Path 28547" d="M901,343.23h-.3a2.64,2.64,0,0,0-.376-.715.966.966,0,0,0-.527-.414h-1.731v2.408h.677a.889.889,0,0,0,.489-.075.818.818,0,0,0,.3-.188.566.566,0,0,0,.151-.3,1.353,1.353,0,0,0,.075-.414h.3V345.9h-.3a1.944,1.944,0,0,0-.075-.414,1.469,1.469,0,0,0-.151-.339.548.548,0,0,0-.339-.226,1.619,1.619,0,0,0-.452-.075h-.677v2.07a.641.641,0,0,0,.038.263c0,.075.113.151.188.188a1.538,1.538,0,0,1,.263.075c.151,0,.263.038.339.038v.3h-2.6v-.3h.339c.151,0,.226,0,.263-.038a.25.25,0,0,0,.188-.151.544.544,0,0,0,.075-.263V342.7a.64.64,0,0,0-.038-.263c0-.075-.113-.113-.188-.188a1.553,1.553,0,0,1-.3-.113.935.935,0,0,0-.3-.038v-.3h4.7v1.505Z" transform="translate(-876.582 -330.925)"/>
    <path id="Path_28548" data-name="Path 28548" d="M917.23,342.19a2.764,2.764,0,0,1,.64,1.016,3.578,3.578,0,0,1,.226,1.317,3.724,3.724,0,0,1-.226,1.317,2.945,2.945,0,0,1-.64.978,3.034,3.034,0,0,1-.9.64,2.75,2.75,0,0,1-1.129.226,3.067,3.067,0,0,1-1.167-.226,2.624,2.624,0,0,1-.9-.64,2.7,2.7,0,0,1-.6-1.016,3.617,3.617,0,0,1-.226-1.242,3.881,3.881,0,0,1,.226-1.317,2.943,2.943,0,0,1,.64-.978,2.779,2.779,0,0,1,.941-.64,2.7,2.7,0,0,1,1.091-.226,2.879,2.879,0,0,1,1.129.226,3.033,3.033,0,0,1,.9.64Zm-.64,4.252a3.452,3.452,0,0,0,.339-.865,4.633,4.633,0,0,0,.113-1.091,5.214,5.214,0,0,0-.113-1.129,2.6,2.6,0,0,0-.339-.865,1.742,1.742,0,0,0-.6-.564,1.371,1.371,0,0,0-.79-.188,1.649,1.649,0,0,0-.866.226,1.874,1.874,0,0,0-.564.64,2.153,2.153,0,0,0-.3.865,4.76,4.76,0,0,0-.113,1.054,3.356,3.356,0,0,0,.113,1.091,5.914,5.914,0,0,0,.339.865,1.358,1.358,0,0,0,.565.564,1.517,1.517,0,0,0,.828.226,1.612,1.612,0,0,0,.828-.226,1.544,1.544,0,0,0,.6-.6Z" transform="translate(-886.561 -330.675)"/>
    <path id="Path_28549" data-name="Path 28549" d="M937.77,347.521h-1.618c-.376-.564-.677-1.054-.978-1.468s-.6-.828-.941-1.279h-.6v1.919a.56.56,0,0,0,.037.263c0,.075.113.151.188.188a2.119,2.119,0,0,0,.263.038h.339v.3H931.9v-.3h.3c.113,0,.226,0,.263-.038a.25.25,0,0,0,.188-.151.543.543,0,0,0,.075-.263v-4.365a.558.558,0,0,0-.038-.263.454.454,0,0,0-.188-.188.956.956,0,0,1-.263-.075c-.113-.038-.226,0-.3-.038v-.3h2.785a2.2,2.2,0,0,1,.715.075,1.728,1.728,0,0,1,.6.263,1.2,1.2,0,0,1,.414.452,1.289,1.289,0,0,1,.151.677.962.962,0,0,1-.113.6,1.384,1.384,0,0,1-.753.753c-.188.075-.376.151-.6.226.3.376.527.715.753.978.188.263.452.6.715.978a1.127,1.127,0,0,0,.339.376,1.319,1.319,0,0,0,.3.188c.075,0,.151.075.263.075h.263v.376Zm-2.22-4.478a1.269,1.269,0,0,0-.3-.865,1.148,1.148,0,0,0-.9-.3h-.715v2.559h.564a1.333,1.333,0,0,0,.978-.376A1.363,1.363,0,0,0,935.55,343.043Z" transform="translate(-898.785 -330.738)"/>
    <path id="Path_28550" data-name="Path 28550" d="M957.288,347.4h-2.672v-.3h.376a.487.487,0,0,0,.3-.075.453.453,0,0,0,.188-.188.544.544,0,0,0,.075-.263V342.2h-.075l-2.032,5.118h-.226l-1.957-5.231h-.038v3.575a2.326,2.326,0,0,0,.075.79.7.7,0,0,0,.188.376,1.142,1.142,0,0,0,.376.188c.188.038.339.075.376.075v.3H949.8v-.3a.882.882,0,0,0,.414-.075.477.477,0,0,0,.339-.15c.113-.075.151-.188.188-.376,0-.15.038-.452.038-.828v-3.086a.815.815,0,0,0-.075-.452.676.676,0,0,0-.188-.263.727.727,0,0,0-.339-.188c-.113,0-.263-.075-.376-.075v-.3h2.032l1.731,4.516,1.468-3.763c.038-.151.113-.3.151-.452s.075-.263.075-.3h1.957v.3a.935.935,0,0,0-.3.038.438.438,0,0,0-.263.075c-.113,0-.15.075-.188.188,0,.075-.038.151-.038.263v4.327a.557.557,0,0,0,.038.263c0,.075.113.113.188.188a1.537,1.537,0,0,1,.263.075c.113.038.226,0,.3.038v.3Z" transform="translate(-909.95 -330.613)"/>
    <path id="Path_28551" data-name="Path 28551" d="M978.9,347.458h-2.484v-.3a2.277,2.277,0,0,0,.564-.075c.15-.038.226-.113.226-.151v-.188l-.489-1.355h-2.107a4.6,4.6,0,0,0-.188.527,1.344,1.344,0,0,1-.15.414c0,.113-.075.226-.075.3v.188c0,.113.075.188.263.263a1.56,1.56,0,0,0,.6.113v.3H972.8v-.3a.735.735,0,0,0,.263-.038.562.562,0,0,0,.263-.113,1.642,1.642,0,0,0,.263-.226,1.356,1.356,0,0,0,.188-.339c.3-.753.64-1.618,1.016-2.559s.677-1.769.978-2.521h.339l1.994,5.193a.608.608,0,0,0,.151.263c.075.075.113.151.226.188a1.835,1.835,0,0,0,.263.113.735.735,0,0,0,.263.038v.3Zm-2.408-2.446-.9-2.333-.9,2.333Z" transform="translate(-924.294 -330.675)"/>
    <path id="Path_28552" data-name="Path 28552" d="M997.51,341.839a.9.9,0,0,0-.376.075c-.188.075-.263.075-.339.113a.441.441,0,0,0-.188.414c0,.188-.038.452-.038.753v4.4h-.376l-3.65-4.93v3.086a2.328,2.328,0,0,0,.075.79.647.647,0,0,0,.6.6,3.361,3.361,0,0,0,.414.075v.3h-2.484v-.3a.9.9,0,0,0,.376-.075c.188-.075.3-.075.339-.151.113-.075.151-.188.188-.376,0-.151.038-.452.038-.828v-2.973a.679.679,0,0,0-.075-.376,2.085,2.085,0,0,0-.188-.3,1.078,1.078,0,0,0-.414-.226A1.14,1.14,0,0,0,991,341.8v-.3h1.731l3.387,4.591v-2.86a2.328,2.328,0,0,0-.075-.79,1.14,1.14,0,0,0-.188-.376,2.062,2.062,0,0,0-.79-.226v-.3h2.446v.3Z" transform="translate(-935.646 -330.738)"/>
    <path id="Path_28553" data-name="Path 28553" d="M1014.41,347.484a2.241,2.241,0,0,1-1.016-.226,2.757,2.757,0,0,1-.865-.6,2.86,2.86,0,0,1-.6-.978,3.517,3.517,0,0,1-.226-1.279,3.878,3.878,0,0,1,.226-1.317,3.457,3.457,0,0,1,.6-1.016,3.035,3.035,0,0,1,.9-.64,2.749,2.749,0,0,1,1.129-.226,1.523,1.523,0,0,1,.79.113c.226.113.452.188.677.3l.188-.3h.339v2.145h-.3a4.567,4.567,0,0,0-.188-.677,2.252,2.252,0,0,0-.3-.6,1.842,1.842,0,0,0-.489-.452,1.236,1.236,0,0,0-.64-.151,1.851,1.851,0,0,0-.753.188,1.611,1.611,0,0,0-.6.527,2.614,2.614,0,0,0-.376.865,5.479,5.479,0,0,0-.151,1.167,2.965,2.965,0,0,0,.151,1.054,2.845,2.845,0,0,0,.414.828,2.306,2.306,0,0,0,.64.564,1.578,1.578,0,0,0,.828.188,1.634,1.634,0,0,0,1.129-.414,1.969,1.969,0,0,0,.376-.414,2.293,2.293,0,0,0,.263-.527l.3.151a2.49,2.49,0,0,1-.978,1.279,2.538,2.538,0,0,1-1.43.376Z" transform="translate(-948.556 -330.551)"/>
    <path id="Path_28554" data-name="Path 28554" d="M1034.018,345.752l-.113,1.769h-5v-.3h.339c.151,0,.226,0,.263-.075a.823.823,0,0,0,.188-.151c.038-.038.038-.151.038-.263V342.4a.641.641,0,0,0-.038-.263c-.038-.075-.113-.113-.188-.188a1.549,1.549,0,0,1-.3-.113.936.936,0,0,0-.3-.038v-.3h4.666v1.468h-.3a2.043,2.043,0,0,0-.376-.677,1.193,1.193,0,0,0-.527-.414h-1.656v2.408h.677a.89.89,0,0,0,.49-.075,1.581,1.581,0,0,0,.263-.188.708.708,0,0,0,.151-.339,1.652,1.652,0,0,0,.075-.376h.3v2.371h-.3a1.6,1.6,0,0,0-.075-.414,1.469,1.469,0,0,0-.151-.339.584.584,0,0,0-.3-.226c-.113,0-.263-.038-.452-.038h-.677v1.806a1.171,1.171,0,0,0,.038.414.254.254,0,0,0,.151.226,2.6,2.6,0,0,0,.3.113h1.28a.559.559,0,0,0,.339-.075.321.321,0,0,0,.225-.113,5.3,5.3,0,0,0,.414-.6,3.194,3.194,0,0,0,.263-.6h.3Z" transform="translate(-959.284 -330.738)"/>
  </g>
  <rect id="Rectangle_1339" data-name="Rectangle 1339" width="7.263" height="0.865" transform="translate(69.089 54.564)" fill="#f26558"/>
  <g id="Group_15353" data-name="Group 15353" transform="translate(46.887 62.278)">
    <g id="Group_15349" data-name="Group 15349" transform="translate(17.009 3.5)">
      <path id="Path_28555" data-name="Path 28555" d="M921.67,411.116H919.6v-.226h.264c.113,0,.188,0,.226-.038.075,0,.113-.075.15-.113a1.628,1.628,0,0,0,.038-.188v-3.5c0-.038-.075-.075-.151-.113a.534.534,0,0,1-.226-.075c-.113,0-.188,0-.226-.038V406.6h2.07v.226h-.226c-.076,0-.188,0-.226.038a.168.168,0,0,0-.151.113c0,.075-.038.113-.038.188v3.311a.282.282,0,0,0,.038.188.168.168,0,0,0,.151.113.663.663,0,0,1,.226.038h.263v.226Z" transform="translate(-919.6 -406.487)"/>
      <path id="Path_28556" data-name="Path 28556" d="M931.766,406.663h-.188a.288.288,0,0,0-.188.075c-.075.038-.113.113-.188.188a1.813,1.813,0,0,0-.113.263c-.151.339-.376.866-.64,1.58q-.452,1.072-.9,2.258h-.264c-.3-.828-.6-1.618-.9-2.408s-.489-1.279-.6-1.581c0-.075-.075-.113-.113-.188a.823.823,0,0,0-.188-.151c-.075,0-.113-.075-.188-.075H927.1V406.4h1.882v.226a1.411,1.411,0,0,0-.414.038c-.113,0-.151.075-.151.113v.151c.075.226.226.564.376,1.016s.414,1.167.753,2.032c.151-.414.339-.866.564-1.392s.339-.9.414-1.129a1.365,1.365,0,0,0,.113-.414v-.188c0-.038,0-.075-.075-.113-.038,0-.113-.075-.188-.075a.477.477,0,0,1-.226-.038h-.226V406.4h1.693v.226Z" transform="translate(-924.278 -406.362)"/>
      <path id="Path_28557" data-name="Path 28557" d="M943.607,411.041a1.964,1.964,0,0,1-.79-.151,2.135,2.135,0,0,1-.677-.452,2.11,2.11,0,0,1-.452-.753,2.665,2.665,0,0,1-.188-.978,2.547,2.547,0,0,1,.151-.978,2.114,2.114,0,0,1,.452-.753,1.743,1.743,0,0,1,.677-.489,2.233,2.233,0,0,1,.866-.188,1.379,1.379,0,0,1,.6.075,3.188,3.188,0,0,1,.527.226l.15-.226h.263v1.618h-.226a1.614,1.614,0,0,0-.151-.527c-.075-.188-.151-.339-.226-.489a1.066,1.066,0,0,0-.376-.339,1.04,1.04,0,0,0-.489-.113.981.981,0,0,0-.565.151.958.958,0,0,0-.452.414,2.829,2.829,0,0,0-.3.677,3.3,3.3,0,0,0-.113.9,1.675,1.675,0,0,0,.113.79,3.343,3.343,0,0,0,.3.64,1.256,1.256,0,0,0,.489.414,1.772,1.772,0,0,0,.64.151.959.959,0,0,0,.489-.075.78.78,0,0,0,.376-.226,2.722,2.722,0,0,0,.3-.339,1.754,1.754,0,0,0,.188-.376l.226.113a1.858,1.858,0,0,1-.753.978,2.057,2.057,0,0,1-1.091.3Z" transform="translate(-933.259 -406.3)"/>
      <path id="Path_28558" data-name="Path 28558" d="M958.179,410.928H956.26V410.7a.744.744,0,0,0,.414-.075c.113,0,.151-.075.151-.113v-.151l-.376-1.016H954.83a2.592,2.592,0,0,0-.151.376,2.611,2.611,0,0,1-.113.3.534.534,0,0,1-.075.226v.151c0,.075.075.151.188.188a1.889,1.889,0,0,0,.452.075v.226H953.4v-.226h.226a.288.288,0,0,0,.188-.075c.075-.075.151-.113.188-.188a2.143,2.143,0,0,1,.15-.263c.226-.564.489-1.2.753-1.919s.527-1.355.753-1.919h.263l1.543,3.951a.321.321,0,0,0,.113.188.821.821,0,0,0,.188.151.637.637,0,0,1,.188.075h.188v.226Zm-1.844-1.882-.677-1.769-.677,1.769h1.355Z" transform="translate(-940.681 -406.3)"/>
    </g>
    <g id="Group_15350" data-name="Group 15350" transform="translate(0 10.612)">
      <path id="Path_28559" data-name="Path 28559" d="M876.018,429.237H874.4v-.188h.376c.038,0,.113-.038.113-.075s.038-.075.038-.151v-2.747c0-.038-.075-.075-.113-.113a.635.635,0,0,1-.188-.075h-.188V425.7h1.618v.188h-.188a.282.282,0,0,0-.188.038.1.1,0,0,0-.113.113v2.9c0,.038.075.075.113.113a.658.658,0,0,1,.188.038h.188v.188Z" transform="translate(-874.4 -425.512)" fill="#3b4290"/>
      <path id="Path_28560" data-name="Path 28560" d="M883.925,425.626h-.151a.2.2,0,0,0-.151.075c-.075,0-.113.075-.15.151,0,.038-.075.113-.113.188-.113.263-.3.677-.527,1.242s-.452,1.166-.715,1.768h-.226c-.226-.64-.489-1.279-.715-1.881s-.376-1.016-.452-1.242a.285.285,0,0,0-.075-.151c0-.038-.075-.075-.151-.113a.285.285,0,0,1-.15-.075H880.2V425.4H881.7v.188a1.041,1.041,0,0,0-.339.038.1.1,0,0,0-.113.113v.151c.075.151.151.452.3.828s.339.9.6,1.581c.113-.3.263-.677.452-1.091.151-.414.263-.715.339-.865a.827.827,0,0,1,.113-.3v-.151a.138.138,0,0,0-.038-.113l-.151-.075a.409.409,0,0,1-.188-.038H882.5v-.188h1.355v.188Z" transform="translate(-878.017 -425.325)" fill="#3b4290"/>
      <path id="Path_28561" data-name="Path 28561" d="M893.356,429.063a1.56,1.56,0,0,1-.6-.113,1.248,1.248,0,0,1-.527-.376,2.109,2.109,0,0,1-.376-.564,2.46,2.46,0,0,1-.151-.79,2.5,2.5,0,0,1,.113-.79,1.635,1.635,0,0,1,.376-.6,1.694,1.694,0,0,1,.527-.376,1.98,1.98,0,0,1,.677-.15.889.889,0,0,1,.489.075,2.021,2.021,0,0,1,.414.188l.113-.188h.188v1.279h-.188a2.325,2.325,0,0,0-.113-.414,1.179,1.179,0,0,0-.188-.376,1.015,1.015,0,0,0-.3-.263.635.635,0,0,0-.376-.113.679.679,0,0,0-.452.113,1.617,1.617,0,0,0-.376.339,1.123,1.123,0,0,0-.226.527,4.16,4.16,0,0,0-.075.715,1.66,1.66,0,0,0,.075.64,1.5,1.5,0,0,0,.263.489,1.066,1.066,0,0,0,.376.339,1.041,1.041,0,0,0,.489.113.563.563,0,0,0,.376-.075.818.818,0,0,0,.3-.188,1.637,1.637,0,0,0,.226-.263,1.125,1.125,0,0,0,.151-.3l.188.075a1.726,1.726,0,0,1-.565.753,1.559,1.559,0,0,1-.865.226Z" transform="translate(-885.19 -425.262)" fill="#3b4290"/>
      <path id="Path_28562" data-name="Path 28562" d="M909.588,429.175h-1.505v-.188a1.043,1.043,0,0,0,.339-.038.139.139,0,0,0,.113-.075v-.113l-.3-.79h-1.279a2.592,2.592,0,0,1-.113.3.536.536,0,0,1-.075.226.34.34,0,0,1-.038.188v.113c0,.075.038.113.15.151.113,0,.226.075.376.075v.188H905.9v-.188h.15a.15.15,0,0,0,.151-.075.294.294,0,0,0,.151-.151c0-.038.075-.113.113-.188.188-.452.376-.941.6-1.505s.414-1.054.564-1.505h.188l1.2,3.086a.2.2,0,0,0,.075.151c0,.038.075.075.151.113.038,0,.075.038.151.075h.151v.188Zm-1.43-1.468-.527-1.392-.527,1.392H908.2Z" transform="translate(-894.047 -425.449)" fill="#3b4290"/>
      <path id="Path_28563" data-name="Path 28563" d="M919.72,427.27a.478.478,0,0,1,.15.263c0,.075.038.226.038.339a1.083,1.083,0,0,1-.339.79,1.164,1.164,0,0,1-.866.3c-.339,0-.339,0-.489-.075a1.392,1.392,0,0,1-.414-.188l-.113.188H917.5v-1.242h.188a1.349,1.349,0,0,0,.151.414,1.765,1.765,0,0,0,.226.339.585.585,0,0,0,.3.226.745.745,0,0,0,.414.075.646.646,0,0,0,.3-.038l.226-.113a.813.813,0,0,0,.113-.188c0-.075.038-.151.038-.264a.858.858,0,0,0-.113-.414.787.787,0,0,0-.376-.3,2.6,2.6,0,0,1-.376-.15,3.925,3.925,0,0,1-.376-.151,1.223,1.223,0,0,1-.489-.376.906.906,0,0,1-.151-.564c0-.226,0-.263.075-.376a.905.905,0,0,1,.226-.3,1.525,1.525,0,0,1,.339-.188,1.6,1.6,0,0,1,.414-.075.955.955,0,0,1,.452.075,1.762,1.762,0,0,1,.376.188l.113-.188h.188v1.2h-.188a1.106,1.106,0,0,0-.113-.376,1.523,1.523,0,0,0-.188-.339.506.506,0,0,0-.263-.226.618.618,0,0,0-.376-.075.566.566,0,0,0-.414.151.522.522,0,0,0-.188.376c0,.15,0,.3.113.376a1.014,1.014,0,0,0,.3.263,1.127,1.127,0,0,0,.376.151,1.336,1.336,0,0,1,.339.15,1.124,1.124,0,0,1,.3.151.553.553,0,0,1,.226.188Z" transform="translate(-901.281 -425.2)" fill="#3b4290"/>
      <path id="Path_28564" data-name="Path 28564" d="M927.12,427.27a.478.478,0,0,1,.151.263c0,.075.038.226.038.339a1.083,1.083,0,0,1-.339.79,1.164,1.164,0,0,1-.865.3c-.339,0-.339,0-.489-.075a1.392,1.392,0,0,1-.414-.188l-.113.188H924.9v-1.242h.188a1.35,1.35,0,0,0,.15.414,1.78,1.78,0,0,0,.226.339.585.585,0,0,0,.3.226.744.744,0,0,0,.414.075.646.646,0,0,0,.3-.038l.226-.113a.822.822,0,0,0,.113-.188c0-.075.038-.151.038-.264a.858.858,0,0,0-.113-.414.786.786,0,0,0-.376-.3,2.6,2.6,0,0,1-.376-.15,3.913,3.913,0,0,1-.376-.151,1.223,1.223,0,0,1-.489-.376.907.907,0,0,1-.15-.564c0-.226,0-.263.075-.376a.9.9,0,0,1,.226-.3,1.527,1.527,0,0,1,.339-.188,1.6,1.6,0,0,1,.414-.075.954.954,0,0,1,.452.075,1.759,1.759,0,0,1,.376.188l.113-.188h.188v1.2h-.188a1.108,1.108,0,0,0-.113-.376,1.527,1.527,0,0,0-.188-.339.506.506,0,0,0-.263-.226.619.619,0,0,0-.376-.075.566.566,0,0,0-.414.151.523.523,0,0,0-.188.376c0,.15,0,.3.113.376a1.014,1.014,0,0,0,.3.263,1.127,1.127,0,0,0,.376.151,1.339,1.339,0,0,1,.339.15,1.129,1.129,0,0,1,.3.151.554.554,0,0,1,.226.188Z" transform="translate(-905.897 -425.2)" fill="#3b4290"/>
      <path id="Path_28565" data-name="Path 28565" d="M935.973,425.889a1.64,1.64,0,0,1,.376.6,2.455,2.455,0,0,1,.151.79,1.85,1.85,0,0,1-.151.79,2.022,2.022,0,0,1-.376.6,1.489,1.489,0,0,1-.565.376,1.966,1.966,0,0,1-.677.113,1.289,1.289,0,0,1-.677-.151,1.855,1.855,0,0,1-.564-.376,2.348,2.348,0,0,1-.376-.6,2.428,2.428,0,0,1-.113-.753,1.854,1.854,0,0,1,.15-.79,2.024,2.024,0,0,1,.377-.6,1.488,1.488,0,0,1,.564-.376,1.968,1.968,0,0,1,.677-.113,1.378,1.378,0,0,1,.677.15,1.852,1.852,0,0,1,.564.376Zm-.376,2.521a1.265,1.265,0,0,0,.188-.527,3.308,3.308,0,0,0,.075-.64,1.972,1.972,0,0,0-.075-.677,1.32,1.32,0,0,0-.226-.527.969.969,0,0,0-.339-.339,1.042,1.042,0,0,0-.489-.113.864.864,0,0,0-.527.151.822.822,0,0,0-.339.376,2.174,2.174,0,0,0-.188.527,3.316,3.316,0,0,0-.075.64,1.762,1.762,0,0,0,.075.64,1.32,1.32,0,0,0,.226.527.737.737,0,0,0,.339.339,1.117,1.117,0,0,0,.979,0,.738.738,0,0,0,.339-.339Z" transform="translate(-910.949 -425.325)" fill="#3b4290"/>
      <path id="Path_28566" data-name="Path 28566" d="M946.556,429.063a1.56,1.56,0,0,1-.6-.113,1.248,1.248,0,0,1-.527-.376,2.11,2.11,0,0,1-.376-.564,2.458,2.458,0,0,1-.151-.79,2.5,2.5,0,0,1,.113-.79,1.637,1.637,0,0,1,.376-.6,1.7,1.7,0,0,1,.527-.376,1.982,1.982,0,0,1,.677-.15.89.89,0,0,1,.489.075c.151.075.263.113.414.188l.113-.188h.188v1.279h-.188a2.3,2.3,0,0,0-.113-.414,1.175,1.175,0,0,0-.188-.376,1.011,1.011,0,0,0-.3-.263.635.635,0,0,0-.376-.113.679.679,0,0,0-.452.113,1.068,1.068,0,0,0-.376.339,1.123,1.123,0,0,0-.226.527,4.154,4.154,0,0,0-.075.715,1.662,1.662,0,0,0,.075.64,1.5,1.5,0,0,0,.263.489,1.066,1.066,0,0,0,.376.339,1.041,1.041,0,0,0,.489.113.564.564,0,0,0,.376-.075.821.821,0,0,0,.3-.188,1.634,1.634,0,0,0,.226-.263,1.118,1.118,0,0,0,.15-.3l.188.075a1.727,1.727,0,0,1-.564.753,1.56,1.56,0,0,1-.866.226Z" transform="translate(-918.371 -425.262)" fill="#3b4290"/>
      <path id="Path_28567" data-name="Path 28567" d="M956.818,429.237H955.2v-.188h.376c.037,0,.113-.038.113-.075s.038-.075.038-.151v-2.747c0-.038-.075-.075-.113-.113a.636.636,0,0,1-.188-.075h-.188V425.7h1.618v.188h-.188a.282.282,0,0,0-.188.038.1.1,0,0,0-.113.113v2.9c0,.038.075.075.113.113a.657.657,0,0,1,.188.038.294.294,0,0,0,.188,0v.188Z" transform="translate(-924.795 -425.512)" fill="#3b4290"/>
      <path id="Path_28568" data-name="Path 28568" d="M964.888,429.175h-1.505v-.188a1.042,1.042,0,0,0,.339-.038.139.139,0,0,0,.113-.075v-.113l-.3-.79h-1.279a2.579,2.579,0,0,1-.113.3.535.535,0,0,1-.075.226.34.34,0,0,1-.038.188v.113c0,.075.038.113.151.151.113,0,.226.075.376.075v.188H961.2v-.188h.151c.075,0,.113,0,.15-.075a.293.293,0,0,0,.151-.151c0-.038.075-.113.113-.188.188-.452.376-.941.6-1.505s.414-1.054.564-1.505h.188l1.2,3.086a.2.2,0,0,0,.075.151.522.522,0,0,0,.151.113c.038,0,.075.038.15.075s.113,0,.151,0v.188Zm-1.468-1.468-.527-1.392-.527,1.392h1.091Z" transform="translate(-928.537 -425.449)" fill="#3b4290"/>
      <path id="Path_28569" data-name="Path 28569" d="M975.636,426.416h-.188a.537.537,0,0,0-.075-.226.79.79,0,0,0-.151-.226.821.821,0,0,0-.151-.188.5.5,0,0,0-.188-.113h-.564v3.01c0,.038.075.075.113.113a.5.5,0,0,1,.188.038h.226v.188h-1.693v-.188h.226c.113,0,.15,0,.188-.038a.12.12,0,0,0,.113-.113c0-.075.038-.113.038-.151v-2.9h-.565a.344.344,0,0,0-.188.113.658.658,0,0,0-.151.188c-.038.075-.113.151-.15.226a.533.533,0,0,0-.076.226H972.4V425.4h3.123v.978Z" transform="translate(-935.522 -425.325)" fill="#3b4290"/>
      <path id="Path_28570" data-name="Path 28570" d="M984.618,429.237H983v-.188h.376c.037,0,.113-.038.113-.075s.038-.075.038-.151v-2.747c0-.038-.075-.075-.113-.113a.635.635,0,0,1-.188-.075h-.188V425.7h1.618v.188h-.188a.282.282,0,0,0-.188.038.1.1,0,0,0-.113.113v2.9c0,.038.075.075.113.113a.658.658,0,0,1,.188.038.294.294,0,0,0,.188,0v.188Z" transform="translate(-942.133 -425.512)" fill="#3b4290"/>
      <path id="Path_28571" data-name="Path 28571" d="M992.673,425.889a1.64,1.64,0,0,1,.376.6,2.465,2.465,0,0,1,.151.79,1.852,1.852,0,0,1-.151.79,2.022,2.022,0,0,1-.376.6,1.488,1.488,0,0,1-.564.376,1.966,1.966,0,0,1-.677.113,1.287,1.287,0,0,1-.677-.151,1.852,1.852,0,0,1-.565-.376,2.351,2.351,0,0,1-.376-.6,2.424,2.424,0,0,1-.113-.753,1.85,1.85,0,0,1,.15-.79,2.022,2.022,0,0,1,.376-.6,1.489,1.489,0,0,1,.565-.376,1.969,1.969,0,0,1,.677-.113,1.378,1.378,0,0,1,.677.15,1.855,1.855,0,0,1,.564.376Zm-.376,2.521a1.266,1.266,0,0,0,.188-.527,3.328,3.328,0,0,0,.075-.64,1.973,1.973,0,0,0-.075-.677,1.319,1.319,0,0,0-.226-.527.97.97,0,0,0-.339-.339,1.042,1.042,0,0,0-.489-.113.864.864,0,0,0-.527.151.825.825,0,0,0-.339.376,2.178,2.178,0,0,0-.188.527,3.316,3.316,0,0,0-.075.64,1.759,1.759,0,0,0,.075.64,1.318,1.318,0,0,0,.226.527.738.738,0,0,0,.339.339,1.116,1.116,0,0,0,.978,0,.739.739,0,0,0,.339-.339Z" transform="translate(-946.312 -425.325)" fill="#3b4290"/>
      <path id="Path_28572" data-name="Path 28572" d="M1004.989,425.626a.661.661,0,0,0-.226.038.4.4,0,0,0-.226.075.228.228,0,0,0-.113.226v3.086h-.226l-2.183-2.935v1.844a1.694,1.694,0,0,0,.038.489.321.321,0,0,0,.113.226c.038,0,.113.075.226.113a1.328,1.328,0,0,1,.226.038v.188h-1.468v-.188a.663.663,0,0,0,.226-.038c.113,0,.188-.038.188-.075a.227.227,0,0,0,.113-.226v-2.258a.479.479,0,0,0-.037-.226.828.828,0,0,0-.113-.188,1.636,1.636,0,0,0-.263-.151.956.956,0,0,0-.263-.075V425.4h1.016l2.032,2.747v-1.693a1.7,1.7,0,0,0-.038-.489.322.322,0,0,0-.113-.226c-.038,0-.113-.075-.226-.075a1.33,1.33,0,0,1-.226-.038v-.188h1.468v.188Z" transform="translate(-953.36 -425.325)" fill="#3b4290"/>
    </g>
    <g id="Group_15351" data-name="Group 15351" transform="translate(4.327 17.498)">
      <path id="Path_28573" data-name="Path 28573" d="M886.615,444.3a.544.544,0,0,1-.263.075h-.226v.376H885.9V443.7h.452a.318.318,0,0,1,.263.075c.075.038.075.151.075.263S886.69,444.264,886.615,444.3Zm-.151-.376h-.3v.3h.188a.138.138,0,0,0,.113-.038.378.378,0,0,0,.038-.113.138.138,0,0,0-.038-.113Z" transform="translate(-885.9 -443.625)" fill="#333238"/>
      <path id="Path_28574" data-name="Path 28574" d="M889.94,443.8c.038,0,.075.038.113.075a.131.131,0,0,1,.038.075v.113a.226.226,0,0,1-.038.151c0,.038-.075.075-.113.113.038,0,.075.038.113.075v.339a.116.116,0,0,0,.038.075h-.226v-.376h-.339v.414H889.3V443.8h.64Zm-.452.15v.3h.339c.038,0,.075-.075.075-.113s0-.113-.075-.113h-.339Z" transform="translate(-888.021 -443.687)" fill="#333238"/>
      <path id="Path_28575" data-name="Path 28575" d="M893.428,444.516a.564.564,0,0,1-.677,0,.753.753,0,0,1,0-.9.564.564,0,0,1,.677,0,.753.753,0,0,1,0,.9Zm-.113-.151a.543.543,0,0,0,.075-.263c0-.113,0-.226-.075-.263a.228.228,0,0,0-.226-.113c-.113,0-.151,0-.226.113a.544.544,0,0,0-.075.263c0,.113,0,.226.075.263a.228.228,0,0,0,.226.113C893.2,444.478,893.24,444.478,893.315,444.365Z" transform="translate(-890.079 -443.5)" fill="#333238"/>
      <path id="Path_28576" data-name="Path 28576" d="M897.077,443.7h.3v1.054h-.188v-.866l-.188.866h-.226l-.188-.866v.866H896.4V443.7h.339l.188.828.188-.828Z" transform="translate(-892.449 -443.625)" fill="#333238"/>
      <path id="Path_28577" data-name="Path 28577" d="M901.028,444.516a.564.564,0,0,1-.677,0,.752.752,0,0,1,0-.9.564.564,0,0,1,.677,0,.752.752,0,0,1,0,.9Zm-.151-.151a.543.543,0,0,0,.075-.263c0-.113,0-.226-.075-.263a.227.227,0,0,0-.226-.113c-.113,0-.151,0-.226.113a.543.543,0,0,0-.075.263c0,.113,0,.226.075.263a.228.228,0,0,0,.226.113C900.765,444.478,900.8,444.478,900.877,444.365Z" transform="translate(-894.819 -443.5)" fill="#333238"/>
      <path id="Path_28578" data-name="Path 28578" d="M904.628,443.7v.188h-.3v.866H904.1v-.866h-.3V443.7h.828Z" transform="translate(-897.064 -443.625)" fill="#333238"/>
      <path id="Path_28579" data-name="Path 28579" d="M907.126,444.754H906.9V443.7h.226Z" transform="translate(-898.998 -443.625)" fill="#333238"/>
      <path id="Path_28580" data-name="Path 28580" d="M908.7,443.7h.226l.414.715V443.7h.188v1.054H909.3l-.414-.753v.753H908.7Z" transform="translate(-900.12 -443.625)" fill="#333238"/>
      <path id="Path_28581" data-name="Path 28581" d="M912.79,444.039c0-.075-.075-.113-.113-.151h-.113a.225.225,0,0,0-.226.113.583.583,0,0,0-.075.3c0,.151,0,.226.075.263s.113.075.188.075.15,0,.188-.075a.285.285,0,0,0,.075-.15h-.226v-.188h.452v.564h-.151v-.113a.52.52,0,0,0-.151.113c-.075,0-.113.038-.226.038a.367.367,0,0,1-.339-.15.686.686,0,0,1-.151-.414.514.514,0,0,1,.151-.414.436.436,0,0,1,.376-.15.379.379,0,0,1,.339.113.607.607,0,0,1,.151.263h-.226Z" transform="translate(-902.178 -443.625)" fill="#333238"/>
      <path id="Path_28582" data-name="Path 28582" d="M917.739,443.7H918l.376,1.054h-.226l-.075-.226H917.7l-.075.226H917.4l.376-1.054Zm-.038.64h.263l-.15-.414-.151.414Z" transform="translate(-905.546 -443.625)" fill="#333238"/>
      <path id="Path_28583" data-name="Path 28583" d="M920.9,443.7h.226v.865h.527v.188H920.9Z" transform="translate(-907.729 -443.625)" fill="#333238"/>
      <path id="Path_28584" data-name="Path 28584" d="M924.328,443.7v.188h-.3v.866H923.8v-.866h-.3V443.7h.828Z" transform="translate(-909.351 -443.625)" fill="#333238"/>
      <path id="Path_28585" data-name="Path 28585" d="M927.49,443.888h-.564v.226h.527v.188h-.527v.263h.564v.188h-.79V443.7h.79Z" transform="translate(-911.347 -443.625)" fill="#333238"/>
      <path id="Path_28586" data-name="Path 28586" d="M930.64,443.8c.038,0,.075.038.113.075a.131.131,0,0,1,.038.075v.113a.226.226,0,0,1-.038.151c0,.038-.075.075-.113.113.038,0,.075.038.113.075v.339a.117.117,0,0,0,.038.075h-.226v-.376c0-.038-.075,0-.113,0h-.226v.414H930V443.8h.64Zm-.452.15v.3h.339c.038,0,.075-.075.075-.113s0-.113-.075-.113h-.339Z" transform="translate(-913.405 -443.687)" fill="#333238"/>
      <path id="Path_28587" data-name="Path 28587" d="M933.4,443.7h.226l.414.715V443.7h.188v1.054H934l-.414-.753v.753H933.4Z" transform="translate(-915.526 -443.625)" fill="#333238"/>
      <path id="Path_28588" data-name="Path 28588" d="M937.139,443.7h.263l.376,1.054h-.226l-.075-.226H937.1l-.075.226H936.8l.376-1.054Zm-.038.64h.263l-.151-.414-.151.414Z" transform="translate(-917.646 -443.625)" fill="#333238"/>
      <path id="Path_28589" data-name="Path 28589" d="M940.728,443.7v.188h-.3v.866H940.2v-.866h-.3V443.7h.828Z" transform="translate(-919.58 -443.625)" fill="#333238"/>
      <path id="Path_28590" data-name="Path 28590" d="M943.89,443.888h-.564v.226h.527v.188h-.527v.263h.564v.188h-.79V443.7h.79Z" transform="translate(-921.576 -443.625)" fill="#333238"/>
      <path id="Path_28591" data-name="Path 28591" d="M948.213,443.813a.508.508,0,0,1,.715.075c.038.075.075.113.075.188h-.226a.138.138,0,0,0-.038-.113.287.287,0,0,0-.188-.075c-.075,0-.151,0-.188.113a.543.543,0,0,0-.075.263.317.317,0,0,0,.075.263.207.207,0,0,0,.188.075c.075,0,.151,0,.188-.075a.379.379,0,0,0,.038-.113H949a.317.317,0,0,1-.151.263.427.427,0,0,1-.3.113.409.409,0,0,1-.339-.151.676.676,0,0,1-.113-.414.469.469,0,0,1,.15-.414Z" transform="translate(-924.694 -443.625)" fill="#333238"/>
      <path id="Path_28592" data-name="Path 28592" d="M951.839,443.7h.263l.376,1.054h-.226l-.075-.226H951.8l-.075.226H951.5l.376-1.054Zm-.038.64h.263l-.151-.414-.151.414Z" transform="translate(-926.815 -443.625)" fill="#333238"/>
      <path id="Path_28593" data-name="Path 28593" d="M955.715,444.3a.545.545,0,0,1-.264.075h-.226v.376H955V443.7h.452a.318.318,0,0,1,.263.075c.075.038.075.151.075.263S955.79,444.264,955.715,444.3Zm-.151-.376h-.3v.3h.188a.138.138,0,0,0,.113-.038.379.379,0,0,0,.038-.113.138.138,0,0,0-.038-.113Z" transform="translate(-928.997 -443.625)" fill="#333238"/>
      <path id="Path_28594" data-name="Path 28594" d="M958.426,444.754H958.2V443.7h.226Z" transform="translate(-930.993 -443.625)" fill="#333238"/>
      <path id="Path_28595" data-name="Path 28595" d="M960.628,443.7v.188h-.3v.866H960.1v-.866h-.3V443.7h.828Z" transform="translate(-931.991 -443.625)" fill="#333238"/>
      <path id="Path_28596" data-name="Path 28596" d="M963.039,443.7h.263l.376,1.054h-.226l-.075-.226H963l-.075.226H962.7l.376-1.054Zm-.038.64h.263l-.151-.414-.151.414Z" transform="translate(-933.8 -443.625)" fill="#333238"/>
      <path id="Path_28597" data-name="Path 28597" d="M966.2,443.7h.226v.865h.527v.188H966.2Z" transform="translate(-935.983 -443.625)" fill="#333238"/>
      <path id="Path_28598" data-name="Path 28598" d="M971.69,443.888h-.565v.226h.527v.188h-.527v.263h.565v.188h-.79V443.7h.79Z" transform="translate(-938.914 -443.625)" fill="#333238"/>
      <path id="Path_28599" data-name="Path 28599" d="M974.213,443.813a.508.508,0,0,1,.715.075c.038.075.075.113.075.188h-.226a.138.138,0,0,0-.038-.113.288.288,0,0,0-.188-.075c-.075,0-.151,0-.188.113a.542.542,0,0,0-.075.263.318.318,0,0,0,.075.263.207.207,0,0,0,.188.075c.075,0,.15,0,.188-.075a.379.379,0,0,0,.038-.113H975a.317.317,0,0,1-.151.263.427.427,0,0,1-.3.113.409.409,0,0,1-.339-.151.676.676,0,0,1-.113-.414.469.469,0,0,1,.151-.414Z" transform="translate(-940.91 -443.625)" fill="#333238"/>
      <path id="Path_28600" data-name="Path 28600" d="M978.428,444.516a.564.564,0,0,1-.677,0,.753.753,0,0,1,0-.9.564.564,0,0,1,.677,0,.753.753,0,0,1,0,.9Zm-.151-.151a.542.542,0,0,0,.075-.263c0-.113,0-.226-.075-.263a.227.227,0,0,0-.226-.113c-.113,0-.151,0-.226.113a.543.543,0,0,0-.075.263c0,.113,0,.226.075.263a.228.228,0,0,0,.226.113C978.165,444.478,978.2,444.478,978.277,444.365Z" transform="translate(-943.093 -443.5)" fill="#333238"/>
      <path id="Path_28601" data-name="Path 28601" d="M981.326,444.477a.138.138,0,0,0,.038.113c0,.038.113.075.188.075h.113c.075,0,.075-.075.075-.113s0-.075-.038-.075a.376.376,0,0,1-.151-.038h-.113a.613.613,0,0,1-.226-.113.228.228,0,0,1-.113-.226c0-.113,0-.188.113-.226a.884.884,0,0,1,.3-.075.405.405,0,0,1,.3.075.341.341,0,0,1,.113.263H981.7c0-.075,0-.113-.075-.15h-.263c-.038,0-.038.038-.038.113s0,.075.038.075a.376.376,0,0,1,.151.038h.188c.075.075.151.075.188.113.075.038.075.113.075.226s0,.188-.113.226a.427.427,0,0,1-.3.113.506.506,0,0,1-.339-.075.342.342,0,0,1-.113-.263h.226Z" transform="translate(-945.276 -443.687)" fill="#333238"/>
      <path id="Path_28602" data-name="Path 28602" d="M985.078,443.7h.263l-.339.64v.376h-.226v-.376l-.376-.64h.264l.226.452.226-.452Z" transform="translate(-947.334 -443.625)" fill="#333238"/>
      <path id="Path_28603" data-name="Path 28603" d="M987.926,444.477a.138.138,0,0,0,.038.113c0,.038.113.075.188.075h.113c.075,0,.075-.075.075-.113s0-.075-.038-.075a.376.376,0,0,1-.151-.038h-.113a.613.613,0,0,1-.226-.113.228.228,0,0,1-.113-.226c0-.113,0-.188.113-.226a.884.884,0,0,1,.3-.075.405.405,0,0,1,.3.075.342.342,0,0,1,.113.263H988.3c0-.075,0-.113-.075-.15h-.263c-.038,0-.038.038-.038.113s0,.075.038.075a.375.375,0,0,1,.151.038h.188c.075.075.151.075.188.113.075.038.075.113.075.226s0,.188-.113.226a.427.427,0,0,1-.3.113.506.506,0,0,1-.339-.075.342.342,0,0,1-.113-.263h.226Z" transform="translate(-949.392 -443.687)" fill="#333238"/>
      <path id="Path_28604" data-name="Path 28604" d="M991.728,443.7v.188h-.3v.866H991.2v-.866h-.3V443.7h.828Z" transform="translate(-951.388 -443.625)" fill="#333238"/>
      <path id="Path_28605" data-name="Path 28605" d="M994.89,443.888h-.565v.226h.527v.188h-.527v.263h.565v.188h-.79V443.7h.79Z" transform="translate(-953.384 -443.625)" fill="#333238"/>
      <path id="Path_28606" data-name="Path 28606" d="M998.077,443.7h.3v1.054h-.188v-.866l-.188.866h-.226l-.188-.866v.866H997.4V443.7h.339l.188.828.188-.828Z" transform="translate(-955.442 -443.625)" fill="#333238"/>
    </g>
    <rect id="Rectangle_1340" data-name="Rectangle 1340" width="43.764" height="0.075" transform="translate(3.951 19.756)" fill="#7c7c7c"/>
    <rect id="Rectangle_1341" data-name="Rectangle 1341" width="43.764" height="0.075" transform="translate(3.951 16.369)" fill="#7c7c7c"/>
    <g id="Group_15352" data-name="Group 15352" transform="translate(23.971 0)">
      <path id="Path_28607" data-name="Path 28607" d="M942,397a26.8,26.8,0,0,0-2.333,2.709h-.075l-.564-.564c-.151-.188-.376-.414-.527-.6.188.151.414.376.6.527l.564.564h-.075c.188-.226.339-.489.527-.715A12.981,12.981,0,0,1,942,397h0Z" transform="translate(-938.349 -397)" fill="#427759"/>
      <path id="Path_28608" data-name="Path 28608" d="M938.8,397a12.971,12.971,0,0,1,1.881,1.919,8.659,8.659,0,0,1,.527.715h-.075l.565-.564c.188-.15.414-.376.6-.527-.151.188-.376.414-.527.6l-.564.564h-.075c-.188-.226-.376-.489-.564-.715C940,398.279,939.4,397.64,938.8,397Z" transform="translate(-938.537 -397)" fill="#90c766"/>
      <path id="Path_28609" data-name="Path 28609" d="M943.714,399.918c-.075.075-.15.188-.226.263s-.075.113-.113.15h0c0,.038-.038.075-.075.151l.075-.075h0l.038-.038c.038-.038.075-.113.151-.151.489-.677,1.167-1.279,1.731-1.919a11.959,11.959,0,0,0-1.543,1.543Z" transform="translate(-941.343 -397.811)" fill="#6f9681"/>
      <path id="Path_28610" data-name="Path 28610" d="M940.132,400.445h0l-.075.075h0a.541.541,0,0,0-.075-.113c-.113-.151-.263-.339-.376-.489-.452-.527-1.016-1.091-1.505-1.618a12.255,12.255,0,0,1,1.957,1.994.116.116,0,0,0,.038.075l.075-.075a.131.131,0,0,1,.038.075Z" transform="translate(-938.1 -397.811)" fill="#91c755"/>
      <path id="Path_28611" data-name="Path 28611" d="M943.375,403.813h0l-.075.075h0v-.113l.075-.075v.075Z" transform="translate(-941.343 -401.179)" fill="#6f9681"/>
      <path id="Path_28612" data-name="Path 28612" d="M943.238,404.051h0a.117.117,0,0,0-.038-.075h0V403.9h0a.117.117,0,0,0,.038.075h0v.113Z" transform="translate(-941.281 -401.303)" fill="#91c755"/>
    </g>
  </g>
</svg>
