<?xml version="1.0" encoding="UTF-8"?><svg id="Layer_2" xmlns="http://www.w3.org/2000/svg" viewBox="0 0 833.02 832.93"><defs><style>.cls-1{fill:#96acc9;}.cls-1,.cls-2{stroke-width:0px;}.cls-2{fill:#c1d3e8;}</style></defs><g id="Layer_1-2"><g id="Group_996"><path id="Path_4068" class="cls-1" d="M159.35,744.15c131.73,103.38,312.58,117.74,458.97,36.44,18.9-10.46,36.97-22.37,54.04-35.61l-8.41-11.27c-16.54,12.89-34.07,24.46-52.41,34.62-194.11,107.59-439.56,37.2-547.15-156.91S27.17,171.87,221.28,64.27s439.56-37.21,547.15,156.9c27.28,49.07,43.92,103.34,48.84,159.28l1.6-.25,13.38,11.06c-.38-6.4-.91-12.8-1.6-19.21C806.09,143.34,600.77-22.15,372.05,2.42,143.34,26.99-22.15,232.32,2.42,461.03c12,111.67,68.59,213.77,156.93,283.12h0Z"/><path id="Path_4069" class="cls-2" d="M663.95,733.72c109.19-85.05,165.1-219.55,153.33-353.27l1.6-.25,13.38,11.07c8.29,137.06-51.53,269.39-159.9,353.72l-8.41-11.27Z"/></g></g></svg>