<?xml version="1.0" encoding="UTF-8"?><svg id="Layer_2" xmlns="http://www.w3.org/2000/svg" viewBox="0 0 833.03 833.09"><defs><style>.cls-1{fill:#f26558;}.cls-1,.cls-2{stroke-width:0px;}.cls-2{fill:#96acc9;}</style></defs><g id="Layer_1-2"><g id="Group_997"><g id="Group_995"><g id="Group_994"><g id="Group_993"><path id="Path_4066" class="cls-2" d="M71.62,182.92c-93.92,138.64-95.6,320.06-4.27,460.42,11.76,18.12,24.9,35.32,39.31,51.42l10.65-9.18c-14.01-15.6-26.79-32.28-38.2-49.87C-41.8,449.59,11.27,199.81,197.4,78.9S633.3,11.06,754.2,197.18s67.85,435.9-118.28,556.81c-47.05,30.64-100.03,51.04-155.48,59.86l.36,1.58-10.1,14.12c6.36-.83,12.71-1.81,19.05-2.93,226.45-40.5,377.19-256.9,336.69-483.35C785.95,116.82,569.55-33.92,343.1,6.58,232.53,26.35,134.64,89.94,71.62,182.92h0Z"/></g><path id="Path_4067" class="cls-1" d="M117.31,685.58c92.48,102.98,230.57,149.36,363.14,128.27l.36,1.58-10.1,14.12c-136.15,17.85-272.35-32.58-364.05-134.79l10.65-9.18Z"/></g></g></g></g></svg>