<svg id="Group_13475" data-name="Group 13475" xmlns="http://www.w3.org/2000/svg" width="282.251" height="97" viewBox="0 0 282.251 97">
  <path id="Path_24023" data-name="Path 24023" d="M320.942,395a8.448,8.448,0,0,0-2-6c-1.37-1.45-3.5-2-6-2a29.839,29.839,0,0,0-8,1v23a9.377,9.377,0,0,0,4,2,13.256,13.256,0,0,0,4,1c2.5,0,4.63-.549,6-2a8.448,8.448,0,0,0,2-6Zm-20-8c0-.725-.4-.436,0-1s1.355-1.839,2-2c3.223-1.209,6.374-1,10-1a12.6,12.6,0,0,1,5,1c1.531.564,2.872.872,4,2a12.433,12.433,0,0,1,3,4c.564,1.531,0,3.146,0,5v11c0,1.853.564,3.469,0,5a12.433,12.433,0,0,1-3,4c-1.128,1.128-2.469,1.436-4,2a12.579,12.579,0,0,1-5,1,16.624,16.624,0,0,1-4,0,23.167,23.167,0,0,1-4-2v14a3.181,3.181,0,0,1-1,2c-.4.484-.356,1-1,1a3.184,3.184,0,0,1-2-1c-.483-.4,0-1.355,0-2Zm-55-16c0-.645-.483-.6,0-1a2.5,2.5,0,0,1,4,0c.4.4,0,.355,0,1v12h8a3.647,3.647,0,0,1,2,1c.484.4,0,1.356,0,2s.484.6,0,1a3.647,3.647,0,0,1-2,1h-8v21c0,1.45,1.113,2.194,2,3,.8.806,1.872,2,3,2a16.541,16.541,0,0,0,2,0c.805-.081.678-1,1-1a5.819,5.819,0,0,1,2,1c.484.4,0,1.356,0,2,0,.564.323.517,0,1-.322.4-.436.92-1,1-.644.081-1.275-.081-2,0a16.471,16.471,0,0,1-2,0c-1.209,0-2.872.483-4,0a9.311,9.311,0,0,1-3-2,9.755,9.755,0,0,1-2-3c-.483-1.209,0-2.711,0-4Zm-9,9c-.806,0-1.355.645-2,0a5.564,5.564,0,0,1-1-3,3.536,3.536,0,0,1,3-3,4.806,4.806,0,0,1,3,1c.644.564,0,1.114,0,2,0,.806.644,2.436,0,3-.564.645-2.113,0-3,0m-2,5a3.4,3.4,0,0,1,1-2c.4-.483.356,0,1,0s1.6-.483,2,0a3.4,3.4,0,0,1,1,2v31a3.4,3.4,0,0,1-1,2c-.4.483-1.356,0-2,0s-.6.483-1,0a3.4,3.4,0,0,1-1-2Zm-16,3a29.849,29.849,0,0,0-8-1c-2.5,0-3.63.55-5,2-1.369,1.37-3,3.583-3,6v11c0,2.417,1.631,4.63,3,6,1.37,1.451,2.5,2,5,2a15.345,15.345,0,0,0,5-1,7.3,7.3,0,0,0,3-2Zm0,28a13.332,13.332,0,0,1-4,2c-1.37.4-2.63,0-4,0a12.576,12.576,0,0,1-5-1c-1.531-.564-2.872-.872-4-2a10.383,10.383,0,0,1-2-4,12.58,12.58,0,0,1-1-5V395a12.576,12.576,0,0,1,1-5,10.383,10.383,0,0,1,2-4c1.128-1.128,2.469-1.436,4-2a12.593,12.593,0,0,1,5-1,37.209,37.209,0,0,1,6,0,21.11,21.11,0,0,1,5,1c.645.161.6,1.436,1,2s1,.275,1,1v33a14.168,14.168,0,0,1-1,5,13.725,13.725,0,0,1-3,4,13.4,13.4,0,0,1-4,3,14.172,14.172,0,0,1-5,1,21.16,21.16,0,0,1-5-1,18.138,18.138,0,0,1-4-1c-.886-.322-2-.953-2-2a3.536,3.536,0,0,1,3-3c.242,0,.677.839,1,1a26.027,26.027,0,0,0,3,1,17.129,17.129,0,0,0,4,1,8.816,8.816,0,0,0,6-3,8.716,8.716,0,0,0,2-6Zm-30-21a8.448,8.448,0,0,0-2-6c-1.289-1.45-3.5-2-6-2a29.839,29.839,0,0,0-8,1v28c0,.644.4,1.517,0,2-.483.483-1.355,0-2,0s-1.517.483-2,0,0-1.356,0-2V387c0-.725-.4-.436,0-1s1.356-1.839,2-2c3.063-1.209,6.293-1,10-1a12.036,12.036,0,0,1,5,1c1.532.564,2.953.872,4,2a11.372,11.372,0,0,1,3,4,12.594,12.594,0,0,1,1,5v21a3.394,3.394,0,0,1-1,2c-.483.483-1.356,0-2,0s-.516.483-1,0a3.942,3.942,0,0,1-1-2Zm-29-15c-.805,0-1.356.645-2,0a5.564,5.564,0,0,1-1-3,3.536,3.536,0,0,1,3-3,4.806,4.806,0,0,1,3,1,2.447,2.447,0,0,1,1,2,4.971,4.971,0,0,1-1,3c-.564.645-2.113,0-3,0m-2,5a3.394,3.394,0,0,1,1-2c.4-.483.356,0,1,0s1.6-.483,2,0a3.394,3.394,0,0,1,1,2v31a3.394,3.394,0,0,1-1,2c-.4.483-1.355,0-2,0s-.6.483-1,0a3.394,3.394,0,0,1-1-2Zm-26,21a8.448,8.448,0,0,0,2,6c1.289,1.451,3.5,2,6,2a29.839,29.839,0,0,0,8-1V390a9.377,9.377,0,0,0-4-2,13.877,13.877,0,0,0-4-1c-2.5,0-4.711.55-6,2a8.448,8.448,0,0,0-2,6Zm8,12a12.02,12.02,0,0,1-5-1c-1.531-.564-2.952-.872-4-2a11.384,11.384,0,0,1-3-4,12.58,12.58,0,0,1-1-5V395a12.538,12.538,0,0,1,4-9c2.256-2.256,5.132-3,9-3a16.62,16.62,0,0,1,4,0,23.2,23.2,0,0,1,4,2V371c0-.645-.4-.6,0-1a2.5,2.5,0,0,1,4,0c.483.4,0,.355,0,1v43c0,.725.4.436,0,1a3.65,3.65,0,0,1-2,1c-1.611.564-3.308,1.677-5,2a25.937,25.937,0,0,1-5,0m-22-47c0-.645-.483-.6,0-1a3.636,3.636,0,0,1,2-1c.644,0,.516.516,1,1,.4.4,1,.355,1,1v45a3.934,3.934,0,0,1-1,2c-.484.483-.356,0-1,0-.564,0-1.516.483-2,0s0-1.356,0-2Zm-9,9c-.886,0-1.356.645-2,0a5.564,5.564,0,0,1-1-3,2.691,2.691,0,0,1,1-2,2.563,2.563,0,0,1,2-1,3.536,3.536,0,0,1,3,3,5.564,5.564,0,0,1-1,3c-.644.645-1.194,0-2,0m-2,5a3.394,3.394,0,0,1,1-2c.483-.483.356,0,1,0s1.517-.483,2,0a3.927,3.927,0,0,1,1,2v31a3.927,3.927,0,0,1-1,2c-.483.483-1.355,0-2,0s-.517.483-1,0a3.394,3.394,0,0,1-1-2Zm-11,0a3.4,3.4,0,0,1,1-2c.4-.483,1.355,0,2,0s.6-.483,1,0a3.394,3.394,0,0,1,1,2v29c0,.725-.677.436-1,1-.4.564-.436.838-1,1-1.692.564-3.308,1.677-5,2a25.941,25.941,0,0,1-5,0c-3.867,0-7.744-.744-10-3-2.176-2.256-3-5.213-3-9V385a3.934,3.934,0,0,1,1-2c.483-.483.355,0,1,0,.564,0,1.517-.483,2,0a3.934,3.934,0,0,1,1,2v21a8.448,8.448,0,0,0,2,6c1.37,1.451,3.5,2,6,2a22.993,22.993,0,0,0,7-1Zm-39,28c2.74,0,5.308-.549,7-2,1.612-1.45,2-3.938,2-7a9.777,9.777,0,0,0-1-4c-.484-1.048-1.113-1.194-2-2a9.773,9.773,0,0,0-3-2,13.257,13.257,0,0,0-4-1h-8v18Zm-1-23c1.29,0,1.872.4,3,0a9.773,9.773,0,0,0,3-2c.806-.725,1.516-.953,2-2a11.253,11.253,0,0,0,1-4c0-2.578-.63-4.631-2-6-1.37-1.451-3.421-2-6-2h-9v16Zm228-16c1.45,0,2.033,1.033,3,2a6.375,6.375,0,0,1,2,4v27c0,1.45-1.034,2.033-2,3s-1.55,2-3,2a6.368,6.368,0,0,1-4-2c-.967-.967-2-1.55-2-3V380a7.071,7.071,0,0,1,6-6m1,55c.161.08.838-.081,1,0,.4.08.6-.081,1,0,.564.242.517.677,1,1a15.226,15.226,0,0,1,2,1c.322.321,0,.6,0,1s.242.677,0,1c-.322.322-.678.92-1,1-.4,0-.678-.759-1-1a5.878,5.878,0,0,0-1-1c-.323-.161-.6.081-1,0-.323-.161-.678.081-1,0-.4-.08-.6-1-1-1s-1.678.92-2,1c-.4.081-.678-.161-1,0-.4.081-.677-.161-1,0a5.878,5.878,0,0,0-1,1c-.322.241-.6,1-1,1-.322-.08-.677-.678-1-1-.242-.323,0-.6,0-1s-.323-.679,0-1a15.226,15.226,0,0,1,2-1c.483-.323.436-.758,1-1,.322-.081.517.08,1,0,.161-.081.839.08,1,0V419h3Zm-1-11c-3.868,0-7.824-.744-10-3-2.256-2.256-3-5.213-3-9V385a3.4,3.4,0,0,1,1-2c.483-.483.355,0,1,0s1.516-.483,2,0a3.942,3.942,0,0,1,1,2v21a8.585,8.585,0,0,0,2,6,8.442,8.442,0,0,0,6,2,6.106,6.106,0,0,0,5-2,8.576,8.576,0,0,0,2-6V385a3.935,3.935,0,0,1,1-2c.483-.483,1.355,0,2,0s.517-.483,1,0a3.394,3.394,0,0,1,1,2v21c0,3.787-.744,6.744-3,9s-5.132,3-9,3m-5-25h9V380c0-1.209-.2-3.114-1-4a3.8,3.8,0,0,0-3-1c-1.29,0-3.194.194-4,1-.8.886-1,2.791-1,4Zm-236,46h282v27h-282Zm3-21a2.691,2.691,0,0,1-2-1,4.808,4.808,0,0,1-1-3V373a2.564,2.564,0,0,1,1-2,2.447,2.447,0,0,1,2-1h11a12.576,12.576,0,0,1,5,1c1.612.564,2.872.872,4,2a12.434,12.434,0,0,1,3,4,12.58,12.58,0,0,1,1,5,13.6,13.6,0,0,1-2,6,11.871,11.871,0,0,1-4,4,16.437,16.437,0,0,1,5,5,13.878,13.878,0,0,1,2,7,17.666,17.666,0,0,1-1,6,11.363,11.363,0,0,1-3,4,12.423,12.423,0,0,1-4,3,17.667,17.667,0,0,1-6,1Z" transform="translate(-42.942 -369)" fill="#fff" fill-rule="evenodd"/>
  <path id="Path_24024" data-name="Path 24024" d="M144,451h5v2h-5v5h7v3H141V444h9v2h-6Zm30-5v15h-2V446h-5v-2h12v2Zm-48-2h6c3.867,0,5,1.825,5,4a4.983,4.983,0,0,1-2,4,4.093,4.093,0,0,1,3,4c0,2.579-1.568,5-6,5h-6Zm3,15h3a2.669,2.669,0,0,0,3-3c0-2.175-1.5-3-4-3h-1l1-2c1.289,0,4-.664,4-3,0-1.048-1.663-2-4-2h-2Zm55-8h6v2h-6v5h7v3h-9V444h9v2h-7Zm80,5V444h2v17h-1l-9-12v12h-2V444h2Zm9,5h-2V444h2l8,12V444h2v17h-1l-9-12Zm-29-13-3,7h5Zm-3,9-2,4h-3l7-17h2l6,17h-3l-1-4Zm-21-8-1,12h-2l1-17h3l5,11,4-11h3l1,17h-2l-1-12-5,10h-1Zm-11-5a12.781,12.781,0,0,1,5,1l-1,2a9.291,9.291,0,0,0-4-1c-1.854,0-3,.63-3,2,0,3.545,8,1.876,8,8,0,2.821-2.051,5-6,5h-4l1-3h3c2.176,0,4-.308,4-2,0-4.19-8-2.2-8-8,0-2.74,1.7-4,5-4m-12,14h6l-1,3h-8V444h3Zm-77-5a3.536,3.536,0,0,0-3-3,4.368,4.368,0,0,0-3,1v9c0,.242.162-.161,0,0s-.758,1-1,1,.162-.839,0-1,0,.242,0,0V445c0-.242-.161-.838,0-1s-.241,0,0,0,.839-.161,1,0,0,.758,0,1v4c.4-.242,1.517.161,2,0,.4-.081.517-1,1-1,.645,0,1.436.758,2,1,.483.161.6.6,1,1a2.962,2.962,0,0,1,1,1,8.3,8.3,0,0,1,0,2v7c0,.242.161-.161,0,0s-.839,1-1,1c-.242,0,.161-.839,0-1s0,.242,0,0Zm-14-8c0-.242-.161-.838,0-1s.759,0,1,0-.161-.161,0,0,0,.758,0,1v4h3a4.181,4.181,0,0,1,1,0c.081.161,0-.161,0,0a4.115,4.115,0,0,1,0,1c-.161.162-.839,0-1,0h-3v7a4.7,4.7,0,0,0,1,2c.322.242.6,0,1,0,.161,0-.242.081,0,0h1a4.131,4.131,0,0,1,1,0c.162.161,0,.758,0,1,0,.16.161-.161,0,0-.081.161-.759-.081-1,0-.162,0-.758.919-1,1h0c-.4,0-.6-.839-1-1s-.678.241-1,0c-.242-.242-.839-.6-1-1a8.282,8.282,0,0,1,0-2Zm-3,1c-.322,0-.84.161-1,0-.242-.242,0-.678,0-1,0-.242-.242-.839,0-1,.16-.242.678,0,1,0s.838-.242,1,0c.242.161,0,.758,0,1,0,.322.242.758,0,1-.162.161-.677,0-1,0m-1,3c0-.242-.16.161,0,0s.759-1,1-1-.16.839,0,1,1-.242,1,0v11c0,.242-.838-.161-1,0s.243,1,0,1-.838-.839-1-1,0,.242,0,0Zm-9,2-3,9c0,.242.161-.161,0,0-.161.08.241,1,0,1s-.839-.92-1-1c-.161-.161.081.162,0,0l-3-10a11.7,11.7,0,0,0-1-1c0-.242.839.161,1,0,.08-.161-.242-1,0-1,.161,0,.839.919,1,1s0-.161,0,0l3,9,2-9c.081-.242-.161.161,0,0,.161-.081.758-1,1-1s-.161.919,0,1c.161.161,1-.242,1,0l2,9,2-9c0-.161.919.08,1,0,.161-.081-.161-1,0-1,.242,0,.839.839,1,1s0-.242,0,0a4.071,4.071,0,0,1,0,1l-3,10c-.08.162.161-.161,0,0-.161.08-.758,1-1,1-.161,0-.839-.92-1-1-.161-.161.08.242,0,0Zm65,1h0c2.418,0,4-.5,4-3a2.775,2.775,0,0,0-3-3h-2v15h-3V444h5c3.707,0,6,2.422,6,5,0,2.418-2.147,4.356-4,5l5,7h-3Z" transform="translate(-40 -369)"/>
</svg>
