<svg id="lets-transport-logo" xmlns="http://www.w3.org/2000/svg" width="189.268" height="41.709" viewBox="0 0 189.268 41.709">
  <path id="Path_3839" data-name="Path 3839" d="M293.4,44.018V29.872L311.45,19.44l6.442,3.718-5.8,3.36,5.81,3.354V44.018l-6.44,3.72V33.592l-5.809-3.354-5.811,3.354V40.3l6.021,3.5v7.415Z" transform="translate(-242.851 -16.091)" fill="#fff"/>
  <path id="Path_3840" data-name="Path 3840" d="M3.709,68.4a2.24,2.24,0,0,0,.345,1.034.882.882,0,0,0,.758.357,2.893,2.893,0,0,0,1.115-.248,3.6,3.6,0,0,0,.873-.479l.77,1.783a5.5,5.5,0,0,1-1.747,1.358,4.6,4.6,0,0,1-2.09.538,3.4,3.4,0,0,1-2.35-.739,3.573,3.573,0,0,1-1.1-1.868,11.037,11.037,0,0,1-.274-2.593L0,54.52H3.618V66.58A14.472,14.472,0,0,0,3.709,68.4Zm8.118.886a3.359,3.359,0,0,0,2.1.574q.56,0,1.058-.05a12.53,12.53,0,0,0,2.217-.5q1.173-.37,1.912-.663l.546,2.2a5.887,5.887,0,0,1-1.346.81,12.675,12.675,0,0,1-2.191.784,9.647,9.647,0,0,1-2.493.338,7.516,7.516,0,0,1-3.665-.765A4.374,4.374,0,0,1,7.994,69.7a11.11,11.11,0,0,1-.606-4.009A9.618,9.618,0,0,1,8,61.98a4.231,4.231,0,0,1,2-2.167,8.038,8.038,0,0,1,3.69-.72,6.834,6.834,0,0,1,4.166,1.154,4.52,4.52,0,0,1,1.683,3.618c.017.2.026.481.026.861,0,.458-.017.884-.052,1.273s-.059.637-.076.739l-8.335.486a2.456,2.456,0,0,0,.73,2.064Zm4.206-5.341q0-2.038-2.4-2.04a2.463,2.463,0,0,0-1.823.637,2.946,2.946,0,0,0-.727,1.936l4.933-.19a3.342,3.342,0,0,0,.014-.334ZM24.871,66.6a14.449,14.449,0,0,0,.09,1.816,2.29,2.29,0,0,0,.345,1.034.861.861,0,0,0,.751.358,2.929,2.929,0,0,0,1.135-.255,3.514,3.514,0,0,0,.861-.486l.763,1.8a5.522,5.522,0,0,1-1.738,1.378,4.5,4.5,0,0,1-2.085.536,3.138,3.138,0,0,1-2.9-1.339,6.389,6.389,0,0,1-.829-3.4v-.345l-.014-5.6h-1.4V59.4h1.4V56.315l3.618-.837V59.4h2.727l-.345,2.7H24.859l.012,4.4ZM31.78,69.43a9.559,9.559,0,0,0,2.517.407,4.052,4.052,0,0,0,1.669-.274.946.946,0,0,0,.586-.923.861.861,0,0,0-.4-.718,3.357,3.357,0,0,0-.994-.479c-.395-.122-.936-.265-1.625-.426L33,66.888a4.849,4.849,0,0,1-2.51-1.44,3.618,3.618,0,0,1-.892-2.46,4.553,4.553,0,0,1,.064-.8,3.148,3.148,0,0,1,1.778-2.352,8.244,8.244,0,0,1,3.7-.746,9.364,9.364,0,0,1,4.479,1.1l-.358,2.777a7.712,7.712,0,0,0-1.318-.465c-.548-.148-1.108-.274-1.676-.376a12.286,12.286,0,0,0-1.351-.09q-1.761,0-1.759.9a1.034,1.034,0,0,0,.586.944,6.189,6.189,0,0,0,1.823.56,7.758,7.758,0,0,1,3.454,1.5,3.322,3.322,0,0,1,1.275,2.664,3.669,3.669,0,0,1-.784,2.446,4.288,4.288,0,0,1-2.021,1.327,8.824,8.824,0,0,1-2.7.395,11.249,11.249,0,0,1-1.313-.076,10.29,10.29,0,0,1-4.243-1.339l.319-2.881a7.43,7.43,0,0,0,2.231.949Zm85.8.386a.884.884,0,0,1-.758-.358,2.266,2.266,0,0,1-.345-1.034,14.845,14.845,0,0,1-.088-1.816V59.59l-3.608-.345v1.11a5.187,5.187,0,0,0-1.44-.886,4.8,4.8,0,0,0-5.665,1.433,9.054,9.054,0,0,0-1.185,4.95,11.5,11.5,0,0,0,.963,4.824,3.64,3.64,0,0,0,3.651,2.114c.2,0,.357,0,.458-.012a3.962,3.962,0,0,0,2.085-.656,5.422,5.422,0,0,0,1.523-1.573,3.2,3.2,0,0,0,3.325,2.229,4.526,4.526,0,0,0,2.09-.536,5.886,5.886,0,0,0,.755-.463l-.842-2.136a2.756,2.756,0,0,1-.918.172ZM112.77,68.21a3.52,3.52,0,0,1-1.058,1.1,2.412,2.412,0,0,1-1.363.445l-.172-.012a1.9,1.9,0,0,1-1.551-1.159,5.9,5.9,0,0,1-.541-2.524,7.786,7.786,0,0,1,.21-1.757,3.842,3.842,0,0,1,.746-1.568,1.766,1.766,0,0,1,1.452-.663,3.051,3.051,0,0,1,2.281,1.058ZM90.7,66.6a14.451,14.451,0,0,0,.09,1.816,2.31,2.31,0,0,0,.345,1.034.861.861,0,0,0,.753.358,2.929,2.929,0,0,0,1.134-.255,3.446,3.446,0,0,0,.861-.486l.765,1.8a5.529,5.529,0,0,1-1.74,1.378,4.493,4.493,0,0,1-2.086.538,3.142,3.142,0,0,1-2.906-1.339,6.368,6.368,0,0,1-.829-3.4v-.345l-.012-5.6h-1.4V59.4h1.4V56.315l3.618-.837V59.4h2.727l-.345,2.7H90.683l.014,4.4Zm12.584-4.683a4.135,4.135,0,0,0-1.02-.109,3.341,3.341,0,0,0-1.53.382A3.518,3.518,0,0,0,99.5,63.2a2.181,2.181,0,0,0-.477,1.332V72.46H95.429V59.578l3.594-.345V61.12a4.567,4.567,0,0,1,3.9-2.04,3.963,3.963,0,0,1,1.127.153,2.93,2.93,0,0,1,.67.255l-.484,2.746a9.185,9.185,0,0,0-.956-.319Zm41.137-2.326,3.6-.357v1.623a3.376,3.376,0,0,1,.651-.706,4.651,4.651,0,0,1,1.206-.739,3.849,3.849,0,0,1,1.594-.326q2.9,0,3.88,2.067a11.346,11.346,0,0,1,.975,4.883,8.975,8.975,0,0,1-1.185,4.931,4.294,4.294,0,0,1-3.913,1.823,5.6,5.6,0,0,1-1.771-.286,4.572,4.572,0,0,1-1.428-.734v5.608l-3.594-.229Zm3.963,9.794a6.211,6.211,0,0,0,.873.293,4.135,4.135,0,0,0,1.058.134,1.78,1.78,0,0,0,1.452-.651,3.673,3.673,0,0,0,.739-1.551,8.257,8.257,0,0,0,.2-1.823,5.99,5.99,0,0,0-.293-1.976,3.034,3.034,0,0,0-.789-1.287,1.614,1.614,0,0,0-1.1-.446,2.452,2.452,0,0,0-1.6.5,4.192,4.192,0,0,0-.918.982v5.651a2.837,2.837,0,0,0,.364.172ZM166.2,59.478a4.29,4.29,0,0,1,2.262,1.8,7.331,7.331,0,0,1,.954,4.135v1.058a7.566,7.566,0,0,1-.848,3.926,4.307,4.307,0,0,1-2.185,1.9,8.886,8.886,0,0,1-3.1.5,9.9,9.9,0,0,1-2.912-.4,4.281,4.281,0,0,1-2.262-1.8,7.358,7.358,0,0,1-.956-4.135V65.407A7.6,7.6,0,0,1,158,61.475a4.311,4.311,0,0,1,2.186-1.9,8.842,8.842,0,0,1,3.1-.5,9.917,9.917,0,0,1,2.912.4Zm-4.9,9.272a2.054,2.054,0,0,0,1.988,1.058,2.029,2.029,0,0,0,2.033-1.084,6.5,6.5,0,0,0,.517-2.791,6.016,6.016,0,0,0-.562-2.824,2.057,2.057,0,0,0-1.988-1.051,2.029,2.029,0,0,0-2.033,1.077,6.491,6.491,0,0,0-.517,2.784,6.1,6.1,0,0,0,.562,2.834Zm16.889-6.835a4.135,4.135,0,0,0-1.02-.109,3.339,3.339,0,0,0-1.528.382,3.518,3.518,0,0,0-1.23,1.013,2.169,2.169,0,0,0-.477,1.332V72.46h-3.594V59.578l3.594-.345V61.12a4.567,4.567,0,0,1,3.9-2.04,3.971,3.971,0,0,1,1.128.153,2.87,2.87,0,0,1,.668.255l-.484,2.739a9.053,9.053,0,0,0-.956-.312Zm7.134,4.683a14.444,14.444,0,0,0,.09,1.816,2.289,2.289,0,0,0,.345,1.034.861.861,0,0,0,.751.358,2.929,2.929,0,0,0,1.135-.255,3.514,3.514,0,0,0,.861-.486l.763,1.8a5.522,5.522,0,0,1-1.738,1.378,4.5,4.5,0,0,1-2.085.536,3.138,3.138,0,0,1-2.9-1.339,6.389,6.389,0,0,1-.829-3.4v-.345l-.014-5.6h-1.4V59.4h1.4V56.315l3.618-.837V59.4h2.727l-.345,2.7h-2.4l.012,4.4Zm-53.962,6.182a3.018,3.018,0,0,1-2.85-1.32,6.709,6.709,0,0,1-.77-3.422V65.4a5.23,5.23,0,0,0-.472-2.536,1.751,1.751,0,0,0-1.651-.815,2.717,2.717,0,0,0-1.178.255,3.949,3.949,0,0,0-.9.56,1.759,1.759,0,0,0-.357.345v9.252H119.6V59.59l3.594-.345v1.594c0-.06.195-.239.586-.543a7.148,7.148,0,0,1,1.44-.834,4.343,4.343,0,0,1,1.8-.382,3.869,3.869,0,0,1,3.327,1.358,6.658,6.658,0,0,1,1.006,4v4.319a14.111,14.111,0,0,0,.1,1.733,1.757,1.757,0,0,0,.345.9Zm3.515-3.351a9.559,9.559,0,0,0,2.517.407,4.06,4.06,0,0,0,1.669-.274.946.946,0,0,0,.586-.923.861.861,0,0,0-.4-.718,3.357,3.357,0,0,0-.994-.479c-.395-.122-.935-.265-1.625-.426l-.536-.127a4.849,4.849,0,0,1-2.51-1.44,3.618,3.618,0,0,1-.9-2.455,4.554,4.554,0,0,1,.064-.8,3.148,3.148,0,0,1,1.778-2.352,8.244,8.244,0,0,1,3.7-.746,9.364,9.364,0,0,1,4.479,1.1l-.358,2.777a7.714,7.714,0,0,0-1.318-.465c-.548-.148-1.108-.274-1.676-.376a12.288,12.288,0,0,0-1.351-.09q-1.759,0-1.759.9a1.034,1.034,0,0,0,.586.944,6.189,6.189,0,0,0,1.823.56,7.758,7.758,0,0,1,3.454,1.5,3.322,3.322,0,0,1,1.275,2.664,3.669,3.669,0,0,1-.784,2.446,4.288,4.288,0,0,1-2.021,1.327,8.824,8.824,0,0,1-2.7.395,11.25,11.25,0,0,1-1.313-.076,10.287,10.287,0,0,1-4.242-1.339l.319-2.881A7.608,7.608,0,0,0,134.876,69.43Z" transform="translate(0 -45.127)"/>
  <path id="Path_3841" data-name="Path 3841" d="M283.76,3.475,277.741,0l-6.4,3.692L266.5,6.49l-6.819,3.937v1.738l6.02,3.475V13.9L283.76,3.475Z" transform="translate(-214.941)" fill="#ff671f"/>
  <path id="Path_3842" data-name="Path 3842" d="M277.741,84.85,265.7,77.9V64l-6.02-3.477V81.375L277.741,91.8l1.189-.7v-6.95Z" transform="translate(-214.941 -50.093)" fill="#e04e39"/>
  <path id="Path_3843" data-name="Path 3843" d="M335.581,47.3l-6.021,3.475V52.2l6.021,3.475L341.6,52.2V50.777Zm12.039-6.952-6.02,3.475,6.02,3.477v1.423l6.02-3.475V43.825Z" transform="translate(-272.781 -33.398)" fill="#ff671f"/>
  <path id="Path_3844" data-name="Path 3844" d="M335.581,104.347l-6.021-3.477v6.952l6.021,3.5,1.237-.727v-6.96Z" transform="translate(-272.781 -83.492)" fill="#e04e39"/>
  <path id="Path_3845" data-name="Path 3845" d="M364.51,70.948V91.8l18.059-10.427V60.52L376.549,64V77.9l-6.02,3.477v-13.9Z" transform="translate(-301.71 -50.093)" fill="#a72b2a"/>
</svg>
