<svg xmlns="http://www.w3.org/2000/svg" width="36.605" height="35.036" viewBox="0 0 36.605 35.036">
  <g id="Global_Network" data-name="Global Network" transform="translate(-2469.398 -1064.038)">
    <g id="Group_13783" data-name="Group 13783" transform="translate(2469.398 1091.043)">
      <path id="Path_24657" data-name="Path 24657" d="M2487.7,1235.2c-9.095,0-18.3-1.438-18.3-4.186,0-2.528,7.568-3.53,10.821-3.843a.422.422,0,1,1,.081.84c-7.379.71-10.058,2.184-10.058,3,0,1.4,6.642,3.342,17.458,3.342s17.458-1.947,17.458-3.342c0-.818-2.679-2.292-10.058-3a.422.422,0,1,1,.081-.84c3.253.313,10.821,1.314,10.821,3.843C2506,1233.766,2496.8,1235.2,2487.7,1235.2Z" transform="translate(-2469.398 -1227.172)"/>
    </g>
    <g id="Group_13786" data-name="Group 13786" transform="translate(2475.985 1064.038)">
      <g id="Group_13784" data-name="Group 13784" transform="translate(0 0)">
        <path id="Path_24658" data-name="Path 24658" d="M2520.907,1095.31c-1.262,0-4.63-4.437-6.587-7.42-1.542-2.349-5.128-8.236-5.128-12.138a11.715,11.715,0,0,1,23.43,0c0,3.9-3.586,9.788-5.128,12.138C2525.538,1090.873,2522.169,1095.31,2520.907,1095.31Zm0-30.428a10.883,10.883,0,0,0-10.871,10.871c0,2.557,1.786,6.763,4.9,11.539,2.759,4.231,5.386,7.075,5.983,7.175.572-.1,3.2-2.943,5.958-7.175,3.114-4.776,4.9-8.981,4.9-11.539A10.883,10.883,0,0,0,2520.907,1064.882Z" transform="translate(-2509.192 -1064.038)"/>
      </g>
      <g id="Group_13785" data-name="Group 13785" transform="translate(5.96 5.96)">
        <path id="Path_24659" data-name="Path 24659" d="M2550.952,1111.552a5.755,5.755,0,1,1,5.755-5.755A5.762,5.762,0,0,1,2550.952,1111.552Zm0-10.666a4.911,4.911,0,1,0,4.911,4.911A4.916,4.916,0,0,0,2550.952,1100.886Z" transform="translate(-2545.197 -1100.042)"/>
      </g>
    </g>
  </g>
</svg>
