<svg xmlns="http://www.w3.org/2000/svg" width="113.389" height="40.715" viewBox="0 0 113.389 40.715">
  <g id="Group_13761" data-name="Group 13761" transform="translate(-4001.386 -319)">
    <g id="Logo_copy_licious_Black_copy" data-name="Logo copy_licious Black copy" transform="translate(4001.486 318.945)">
      <path id="Path_3817" data-name="Path 3817" d="M85.611,121.7a16.636,16.636,0,0,1-11.232-4.374,16.168,16.168,0,0,1-4.075-5.74,2.664,2.664,0,0,1,4.871-2.162,11.645,11.645,0,0,0,2.435,3.628,10.711,10.711,0,0,0,5.343,2.982A11.09,11.09,0,0,0,93.24,113.4a10.418,10.418,0,0,0,2.733-3.8,2.729,2.729,0,0,1,1.913-1.764,2.531,2.531,0,0,1,2.584.77,2.49,2.49,0,0,1,.547,2.709,13.71,13.71,0,0,1-1.789,3.3,16.6,16.6,0,0,1-11.7,6.933A12.407,12.407,0,0,1,85.611,121.7Z" transform="translate(-52.736 -80.926)" fill="#e41d36"/>
      <path id="Path_3818" data-name="Path 3818" d="M227.3,40.154c.025,5.268-2.982,8.474-6.784,9.169a8.752,8.752,0,0,1-6.262-1.044,7.716,7.716,0,0,1-3.951-5.914,8.179,8.179,0,0,1,6.56-8.971,8.791,8.791,0,0,1,7.256,1.541A7.474,7.474,0,0,1,227.3,40.154Zm-11.977,1.317a2.881,2.881,0,0,0,.075.77,3.453,3.453,0,0,0,5.815,1.938,3.9,3.9,0,0,0-.472-5.79,3.223,3.223,0,0,0-2.46-.572A3.527,3.527,0,0,0,215.321,41.471Z" transform="translate(-158.069 -24.904)"/>
      <path id="Path_3819" data-name="Path 3819" d="M293.2,39.838v-3.4a2.6,2.6,0,0,1,2.535-2.634,2.63,2.63,0,0,1,2.634,2.609c.025,2.013,0,4.026,0,6.038a2.719,2.719,0,0,0,1.044,2.236,2.678,2.678,0,0,0,2.808.248,2.377,2.377,0,0,0,1.466-2.013c.025-.273.05-.547.05-.82V36.509a2.6,2.6,0,0,1,5.169-.447c.025.3.05.572.05.87v5.79a11.875,11.875,0,0,1-.248,2.485,5.29,5.29,0,0,1-3.678,4.15,12.174,12.174,0,0,1-7.753.05,5.484,5.484,0,0,1-3.877-4.547,9.411,9.411,0,0,1-.174-2.038C293.2,41.777,293.2,40.808,293.2,39.838Z" transform="translate(-220.416 -25.36)"/>
      <path id="Path_3820" data-name="Path 3820" d="M-.075,12.044V2.9A2.924,2.924,0,0,1,1.416.315,2.53,2.53,0,0,1,4.274.787a3.039,3.039,0,0,1,.919,2.236V18.9c0,.447,0,.447.447.447,1.913,0,3.827.025,5.715,0a2.17,2.17,0,0,1,2.336,2.112,2.423,2.423,0,0,1-.6,2.137,2.364,2.364,0,0,1-1.715.7h-8.4A2.848,2.848,0,0,1,.148,22.555,2.965,2.965,0,0,1-.1,21.238C-.075,18.157-.075,15.1-.075,12.044Z"/>
      <path id="Path_3821" data-name="Path 3821" d="M378.388,33.789a10.451,10.451,0,0,1,4.821.944,5.479,5.479,0,0,1,.8.522,1.634,1.634,0,0,1,.5,1.789,1.714,1.714,0,0,1-1.367,1.242,3.438,3.438,0,0,1-1.59-.1c-.87-.174-1.715-.472-2.609-.6a1.953,1.953,0,0,0-1.193.149.72.72,0,0,0-.2,1.193,1.469,1.469,0,0,0,.7.422c1.044.348,2.087.671,3.106,1.044a5.511,5.511,0,0,1,2.833,1.938,4.245,4.245,0,0,1-.845,5.79,6.826,6.826,0,0,1-3.951,1.566,13.845,13.845,0,0,1-4.945-.447,5.773,5.773,0,0,1-2.46-1.392A1.865,1.865,0,0,1,371.8,45.1a2.271,2.271,0,0,1,2.112-.671,17.043,17.043,0,0,1,2.659.77,9.944,9.944,0,0,0,1.491.323,1.91,1.91,0,0,0,.745-.075.7.7,0,0,0,.5-.969,1.276,1.276,0,0,0-.895-.845c-.646-.248-1.342-.348-2.013-.547a16.391,16.391,0,0,1-2.41-.87,3.884,3.884,0,0,1-1.541-5.616,5.788,5.788,0,0,1,3.479-2.41A7.058,7.058,0,0,1,378.388,33.789Z" transform="translate(-279.089 -25.349)"/>
      <path id="Path_3822" data-name="Path 3822" d="M113.788,34.48a8.4,8.4,0,0,1,4.026.77,2.7,2.7,0,0,1,1.541,2.386,1.871,1.871,0,0,1-1.491,1.889,1.92,1.92,0,0,1-.994-.025,16.47,16.47,0,0,0-2.137-.472,3.463,3.463,0,0,0-1.491,6.759,5.038,5.038,0,0,0,2.112-.075c.522-.1,1.044-.273,1.566-.323a2.087,2.087,0,0,1,2.485,2.087,2.114,2.114,0,0,1-1.193,2.063,5.878,5.878,0,0,1-2.236.7,10.769,10.769,0,0,1-4.274-.174,7.606,7.606,0,0,1-5.442-5.194,8.082,8.082,0,0,1,3.951-9.642A7.731,7.731,0,0,1,113.788,34.48Z" transform="translate(-79.62 -25.865)"/>
      <path id="Path_3823" data-name="Path 3823" d="M179.918,41.776v5.392a2.609,2.609,0,0,1-5.218.025V36.309a2.609,2.609,0,1,1,5.218.025Z" transform="translate(-131.363 -25.284)"/>
      <path id="Path_3824" data-name="Path 3824" d="M70.3,41.854V36.462a2.535,2.535,0,0,1,2.162-2.584,2.653,2.653,0,0,1,2.883,1.665,2.442,2.442,0,0,1,.174.845V47.371a2.621,2.621,0,0,1-5.194.4,4.788,4.788,0,0,1-.025-.6Z" transform="translate(-52.906 -25.387)"/>
      <path id="Path_3825" data-name="Path 3825" d="M179.813,3.63A2.6,2.6,0,0,1,177.2,6.214,2.609,2.609,0,1,1,177.2,1,2.63,2.63,0,0,1,179.813,3.63Z" transform="translate(-131.283 -0.706)" fill="#e41d36"/>
      <path id="Path_3826" data-name="Path 3826" d="M75.592,3.634A2.6,2.6,0,1,1,72.983,1,2.646,2.646,0,0,1,75.592,3.634Z" transform="translate(-52.98 -0.71)" fill="#e41d36"/>
      <path id="Path_3827" data-name="Path 3827" d="M350.826,122.223c-.323.5-.6.969-.895,1.441a1.389,1.389,0,0,1-.124.2c-.149.224-.273.224-.422,0l-.895-1.416c-.025-.05-.075-.1-.124-.174-.1.1-.075.2-.075.3v1.516c0,.348-.05.4-.422.4h-.646c-.224,0-.323-.075-.323-.3v-4.224c0-.2.1-.3.3-.273h.025c1.143.025.845-.174,1.491.745.224.323.447.671.7,1.019.174.248.224.248.4,0l.969-1.416a.635.635,0,0,1,.646-.348,2.012,2.012,0,0,0,.547,0c.273-.025.373.1.373.373v3.628c0,.919.1.8-.82.82h-.2c-.273.025-.373-.124-.373-.373V122.6C350.9,122.472,350.926,122.372,350.826,122.223Z" transform="translate(-260.772 -89.902)"/>
      <path id="Path_3828" data-name="Path 3828" d="M272.206,121.874v-2.013c0-.447,0-.447.472-.447h.4c.472,0,.5.025.5.472v3.951c0,.4-.025.447-.422.422-1.069-.025-.82.174-1.466-.745-.373-.522-.721-1.019-1.093-1.516-.05-.075-.075-.174-.174-.2-.1.075-.05.2-.05.3v1.789c0,.3-.1.4-.4.373a6.5,6.5,0,0,0-.7,0,.238.238,0,0,1-.273-.273v-4.349c0-.174.075-.273.248-.249h.124c1.193.025.845-.174,1.541.77.348.472.7.969,1.044,1.466A.392.392,0,0,0,272.206,121.874Z" transform="translate(-202.23 -89.677)"/>
      <path id="Path_3829" data-name="Path 3829" d="M209.5,121.81v-1.988c0-.373.05-.422.422-.422h2.013a1.3,1.3,0,0,1,1.392,1.392,1.105,1.105,0,0,1-.348.721c-.1.1-.124.174,0,.273a1.321,1.321,0,0,1,.422,1.541,1.3,1.3,0,0,1-1.267.895c-.77.025-1.541,0-2.311,0-.273,0-.3-.174-.3-.373C209.5,123.2,209.5,122.506,209.5,121.81Zm1.889.547a1.209,1.209,0,0,0-.3.025c-.174.025-.2.149-.2.323,0,.149,0,.3.174.323a1.517,1.517,0,0,0,.746-.025.321.321,0,0,0,.224-.3c0-.149-.1-.224-.224-.3A1.231,1.231,0,0,0,211.389,122.357Zm0-1.118h.174a.308.308,0,0,0,.3-.323c0-.2-.149-.273-.323-.273a2.393,2.393,0,0,0-.422,0,.267.267,0,0,0-.249.248C210.867,121.164,210.966,121.239,211.389,121.239Z" transform="translate(-157.515 -89.688)"/>
      <path id="Path_3830" data-name="Path 3830" d="M249.925,121.735v-2.087c0-.249.075-.348.323-.348h2.087a1.641,1.641,0,0,1,1.566,1.541,1.845,1.845,0,0,1-.621,1.59c-.149.124-.075.224,0,.323.248.348.522.671.77,1.019a.272.272,0,0,1,.1.3c-.05.124-.174.1-.3.1h-.919a.5.5,0,0,1-.447-.224c-.2-.3-.422-.572-.646-.87a.858.858,0,0,0-.2-.224c-.224-.124-.373-.05-.4.2v.7c0,.4-.025.422-.422.422h-.5c-.4,0-.422-.025-.422-.422v-.025C249.925,123.077,249.925,122.406,249.925,121.735Zm1.864-.248h.323c.249-.025.4-.149.4-.4a.454.454,0,0,0-.348-.5,2.031,2.031,0,0,0-.671-.025.209.209,0,0,0-.224.224v.5c0,.124.075.174.2.174A1.417,1.417,0,0,0,251.789,121.487Z" transform="translate(-187.876 -89.613)"/>
      <path id="Path_3831" data-name="Path 3831" d="M229.71,124.09a2.5,2.5,0,0,1-2.51-2.485,2.545,2.545,0,0,1,2.56-2.51,2.514,2.514,0,0,1,2.485,2.51A2.488,2.488,0,0,1,229.71,124.09Zm1.143-2.485a1.161,1.161,0,0,0-1.118-1.242,1.147,1.147,0,0,0-1.118,1.193,1.173,1.173,0,0,0,1.093,1.242A1.137,1.137,0,0,0,230.853,121.605Z" transform="translate(-170.817 -89.458)"/>
      <path id="Path_3832" data-name="Path 3832" d="M317.735,119.1a2.472,2.472,0,0,1,2.51,2.51,2.522,2.522,0,1,1-2.51-2.51Zm1.118,2.51a1.134,1.134,0,1,0-1.143,1.218A1.144,1.144,0,0,0,318.853,121.61Z" transform="translate(-236.949 -89.463)"/>
      <path id="Path_3833" data-name="Path 3833" d="M372.6,121.81V119.8c0-.348.05-.4.4-.4h2.982c.273,0,.373.1.373.373,0,1.069.025.87-.82.87h-1.218c-.2,0-.323.05-.323.273s.1.323.323.323h1.441c.249,0,.348.1.348.323,0,1.069.1.895-.87.895h-.919a.274.274,0,1,0,0,.547H376c.273,0,.373.1.373.373,0,1.069.025.87-.82.87h-2.435c-.472,0-.5-.025-.5-.522C372.6,123.1,372.6,122.457,372.6,121.81Z" transform="translate(-280.086 -89.688)"/>
      <path id="Path_3834" data-name="Path 3834" d="M393.056,124.421h-.323a.487.487,0,0,1-.6-.373.437.437,0,0,0-.472-.3h-.944a.475.475,0,0,0-.5.323.5.5,0,0,1-.572.348c-.249-.025-.522,0-.77,0-.323,0-.373-.075-.224-.422.522-1.193,1.019-2.386,1.541-3.578.422-.969.224-.8,1.242-.82a.523.523,0,0,1,.572.373c.547,1.317,1.143,2.634,1.715,3.976.174.4.124.472-.3.472Zm-1.889-2.783c-.124.3-.224.522-.3.721-.025.075-.025.174.074.2a.682.682,0,0,0,.5-.025c.149-.1,0-.249-.05-.373S391.266,121.886,391.167,121.638Z" transform="translate(-292.092 -89.839)"/>
      <path id="Path_3835" data-name="Path 3835" d="M441.7,19.807v2.112c0,.124.05.323-.1.373a1.059,1.059,0,0,1-.621,0c-.075-.025-.075-.124-.075-.224V18.639a.223.223,0,0,1,.248-.248h.721c.2,0,.273.075.323.273.174.7.373,1.392.621,2.112.075-.273.149-.547.224-.845.1-.422.224-.82.323-1.242.05-.2.124-.323.373-.3a6.972,6.972,0,0,0,.721,0c.174,0,.248.075.248.248v3.4c0,.2-.075.248-.273.273-.522.025-.547.025-.547-.5,0-.7,0-1.416-.025-2.112L443.41,21.5c-.025.124-.075.273-.1.4a.585.585,0,0,1-.82.422c-.149-.05-.149-.174-.174-.3-.174-.671-.323-1.317-.5-1.988l-.075-.224C441.72,19.782,441.72,19.807,441.7,19.807Z" transform="translate(-331.413 -13.777)"/>
      <path id="Path_3836" data-name="Path 3836" d="M301.137,119.4h1.541c.273,0,.373.1.373.373,0,.845,0,.87-.845.87-.3,0-.373.1-.373.4v2.709c0,.522-.025.547-.522.547h-.447c-.373,0-.422-.05-.422-.4v-2.758c0-.447-.025-.447-.447-.447-.845,0-.8.124-.8-.8,0-.4.025-.422.422-.422A10.324,10.324,0,0,1,301.137,119.4Z" transform="translate(-224.924 -89.688)"/>
      <path id="Path_3837" data-name="Path 3837" d="M409.261,119.4H410.8c.273,0,.348.1.348.373,0,.845,0,.87-.845.87-.3,0-.373.124-.373.4V123.8c0,.447-.025.472-.472.472h-.5c-.373,0-.422-.05-.422-.4v-2.758c0-.447-.025-.447-.447-.447-.845,0-.8.124-.8-.8,0-.4.025-.422.422-.422C408.243,119.4,408.764,119.4,409.261,119.4Z" transform="translate(-306.161 -89.688)"/>
      <path id="Path_3838" data-name="Path 3838" d="M427.308,20.686V19.369c0-.2-.075-.273-.249-.273h-.646c-.249,0-.224-.174-.224-.323s-.05-.373.224-.373h2.709c.249,0,.2.2.2.348s.05.348-.2.348a5.182,5.182,0,0,1-.621,0c-.248-.025-.3.075-.3.323v2.51c0,.4,0,.4-.422.4-.447,0-.447,0-.447-.422C427.308,21.481,427.308,21.084,427.308,20.686Z" transform="translate(-320.356 -13.786)"/>
    </g>
  </g>
</svg>
