<svg id="Group_14675" data-name="Group 14675" xmlns="http://www.w3.org/2000/svg" xmlns:xlink="http://www.w3.org/1999/xlink" width="61.136" height="60.339" viewBox="0 0 61.136 60.339">
  <defs>
    <clipPath id="clip-path">
      <rect id="Rectangle_1333" data-name="Rectangle 1333" width="61.136" height="60.339" fill="#002d66"/>
    </clipPath>
  </defs>
  <g id="Group_14674" data-name="Group 14674" clip-path="url(#clip-path)">
    <path id="Path_25289" data-name="Path 25289" d="M128.775,1.257h-18.3a.629.629,0,1,1,0-1.257h18.3a.629.629,0,1,1,0,1.257" transform="translate(-82.775)" fill="#002d66"/>
    <path id="Path_25290" data-name="Path 25290" d="M93.833,65.712H85.359a.629.629,0,1,1,0-1.257h8.475a4.473,4.473,0,0,0,4.47-4.465V22.541a4.473,4.473,0,0,0-4.47-4.466H56.715a4.471,4.471,0,0,0-4.465,4.466v4.866a.629.629,0,0,1-1.257,0V22.541a5.729,5.729,0,0,1,5.722-5.723H93.833a5.731,5.731,0,0,1,5.727,5.723V59.989a5.731,5.731,0,0,1-5.727,5.722" transform="translate(-38.424 -12.673)" fill="#002d66"/>
    <path id="Path_25291" data-name="Path 25291" d="M83.773,99.823a.629.629,0,0,1-.629-.629V97.221a.629.629,0,0,1,1.257,0v1.974a.629.629,0,0,1-.629.629" transform="translate(-62.651 -72.784)" fill="#002d66"/>
    <path id="Path_25292" data-name="Path 25292" d="M117.429,89.031a.629.629,0,0,1-.629-.629V83.57a.629.629,0,1,1,1.257,0V88.4a.629.629,0,0,1-.629.629" transform="translate(-88.011 -62.498)" fill="#002d66"/>
    <path id="Path_25293" data-name="Path 25293" d="M151.069,75.564a.629.629,0,0,1-.629-.629V65.7a.629.629,0,0,1,1.257,0v9.238a.629.629,0,0,1-.629.629" transform="translate(-113.36 -49.031)" fill="#002d66"/>
    <path id="Path_25294" data-name="Path 25294" d="M218.348,80.72a.629.629,0,0,1-.629-.629V65.7a.629.629,0,1,1,1.257,0V80.091a.629.629,0,0,1-.628.629" transform="translate(-164.056 -49.032)" fill="#002d66"/>
    <path id="Path_25295" data-name="Path 25295" d="M184.709,66.993a.629.629,0,0,1-.629-.629V42.335a.629.629,0,1,1,1.257,0v24.03a.629.629,0,0,1-.629.629" transform="translate(-138.708 -31.426)" fill="#002d66"/>
    <path id="Path_25296" data-name="Path 25296" d="M75.539,165.678a.629.629,0,0,1-.629-.629v-8.381a.629.629,0,0,1,.233-.489l13.52-10.951a2.373,2.373,0,0,0,.84-1.832,2.429,2.429,0,0,0-.517-1.5,2.263,2.263,0,0,0-3.208-.329L74.37,150.383a.629.629,0,0,1-.384.131h0L48.472,150.5h0a2.419,2.419,0,0,0,0,4.838H59.209a.629.629,0,0,1,.629.629v9.087a.629.629,0,0,1-1.257,0v-8.458H48.47a3.676,3.676,0,1,1,0-7.352h0l25.3.018,11.221-8.666a3.52,3.52,0,0,1,4.983.534,3.682,3.682,0,0,1,.786,2.272,3.631,3.631,0,0,1-1.3,2.8L76.168,156.968v8.081a.629.629,0,0,1-.629.629" transform="translate(-33.753 -105.339)" fill="#002d66"/>
    <path id="Path_25297" data-name="Path 25297" d="M116.973,127.887a6.279,6.279,0,1,1,6.279-6.279,6.286,6.286,0,0,1-6.279,6.279m0-11.3a5.022,5.022,0,1,0,5.022,5.022,5.028,5.028,0,0,0-5.022-5.022" transform="translate(-83.41 -86.903)" fill="#002d66"/>
    <path id="Path_25298" data-name="Path 25298" d="M9.988,97.245C4.107,97.245,0,94.028,0,89.424a12.009,12.009,0,0,1,6.028-9.8.655.655,0,0,1,.111-.047c.114-.042.491-.236.436-.891A6,6,0,0,1,4.818,75.3,1.45,1.45,0,0,1,5.46,74.08c.866-.6,2.587-.556,4.527.118,1.94-.673,3.661-.722,4.527-.119a1.452,1.452,0,0,1,.643,1.218A6,6,0,0,1,13.4,78.686a.777.777,0,0,0,.449.895.931.931,0,0,1,.1.043,12.01,12.01,0,0,1,6.028,9.8c0,4.6-4.107,7.821-9.988,7.821M6.581,80.754a10.669,10.669,0,0,0-5.324,8.67c0,3.267,2.7,6.564,8.731,6.564s8.731-3.3,8.731-6.564a10.67,10.67,0,0,0-5.324-8.67,2.068,2.068,0,0,1-1.217-2.409.625.625,0,0,1,.183-.392A5.12,5.12,0,0,0,13.9,75.3a.2.2,0,0,0-.1-.187c-.457-.318-1.837-.3-3.591.345a.63.63,0,0,1-.435,0c-1.755-.647-3.134-.661-3.591-.345a.2.2,0,0,0-.1.187,5.123,5.123,0,0,0,1.541,2.656.629.629,0,0,1,.184.409,2.065,2.065,0,0,1-1.219,2.392" transform="translate(0 -55.503)" fill="#002d66"/>
    <path id="Path_25299" data-name="Path 25299" d="M31.968,123.842a3.7,3.7,0,0,1-.6-.05,3.536,3.536,0,0,1-1.582-.677.629.629,0,1,1,.769-.994,2.272,2.272,0,0,0,1.018.431,2.163,2.163,0,0,0,1.4-.213,1.072,1.072,0,0,0,.291-1.767A2.154,2.154,0,0,0,32,119.923a2.872,2.872,0,0,1-2.621-3.057,2.389,2.389,0,0,1,1.248-1.7,3.412,3.412,0,0,1,2.216-.356,3.517,3.517,0,0,1,1.582.677.628.628,0,0,1-.769.994,2.263,2.263,0,0,0-1.017-.43,2.143,2.143,0,0,0-1.4.212,1.161,1.161,0,0,0-.622.8c-.117.712.609,1.45,1.586,1.612a3.411,3.411,0,0,1,1.984,1.049,2.323,2.323,0,0,1-.612,3.7,3.3,3.3,0,0,1-1.613.405" transform="translate(-22.119 -86.478)" fill="#002d66"/>
  </g>
</svg>
