<svg xmlns="http://www.w3.org/2000/svg" width="60.785" height="58.67" viewBox="0 0 60.785 58.67">
  <g id="Group_14691" data-name="Group 14691" transform="translate(-72.831 -740.022)">
    <g id="Group_13997" data-name="Group 13997" transform="translate(72.831 776.751)">
      <g id="Group_13995" data-name="Group 13995" transform="translate(10.364 0.745)">
        <g id="Group_13993" data-name="Group 13993" transform="translate(0.607)">
          <path id="Path_24799" data-name="Path 24799" d="M135.929,883.064a4.568,4.568,0,0,1-1.457-.24l-9.712-3.257a.732.732,0,0,1,.465-1.388l9.712,3.258a3.133,3.133,0,1,0,1.992-5.94l-9.712-3.257a3.067,3.067,0,0,0-1.2-.154l-14.7,2.539-.249-1.442,14.733-2.544.065-.008a4.544,4.544,0,0,1,1.818.223l9.712,3.257a4.6,4.6,0,0,1-1.466,8.955Z" transform="translate(-111.066 -870.615)" fill="#002d66"/>
        </g>
        <g id="Group_13994" data-name="Group 13994" transform="translate(0 0.821)">
          <path id="Path_24800" data-name="Path 24800" d="M136.855,893.851a4.532,4.532,0,0,1-.815-.073l-26.49-4.822a.732.732,0,1,1,.262-1.44l26.49,4.822a3.1,3.1,0,0,0,2.1-.364l17.67-10.192a3.668,3.668,0,0,0-3.668-6.353l-15.453,8.922a.732.732,0,0,1-.732-1.267l15.453-8.922a5.131,5.131,0,1,1,5.131,8.887l-17.67,10.192A4.565,4.565,0,0,1,136.855,893.851Z" transform="translate(-108.95 -873.475)" fill="#002d66"/>
        </g>
      </g>
      <g id="Group_13996" data-name="Group 13996" transform="translate(0 0)">
        <path id="Path_24801" data-name="Path 24801" d="M78.77,888.379H74.845a2.016,2.016,0,0,1-2.014-2.014V870.034a2.016,2.016,0,0,1,2.014-2.014H78.77a2.016,2.016,0,0,1,2.014,2.014v16.331A2.016,2.016,0,0,1,78.77,888.379Zm-3.925-18.9a.558.558,0,0,0-.55.55v16.331a.558.558,0,0,0,.55.55H78.77a.551.551,0,0,0,.551-.55V870.034a.558.558,0,0,0-.551-.55Z" transform="translate(-72.831 -868.02)" fill="#002d66"/>
      </g>
    </g>
    <g id="Group_13998" data-name="Group 13998" transform="translate(85.35 740.022)">
      <path id="Path_24802" data-name="Path 24802" d="M124.055,755.213a7.6,7.6,0,1,1,7.6-7.6A7.6,7.6,0,0,1,124.055,755.213Zm0-13.727a6.132,6.132,0,1,0,6.132,6.132A6.139,6.139,0,0,0,124.055,741.485Z" transform="translate(-116.459 -740.022)" fill="#002d66"/>
    </g>
    <g id="Group_14001" data-name="Group 14001" transform="translate(105.713 749.233)">
      <g id="Group_13999" data-name="Group 13999" transform="translate(0)">
        <path id="Path_24803" data-name="Path 24803" d="M199.262,795.8a11.84,11.84,0,1,1,11.84-11.84A11.853,11.853,0,0,1,199.262,795.8Zm0-22.217a10.377,10.377,0,1,0,10.377,10.377A10.389,10.389,0,0,0,199.262,773.586Z" transform="translate(-187.422 -772.123)" fill="#002d66"/>
      </g>
      <g id="Group_14000" data-name="Group 14000" transform="translate(8.318 5.974)">
        <path id="Path_24804" data-name="Path 24804" d="M219.741,804.674a4.762,4.762,0,0,1-.768-.063,4.538,4.538,0,0,1-2.036-.871.732.732,0,1,1,.9-1.158,3.075,3.075,0,0,0,1.379.585c1.355.222,2.595-.41,2.76-1.413s-.8-2-2.16-2.225c-2.152-.355-3.662-2.108-3.366-3.907s2.29-2.972,4.442-2.619a4.539,4.539,0,0,1,2.036.871.732.732,0,1,1-.9,1.158,3.075,3.075,0,0,0-1.379-.584c-1.356-.224-2.595.41-2.76,1.413s.8,2,2.16,2.224c2.153.355,3.662,2.108,3.366,3.907A3.53,3.53,0,0,1,219.741,804.674Z" transform="translate(-216.41 -792.941)" fill="#002d66"/>
      </g>
    </g>
  </g>
</svg>
