<svg xmlns="http://www.w3.org/2000/svg" width="51.534" height="51.891" viewBox="0 0 51.534 51.891">
  <g id="Group_14248" data-name="Group 14248" transform="translate(-3862.737 -765.862)">
    <g id="Group_14244" data-name="Group 14244" transform="translate(3862.737 765.862)">
      <path id="Path_24976" data-name="Path 24976" d="M3882.835,817.753a.706.706,0,0,1-.364-.1l-9.334-5.581-9.329,5.581a.708.708,0,0,1-1.072-.608v-44.77a6.42,6.42,0,0,1,6.413-6.413h38.709a6.42,6.42,0,0,1,6.413,6.413v18.484a.708.708,0,0,1-.708.708H3907.1a.708.708,0,1,1,0-1.417h5.753V772.275a5,5,0,0,0-5-5,5.018,5.018,0,0,0-5,5v44.486a.709.709,0,0,1-.649.993h-.06a.7.7,0,0,1-.5-.207l-9.128-5.474-9.327,5.581A.7.7,0,0,1,3882.835,817.753Zm-9.7-7.215a.7.7,0,0,1,.363.1l9.334,5.581,9.327-5.581a.71.71,0,0,1,.729,0l8.555,5.131V772.275a6.348,6.348,0,0,1,1.886-4.53,6.513,6.513,0,0,1,.514-.466h-34.7a5,5,0,0,0-5,5V815.8l8.62-5.157A.709.709,0,0,1,3873.138,810.538Z" transform="translate(-3862.738 -765.862)" fill="#002d66"/>
    </g>
    <g id="Group_14245" data-name="Group 14245" transform="translate(3870.218 777.172)">
      <path id="Path_24977" data-name="Path 24977" d="M3914.12,807.99h-23.748a.708.708,0,1,1,0-1.417h23.748a.708.708,0,0,1,0,1.417Z" transform="translate(-3889.664 -806.573)" fill="#002d66"/>
    </g>
    <g id="Group_14246" data-name="Group 14246" transform="translate(3870.218 783.851)">
      <path id="Path_24978" data-name="Path 24978" d="M3914.12,832.03h-23.748a.708.708,0,1,1,0-1.417h23.748a.708.708,0,0,1,0,1.417Z" transform="translate(-3889.664 -830.613)" fill="#002d66"/>
    </g>
    <g id="Group_14247" data-name="Group 14247" transform="translate(3870.218 790.53)">
      <path id="Path_24979" data-name="Path 24979" d="M3914.12,856.072h-23.748a.708.708,0,1,1,0-1.417h23.748a.708.708,0,0,1,0,1.417Z" transform="translate(-3889.664 -854.655)" fill="#002d66"/>
    </g>
  </g>
</svg>
