<svg id="Group_865" data-name="Group 865" xmlns="http://www.w3.org/2000/svg" width="96.373" height="22.194" viewBox="0 0 96.373 22.194">
  <path id="Path_3971" data-name="Path 3971" d="M1748.669,2368.235h-4.548c-8.834,0-11.5-1.868-11.5-8.787v-4.521c0-6.885,2.665-8.793,11.5-8.793h4.548c7.677,0,10.761,1.518,11.4,6.882h-3.826c-.579-2.93-2.364-3.56-7.525-3.56h-4.269c-6.25,0-7.667,1.1-7.667,5.606v4.212c0,4.493,1.418,5.638,7.667,5.638h3.853c6.284,0,7.764-1.244,7.764-5.346h-11.31v-3.227h15.373v2.917c0,6.783-2.8,8.978-11.457,8.978" transform="translate(-1663.754 -2346.041)" fill="#fff"/>
  <path id="Path_3972" data-name="Path 3972" d="M1706.487,2346.134c5.264,0,7.573,2.646,7.573,6.191a4.773,4.773,0,0,1-2.572,4.285,5.138,5.138,0,0,1,3.618,4.979c0,3.543-2.309,6.391-7.573,6.391h-18.582v-21.846Zm-13.424,12.335v6.288l14.24,0c2.192,0,3.6-1.294,3.6-3.157s-1.421-3.127-3.613-3.127Zm0-3.219h13.231c2.192,0,3.6-1.071,3.6-2.933s-1.413-2.953-3.6-2.953l-13.232,0Z" transform="translate(-1688.951 -2346.041)" fill="#fff"/>
  <path id="Path_3973" data-name="Path 3973" d="M1732.952,2346.075c5.34,0,9.575,3.331,9.575,8.235v13.7h-4.064v-13.567c0-3.066-2.261-5.051-5.511-5.051-3.288,0-5.549,1.986-5.56,5.051l-.047,13.567h-3.968l-.047-13.567c-.011-3.066-2.272-5.051-5.561-5.051-3.25,0-5.511,1.986-5.511,5.051v13.567h-4.064v-13.7c0-4.9,4.239-8.235,9.575-8.235a10.763,10.763,0,0,0,15.183,0" transform="translate(-1677.849 -2346.075)" fill="#fff"/>
</svg>
