<svg id="Group_866" data-name="Group 866" xmlns="http://www.w3.org/2000/svg" width="84.799" height="35.334" viewBox="0 0 84.799 35.334">
  <g id="Group_975" data-name="Group 975" transform="translate(1.64 26.506)">
    <path id="Path_3974" data-name="Path 3974" d="M1797.814,2363.125h.167c1.257,0,2.181-.451,2.181-1.749a1.5,1.5,0,0,0-1.665-1.49h-1.086l0,7.537h-1.277v-8.557h2.673a2.524,2.524,0,0,1,.946,4.922l2.427,3.635h-1.6Z" transform="translate(-1781.642 -2358.631)" fill="#fff"/>
    <path id="Path_3975" data-name="Path 3975" d="M1793.084,2362.384h3.026v1.107h-3.026v2.826h3.635v1.109l-4.937,0v-8.556h4.808v1.108l-3.5,0Z" transform="translate(-1784.153 -2358.631)" fill="#fff"/>
    <path id="Path_3976" data-name="Path 3976" d="M1804,2359.985v7.437H1802.7v-7.437h-2.4v-1.12h6.1v1.12Z" transform="translate(-1779.237 -2358.631)" fill="#fff"/>
    <path id="Path_3977" data-name="Path 3977" d="M1789.647,2366.423H1788.2v-6.552h1.366c1.241,0,1.615.576,1.615,1.144,0,1.22-1.151,1.329-1.818,1.329l-.451,1.008h.4c1.263,0,2.263.479,2.263,1.646,0,.917-.793,1.425-1.926,1.425m1.722-3.677a2.021,2.021,0,0,0,1.123-1.771c0-1.139-.787-2.132-2.79-2.132h-2.76v8.629h2.736c2.29,0,3.22-1.224,3.22-2.566a2.177,2.177,0,0,0-1.53-2.16" transform="translate(-1786.943 -2358.644)" fill="#fff"/>
    <path id="Path_3978" data-name="Path 3978" d="M1806.408,2362.384h3.025v1.107h-3.026l0,2.826h3.634v1.109l-4.937,0v-8.556h4.808v1.108l-3.5,0Z" transform="translate(-1776.465 -2358.631)" fill="#fff"/>
    <path id="Path_3979" data-name="Path 3979" d="M1834.2,2364.788v-5.921h1.255v8.556h-.913l-4.449-6.12v6.12h-1.254v-8.556h1.057Z" transform="translate(-1762.769 -2358.631)" fill="#fff"/>
    <path id="Path_3980" data-name="Path 3980" d="M1835.7,2367.423h-1.255v-8.557h1.058l4.3,5.921v-5.921h1.255v8.557h-.913l-4.449-6.121Z" transform="translate(-1759.538 -2358.631)" fill="#fff"/>
    <path id="Path_3981" data-name="Path 3981" d="M1818.575,2361.4l-.541,6.02h-1.348l.9-8.557h1.148l2.564,5.366,2.474-5.366h1.15l.9,8.557h-1.328l-.563-6.152-2.4,5.207H1821Z" transform="translate(-1769.782 -2358.631)" fill="#fff"/>
    <path id="Path_3982" data-name="Path 3982" d="M1815.26,2358.717a4.753,4.753,0,0,1,2.346.673l-.462,1.02a3.9,3.9,0,0,0-1.867-.579c-.935,0-1.519.4-1.519,1.113,0,1.838,4.272.83,4.272,4.039,0,1.457-1.164,2.525-3.2,2.525H1812.7l.508-1.12h1.59c1.11,0,1.864-.418,1.864-1.308,0-2.178-4.253-1.026-4.253-4.04,0-1.412,1.119-2.323,2.854-2.323" transform="translate(-1772.251 -2358.717)" fill="#fff"/>
    <path id="Path_3983" data-name="Path 3983" d="M1810.59,2366.3h3.4l-.51,1.123h-4.193v-8.557h1.306Z" transform="translate(-1774.052 -2358.631)" fill="#fff"/>
    <path id="Path_3984" data-name="Path 3984" d="M1825.731,2364.313l1.262-3.442,1.26,3.442Zm1.768-5.492h-.919l-3.384,8.629h1.386l.749-2.042h3.321l.748,2.042h1.443Z" transform="translate(-1766.026 -2358.658)" fill="#fff"/>
  </g>
  <path id="Path_3985" data-name="Path 3985" d="M1804.878,2344.917a5.483,5.483,0,0,0-4.237,1.635l-.426-1.635h-3.35v15.47h3.971v-10.77a4.065,4.065,0,0,1,2.93-1.014,3.737,3.737,0,0,1,1.112.169Z" transform="translate(-1779.578 -2340.173)" fill="#fff"/>
  <path id="Path_3986" data-name="Path 3986" d="M1818.188,2344.917h-4.034l-3.734,10.044-3.6-10.044h-4.351l6.3,15.47h2.98Z" transform="translate(-1776.345 -2340.174)" fill="#fff"/>
  <path id="Path_3987" data-name="Path 3987" d="M1832.008,2358.95v3.173h-2.779c-3.023,0-4.3-1.738-4.3-4.1v-8.18h-2.29v-3.192h2.29v-3.565l3.925-1.178v4.744h3.616v3.192h-3.616v6.994c0,1.459.542,2.112,1.94,2.112Z" transform="translate(-1764.704 -2341.909)" fill="#fff"/>
  <path id="Path_3988" data-name="Path 3988" d="M1799.41,2360.439h-3.634l-.323-1.374a6.4,6.4,0,0,1-4.482,1.7,4.891,4.891,0,0,1-5.068-5.064c0-3.206,2.518-5.032,6.475-5.163l2.794-.1v-.347c0-1.864-1.355-2.323-2.99-2.323-1.389,0-4.357.143-4.357.143v-2.944s2.761-.142,5.141-.142c3.827,0,6.15,1.459,6.15,5.515v6.008a15.519,15.519,0,0,0,.293,4.089m-4.237-3.761v-3.523l-2.271.065c-2.126.062-3.075.878-3.075,2.187a2.239,2.239,0,0,0,2.518,2.252,4.229,4.229,0,0,0,2.828-.981" transform="translate(-1785.903 -2340.225)" fill="#fff"/>
  <path id="Path_3989" data-name="Path 3989" d="M1841.326,2352.829c0,2.911-1.243,5.191-3.7,5.191-2.387,0-3.793-2.183-3.793-5.191,0-2.878,1.209-5.127,3.7-5.127,2.421,0,3.794,2.15,3.794,5.127m4.023-.033c0-5.259-3.427-8.186-7.752-8.186-4.2,0-7.751,3.028-7.751,8.317,0,4.562,2.864,8.121,7.719,8.121,4.769,0,7.784-3.575,7.784-8.252" transform="translate(-1760.549 -2340.35)" fill="#fff"/>
  <path id="Path_3990" data-name="Path 3990" d="M1826.214,2360.439h-3.633l-.323-1.374a6.407,6.407,0,0,1-4.482,1.7,4.892,4.892,0,0,1-5.07-5.064c0-3.206,2.518-5.032,6.477-5.163l2.794-.1v-.347c0-1.864-1.355-2.323-2.99-2.323-1.389,0-4.357.143-4.357.143v-2.944s2.761-.142,5.141-.142c3.827,0,6.149,1.459,6.149,5.515v6.008a15.5,15.5,0,0,0,.295,4.089m-4.237-3.761v-3.523l-2.271.065c-2.126.062-3.075.878-3.075,2.187a2.239,2.239,0,0,0,2.519,2.252,4.228,4.228,0,0,0,2.828-.981" transform="translate(-1770.438 -2340.225)" fill="#fff"/>
</svg>
