<svg id="Group_867" data-name="Group 867" xmlns="http://www.w3.org/2000/svg" width="142.343" height="31.326" viewBox="0 0 142.343 31.326">
  <path id="Path_3991" data-name="Path 3991" d="M1953.545,2351.728a2.766,2.766,0,0,0-2.687-2.9,2.631,2.631,0,0,0,2.2-2.719,2.84,2.84,0,0,0-2.161-2.768,7.936,7.936,0,0,0-2.064-.164h-3.258v11.838h3.258c2.211,0,4.717-.572,4.717-3.291m-1.637-5.534c0,1.686-1.246,2.26-2.752,2.26h-2.522v-4.323h2.832c1.326,0,2.441.588,2.441,2.063m.506,5.518c0,2.244-1.965,2.357-3.684,2.357h-2.1v-4.764h2.719c1.637,0,3.061.459,3.061,2.407m10.151-.672c0-2.209-.7-4.42-3.34-4.42-2.6,0-3.764,2.031-3.764,4.4,0,2.326,1.112,4.176,3.635,4.176a3.169,3.169,0,0,0,3.421-2.8h-.949a2.268,2.268,0,0,1-2.342,2.063c-1.817,0-2.75-1.555-2.75-3.225v-.2Zm-1.014-.736h-5.043c.131-1.506.983-2.915,2.653-2.915a2.467,2.467,0,0,1,2.391,2.75Zm7.256-2.571v-1a4.42,4.42,0,0,0-.461-.032,2.752,2.752,0,0,0-2.536,1.342l-.066-1.293h-.983c-.033.8.049,1.621.049,2.424v5.844h1v-4.682c0-1.639.555-2.67,2.324-2.67a4.585,4.585,0,0,1,.672.066m5.745,7.27v-.85c-.244.016-.49.1-.752.1-1.031,0-1.162-.441-1.162-1.375v-5.387h1.85v-.736h-1.85v-2.145l-1,.441v1.7H1970v.736h1.638v5.829a1.539,1.539,0,0,0,1.751,1.77,9.3,9.3,0,0,0,1.162-.082m8.27-3.963c0-2.209-.705-4.42-3.34-4.42-2.6,0-3.766,2.031-3.766,4.4,0,2.326,1.113,4.176,3.635,4.176a3.17,3.17,0,0,0,3.422-2.8h-.949a2.268,2.268,0,0,1-2.342,2.063c-1.817,0-2.752-1.555-2.752-3.225v-.2Zm-1.014-.736h-5.045c.131-1.506.982-2.915,2.654-2.915a2.467,2.467,0,0,1,2.391,2.75Zm4.286-7.124h-1v11.838h1Zm8.336,9.48c0-2.931-4.914-1.751-4.914-3.914,0-1,1.082-1.391,1.917-1.391a1.572,1.572,0,0,1,1.817,1.623h1c-.049-1.72-1.244-2.425-2.848-2.425-1.426,0-2.883.689-2.883,2.292,0,2.932,4.945,1.736,4.945,3.963,0,1.113-1.146,1.621-2.113,1.621-1.211,0-2.045-.59-2.045-1.834h-.984c0,1.817,1.279,2.588,2.98,2.588,1.573,0,3.129-.754,3.129-2.523m14.1,2.358v-4.731c0-2.031-.377-3.619-2.8-3.619a2.84,2.84,0,0,0-2.834,1.769,2.492,2.492,0,0,0-2.652-1.769,2.713,2.713,0,0,0-2.553,1.523l-.066-1.441h-.983c0,.656.049,1.326.049,1.98v6.288h1v-4.6c0-1.49.688-2.916,2.373-2.916,1.72,0,2.049,1.18,2.049,2.637v4.879h1v-4.6c0-1.621.49-2.916,2.356-2.916,1.638,0,2.064,1.1,2.064,2.523v4.993Zm8.718,0a27.571,27.571,0,0,1-.164-3.061V2349.5c0-2.045-.949-2.9-3-2.9-1.457,0-2.881.621-2.9,2.275h.981c.131-1.18.853-1.523,1.916-1.523,1.457,0,2.015.721,2.015,2.129,0,.2,0,.377-.017.573h-.426c-2.03,0-5.109.082-5.109,2.718,0,1.67,1.377,2.424,2.883,2.424a2.923,2.923,0,0,0,2.768-1.375c.049.393.1.8.129,1.194Zm-1.129-4.223c0,1.816-.147,3.684-2.506,3.684a1.838,1.838,0,0,1-2.047-1.735c0-1.9,2.358-1.982,3.733-1.982.281,0,.541.018.82.033m10.292,4.223v-5.057c0-2.049-.656-3.293-2.9-3.293a2.979,2.979,0,0,0-2.7,1.457l-.066-1.375h-.982c0,.785.05,1.555.05,2.342v5.926h1v-4.4c0-1.637.654-3.113,2.52-3.113,1.9,0,2.082,1.312,2.082,2.852v4.665Zm9.309,0v-5.057c0-2.049-.655-3.293-2.9-3.293a2.976,2.976,0,0,0-2.7,1.457l-.066-1.375h-.982c0,.785.049,1.555.049,2.342v5.926h1v-4.4c0-1.637.655-3.113,2.521-3.113,1.9,0,2.079,1.312,2.079,2.852v4.665Z" transform="translate(-1936.589 -2343.18)" fill="#fff"/>
  <rect id="Rectangle_475" data-name="Rectangle 475" width="2.246" height="28.205" transform="translate(0 0.009)" fill="#fff"/>
  <path id="Path_3992" data-name="Path 3992" d="M1953.74,2365.5v-1.834h-5.65V2360.4h5.191v-1.818h-5.191V2355.5h5.486v-1.834h-8.006V2365.5Zm10.017,0c-.065-.738-.065-1.49-.065-2.211v-9.627H1961.3v4.633a3.072,3.072,0,0,0-2.67-1.244c-2.555,0-3.57,2.26-3.57,4.339,0,2.293,1.131,4.275,3.652,4.275a3.01,3.01,0,0,0,2.571-1.262l.066,1.1Zm-2.406-4.16c0,1.2-.426,2.783-1.9,2.783-1.6,0-1.949-1.522-1.949-2.832,0-1.211.345-2.735,1.82-2.735,1.522,0,2.03,1.49,2.03,2.784m12.714,4.16c-.049-1.031-.049-2.031-.049-3.045v-5.207h-2.391v4.272c0,1.2-.279,2.523-1.768,2.523s-1.541-1.262-1.541-2.406v-4.389h-2.391v5.337c0,1.981.984,3.047,3.013,3.047a3.1,3.1,0,0,0,2.7-1.393l.033,1.262Zm10-2.965v-.081h-2.44c-.033,1.031-.41,1.8-1.523,1.8-1.555,0-1.817-1.7-1.817-2.931,0-1.278.279-2.9,1.867-2.9,1,0,1.44.7,1.473,1.654H1984c-.2-2.194-1.785-3.08-3.832-3.08a4.078,4.078,0,0,0-4.372,4.439c0,2.7,1.588,4.256,4.29,4.256,1.948,0,3.979-.934,3.979-3.16m9.115,2.965a20.768,20.768,0,0,1-.131-2.833v-2.458c0-2.7-1.375-3.209-3.6-3.209-1.736,0-3.651.574-3.685,2.6h2.441a1.145,1.145,0,0,1,1.277-1.292c1.063,0,1.243.85,1.243,1.719v.311h-.67c-1.916,0-4.846.229-4.846,2.8,0,1.736,1.276,2.523,2.881,2.523a2.821,2.821,0,0,0,2.635-1.295,3.9,3.9,0,0,0,.2,1.131Zm-2.457-3.848c0,1.244-.278,2.586-1.817,2.586a1.256,1.256,0,0,1-1.344-1.227c0-1.294,1.523-1.523,2.539-1.523.229,0,.393.016.621.016Zm9.437-2.85v-1.571h-1.948v-2.326l-2.326.949v1.376H1994.3v1.571h1.588v4.6c0,1.8.9,2.211,2.555,2.211a11.909,11.909,0,0,0,1.7-.132v-1.555c-.279.016-.508.066-.77.066-1.113,0-1.162-.46-1.162-1.426v-3.766Zm3.922-5.141h-2.49v1.9h2.49Zm-.049,3.57h-2.391v8.268h2.391Zm10.716,4.108c0-2.75-1.717-4.323-4.436-4.323-2.684,0-4.535,1.573-4.535,4.323,0,2.783,1.719,4.355,4.471,4.355,2.717,0,4.5-1.6,4.5-4.355m-2.487.016c0,1.312-.426,2.916-2.014,2.916-1.605,0-1.982-1.6-1.982-2.916s.377-2.9,1.982-2.9c1.588,0,2.014,1.573,2.014,2.9m12.338,4.144v-5.338a2.7,2.7,0,0,0-3.014-3.045,3.126,3.126,0,0,0-2.717,1.391l-.033-1.26h-2.375c.05.555.066,1.1.066,1.621v6.631h2.391v-4.16c0-.934.23-2.62,1.735-2.62,1.474,0,1.556,1.26,1.556,2.407v4.373Zm16.079-.443V2359.1h-4.945v1.752h2.506v2.783a7.264,7.264,0,0,1-1.981.246c-2.555,0-3.6-2.031-3.6-4.34,0-2.047.8-4.24,3.176-4.24a1.99,1.99,0,0,1,2.227,1.785h2.6c-.23-2.685-2.2-3.7-4.682-3.7-3.766,0-6.011,2.522-6.011,6.221,0,3.883,2.311,6.108,6.157,6.108a17.143,17.143,0,0,0,4.552-.655m7.617-5.762v-2.082a3.469,3.469,0,0,0-.393-.016,2.612,2.612,0,0,0-2.555,1.572l-.068-1.522h-2.307c0,.688.065,1.358.065,2.014v6.239h2.391v-3.9c0-1.473.605-2.356,2.146-2.356a5.656,5.656,0,0,1,.721.049m9.864,2.046c0-2.75-1.719-4.323-4.437-4.323-2.684,0-4.536,1.573-4.536,4.323,0,2.783,1.719,4.355,4.471,4.355,2.719,0,4.5-1.6,4.5-4.355m-2.488.016c0,1.312-.426,2.916-2.014,2.916-1.605,0-1.982-1.6-1.982-2.916s.376-2.9,1.982-2.9c1.588,0,2.014,1.573,2.014,2.9m12.37,4.144c-.047-1.031-.047-2.031-.047-3.045v-5.207h-2.391v4.272c0,1.2-.279,2.523-1.77,2.523s-1.539-1.262-1.539-2.406v-4.389h-2.391v5.337c0,1.981.982,3.047,3.012,3.047a3.1,3.1,0,0,0,2.7-1.393l.033,1.262Zm10.888-4.274c0-2.244-1.113-4.158-3.586-4.158a3.053,3.053,0,0,0-2.735,1.44l-.033-1.26h-2.34c.031.688.064,1.374.064,2.03v9.334h2.391v-4.176a2.915,2.915,0,0,0,2.521,1.229c2.555,0,3.717-2.146,3.717-4.438m-2.457.082c0,1.293-.442,2.9-2.014,2.9-1.456,0-1.817-1.623-1.817-2.8,0-1.26.426-2.848,1.949-2.848,1.457,0,1.881,1.557,1.881,2.752" transform="translate(-1936.589 -2337.29)" fill="#fff"/>
</svg>
