<svg id="Group_868" data-name="Group 868" xmlns="http://www.w3.org/2000/svg" width="82.082" height="40.049" viewBox="0 0 82.082 40.049">
  <path id="Path_3993" data-name="Path 3993" d="M1623.726,2379.842c-1.809,0-2.968-1.394-2.968-3.471,0-2.093,1.159-3.471,2.968-3.471,1.826,0,2.987,1.394,2.987,3.471s-1.161,3.471-2.987,3.471m0-7.562c-2.272,0-3.742,1.658-3.742,4.091s1.47,4.092,3.728,4.092c2.274,0,3.759-1.673,3.759-4.092s-1.485-4.091-3.745-4.091m-5.939-2.172,2.274-.17v-.479h-5.384v.479l2.29.156v4.184h-6.033v-4.184l2.29-.156v-.479h-5.384v.479l2.258.17v9.409l-2.258.156v.479h5.384v-.479l-2.29-.156V2374.9h6.033v4.619l-2.29.156v.479h5.384v-.479l-2.274-.156Zm-6.869-29h3.435a2.28,2.28,0,0,1,2.444,2.432,2.3,2.3,0,0,1-2.321,2.59h-3.558Zm2.4,9.593-2.4-.154v-3.8h3.667a3.132,3.132,0,0,0-.077-6.262h-6.667v.481l2.244.17v9.408l-2.244.154v.481h5.477Zm14.2,14.507v.45h4.378v-.434l-1.763-.154v-4.744a3.586,3.586,0,0,1,2.969-1.859,1.809,1.809,0,0,1,1.9,2.029v4.573l-1.795.154v.434h4.223v-.45l-1.654-.156v-4.633a2.342,2.342,0,0,0-2.521-2.62,3.831,3.831,0,0,0-3.141,1.75V2357.9l-.434-.125a3.168,3.168,0,0,1-2.476,1.008v.326a3.484,3.484,0,0,0,2.151-.186v6.136Zm-16.6-9.608h3.6a2.4,2.4,0,1,1,.031,4.8h-3.636Zm2.4,9.579-2.4-.155v-3.985h3.187l2.258,4.619h2.831v-.479l-2.3-.233-1.919-3.906a2.909,2.909,0,0,0,2.878-3.084,2.869,2.869,0,0,0-3.062-2.974h-6.947v.479l2.258.17v9.394l-2.258.155v.479h5.477Zm53.57-14.6v-4.633a2.352,2.352,0,0,0-2.522-2.635,3.8,3.8,0,0,0-3.124,1.766v-1.673l-.432-.125a3.122,3.122,0,0,1-2.476,1.008v.342a3.479,3.479,0,0,0,2.149-.186v6.136l-1.84.154v.451h4.378v-.434l-1.763-.154v-4.744a3.6,3.6,0,0,1,2.954-1.875,1.821,1.821,0,0,1,1.9,2.045v4.573l-1.794.154v.434h4.223v-.451Zm-25.43,25.372c-1.006-.248-2.274-.589-2.274-1.689,0-.728.525-1.38,1.855-1.38a2.47,2.47,0,0,1,2.368,1.5l.5.867.386-.076-.5-2.93h-.419l-.014,1.287a2.7,2.7,0,0,0-2.428-1.255c-1.547,0-2.476.867-2.476,2,0,1.566,1.779,2.045,2.848,2.326,1.454.37,2.444.727,2.444,1.782,0,.931-.79,1.487-1.981,1.487a3.093,3.093,0,0,1-2.771-1.859l-.478-.79-.4.077.511,3.023h.432l-.046-1.458a3.111,3.111,0,0,0,2.846,1.6c1.577,0,2.613-.837,2.613-2.139,0-1.5-1.314-1.938-3.015-2.372m25.4-15.591c0-1.412-.587-2.558-2.227-2.558a3.379,3.379,0,0,0-2.892,1.689,2,2,0,0,0-2.12-1.689,3.541,3.541,0,0,0-2.831,1.705V2357.9l-.434-.125a3.215,3.215,0,0,1-2.476,1.008v.326a3.481,3.481,0,0,0,2.151-.2v6.152l-1.84.156v.45h4.037v-.434l-1.424-.154v-4.821a3.222,3.222,0,0,1,2.631-1.782c1.238,0,1.64.837,1.64,2.106v4.5l-1.515.154v.434h3.819v-.434l-1.53-.154v-4.587a1.932,1.932,0,0,0-.018-.311,3.027,3.027,0,0,1,2.6-1.7c1.254,0,1.654.853,1.654,2.092v4.51l-1.407.154v.434h3.867v-.434l-1.687-.171Zm-13.318-9.626v.451h4.408v-.451l-1.793-.154v-7.16l-.433-.141a3.237,3.237,0,0,1-2.492,1.008v.342a3.492,3.492,0,0,0,2.151-.2v6.152Zm-7.117,24.893a2.831,2.831,0,0,1,2.8-2.728,2.531,2.531,0,0,1,2.567,2.728Zm2.815-3.348c-2.181,0-3.619,1.673-3.619,4.091s1.456,4.092,3.759,4.092a2.882,2.882,0,0,0,3.047-1.984l-.479-.172a2.438,2.438,0,0,1-2.474,1.534c-1.949,0-3.094-1.347-3.094-3.455v-.155h6.141a4.929,4.929,0,0,0,.016-.5,3.244,3.244,0,0,0-3.3-3.457m.557-6.929c-1.809,0-2.968-1.394-2.968-3.471,0-2.093,1.159-3.457,2.968-3.457,1.826,0,2.987,1.38,2.987,3.457s-1.161,3.471-2.987,3.471m0-7.548c-2.272,0-3.742,1.643-3.742,4.077,0,2.417,1.47,4.091,3.728,4.091,2.274,0,3.76-1.673,3.76-4.091,0-2.434-1.486-4.077-3.745-4.077m-13.858,14.57-.434-.125a3.251,3.251,0,0,1-2.491,1.008v.341a3.434,3.434,0,0,0,2.135-.187v4.6a3.67,3.67,0,0,1-2.97,1.8,1.813,1.813,0,0,1-1.888-2.03v-5.409l-.418-.125a2.8,2.8,0,0,1-2.274,1.008v.341a3.093,3.093,0,0,0,1.919-.141v4.371a2.356,2.356,0,0,0,2.537,2.636,3.79,3.79,0,0,0,3.108-1.721l.016,1.564.046.031,2.414-.231v-.419h-1.7Zm8.708-27.882v4.371a2.355,2.355,0,0,0,2.537,2.633,3.79,3.79,0,0,0,3.11-1.72l.016,1.566.046.032,2.413-.233v-.418h-1.7v-7.315l-.434-.125a3.232,3.232,0,0,1-2.49,1.008v.342a3.444,3.444,0,0,0,2.135-.186v4.6a3.669,3.669,0,0,1-2.971,1.8,1.812,1.812,0,0,1-1.888-2.03v-5.409l-.417-.125a2.794,2.794,0,0,1-2.274,1.008v.342a3.1,3.1,0,0,0,1.917-.14m-17.295-.046v6.136l-1.84.154v.451h4.378v-.434l-1.763-.154v-4.744a3.6,3.6,0,0,1,2.969-1.875,1.822,1.822,0,0,1,1.9,2.045v4.573l-1.795.154v.434h4.223v-.451l-1.656-.154v-4.633a2.353,2.353,0,0,0-2.521-2.635,3.8,3.8,0,0,0-3.14,1.766v-1.673l-.432-.125a3.121,3.121,0,0,1-2.476,1.008v.342a3.478,3.478,0,0,0,2.149-.186m16.275,19.171a2.568,2.568,0,0,1-2.537,1.735c-1.749,0-2.785-1.333-2.785-3.44,0-2.062,1.16-3.488,2.939-3.488a2.624,2.624,0,0,1,2.383,1.4Zm-2.476-5.813c-2.165,0-3.619,1.689-3.619,4.138,0,2.4,1.283,4.029,3.435,4.029a2.943,2.943,0,0,0,2.676-1.487l.016,1.333.046.032,2.444-.233v-.418H1644.4v-11.159l-.419-.123a3,3,0,0,1-2.458,1.317v.34a2.851,2.851,0,0,0,2.1-.354V2359a2.964,2.964,0,0,0-2.476-1.194m-3.108-6.773,1.545.141c1.81.162,2.369.681,2.369,1.364,0,.944-.96,1.673-2.894,1.673-1.731,0-2.722-.7-2.722-1.627,0-.7.588-1.362,1.7-1.55m-1.27-4.819a2.321,2.321,0,0,1,4.641.03,2.226,2.226,0,0,1-2.335,2.265,2.281,2.281,0,0,1-2.306-2.294m-1.145,6.417c0,1.194,1.129,2.184,3.419,2.184,2.4,0,3.651-1.006,3.651-2.34,0-1.472-1.716-1.861-3.4-2-1.252-.107-2.413-.155-2.413-.774,0-.309.309-.6,1.686-.6h.511a2.912,2.912,0,0,0,2.29-4.867c.107-1.41,1.345-.713,1.345-1.441a.433.433,0,0,0-.5-.465,1.55,1.55,0,0,0-1.345,1.487,3.029,3.029,0,0,0-1.7-.5,2.886,2.886,0,0,0-3.11,2.867,2.77,2.77,0,0,0,1.438,2.51c-.836.079-1.283.511-1.283,1.1,0,.417.263.821.958,1.053a1.943,1.943,0,0,0-1.547,1.783m-11,11.468a3.94,3.94,0,0,1-2.752,1.256c-.913,0-1.672-.434-1.672-1.317,0-1.1.943-2.123,4.424-2.186Zm-5.182-.061c0,1.162.9,1.937,2.306,1.937a4.193,4.193,0,0,0,2.923-1.254,1.207,1.207,0,0,0,1.284,1.022,1.293,1.293,0,0,0,1.361-1.194l-.355-.155c-.123.481-.356.745-.773.745-.542,0-.79-.279-.79-1.271V2360.5a2.37,2.37,0,0,0-2.692-2.7,3.313,3.313,0,0,0-2.381.79,1.426,1.426,0,0,0-.542.96.436.436,0,0,0,.464.451c.372,0,.419-.356.635-.76.262-.465.666-.821,1.763-.821a1.792,1.792,0,0,1,1.979,2v.867c-3.309.032-5.182.978-5.182,2.744m36.293-22.288a.666.666,0,1,0,0-1.333.666.666,0,0,0,0,1.333m-34.281,2.186a2.533,2.533,0,0,1,2.567,2.728h-5.368a2.831,2.831,0,0,1,2.8-2.728m.155,7.563a2.882,2.882,0,0,0,3.047-1.983l-.48-.17a2.439,2.439,0,0,1-2.474,1.535c-1.951,0-3.1-1.349-3.1-3.457v-.154h6.142a4.868,4.868,0,0,0,.016-.5,3.245,3.245,0,0,0-3.294-3.457c-2.183,0-3.621,1.675-3.621,4.092s1.454,4.09,3.76,4.09" transform="translate(-1597.151 -2340.414)" fill="#fff"/>
  <path id="Path_3994" data-name="Path 3994" d="M1601.062,2340.447v39.686h.819v-39.686Z" transform="translate(-1601.062 -2340.395)" fill="#fff"/>
  <path id="Path_3995" data-name="Path 3995" d="M1652.592,2340.447v39.686h.821v-39.686Z" transform="translate(-1571.33 -2340.395)" fill="#fff"/>
</svg>
