<svg id="Group_869" data-name="Group 869" xmlns="http://www.w3.org/2000/svg" width="139.36" height="29.51" viewBox="0 0 139.36 29.51">
  <path id="Path_3996" data-name="Path 3996" d="M2093.918,2354.694H2091.3v12.043h2.616Zm10.745,12.043v-5.43a2.749,2.749,0,0,0-3.065-3.1,3.18,3.18,0,0,0-2.765,1.415l-.035-1.282h-2.414c.049.566.066,1.117.066,1.648v6.748h2.432v-4.231c0-.951.232-2.665,1.765-2.665,1.5,0,1.585,1.282,1.585,2.448v4.449Zm10.328-8.4h-2.365l-2.266,6.5-2.2-6.5h-2.581l3.4,8.4h2.63Zm8.781,4.665a6.581,6.581,0,0,0-.368-2.667,3.734,3.734,0,0,0-3.715-2.231c-2.881,0-4.348,1.766-4.348,4.564,0,2.716,1.55,4.249,4.266,4.249,1.965,0,3.781-.733,4.081-2.914h-2.367a1.519,1.519,0,0,1-1.681,1.465c-1.417,0-1.949-1.2-1.933-2.465Zm-2.35-1.4h-3.665a1.879,1.879,0,0,1,1.916-2.065c1.165,0,1.749.8,1.749,2.065m11.261,2.583c0-1.6-1.317-2.1-2.616-2.416-.317-.082-.648-.15-.949-.218a5.517,5.517,0,0,1-.833-.248c-.484-.185-.782-.434-.782-.883,0-.667.681-.933,1.265-.933a1.243,1.243,0,0,1,1.284,1.348h2.381c-.117-2.066-1.782-2.714-3.632-2.714-1.6,0-3.6.549-3.6,2.548,0,1.566,1.265,2.048,2.515,2.365.315.082.616.132.916.218a4.55,4.55,0,0,1,.8.248c.467.2.8.468.8.935a1.248,1.248,0,0,1-1.381,1.115c-1,0-1.4-.533-1.432-1.5h-2.449c0,2.3,1.782,2.9,3.764,2.9,1.8,0,3.948-.582,3.948-2.764m6.731-4.266v-1.6h-1.982v-2.365l-2.367.965v1.4h-1.615v1.6h1.615v4.682c0,1.833.916,2.249,2.6,2.249a12.111,12.111,0,0,0,1.732-.133v-1.583c-.284.016-.516.068-.782.068-1.134,0-1.183-.467-1.183-1.451v-3.832Zm15.309,6.814v-5.215c0-1.982-.866-3.313-3.017-3.313a3.242,3.242,0,0,0-3,1.615,2.574,2.574,0,0,0-2.648-1.615,3.078,3.078,0,0,0-2.816,1.449l-.068-1.317H2140.8c.035.949.068,1.865.068,2.8v5.6h2.432v-4.647c0-1.15.4-2.249,1.732-2.249,1.35,0,1.552,1.132,1.552,2.233v4.663h2.432v-4.6c0-1.183.265-2.3,1.7-2.3,1.417,0,1.583,1.066,1.583,2.216v4.681Zm10.162-3.731a6.56,6.56,0,0,0-.367-2.667,3.734,3.734,0,0,0-3.715-2.231c-2.881,0-4.348,1.766-4.348,4.564,0,2.716,1.549,4.249,4.264,4.249,1.967,0,3.783-.733,4.083-2.914h-2.367a1.52,1.52,0,0,1-1.683,1.465c-1.414,0-1.949-1.2-1.932-2.465Zm-2.35-1.4h-3.665a1.878,1.878,0,0,1,1.915-2.065c1.167,0,1.75.8,1.75,2.065m12.294,5.132v-5.43a2.749,2.749,0,0,0-3.066-3.1,3.183,3.183,0,0,0-2.766,1.415l-.033-1.282h-2.415c.049.566.066,1.117.066,1.648v6.748h2.432v-4.231c0-.951.233-2.665,1.766-2.665,1.5,0,1.583,1.282,1.583,2.448v4.449Zm7.263-6.814v-1.6h-1.982v-2.365l-2.365.965v1.4h-1.615v1.6h1.615v4.682c0,1.833.917,2.249,2.6,2.249a12.131,12.131,0,0,0,1.733-.133v-1.583c-.284.016-.517.068-.784.068-1.132,0-1.183-.467-1.183-1.451v-3.832Zm8.629,4.266c0-1.6-1.317-2.1-2.615-2.416-.317-.082-.649-.15-.949-.218a5.444,5.444,0,0,1-.832-.248c-.484-.185-.785-.434-.785-.883,0-.667.685-.933,1.268-.933a1.242,1.242,0,0,1,1.282,1.348h2.383c-.117-2.066-1.782-2.714-3.632-2.714-1.6,0-3.6.549-3.6,2.548,0,1.566,1.266,2.048,2.515,2.365.317.082.617.132.916.218a4.559,4.559,0,0,1,.8.248c.467.2.8.468.8.935a1.249,1.249,0,0,1-1.383,1.115c-1,0-1.4-.533-1.432-1.5h-2.449c0,2.3,1.783,2.9,3.766,2.9,1.8,0,3.947-.582,3.947-2.764" transform="translate(-2051.363 -2337.443)" fill="#fff"/>
  <path id="Path_3997" data-name="Path 3997" d="M2100.024,2352.56c0-1.8-1.083-2.647-2.732-2.947a2.671,2.671,0,0,0,2.248-2.733c0-2.183-1.947-3.014-3.831-3.014h-4.249v12.043h4.048c2.216,0,4.515-.632,4.515-3.35m-2.1-5.544c0,1.58-1.2,2.1-2.6,2.1h-2.333V2345.1h2.565c1.267,0,2.366.518,2.366,1.917m.467,5.48c0,2.016-1.733,2.181-3.333,2.181h-2.065v-4.414h2.548c1.566,0,2.85.449,2.85,2.232m10.944-.517c0-2.449-.8-4.632-3.614-4.632-2.733,0-4,1.982-4,4.5,0,2.5,1.266,4.249,3.882,4.249a3.361,3.361,0,0,0,3.681-2.9h-1.4a2.08,2.08,0,0,1-2.165,1.916c-1.7,0-2.533-1.416-2.533-2.965v-.167Zm-1.449-.965h-4.665c.134-1.4.9-2.667,2.449-2.667,1.533,0,2.233,1.282,2.215,2.667m8-2.151v-1.381c-.167-.016-.317-.033-.466-.033a2.736,2.736,0,0,0-2.565,1.4l-.067-1.349h-1.432c.016.815.049,1.648.049,2.465v5.947h1.465v-4.531c0-1.6.568-2.583,2.3-2.583a5.473,5.473,0,0,1,.718.066m5.464,7.03v-1.115c-.284.016-.517.082-.784.082-1.066,0-1.15-.449-1.15-1.4v-4.947h1.883V2347.5h-1.883v-2.25l-1.466.617v1.633H2116.3v1.016h1.648v5.531c0,1.4.7,1.949,2.048,1.949a9.215,9.215,0,0,0,1.352-.1m8.762-3.914c0-2.449-.8-4.632-3.614-4.632-2.733,0-4,1.982-4,4.5,0,2.5,1.265,4.249,3.881,4.249a3.362,3.362,0,0,0,3.681-2.9h-1.4a2.08,2.08,0,0,1-2.165,1.916c-1.7,0-2.533-1.416-2.533-2.965v-.167Zm-1.449-.965H2124c.134-1.4.9-2.667,2.449-2.667,1.533,0,2.233,1.282,2.216,2.667m4.98-7.147h-1.466v12.043h1.466Zm8.781,9.612c0-1.533-1.267-2.015-2.533-2.35a9.039,9.039,0,0,1-1.731-.531,1.157,1.157,0,0,1-.784-1.05c0-.9.965-1.249,1.731-1.249a1.518,1.518,0,0,1,1.667,1.548h1.449c-.066-1.85-1.4-2.55-3.083-2.55-1.482,0-3.2.651-3.2,2.4,0,1.5,1.282,2,2.534,2.315a8.477,8.477,0,0,1,1.714.517,1.2,1.2,0,0,1,.784,1.115c0,1-1.017,1.434-1.9,1.434a1.658,1.658,0,0,1-1.883-1.716h-1.463c0,2.033,1.5,2.733,3.28,2.733,1.649,0,3.416-.7,3.416-2.617m14.708,2.432v-4.93c0-2.05-.564-3.583-2.915-3.583a3.018,3.018,0,0,0-2.916,1.733,2.575,2.575,0,0,0-2.682-1.733,2.93,2.93,0,0,0-2.666,1.5l-.05-1.4h-1.448c.016.965.049,1.932.049,2.881,0,0,.017,2.266,0,5.53h1.466v-4.665c0-1.4.65-2.731,2.2-2.731,1.617,0,1.916,1.15,1.916,2.516v4.88h1.466v-4.665c0-1.516.518-2.731,2.181-2.731,1.567,0,1.934,1.066,1.934,2.432v4.964Zm9.131,0a10.174,10.174,0,0,1-.267-2.465v-3.1c0-2.2-1.05-3.016-3.2-3.016-1.583,0-3.065.6-3.149,2.432h1.432c.1-1.1.716-1.482,1.75-1.482,1.381,0,1.833.731,1.833,2.033,0,.166.017.482.017.482-.25,0-.534-.018-.834-.018-2.05,0-4.814.3-4.814,2.816,0,1.716,1.383,2.5,2.949,2.5a3.132,3.132,0,0,0,2.848-1.368c.051.383.084.784.15,1.183Zm-1.582-4.2c0,1.7-.217,3.4-2.332,3.4a1.661,1.661,0,0,1-1.85-1.583c0-1.714,2.132-1.865,3.431-1.865.282,0,.415.033.75.05m11.176,4.2v-5.23c0-2.066-.8-3.282-3-3.282a3.127,3.127,0,0,0-2.749,1.449l-.05-1.349h-1.449c.018.483.049,1.449.049,2.166v6.246h1.467v-4.2c0-1.549.5-3.2,2.316-3.2,1.78,0,1.949,1.265,1.949,2.731v4.665Zm9.862,0v-5.23c0-2.066-.8-3.282-3-3.282a3.13,3.13,0,0,0-2.749,1.449l-.049-1.349h-1.449c.016.483.05,1.449.05,2.166v6.246h1.465v-4.2c0-1.549.5-3.2,2.315-3.2,1.784,0,1.949,1.265,1.949,2.731v4.665Z" transform="translate(-2051.272 -2343.69)" fill="#fff"/>
  <path id="Path_3998" data-name="Path 3998" d="M2085.078,2365.142c0-4.327-1.388-6.693-5.51-7.388,3.591-.735,5.1-2.9,5.1-6.693,0-5.918-3.631-7.306-8.53-7.306h-10.164v29.509h8.858c5.958,0,10.244-1.06,10.244-8.122m-6.368-13.264c0,3.182-1.55,4.121-4.531,4.081l-2.164-.041v-7.877h2.289c2.57,0,4.406.651,4.406,3.837m.246,12.57c0,3.917-2.082,4.531-4.777,4.531h-2.164v-8.9h2.164c3.348,0,4.777,1.1,4.777,4.367m16.774-20.693h-6.2v29.509h6.2Z" transform="translate(-2065.976 -2343.755)" fill="#fff"/>
</svg>
