<svg id="Group_870" data-name="Group 870" xmlns="http://www.w3.org/2000/svg" width="44.976" height="42.149" viewBox="0 0 44.976 42.149">
  <rect id="Rectangle_476" data-name="Rectangle 476" width="44.958" height="3.663" transform="translate(0.006 0)" fill="#fff"/>
  <rect id="Rectangle_477" data-name="Rectangle 477" width="44.958" height="3.662" transform="translate(0.006 38.488)" fill="#fff"/>
  <path id="Path_3999" data-name="Path 3999" d="M1888.8,2361.479v-1.811a3.5,3.5,0,0,0-2.728-3.425,2.95,2.95,0,0,0,2.061-2.926v-1.892c0-2.507-1.421-4.067-5.292-4.067h-7.323v18.548h7.908c3.7,0,5.375-1.811,5.375-4.428m-4.845-7.827c0,.752-.558,1.309-1.671,1.309h-2.59v-4.232h2.59c1.17,0,1.671.5,1.671,1.309Zm.667,7.268c0,1.338-1.03,1.617-2.339,1.617h-2.59v-4.318h3.175c1.114,0,1.754.53,1.754,1.56Zm20.581-5.875v-2.422c0-3.482-1.671-5.264-6.183-5.264h-7.574v18.548h4.177v-5.627h3.175c4.512,0,6.406-1.753,6.406-5.235m-4.177-.418c0,1.337-.39,2.034-2.228,2.034h-3.175v-5.6h3.175c1.755,0,2.228.612,2.228,1.949Zm19.466,10.667v-8.716h-3.927v5.681a16.922,16.922,0,0,1-2.479.167c-2.088,0-2.618-1.2-2.618-2.646V2353.4c0-1.448.53-2.535,2.618-2.535a43.594,43.594,0,0,1,5.431.446l.5-3.649a32.947,32.947,0,0,0-5.933-.583c-4.512,0-6.8,2.255-6.8,5.681v7.743c0,3.369,2.284,5.68,6.8,5.68a23.532,23.532,0,0,0,6.406-.891" transform="translate(-1875.515 -2335.517)" fill="#fff"/>
</svg>
