<svg xmlns="http://www.w3.org/2000/svg" width="118.367" height="57.753" viewBox="0 0 118.367 57.753">
  <g id="Group_15288" data-name="Group 15288" transform="translate(-495.874 -3034.211)">
    <path id="Path_27964" data-name="Path 27964" d="M534.2,3091.07c-2.61,0-4.282-2.012-4.282-5.006,0-3.018,1.672-5.006,4.282-5.006,2.632,0,4.307,2.011,4.307,5.006s-1.675,5.006-4.307,5.006m0-10.906c-3.279,0-5.4,2.391-5.4,5.9,0,3.487,2.119,5.9,5.376,5.9,3.279,0,5.421-2.413,5.421-5.9,0-3.509-2.142-5.9-5.4-5.9m-8.566-3.13,3.279-.246v-.693H521.15v.693l3.3.224v6.034h-8.7v-6.034l3.3-.224v-.693h-7.764v.693l3.257.246V3090.6l-3.257.225v.692h7.764v-.692l-3.3-.225v-6.66h8.7v6.66l-3.3.225v.692h7.762v-.692l-3.279-.225Zm-9.9-41.816h4.952a3.288,3.288,0,0,1,3.525,3.508c0,2.124-1.16,3.734-3.346,3.734h-5.131Zm3.458,13.834-3.458-.223v-5.475h5.288c2.766,0,4.371-1.967,4.371-4.6a4.189,4.189,0,0,0-4.484-4.425h-9.614v.692l3.235.246v13.567l-3.235.223v.694h7.9Zm20.48,20.92v.648h6.313v-.626l-2.544-.223v-6.839a5.17,5.17,0,0,1,4.282-2.682,2.609,2.609,0,0,1,2.745,2.927v6.594l-2.588.223v.626h6.09v-.648l-2.386-.224v-6.682c0-2.034-.982-3.778-3.636-3.778a5.525,5.525,0,0,0-4.53,2.525v-2.391l-.625-.178a4.572,4.572,0,0,1-3.569,1.452v.47a5.017,5.017,0,0,0,3.1-.268v8.85Zm-23.938-13.857h5.2a3.466,3.466,0,1,1,.044,6.928h-5.243Zm3.458,13.813-3.458-.223v-5.745h4.595l3.258,6.66h4.082v-.692l-3.324-.336-2.766-5.632a4.2,4.2,0,0,0,4.149-4.449,4.138,4.138,0,0,0-4.417-4.29H511.289v.692l3.257.247v13.545l-3.257.223v.692h7.9Zm77.252-21.055v-6.683c0-2.033-.98-3.8-3.636-3.8a5.477,5.477,0,0,0-4.505,2.548v-2.414l-.624-.179a4.5,4.5,0,0,1-3.57,1.453v.492a5,5,0,0,0,3.1-.267v8.849l-2.654.223v.65h6.313v-.626l-2.543-.224v-6.84a5.189,5.189,0,0,1,4.26-2.7,2.625,2.625,0,0,1,2.743,2.95v6.593l-2.586.224v.626h6.09v-.65Zm-36.673,36.588c-1.451-.357-3.279-.85-3.279-2.436,0-1.051.757-1.99,2.676-1.99a3.562,3.562,0,0,1,3.414,2.168l.714,1.251.557-.111-.714-4.224h-.6l-.022,1.855a3.888,3.888,0,0,0-3.5-1.81c-2.231,0-3.569,1.251-3.569,2.882,0,2.258,2.564,2.95,4.1,3.353,2.1.536,3.525,1.05,3.525,2.57,0,1.342-1.139,2.145-2.856,2.145-1.785,0-2.9-.892-3.994-2.68l-.691-1.141-.58.111.737,4.36h.623l-.066-2.1a4.489,4.489,0,0,0,4.1,2.3c2.274,0,3.769-1.207,3.769-3.084,0-2.168-1.9-2.795-4.349-3.419m36.628-22.484c0-2.035-.846-3.689-3.211-3.689a4.875,4.875,0,0,0-4.173,2.436,2.88,2.88,0,0,0-3.055-2.436,5.1,5.1,0,0,0-4.082,2.459v-2.325l-.625-.178a4.641,4.641,0,0,1-3.57,1.452v.47a5.018,5.018,0,0,0,3.1-.291v8.873l-2.655.224v.648h5.822v-.626l-2.053-.223v-6.951a4.642,4.642,0,0,1,3.793-2.57c1.785,0,2.365,1.206,2.365,3.039v6.482l-2.186.223v.626h5.509v-.626l-2.208-.223v-6.616a3.076,3.076,0,0,0-.023-.448,4.365,4.365,0,0,1,3.748-2.457c1.808,0,2.387,1.23,2.387,3.018v6.5l-2.03.223v.626h5.578v-.626l-2.433-.246ZM577.187,3049.1v.65h6.357v-.65l-2.586-.223v-10.325l-.626-.2a4.667,4.667,0,0,1-3.592,1.453v.492a5.018,5.018,0,0,0,3.1-.291v8.873Zm-10.261,35.9c.333-2.391,1.85-3.933,4.037-3.933a3.651,3.651,0,0,1,3.7,3.933Zm4.058-4.827c-3.145,0-5.219,2.413-5.219,5.9s2.1,5.9,5.421,5.9c2.431,0,3.837-1.139,4.394-2.861l-.691-.246a3.517,3.517,0,0,1-3.569,2.213c-2.811,0-4.462-1.944-4.462-4.985v-.223h8.856a6.951,6.951,0,0,0,.023-.714,4.679,4.679,0,0,0-4.753-4.984m.8-9.992c-2.61,0-4.282-2.011-4.282-5.006,0-3.017,1.672-4.984,4.282-4.984,2.632,0,4.306,1.99,4.306,4.984s-1.674,5.006-4.306,5.006m0-10.884c-3.279,0-5.4,2.37-5.4,5.878,0,3.488,2.119,5.9,5.376,5.9,3.279,0,5.421-2.412,5.421-5.9,0-3.508-2.142-5.878-5.4-5.878M551.8,3080.3l-.625-.179a4.685,4.685,0,0,1-3.593,1.453v.491a4.958,4.958,0,0,0,3.079-.268v6.639a5.293,5.293,0,0,1-4.282,2.591,2.614,2.614,0,0,1-2.722-2.927v-7.8l-.6-.179a4.041,4.041,0,0,1-3.279,1.453v.491a4.464,4.464,0,0,0,2.767-.2v6.3c0,2.012.958,3.8,3.659,3.8a5.466,5.466,0,0,0,4.483-2.481l.022,2.258.068.044,3.48-.335v-.6H551.8Zm12.558-40.208v6.3c0,2.011.96,3.8,3.659,3.8a5.466,5.466,0,0,0,4.485-2.48l.022,2.257.067.045,3.479-.336v-.6h-2.454v-10.55l-.625-.179a4.664,4.664,0,0,1-3.591,1.453v.492a4.951,4.951,0,0,0,3.079-.267v6.636a5.292,5.292,0,0,1-4.284,2.593,2.614,2.614,0,0,1-2.721-2.928v-7.8l-.6-.179a4.031,4.031,0,0,1-3.279,1.453v.492a4.451,4.451,0,0,0,2.765-.2m-24.94-.066v8.849l-2.654.223v.65h6.313v-.626l-2.543-.224v-6.84a5.2,5.2,0,0,1,4.284-2.7,2.626,2.626,0,0,1,2.743,2.95v6.593l-2.588.224v.626h6.09v-.65l-2.387-.223v-6.683c0-2.033-.981-3.8-3.635-3.8a5.486,5.486,0,0,0-4.529,2.548v-2.414l-.624-.179a4.5,4.5,0,0,1-3.57,1.453v.492a5,5,0,0,0,3.1-.267m23.469,27.646a3.7,3.7,0,0,1-3.659,2.5c-2.522,0-4.016-1.922-4.016-4.961,0-2.973,1.673-5.029,4.239-5.029a3.787,3.787,0,0,1,3.436,2.011Zm-3.569-8.382c-3.124,0-5.221,2.436-5.221,5.968,0,3.464,1.851,5.81,4.953,5.81a4.24,4.24,0,0,0,3.859-2.145l.023,1.922.066.045,3.525-.336v-.6H564v-16.091l-.6-.179a4.328,4.328,0,0,1-3.547,1.9v.492a4.112,4.112,0,0,0,3.034-.512v5.452a4.277,4.277,0,0,0-3.569-1.722m-4.484-9.767,2.229.2c2.612.234,3.415.983,3.415,1.966,0,1.364-1.384,2.415-4.173,2.415-2.5,0-3.925-1.007-3.925-2.347,0-1.006.848-1.966,2.454-2.236m-1.829-6.951a3.346,3.346,0,0,1,6.691.045,3.209,3.209,0,0,1-3.368,3.264,3.287,3.287,0,0,1-3.323-3.309m-1.651,9.253c0,1.722,1.627,3.152,4.929,3.152,3.458,0,5.266-1.453,5.266-3.375,0-2.123-2.476-2.685-4.909-2.884-1.806-.155-3.48-.223-3.48-1.117,0-.446.446-.871,2.433-.871h.735a4.2,4.2,0,0,0,3.3-7.018c.155-2.033,1.94-1.028,1.94-2.078a.625.625,0,0,0-.714-.671,2.236,2.236,0,0,0-1.94,2.145,4.365,4.365,0,0,0-2.454-.715,4.162,4.162,0,0,0-4.484,4.135,4,4,0,0,0,2.074,3.621c-1.2.112-1.851.737-1.851,1.586,0,.6.379,1.185,1.384,1.52a2.8,2.8,0,0,0-2.231,2.57m-15.862,16.54a5.688,5.688,0,0,1-3.97,1.809c-1.317,0-2.409-.624-2.409-1.9,0-1.586,1.36-3.062,6.379-3.151Zm-7.473-.09c0,1.676,1.294,2.793,3.325,2.793a6.053,6.053,0,0,0,4.216-1.809,1.738,1.738,0,0,0,1.85,1.474,1.866,1.866,0,0,0,1.964-1.721l-.513-.223c-.178.693-.513,1.073-1.115,1.073-.782,0-1.139-.4-1.139-1.833v-4.85c0-2.235-.914-3.889-3.882-3.889a4.777,4.777,0,0,0-3.434,1.14,2.052,2.052,0,0,0-.782,1.385.629.629,0,0,0,.67.65c.535,0,.6-.514.915-1.1.379-.671.959-1.185,2.542-1.185a2.586,2.586,0,0,1,2.856,2.884v1.251c-4.773.045-7.473,1.408-7.473,3.956m52.335-32.14a.961.961,0,1,0,0-1.922.961.961,0,0,0,0,1.922m-49.435,3.152a3.654,3.654,0,0,1,3.7,3.933h-7.741c.333-2.391,1.851-3.933,4.037-3.933m.223,10.907c2.431,0,3.837-1.14,4.394-2.861l-.69-.246a3.52,3.52,0,0,1-3.57,2.213c-2.811,0-4.462-1.945-4.462-4.984v-.223h8.856a7.008,7.008,0,0,0,.023-.716,4.679,4.679,0,0,0-4.751-4.984c-3.146,0-5.221,2.414-5.221,5.9s2.1,5.9,5.421,5.9"/>
    <path id="Path_27965" data-name="Path 27965" d="M495.874,3034.288v57.229h1.182v-57.229Z" fill="#f26f21"/>
    <path id="Path_27966" data-name="Path 27966" d="M613.059,3034.288v57.229h1.183v-57.229Z" fill="#f26f21"/>
  </g>
</svg>
