<?xml version="1.0" encoding="UTF-8"?>
<svg id="Layer_1" data-name="Layer 1" xmlns="http://www.w3.org/2000/svg" viewBox="0 0 311.76 128.41">
  <defs>
    <style>
      .cls-1 {
        fill: #fff;
      }

      .cls-2 {
        fill: none;
      }

      .cls-3 {
        fill: #f47a22;
      }
    </style>
  </defs>
  <rect class="cls-2" x="-790.78" y="-502.42" width="1920" height="1080"/>
  <g>
    <path d="M45.5,0C1.83.09-.02,54.57,0,64.57c.05,30.35,12.42,63.91,45.74,63.84,33.32-.06,45.54-33.87,45.49-64.22C91.2,54.18,89.17-.08,45.5,0"/>
    <path d="M45.73,126.58c-31.65.07-40.19-33.59-40.24-62.43-.01-9.51-1.62-62.57,39.87-62.65,41.48-.08,40.35,53.26,40.37,62.76.05,28.84-8.34,62.26-39.99,62.32"/>
    <path class="cls-3" d="M45.73,126.58c-31.65.07-40.19-33.59-40.24-62.43-.01-9.51-1.62-62.57,39.87-62.65,41.48-.08,40.35,53.26,40.37,62.76.05,28.84-8.34,62.26-39.99,62.32"/>
    <path d="M66.6,49.63c-3.72-5.92-8.93-12.92-9.52-20.12-.37-4.52-.1-9.57-3.14-13.3-.88-1.09-2.13-2.09-3.37-2.73-1.33-.69-3.03-1.13-4.53-1.13-1.41,0-2.83.22-4.19.63-1.6.48-3.18,1.05-4.84,1.29-1.92.27-3.48.17-5.35-.24-1.12-.25-1.42-.34-2.54-.58-.61-.13-2.3-.62-2.82-.09-1.26,1.26,1.42,2.79,2.22,3.36,1.75,1.27,2.49,1.69,4.15,3.13,2.26,1.96,4.05,4.29,4.74,7.21.2.85.26,1.7.27,2.57.16,12.62-20.89,25-20.59,47.34.1,7.9,4.32,9.2,4.26,4.81-.07-5.2,1.78-10.82,3.69-15.64.45-1.12,1.86-1.45,1.54.48-.51,3.07-1.75,8.35-1.64,16.99.03,2.08.15,4.18.45,6.24.24,1.66.6,3.31,1.09,4.92.41,1.35.92,2.66,1.59,3.91.52.98,1.13,1.92,1.85,2.77.71.84,1.47,1.45,2.32,2.12.49.39,1.04.73,1.28,1.36.35.91-.81,1.28-1.42,1.55-.67.3-1.26.64-1.9.95-.91.45-1.81.91-2.7,1.41-.55.3-1.16.49-1.68.84-.52.35-.78.91.02,1.04.37.06.77-.04,1.15-.05.64-.03,1.32-.11,1.92.12.83.32.78,1.12.82,1.88.04.84.62,1.1,1.35.9.86-.24,1.46-.89,2.12-1.45.48-.41,1.01-.83,1.57-1.11,1.14-.56,2.49-.38,3.72-.31.67.04,1.64.32,2.18-.23.56-.56.16-1.53-.09-2.15-.24-.59-.53-1.16-.82-1.73-.14-.26-.32-.49-.44-.76-.48-1.1,3.36-1.94,3.91-2.09,1.86-.5,3.8-.93,5.72-1.1,1.82-.16,3.83-.16,5.55.55.73.3,1.34.83,1.82,1.45.28.35.91,1.38.35,1.79-.88.64-1.79,1.21-2.65,1.88-.54.43-1.07.87-1.53,1.39-.35.39-.44,1.08.26,1.04.92-.04,1.85-.1,2.78-.1.66,0,1.38.09,1.94.47.92.62,1.11,1.95,2.13,2.45.29.14.64.14.95.05.67-.2.98-.91,1.34-1.44.34-.5.68-.98,1.21-1.27.34-.18.71-.26,1.08-.26.68,0,1.37.02,2.04.09.54.06,1.27.31,1.74-.05.9-.69-1.46-2.24-1.93-2.54-1.08-.69-2.63-1.39-2.96-2.77-.39-1.63.42-3.32,1.09-4.75.72-1.52,1.7-2.92,2.26-4.51.52-1.47.91-2.99,1.13-4.53,1.18-8.46-.78-17.44-3.24-25.51-.3-.97-.67-1.92-.96-2.89-.43-1.52,1.05-1.88,1.8-.4.72,1.43,5.45,10.51,6.83,17.28.88,4.3,4.12,4.48,4.03-3.17-.13-11.07-4.31-19.08-9.42-27.23"/>
    <path class="cls-1" d="M62.7,82.97c.58,5.58,1.19,15.2-5.61,15.52-1.81.09-4.04-1.18-7.39-.95-5.67.38-7.36,2.55-11.99,1.72-2.65-.47-4.61-1.96-5.72-4.54-1.27-2.92-1.38-6.24-1.58-9.37-.22-3.51-.22-7.04,0-10.55.15-2.53.42-5.07.76-7.58.55-4.18,1.44-8.31,2.4-12.42.84-3.63,1.71-7.25,3.28-10.65,1.14-2.48,2.85-4.87,5.36-6.13,2.75-1.38,6.6-1.48,9.32-.09,6.12,3.14,5.97,10.45,6.16,16.4.15,4.58.73,9.27,1.55,13.78.92,5,2.95,9.76,3.47,14.84"/>
    <path class="cls-1" d="M52.8,21.68c1.25,1.47,1.18,7.53-.87,9.64-1.2,1.23-3.24,1.39-4.84,1.62-1.78.25-3.51.65-5.26,1.08-1.66.41-1.55-1.35.06-2.61,2.39-1.88,8.41-2.72,9.85-9.72.05-.27.35-.84,1.06,0"/>
    <path class="cls-1" d="M44.07,23.26c1.68,1.1,4.08.39,5.36-1.58,1.27-1.96.94-4.44-.74-5.53-1.68-1.09-4.08-.39-5.35,1.58-1.28,1.96-.94,4.44.74,5.53"/>
    <path d="M45.66,19.45c.63-.92,1.74-1.26,2.47-.76.73.5.82,1.65.2,2.57-.63.92-1.73,1.26-2.47.76-.73-.5-.82-1.65-.19-2.58"/>
    <path d="M189.68,117.26c-4.93,0-8.09-3.79-8.09-9.44s3.16-9.44,8.09-9.44,8.13,3.79,8.13,9.44-3.16,9.44-8.13,9.44M189.68,96.69c-6.19,0-10.2,4.51-10.2,11.13s4,11.13,10.15,11.13,10.24-4.55,10.24-11.13-4.04-11.13-10.2-11.13M173.5,90.79l6.19-.46v-1.31h-14.66v1.31l6.24.42v11.38h-16.43v-11.38l6.24-.42v-1.31h-14.66v1.31l6.15.46v25.58l-6.15.42v1.31h14.66v-1.31l-6.24-.42v-12.56h16.43v12.56l-6.24.42v1.31h14.66v-1.31l-6.19-.42v-25.58ZM154.79,11.93h9.36c4.13,0,6.66,2.66,6.66,6.62s-2.19,7.04-6.32,7.04h-9.69v-13.66ZM161.32,38.02l-6.53-.42v-10.33h9.99c5.23,0,8.26-3.71,8.26-8.68s-3.2-8.35-8.47-8.35h-18.16v1.31l6.11.46v25.58l-6.11.42v1.31h14.92v-1.31ZM200,77.47v1.22h11.92v-1.18l-4.8-.42v-12.9c1.73-2.91,4.76-5.06,8.09-5.06s5.18,2.15,5.18,5.52v12.43l-4.89.42v1.18h11.5v-1.22l-4.51-.42v-12.6c0-3.84-1.85-7.12-6.87-7.12-3.58,0-6.72,2.01-8.56,4.76v-4.51l-1.18-.34c-1.73,1.9-4,2.74-6.74,2.74v.88c2.02.38,4.17.34,5.86-.51v16.69l-5.01.42ZM154.79,51.34h9.82c4.17,0,6.83,2.53,6.83,6.41s-2.23,6.66-6.74,6.66h-9.9v-13.07ZM161.32,77.39l-6.53-.42v-10.83h8.68l6.15,12.56h7.71v-1.31l-6.28-.63-5.23-10.62c4.93-.25,7.84-3.79,7.84-8.39s-3.29-8.09-8.34-8.09h-18.92v1.31l6.15.46v25.54l-6.15.42v1.31h14.92v-1.31ZM307.25,37.68v-12.6c0-3.84-1.85-7.17-6.87-7.17-3.54,0-6.68,2.01-8.51,4.8v-4.55l-1.18-.34c-1.73,1.9-4,2.78-6.74,2.74v.93c2.02.38,4.17.34,5.86-.51v16.69l-5.02.42v1.22h11.93v-1.18l-4.8-.42v-12.9c1.73-2.91,4.76-5.1,8.05-5.1s5.18,2.19,5.18,5.56v12.43l-4.89.42v1.18h11.5v-1.22l-4.51-.42ZM237.97,106.68c-2.74-.67-6.19-1.6-6.19-4.59,0-1.98,1.43-3.75,5.06-3.75,3.24,0,4.93,1.43,6.45,4.09l1.35,2.36,1.05-.21-1.35-7.97h-1.14l-.04,3.5c-1.18-1.9-3.29-3.41-6.62-3.41-4.21,0-6.74,2.36-6.74,5.44,0,4.26,4.85,5.56,7.75,6.32,3.96,1.01,6.66,1.98,6.66,4.85,0,2.53-2.15,4.05-5.39,4.05s-5.48-1.69-7.54-5.06l-1.31-2.15-1.09.21,1.39,8.22h1.18l-.13-3.96c1.6,2.65,4.04,4.34,7.75,4.34,4.3,0,7.12-2.28,7.12-5.82,0-4.09-3.58-5.27-8.22-6.45M307.17,64.28c0-3.84-1.6-6.95-6.07-6.95-3.41,0-6.09,1.81-7.88,4.59-.58-2.57-2.28-4.59-5.77-4.59-3.08,0-5.96,1.97-7.71,4.64v-4.38l-1.18-.34c-1.77,1.9-4.04,2.74-6.74,2.74v.88c1.98.38,4.17.3,5.86-.55v16.73l-5.02.42v1.22h11v-1.18l-3.88-.42v-13.11c1.6-2.78,4.26-4.85,7.16-4.85,3.37,0,4.47,2.28,4.47,5.73v12.22l-4.13.42v1.18h10.41v-1.18l-4.17-.42v-12.48c0-.25,0-.55-.04-.84,1.77-2.99,4.21-4.64,7.08-4.64,3.41,0,4.51,2.32,4.51,5.69v12.26l-3.83.42v1.18h10.53v-1.18l-4.59-.46v-12.77ZM270.88,38.11v1.22h12.01v-1.22l-4.89-.42v-19.47l-1.18-.38c-1.81,1.9-4.13,2.78-6.78,2.74v.93c1.98.38,4.17.3,5.86-.55v16.73l-5.02.42ZM251.5,105.8c.63-4.51,3.5-7.42,7.63-7.42,3.41,0,6.87,2.23,6.99,7.42h-14.62ZM259.17,96.69c-5.94,0-9.86,4.55-9.86,11.13s3.96,11.13,10.24,11.13c4.59,0,7.25-2.15,8.3-5.39l-1.31-.46c-1.19,2.72-3.31,4.17-6.74,4.17-5.31,0-8.43-3.67-8.43-9.4v-.42h16.73c.04-.3.04-.97.04-1.35,0-4.64-2.91-9.4-8.98-9.4M260.69,77.85c-4.93,0-8.09-3.79-8.09-9.44s3.16-9.4,8.09-9.4,8.13,3.75,8.13,9.4-3.16,9.44-8.13,9.44M260.69,57.32c-6.19,0-10.2,4.47-10.2,11.08s4,11.13,10.16,11.13,10.24-4.55,10.24-11.13-4.05-11.08-10.2-11.08M222.93,96.94l-1.18-.34c-1.81,1.9-4.13,2.78-6.79,2.74v.93c1.98.38,4.13.34,5.82-.51v12.52c-1.77,2.78-4.8,4.89-8.09,4.89s-5.14-2.19-5.14-5.52v-14.71l-1.14-.34c-1.77,1.9-3.58,2.78-6.2,2.74v.93c1.77.38,3.71.34,5.23-.38v11.89c0,3.79,1.81,7.16,6.91,7.16,3.58,0,6.67-2,8.47-4.68l.04,4.26.13.08,6.57-.63v-1.14h-4.64v-19.89ZM246.65,21.12v11.89c0,3.79,1.81,7.16,6.91,7.16,3.58,0,6.67-2,8.47-4.68l.04,4.26.13.08,6.57-.63v-1.14h-4.64v-19.89l-1.18-.34c-1.81,1.9-4.13,2.78-6.79,2.74v.93c1.98.38,4.13.34,5.82-.51v12.52c-1.77,2.78-4.8,4.89-8.09,4.89s-5.14-2.19-5.14-5.52v-14.71l-1.14-.34c-1.77,1.9-3.58,2.78-6.19,2.74v.93c1.77.38,3.71.34,5.23-.38M199.54,20.99v16.69l-5.02.42v1.22h11.93v-1.18l-4.8-.42v-12.9c1.73-2.91,4.76-5.1,8.09-5.1s5.18,2.19,5.18,5.56v12.43l-4.89.42v1.18h11.5v-1.22l-4.51-.42v-12.6c0-3.84-1.85-7.17-6.87-7.17-3.58,0-6.72,2.01-8.55,4.8v-4.55l-1.18-.34c-1.73,1.9-4,2.78-6.74,2.74v.93c2.02.38,4.17.34,5.86-.51M243.87,73.13c-1.05,2.99-3.67,4.72-6.91,4.72-4.76,0-7.59-3.62-7.59-9.36s3.16-9.48,8.01-9.48c2.82,0,5.27,1.43,6.49,3.79v10.33ZM237.13,57.32c-5.9,0-9.86,4.59-9.86,11.25s3.5,10.96,9.35,10.96c3.2,0,5.91-1.5,7.29-4.05l.04,3.62.13.08,6.66-.63v-1.14h-4.76v-30.35l-1.14-.34c-1.84,2.37-4.09,3.62-6.7,3.58v.93c2.01.44,4.34,0,5.73-.96v10.28c-1.52-2.07-3.88-3.25-6.74-3.25M228.66,38.91l4.21.38c4.93.44,6.45,1.85,6.45,3.71,0,2.57-2.61,4.55-7.88,4.55-4.72,0-7.42-1.9-7.42-4.43,0-1.9,1.6-3.71,4.64-4.21M225.2,25.8c0-3.41,2.57-6.24,6.4-6.24s6.24,2.82,6.24,6.32c0,3.29-2.4,6.15-6.36,6.15-3.58,0-6.28-2.82-6.28-6.24M222.09,43.25c0,3.24,3.08,5.94,9.31,5.94s9.94-2.74,9.94-6.36c0-4-4.68-5.06-9.27-5.44-3.41-.29-6.57-.42-6.57-2.11,0-.84.84-1.64,4.59-1.64h1.39c5.06,0,8.3-3.46,8.3-7.92,0-2.02-.76-3.92-2.06-5.31.29-3.84,3.67-1.94,3.67-3.92,0-.84-.51-1.26-1.35-1.26-1.94,0-3.41,1.94-3.67,4.05-1.26-.84-2.82-1.35-4.64-1.35-5.14,0-8.47,3.46-8.47,7.8,0,3.16,1.6,5.56,3.92,6.83-2.28.21-3.5,1.39-3.5,2.99,0,1.14.72,2.23,2.61,2.87-2.44.63-4.21,2.61-4.21,4.85M192.12,74.44c-1.48,1.64-4.38,3.41-7.5,3.41-2.49,0-4.55-1.18-4.55-3.58,0-2.99,2.57-5.77,12.05-5.94v6.11ZM178.01,74.27c0,3.16,2.45,5.27,6.28,5.27,3.46,0,6.26-1.71,7.97-3.41.37,1.84,1.68,2.78,3.5,2.78,1.98,0,3.29-1.05,3.71-3.24l-.97-.42c-.34,1.31-.97,2.02-2.11,2.02-1.47,0-2.15-.76-2.15-3.46v-9.15c0-4.22-1.73-7.33-7.33-7.33-3.29,0-5.18.97-6.49,2.15-1.14,1.05-1.47,2.02-1.47,2.61,0,.72.51,1.22,1.26,1.22,1.01,0,1.14-.97,1.73-2.07.72-1.26,1.81-2.23,4.8-2.23,3.37,0,5.39,1.81,5.39,5.44v2.36c-9.02.08-14.12,2.65-14.12,7.46M276.87,13.66c1.01,0,1.85-.8,1.85-1.81s-.84-1.81-1.85-1.81-1.81.8-1.81,1.81.8,1.81,1.81,1.81M183.49,19.6c3.41,0,6.87,2.23,6.99,7.42h-14.62c.63-4.51,3.5-7.42,7.63-7.42M183.91,40.17c4.59,0,7.25-2.15,8.3-5.39l-1.31-.46c-1.19,2.72-3.31,4.17-6.74,4.17-5.31,0-8.43-3.67-8.43-9.4v-.42h16.73c.04-.29.04-.97.04-1.35,0-4.64-2.91-9.4-8.97-9.4s-9.86,4.55-9.86,11.13,3.96,11.13,10.24,11.13"/>
    <polygon points="117.87 120.21 119.56 120.21 119.56 64.26 119.56 8.22 117.87 8.22 117.87 64.24 117.87 120.21"/>
  </g>
</svg>