<?xml version="1.0" encoding="UTF-8"?><svg id="Layer_2" xmlns="http://www.w3.org/2000/svg" viewBox="0 0 146.24 41.67"><defs><style>.cls-1{fill:#fff;fill-rule:evenodd;stroke-width:0px;}</style></defs><g id="Layer_1-2"><g id="Logo_copy_Pepperfry_black_copy"><path id="Path_3846" class="cls-1" d="M8.6,18.64c2.79-.39,5.55.95,6.95,3.4,1.38,2.57,1.13,5.7-.64,8.02-2.51,2.85-6.8,3.27-9.82.96-2.99-2.47-3.41-6.9-.94-9.89,1.12-1.35,2.7-2.24,4.44-2.48ZM2.71,19.06v-2.87l-2.71.84v24.58l2.65-.85v-8.55c.18.13.35.29.48.48.47.43.98.8,1.54,1.12,4.52,2.67,10.34,1.17,13.01-3.35.89-1.51,1.35-3.23,1.32-4.98,0-3.76-2.27-7.15-5.73-8.6-2.82-1.18-6.03-.94-8.65.64-.7.43-1.34.94-1.91,1.54h0Z"/><path id="Path_3847" class="cls-1" d="M47.46,18.63c3.87-.39,7.32,2.43,7.71,6.3.19,1.86-.37,3.72-1.56,5.16-2.56,2.83-6.87,3.2-9.87.85-1.37-1.14-2.24-2.78-2.39-4.56-.53-3.73,2.07-7.19,5.8-7.71.1-.01.2-.03.3-.04h0ZM41.41,19.06v-2.92l-2.65.9v24.58l2.39-.74c.26-.11.21,0,.32-.21v-8.49c.26.11.64.64.9.85,4.09,3.29,10.07,2.63,13.36-1.45,3.29-4.09,2.63-10.07-1.45-13.36-3.48-2.79-8.43-2.79-11.9,0-.26.21-.69.74-.96.85h0Z"/><path id="Path_3848" class="cls-1" d="M68.27,18.63c3.77-.44,7.18,2.26,7.62,6.02,0,.08.02.16.02.24.18,1.91-.39,3.82-1.59,5.31-2.56,2.9-6.98,3.18-9.88.62-1.31-1.16-2.14-2.76-2.33-4.49-.22-1.91.36-3.83,1.59-5.31,1.14-1.37,2.79-2.23,4.57-2.39h0ZM62.21,19.06v-2.92l-2.65.85v24.58l2.65-.9v-8.6l.96.85c2.8,2.18,6.56,2.67,9.82,1.27,1.6-.67,2.96-1.8,3.93-3.24,3.02-4.32,1.97-10.27-2.35-13.29-3.09-2.16-7.16-2.3-10.39-.36-.7.53-1.36,1.12-1.96,1.75h0Z"/><path id="Path_3849" class="cls-1" d="M22.72,26.38c-.69-3.88,2.76-7.96,7.11-7.8.73,0,1.45.15,2.12.42.57.2,1.09.5,1.54.9-.22.26-4.72,2.87-5.42,3.29l-4.09,2.44c-.37.21-.85.53-1.27.74h0ZM35.62,33.02v-3.24l-1.27,1.01c-1.45,1.22-3.31,1.85-5.2,1.75-2.41-.14-4.55-1.56-5.63-3.72l13.96-8.33c-.2-.37-.45-.71-.74-1.01-3.38-3.98-9.35-4.46-13.33-1.08-3.98,3.38-4.46,9.35-1.08,13.33,1.97,2.32,4.95,3.55,7.98,3.3,1.02-.06,2.02-.29,2.97-.69.48-.21.8-.37,1.22-.58.39-.22.76-.47,1.12-.74h0Z"/><path id="Path_3850" class="cls-1" d="M82.97,26.38c-.45-3.83,2.29-7.3,6.12-7.76.35-.04.7-.06,1.05-.04,1.33.03,2.62.5,3.66,1.33-.18.2-.39.36-.64.48-1.27.69-9.87,5.89-10.19,6h0ZM95.92,33.07v-3.29c-.21.11-.05,0-.21.11-.8.66-1.65,1.27-2.55,1.8-2.31,1.25-5.13,1.09-7.27-.42-.88-.67-1.61-1.52-2.12-2.49.16-.21,9.34-5.57,10.46-6.26.53-.32,3.24-1.86,3.5-2.12-.46-.72-1.02-1.38-1.65-1.96-.64-.58-1.35-1.07-2.12-1.48-1.89-.92-4.05-1.17-6.1-.69-5.14,1.13-8.4,6.21-7.27,11.35.54,2.45,2.02,4.59,4.13,5.96,3.06,1.87,6.89,1.95,10.03.21.43-.21.8-.53,1.17-.69h0Z"/><path id="Path_3851" class="cls-1" d="M127.93,17.52c.45.99.97,1.94,1.54,2.87l4.67,8.55c1.91,3.45,1.8,2.6.9,4.35-.26.48-.48.96-.74,1.43-.48.9-2.76,5.26-2.97,5.84.32.25.68.44,1.06.58.37.21.76.39,1.17.53.32-.42,8.81-16.83,9.55-18.21.27-.48,3.08-5.79,3.13-6.16l-2.34-1.17c-.62,1.02-1.17,2.09-1.65,3.19-1.54,3.19-3.34,6.42-4.94,9.56-.32-.26-6.16-11.25-7.06-12.79l-2.33,1.43Z"/><path id="Path_3852" class="cls-1" d="M109.46,34.82l2.65-.85v-14.65h5.04v-2.55h-5.04V7.27c.11-2.28.9-3.66,2.87-4.35.68-.15,1.37-.26,2.07-.32V0c-1.47-.02-2.93.3-4.25.96-1.13.63-2.04,1.59-2.6,2.76-1.12,2.34-.8,6.85-.8,9.82v10.62c.05,3.5-.05,7.17.05,10.67h0Z"/><path id="Path_3853" class="cls-1" d="M121.62,17.84v-1.7l-2.65.85v17.78l2.65-.9c.05-3.24,0-6.58,0-9.87,0-1.96.58-4.25,2.49-4.88.75-.14,1.52-.23,2.28-.26v-2.87c-1.58-.06-3.12.45-4.35,1.43-.16.26-.16.32-.43.43h0Z"/><path id="Path_3854" class="cls-1" d="M101.82,17.84v-1.65l-2.65.85v17.78l2.71-.85c-.05-3.29,0-6.58,0-9.87-.09-1.38.3-2.75,1.12-3.88,1.01-1.12,1.75-1.27,3.72-1.22v-2.92c-1.37-.01-2.71.35-3.88,1.06-.36.19-.7.42-1.01.69Z"/></g></g></svg>