<svg xmlns="http://www.w3.org/2000/svg" width="146.248" height="41.709" viewBox="0 0 146.248 41.709">
  <g id="Logo_copy_Pepperfry_black_copy" data-name="Logo copy_Pepperfry black copy" transform="translate(0 -0.03)">
    <path id="Path_3846" data-name="Path 3846" d="M8.6,33a6.916,6.916,0,0,1,6.954,3.4,7.42,7.42,0,0,1-.637,8.016,7.229,7.229,0,0,1-9.821.956A7.026,7.026,0,0,1,8.6,33Zm-5.892.425V30.555L0,31.4V55.982l2.654-.849V46.586a2.041,2.041,0,0,1,.478.478,8.149,8.149,0,0,0,1.539,1.115A9.5,9.5,0,0,0,19,39.845a9.349,9.349,0,0,0-5.733-8.6,9.606,9.606,0,0,0-8.653.637,9.33,9.33,0,0,0-1.911,1.539Z" transform="translate(0 -14.297)" fill-rule="evenodd"/>
    <path id="Path_3847" data-name="Path 3847" d="M81.706,32.948a7.043,7.043,0,0,1,6.158,11.466,7.269,7.269,0,0,1-9.874.849A6.68,6.68,0,0,1,75.6,40.7a6.826,6.826,0,0,1,6.1-7.75Zm-6.052.425v-2.92l-2.654.9V55.934l2.389-.743c.265-.106.212,0,.318-.212V46.485c.265.106.637.637.9.849a9.5,9.5,0,1,0,0-14.811c-.265.212-.69.743-.956.849Z" transform="translate(-34.248 -14.249)" fill-rule="evenodd"/>
    <path id="Path_3848" data-name="Path 3848" d="M120.906,32.838A6.869,6.869,0,0,1,128.55,39.1a7.323,7.323,0,0,1-1.593,5.308,7,7,0,0,1-12.209-3.875,7.022,7.022,0,0,1,1.593-5.308,6.708,6.708,0,0,1,4.565-2.389Zm-6.052.425v-2.92l-2.654.849V55.77l2.654-.9v-8.6l.956.849a9.749,9.749,0,0,0,9.821,1.274,8.89,8.89,0,0,0,3.928-3.238,9.542,9.542,0,0,0-12.74-13.643,16.8,16.8,0,0,0-1.964,1.752Z" transform="translate(-52.639 -14.138)" fill-rule="evenodd"/>
    <path id="Path_3849" data-name="Path 3849" d="M40.441,40.687c-.69-3.875,2.76-7.963,7.113-7.8a5.612,5.612,0,0,1,2.123.425,4.718,4.718,0,0,1,1.539.9C51,34.476,46.492,37.078,45.8,37.5l-4.088,2.442c-.372.212-.849.531-1.274.743Zm12.9,6.636V44.085l-1.274,1.009a7.465,7.465,0,0,1-5.2,1.752,6.73,6.73,0,0,1-5.627-3.716L55.2,34.795a4.5,4.5,0,0,0-.743-1.009A9.458,9.458,0,1,0,48.032,49.34,9.027,9.027,0,0,0,51,48.65c.478-.212.8-.372,1.221-.584a10.144,10.144,0,0,0,1.115-.743Z" transform="translate(-17.72 -14.237)" fill-rule="evenodd"/>
    <path id="Path_3850" data-name="Path 3850" d="M154.008,40.632a6.984,6.984,0,0,1,7.166-7.8,6.106,6.106,0,0,1,3.663,1.327,2.005,2.005,0,0,1-.637.478c-1.274.69-9.874,5.892-10.192,6Zm12.953,6.689V44.03c-.212.106-.053,0-.212.106a20.3,20.3,0,0,1-2.548,1.8,6.9,6.9,0,0,1-7.273-.425,7.576,7.576,0,0,1-2.123-2.495c.159-.212,9.343-5.574,10.458-6.264.531-.319,3.238-1.858,3.5-2.123a10.084,10.084,0,0,0-1.646-1.964A10.755,10.755,0,0,0,165,31.183a9.162,9.162,0,0,0-6.1-.69A9.529,9.529,0,0,0,155.76,47.8a9.967,9.967,0,0,0,10.033.212c.425-.212.8-.531,1.168-.69Z" transform="translate(-71.037 -14.182)" fill-rule="evenodd"/>
    <path id="Path_3851" data-name="Path 3851" d="M241,31.833a25.769,25.769,0,0,0,1.539,2.867l4.671,8.547c1.911,3.45,1.8,2.6.9,4.353-.265.478-.478.956-.743,1.433-.478.9-2.76,5.255-2.973,5.839a4.148,4.148,0,0,0,1.062.584,7.337,7.337,0,0,0,1.168.531c.318-.425,8.812-16.828,9.555-18.208.265-.478,3.079-5.786,3.132-6.158l-2.336-1.168a25.332,25.332,0,0,0-1.646,3.185c-1.539,3.185-3.344,6.423-4.937,9.555-.319-.265-6.158-11.254-7.06-12.793L241,31.833Z" transform="translate(-113.066 -14.248)" fill-rule="evenodd"/>
    <path id="Path_3852" data-name="Path 3852" d="M206.116,34.89l2.654-.849V19.39h5.043V16.842H208.77V7.34c.106-2.283.9-3.663,2.867-4.353a16.457,16.457,0,0,1,2.07-.319V.067a9.257,9.257,0,0,0-4.247.956,6.241,6.241,0,0,0-2.6,2.76c-1.115,2.336-.8,6.848-.8,9.821V24.22c.053,3.5-.053,7.166.053,10.67Z" transform="translate(-96.656 0)" fill-rule="evenodd"/>
    <path id="Path_3853" data-name="Path 3853" d="M226.754,32.047v-1.7L224.1,31.2V48.981l2.654-.9c.053-3.238,0-6.582,0-9.874,0-1.964.584-4.247,2.495-4.884a16.711,16.711,0,0,1,2.283-.265V30.189a6.618,6.618,0,0,0-4.353,1.433c-.159.265-.159.319-.425.425Z" transform="translate(-105.138 -14.144)" fill-rule="evenodd"/>
    <path id="Path_3854" data-name="Path 3854" d="M189.454,32.152V30.506l-2.654.849V49.139l2.707-.849c-.053-3.291,0-6.582,0-9.874a5.905,5.905,0,0,1,1.115-3.875c1.009-1.115,1.752-1.274,3.716-1.221V30.4a7.314,7.314,0,0,0-3.875,1.062,5.517,5.517,0,0,0-1.009.69Z" transform="translate(-87.638 -14.248)" fill-rule="evenodd"/>
  </g>
</svg>
