<svg xmlns="http://www.w3.org/2000/svg" width="713.29" height="713.29" viewBox="0 0 713.29 713.29">
  <g id="Group_987" data-name="Group 987" transform="translate(-791.24 -448.91)">
    <g id="Group_799" data-name="Group 799">
      <path id="Path_4039" data-name="Path 4039" d="M1476.5,666.73a356.354,356.354,0,0,0-328.61-217.82,359.56,359.56,0,0,0-55.25,4.24l1.62,11.93a344.9,344.9,0,0,1,53.63-4.17c190.04,0,344.64,154.61,344.64,344.65s-154.6,344.64-344.64,344.64S803.24,995.6,803.24,805.56A342.469,342.469,0,0,1,832.78,666l-1.3-.48-5.43-13.84q-3.555,7.425-6.78,15.05a356.645,356.645,0,1,0,657.23,0Z" fill="#f8bece"/>
    </g>
    <path id="Path_4041" data-name="Path 4041" d="M1094.26,465.08C977.18,483.45,879.47,560.97,832.78,666l-1.3-.48-5.43-13.84a356.5,356.5,0,0,1,266.59-198.53Z" fill="#fff"/>
  </g>
</svg>
