<svg xmlns="http://www.w3.org/2000/svg" width="94.53" height="34.007" viewBox="0 0 94.53 34.007">
  <g id="Group_13669" data-name="Group 13669" transform="translate(-3984.607 -258.537)">
    <path id="Path_24177" data-name="Path 24177" d="M4040.214,335.906a13.848,13.848,0,0,1-9.363-3.653,13.627,13.627,0,0,1-3.391-4.79,2.216,2.216,0,0,1,1.162-2.948,2.192,2.192,0,0,1,2.889,1.146,9.9,9.9,0,0,0,2.041,3.034,9.042,9.042,0,0,0,4.5,2.5,9.262,9.262,0,0,0,8.522-2.208,8.724,8.724,0,0,0,2.262-3.141,2.3,2.3,0,0,1,1.611-1.489,2.212,2.212,0,0,1,2.605,2.911,11.887,11.887,0,0,1-1.487,2.747,14.036,14.036,0,0,1-11.355,5.891Z" transform="translate(-28.136 -43.363)" fill="#e41d36"/>
    <path id="Path_24178" data-name="Path 24178" d="M4119.677,278.852a6.935,6.935,0,0,1,5.761,2.76,6.662,6.662,0,0,1-1.59,9.565,7.56,7.56,0,0,1-8.927-.428,6.483,6.483,0,0,1-2.344-4.506,6.86,6.86,0,0,1,5.788-7.288A7.145,7.145,0,0,1,4119.677,278.852Zm-2.893,6.9a2.527,2.527,0,0,0,.055.622,2.83,2.83,0,0,0,1.933,2.293,2.766,2.766,0,0,0,2.921-.669,3.259,3.259,0,0,0-.419-4.837,2.64,2.64,0,0,0-2.028-.463A2.957,2.957,0,0,0,4116.784,285.75Z" transform="translate(-84.379 -13.397)"/>
    <path id="Path_24179" data-name="Path 24179" d="M4176.153,283.875c0,1.035.012,1.881,0,2.726a10.6,10.6,0,0,1-.219,2.07,4.485,4.485,0,0,1-3.115,3.467,9.878,9.878,0,0,1-2.849.5,10.19,10.19,0,0,1-3.263-.38,4.71,4.71,0,0,1-3.587-4.174,10.133,10.133,0,0,1-.1-1.51c0-1.732,0-3.464,0-5.2a2.15,2.15,0,1,1,4.3-.029c.013,1.691,0,3.381.005,5.071a2.174,2.174,0,0,0,1.659,2.207,2.215,2.215,0,0,0,2.793-1.859,6.219,6.219,0,0,0,.039-.693c0-1.558-.006-3.116,0-4.674a2.208,2.208,0,0,1,2.3-2.221,2.157,2.157,0,0,1,2,1.854C4176.209,282.043,4176.124,283.055,4176.153,283.875Z" transform="translate(-117.659 -13.614)"/>
    <path id="Path_24180" data-name="Path 24180" d="M3989.012,267.607v6.712c0,.343,0,.343.339.343,1.607,0,3.214.027,4.821-.01a1.826,1.826,0,0,1,1.951,1.787,2.065,2.065,0,0,1-.5,1.749,1.875,1.875,0,0,1-1.435.567q-3.5.006-7.007,0a2.433,2.433,0,0,1-2.573-2.441q0-7.743,0-15.487a2.257,2.257,0,0,1,1.336-2.09,1.946,1.946,0,0,1,2.183.339,2.341,2.341,0,0,1,.881,1.894C3989.008,263.182,3989.012,265.394,3989.012,267.607Z" transform="translate(0 0)"/>
    <path id="Path_24181" data-name="Path 24181" d="M4216.537,279.148a8.554,8.554,0,0,1,3.964.792,2.886,2.886,0,0,1,.654.447,1.366,1.366,0,0,1,.417,1.469,1.429,1.429,0,0,1-1.144,1.052,3.159,3.159,0,0,1-1.328-.077c-.73-.146-1.437-.4-2.177-.5a1.6,1.6,0,0,0-.948.113.609.609,0,0,0-.176,1.042,1.4,1.4,0,0,0,.573.338c.855.287,1.717.555,2.567.857a4.739,4.739,0,0,1,2.374,1.6,3.535,3.535,0,0,1-.679,4.841,5.589,5.589,0,0,1-3.312,1.317,11.587,11.587,0,0,1-4.13-.386,4.79,4.79,0,0,1-2.055-1.165,1.577,1.577,0,0,1-.153-2.291,1.907,1.907,0,0,1,1.77-.571,13.481,13.481,0,0,1,2.145.617,8.414,8.414,0,0,0,1.283.287,1.452,1.452,0,0,0,.59-.049.61.61,0,0,0,.451-.857,1.12,1.12,0,0,0-.736-.687c-.544-.206-1.121-.294-1.676-.456a11.149,11.149,0,0,1-2-.737,3.251,3.251,0,0,1-1.265-4.694,4.939,4.939,0,0,1,3.063-2.052A7.265,7.265,0,0,1,4216.537,279.148Z" transform="translate(-149.019 -13.592)"/>
    <path id="Path_24182" data-name="Path 24182" d="M4056.166,292.824a7.147,7.147,0,0,1-4.449-1.313,6.775,6.775,0,0,1-.091-10.623,5.735,5.735,0,0,1,3.453-1.3,8.507,8.507,0,0,1,3.314.34,3.418,3.418,0,0,1,1.113.592,2.2,2.2,0,0,1,.813,1.937,1.627,1.627,0,0,1-1.867,1.344c-.674-.132-1.329-.362-2.012-.439a2.773,2.773,0,0,0-2.917,1.224,2.866,2.866,0,0,0,.028,3.261,2.682,2.682,0,0,0,2.685,1.2,10.527,10.527,0,0,0,1.507-.3,2.834,2.834,0,0,1,1.007-.107,1.731,1.731,0,0,1,1.623,1.756,1.757,1.757,0,0,1-.993,1.724,5.149,5.149,0,0,1-2.008.6C4056.921,292.778,4056.466,292.8,4056.166,292.824Z" transform="translate(-42.53 -13.864)"/>
    <path id="Path_24183" data-name="Path 24183" d="M4095.244,285.9q0,2.25,0,4.5a2.175,2.175,0,0,1-4.351.023q-.011-4.536,0-9.073a2.16,2.16,0,0,1,2.186-2.172,2.187,2.187,0,0,1,2.165,2.2Q4095.245,283.641,4095.244,285.9Z" transform="translate(-70.093 -13.615)"/>
    <path id="Path_24184" data-name="Path 24184" d="M4027.377,285.872c0-1.5,0-3,0-4.5a2.141,2.141,0,0,1,1.809-2.167,2.2,2.2,0,0,1,2.4,1.39,1.908,1.908,0,0,1,.141.7c0,3.057.01,6.115,0,9.172a2.18,2.18,0,0,1-4.32.346,2.737,2.737,0,0,1-.028-.495Q4027.376,288.1,4027.377,285.872Z" transform="translate(-28.206 -13.609)"/>
    <path id="Path_24185" data-name="Path 24185" d="M4090.9,261.4a2.162,2.162,0,0,1,2.147-2.181,2.184,2.184,0,1,1,.018,4.369A2.164,2.164,0,0,1,4090.9,261.4Z" transform="translate(-70.1 -0.447)" fill="#e41d36"/>
    <path id="Path_24186" data-name="Path 24186" d="M4027.392,261.4a2.174,2.174,0,0,1,2.157-2.179,2.184,2.184,0,0,1,.013,4.369A2.176,2.176,0,0,1,4027.392,261.4Z" transform="translate(-28.217 -0.448)" fill="#e41d36"/>
    <path id="Path_24187" data-name="Path 24187" d="M4199.02,333.6c-.115.044-.141.157-.2.243-.2.321-.4.646-.6.97s-.291.336-.494.009c-.213-.345-.427-.689-.643-1.032-.042-.067-.066-.154-.156-.189-.079.075-.044.172-.046.257,0,.406,0,.811,0,1.217,0,.339-.039.374-.367.376-.182,0-.364,0-.546,0-.165,0-.245-.071-.245-.237q0-1.764,0-3.528c0-.179.084-.258.26-.248.017,0,.033,0,.05,0,.9.017.676-.13,1.193.618.2.293.406.586.6.883.1.156.186.161.292,0,.275-.413.564-.818.835-1.234a.514.514,0,0,1,.513-.272,3.886,3.886,0,0,0,.5,0c.193-.007.266.085.266.27q0,1.739,0,3.478c0,.188-.078.273-.269.267s-.4-.01-.6,0c-.22.012-.3-.1-.3-.3,0-.43,0-.861,0-1.291C4199.061,333.773,4199.091,333.678,4199.02,333.6Z" transform="translate(-139.231 -48.072)"/>
    <path id="Path_24188" data-name="Path 24188" d="M4150.942,333.334v-.539c0-.4.01-.8,0-1.192-.008-.237.079-.334.317-.316a5.3,5.3,0,0,0,.545,0c.175-.005.266.067.265.246q0,1.789,0,3.577a.209.209,0,0,1-.245.239c-.025,0-.049,0-.075,0-.938-.018-.71.14-1.265-.638q-.445-.627-.894-1.253c-.042-.059-.089-.114-.137-.174-.106.078-.063.177-.064.258,0,.5-.007,1.01,0,1.515,0,.211-.078.305-.293.293a4.8,4.8,0,0,0-.546,0c-.216.013-.292-.077-.291-.291.006-1.01,0-2.02,0-3.031,0-.157.007-.315,0-.472-.011-.206.083-.278.282-.273,1.036.024.736-.145,1.325.665.287.395.564.8.848,1.2.051.072.107.141.16.212Z" transform="translate(-107.927 -47.978)"/>
    <path id="Path_24189" data-name="Path 24189" d="M4112.1,333.315c0-.555,0-1.109,0-1.664,0-.32.043-.359.357-.359.563,0,1.125-.01,1.688,0a1.09,1.09,0,0,1,1.152,1.156.9.9,0,0,1-.288.613c-.079.08-.135.141-.008.234a1.061,1.061,0,0,1,.356,1.287,1.047,1.047,0,0,1-1.031.756c-.66.033-1.323.01-1.985.012-.229,0-.24-.162-.24-.326C4112.1,334.457,4112.1,333.886,4112.1,333.315Zm1.586,1.014a2.228,2.228,0,0,0,.256-.02c.139-.026.259-.1.263-.253a.263.263,0,0,0-.247-.266,2.3,2.3,0,0,0-.393-.024c-.267,0-.379.158-.294.4C4113.341,334.376,4113.524,334.31,4113.687,334.33Zm-.041-2v0c-.049,0-.1,0-.148,0a.22.22,0,0,0-.239.248c0,.176.081.259.251.26a1.987,1.987,0,0,0,.319-.011.245.245,0,0,0,.238-.264c-.007-.149-.121-.2-.25-.228A.955.955,0,0,0,4113.646,332.327Z" transform="translate(-84.082 -47.98)"/>
    <path id="Path_24190" data-name="Path 24190" d="M4136.726,333.318c0-.563,0-1.125,0-1.688,0-.317.016-.332.342-.333q.781,0,1.563,0a1.343,1.343,0,0,1,1.314.873,1.547,1.547,0,0,1-.347,1.673c-.175.15-.156.251-.029.405.214.263.415.536.622.805.049.065.114.135.077.223-.045.108-.153.083-.239.081-1.245-.028-.841.2-1.61-.8a1.756,1.756,0,0,0-.222-.264.21.21,0,0,0-.252-.046.218.218,0,0,0-.093.216c0,.215,0,.43,0,.645,0,.176-.078.258-.257.253-.2-.005-.4-.009-.6,0s-.277-.081-.274-.281C4136.73,334.494,4136.726,333.906,4136.726,333.318Zm1.567-.221h0c.082,0,.165.007.247,0a.355.355,0,0,0,.306-.548.835.835,0,0,0-.935-.153.185.185,0,0,0-.051.107c-.006.148-.007.3,0,.444a.151.151,0,0,0,.164.149C4138.111,333.1,4138.2,333.1,4138.292,333.1Z" transform="translate(-100.322 -47.985)"/>
    <path id="Path_24191" data-name="Path 24191" d="M4124.976,335.315a2.081,2.081,0,1,1,2.1-2.066A2.082,2.082,0,0,1,4124.976,335.315Zm.937-2.085a.944.944,0,1,0-.95,1.02A.962.962,0,0,0,4125.913,333.23Z" transform="translate(-91.185 -47.89)"/>
    <path id="Path_24192" data-name="Path 24192" d="M4178.538,335.3a2.086,2.086,0,0,1-2.092-2.075,2.1,2.1,0,0,1,4.206,0A2.077,2.077,0,0,1,4178.538,335.3Zm.953-2.075a.943.943,0,1,0-.959,1.01A.962.962,0,0,0,4179.49,333.221Z" transform="translate(-126.519 -47.871)"/>
    <path id="Path_24193" data-name="Path 24193" d="M4211.377,333.315c0-.555,0-1.109,0-1.664,0-.318.041-.352.362-.353q1.217,0,2.434,0c.287,0,.333.043.337.329.013.841,0,.688-.662.7-.348.005-.7,0-1.043,0-.167,0-.266.056-.271.242s.09.27.271.27c.389,0,.778.009,1.167,0,.229-.006.308.088.305.309-.01.84.078.714-.707.723-.249,0-.5,0-.745,0-.155,0-.285.023-.289.22s.132.242.3.242c.455,0,.91.009,1.365,0,.23-.006.311.1.313.31.008.878.01.713-.691.721s-1.407,0-2.111,0c-.287,0-.331-.04-.333-.331C4211.375,334.457,4211.377,333.886,4211.377,333.315Z" transform="translate(-149.556 -47.986)"/>
    <path id="Path_24194" data-name="Path 24194" d="M4224.775,335.454a2.281,2.281,0,0,0-.273,0,.41.41,0,0,1-.495-.305.36.36,0,0,0-.39-.243c-.265,0-.53,0-.794,0a.377.377,0,0,0-.406.259.413.413,0,0,1-.481.292c-.213-.017-.43,0-.645,0-.276-.005-.315-.068-.2-.344q.566-1.324,1.139-2.646c.115-.266.232-.531.345-.8a.33.33,0,0,1,.345-.226c1,.022.765-.153,1.153.729.424.962.834,1.93,1.251,2.9.146.338.113.388-.253.39Zm-1.555-2.307c-.082.188-.136.307-.185.427-.137.332-.1.376.265.354.154-.009.218-.059.153-.215S4223.315,333.38,4223.22,333.147Z" transform="translate(-155.923 -48.079)"/>
    <path id="Path_24195" data-name="Path 24195" d="M4254.534,271.762c.148-.557.306-1.112.439-1.672.054-.223.145-.31.385-.305.74.013.741,0,.741.751s-.01,1.492,0,2.237c.005.271-.134.287-.341.287s-.347-.012-.339-.286c.017-.634.005-1.268-.023-1.906-.16.632-.337,1.261-.474,1.9-.06.283-.22.288-.444.3a.325.325,0,0,1-.393-.3c-.135-.6-.294-1.2-.484-1.8,0,.582,0,1.164,0,1.747,0,.111.046.263-.082.314a.793.793,0,0,1-.512,0c-.085-.025-.069-.124-.069-.2,0-.945,0-1.889,0-2.834,0-.146.053-.219.2-.207h.025c.776-.034.778-.034.983.71.116.42.226.841.338,1.262Z" transform="translate(-176.967 -7.415)"/>
    <path id="Path_24196" data-name="Path 24196" d="M4168.3,331.291c.422,0,.845.009,1.267,0,.229-.007.326.063.325.309,0,.711.007.719-.7.72-.241,0-.318.094-.315.326.008.779,0,1.558,0,2.336,0,.341-.035.374-.365.376-.157,0-.316-.01-.472,0-.237.017-.327-.084-.325-.318.006-.779,0-1.558,0-2.336,0-.365-.016-.378-.378-.381-.707-.007-.663.1-.661-.671,0-.327.031-.357.353-.358Q4167.667,331.289,4168.3,331.291Z" transform="translate(-120.078 -47.979)"/>
    <path id="Path_24197" data-name="Path 24197" d="M4234.134,331.294c.439,0,.877.006,1.316,0,.2,0,.293.067.282.274-.009.174-.006.348,0,.522s-.076.241-.241.236c-.141,0-.282,0-.423,0-.317,0-.345.027-.345.337,0,.754,0,1.508,0,2.262,0,.419-.016.437-.431.433-.8-.007-.726.112-.728-.729,0-.663-.007-1.326,0-1.988,0-.24-.09-.332-.323-.317-.166.011-.332,0-.5,0a.2.2,0,0,1-.22-.214c0-.017,0-.033,0-.05,0-.9-.078-.752.715-.764C4233.538,331.29,4233.836,331.293,4234.134,331.294Z" transform="translate(-163.502 -47.982)"/>
    <path id="Path_24198" data-name="Path 24198" d="M4245.516,271.721c0,.365-.007.729,0,1.094,0,.187-.056.286-.255.264a.2.2,0,0,0-.025,0c-.442.009-.442.009-.442-.424,0-.663-.006-1.325,0-1.988,0-.2-.056-.295-.268-.272a3.1,3.1,0,0,1-.347,0c-.317,0-.429-.167-.33-.473.03-.093.1-.106.172-.106q1.131,0,2.26,0c.213,0,.169.164.169.288s.043.286-.169.288c-.182,0-.365.011-.546,0s-.231.065-.228.234C4245.521,270.992,4245.516,271.357,4245.516,271.721Z" transform="translate(-170.953 -7.439)"/>
  </g>
</svg>
