<svg xmlns="http://www.w3.org/2000/svg" width="53.561" height="53.561" viewBox="0 0 53.561 53.561">
  <g id="Group_13670" data-name="Group 13670" transform="translate(-2014.297 -3577.716)">
    <circle id="Ellipse_4" data-name="Ellipse 4" cx="26.78" cy="26.78" r="26.78" transform="translate(2014.297 3577.716)" fill="#fff"/>
    <g id="Group_13683" data-name="Group 13683" transform="translate(1849.047 3584.535)">
      <path id="Path_4009" data-name="Path 4009" d="M186.876,14.181H184.4V25.953h2.479Zm-4.75,0h-2.479V25.953h2.479Zm-6.7,8.261c0,1.563-.833,1.813-1.906,1.813h-.865V20.7h.865c1.334,0,1.906.438,1.906,1.74m-.094-5.021c0,1.271-.614,1.646-1.812,1.625l-.865-.021V15.89h.917c1.021,0,1.76.26,1.76,1.531m2.542,5.292c0-1.73-.552-2.667-2.2-2.949a2.35,2.35,0,0,0,2.031-2.667c0-2.365-1.448-2.917-3.406-2.917H170.25V25.953h3.532c2.375,0,4.094-.417,4.094-3.239" fill="#de2c34"/>
      <path id="Path_4010" data-name="Path 4010" d="M240.936,37.139c0-.375-.3-.49-.6-.563-.073-.021-.146-.031-.219-.052a.62.62,0,0,1-.2-.063c-.115-.041-.177-.1-.177-.208,0-.156.156-.219.292-.219a.293.293,0,0,1,.3.313h.552c-.031-.479-.417-.635-.844-.635-.375,0-.833.125-.833.594,0,.364.292.479.584.552.073.021.146.031.208.052a.8.8,0,0,1,.188.062c.1.042.187.1.187.219a.294.294,0,0,1-.323.261c-.229,0-.323-.125-.333-.344h-.573c0,.532.417.677.875.677.417,0,.917-.135.917-.646m-2.052-.99v-.375h-.458v-.552l-.552.23v.323H237.5v.375h.375v1.084c0,.427.208.521.6.521a2.676,2.676,0,0,0,.406-.032v-.364c-.062,0-.125.01-.177.01-.261,0-.271-.1-.271-.333V36.15Zm-1.646,1.583v-1.26a.636.636,0,0,0-.708-.718.747.747,0,0,0-.646.333l-.01-.3h-.563c.01.135.01.26.01.386v1.562h.563v-.979c0-.219.052-.615.406-.615s.364.3.364.573v1.031h.584Zm-2.771-1.2h-.854a.435.435,0,0,1,.448-.479c.271,0,.406.188.406.479m.542.333a1.475,1.475,0,0,0-.083-.615.862.862,0,0,0-.865-.521.941.941,0,0,0-1.01,1.063.9.9,0,0,0,.989.99c.459,0,.875-.167.948-.677h-.552a.359.359,0,0,1-.4.344c-.333,0-.448-.281-.448-.573h1.417Zm-2.281.865V36.525c0-.458-.2-.771-.7-.771a.769.769,0,0,0-.7.375.6.6,0,0,0-.615-.375.719.719,0,0,0-.656.333l-.01-.3H229.5c.01.219.01.437.01.646v1.3h.562V36.65c0-.271.094-.521.406-.521s.365.261.365.521v1.083h.562V36.66c0-.271.063-.531.4-.531s.364.25.364.511v1.094Zm-3.594-1.583v-.375h-.458v-.552l-.552.23v.323h-.375v.375h.375v1.084c0,.427.208.521.6.521a2.675,2.675,0,0,0,.406-.032v-.364c-.062,0-.125.01-.177.01-.261,0-.271-.1-.271-.333V36.15Zm-1.531.99c0-.375-.3-.49-.6-.563-.073-.021-.146-.031-.219-.052a.62.62,0,0,1-.2-.063c-.115-.041-.177-.1-.177-.208,0-.156.156-.219.292-.219a.293.293,0,0,1,.3.313h.552c-.031-.479-.417-.635-.844-.635-.375,0-.833.125-.833.594,0,.364.292.479.584.552.073.021.146.031.208.052a.8.8,0,0,1,.188.062c.1.042.187.1.187.219a.294.294,0,0,1-.323.261c-.229,0-.323-.125-.333-.344h-.573c0,.532.417.677.875.677.427,0,.917-.135.917-.646m-2.615-.6h-.854a.435.435,0,0,1,.448-.479c.271,0,.406.188.406.479m.552.333a1.468,1.468,0,0,0-.083-.615.861.861,0,0,0-.865-.521.941.941,0,0,0-1.01,1.063.9.9,0,0,0,.989.99c.458,0,.875-.167.948-.677h-.552a.36.36,0,0,1-.4.344c-.333,0-.448-.281-.448-.573h1.417ZM223.5,35.785h-.552l-.531,1.51-.51-1.51h-.6l.791,1.948h.615Zm-2.4,1.948v-1.26a.636.636,0,0,0-.708-.718.747.747,0,0,0-.646.333l-.01-.3h-.562c.01.135.01.26.01.386v1.562h.562v-.979c0-.219.052-.615.406-.615s.364.3.364.573v1.031h.584Zm-2.459-2.8h-.6v2.8h.6Z" transform="translate(-27.131 -11.78)" fill="#192853"/>
      <path id="Path_4011" data-name="Path 4011" d="M226.206,26.43c0,.292-.063.615-.428.615a.3.3,0,0,1-.313-.292c0-.3.365-.364.6-.364h.146v.042Zm.583.906a4.868,4.868,0,0,1-.031-.667v-.583c0-.635-.323-.761-.854-.761-.406,0-.865.136-.875.615h.573a.27.27,0,0,1,.3-.3c.25,0,.291.2.291.406v.073h-.156c-.448,0-1.146.052-1.146.667,0,.406.3.594.677.594a.675.675,0,0,0,.625-.3,1.227,1.227,0,0,0,.042.271h.552Zm-2.229-1.948H224v1.959h.563Zm.01-.844h-.584v.448h.584Zm-1.625,1.813c0,.281-.1.656-.448.656-.375,0-.458-.364-.458-.667s.083-.646.427-.646c.364,0,.479.354.479.656m.573.98a4.467,4.467,0,0,1-.021-.521V24.544h-.563v1.094a.743.743,0,0,0-.635-.291c-.6,0-.844.531-.844,1.021,0,.542.271,1.011.865,1.011a.7.7,0,0,0,.6-.3l.021.261Zm-2.417,0v-1.26a.636.636,0,0,0-.708-.719.747.747,0,0,0-.646.333l-.01-.3h-.562c.01.135.01.26.01.386v1.563h.562v-.98c0-.219.052-.615.406-.615s.364.3.364.573v1.031h.584Zm-2.459-2.792h-.6v2.8h.6Z" transform="translate(-27.131 -5.883)" fill="#192853"/>
      <path id="Path_4012" data-name="Path 4012" d="M239.519,16.983V15.764c0-.479-.187-.76-.7-.76a.728.728,0,0,0-.635.333l-.01-.313h-.334c0,.115.01.333.01.5v1.448h.344v-.979c0-.365.115-.74.542-.74s.448.291.448.635v1.083h.333Zm-2.25,0V15.764c0-.479-.188-.76-.7-.76a.729.729,0,0,0-.635.333l-.01-.313h-.333c0,.115.01.333.01.5v1.448h.344v-.979c0-.365.115-.74.542-.74s.448.291.448.635v1.083h.333ZM234.717,16c0,.4-.052.791-.542.791a.379.379,0,0,1-.427-.364c0-.4.5-.437.792-.437.062,0,.094.01.177.01m.364.979a2.167,2.167,0,0,1-.063-.573v-.719c0-.511-.239-.7-.74-.7-.364,0-.708.135-.729.562h.334c.021-.26.166-.344.406-.344.323,0,.427.167.427.469V15.8h-.2c-.479,0-1.115.073-1.115.656,0,.4.323.583.688.583a.753.753,0,0,0,.667-.313c.01.094.021.177.031.271h.292Zm-2.084,0V15.837c0-.479-.135-.833-.677-.833a.688.688,0,0,0-.677.406.6.6,0,0,0-.625-.406.671.671,0,0,0-.614.344l-.011-.323h-.333c0,.23.01.448.01.667v1.281h.344V15.9c0-.323.146-.635.51-.635s.448.271.448.583v1.136h.344V15.9c0-.354.125-.635.51-.635.364,0,.448.25.448.562v1.156Zm-3.334-.573c0-.354-.291-.469-.583-.542a1.82,1.82,0,0,1-.406-.125.267.267,0,0,1-.177-.239c0-.208.23-.292.406-.292a.356.356,0,0,1,.386.365h.333c-.01-.427-.323-.594-.719-.594-.344,0-.74.146-.74.552,0,.344.3.469.584.542a1.612,1.612,0,0,1,.4.125.284.284,0,0,1,.177.26c0,.229-.239.333-.437.333a.384.384,0,0,1-.437-.4H228.1c0,.469.344.635.76.635.385-.01.8-.177.8-.625m-2-2.23h-.344v2.8h.344Zm-1.083,1.656H225.5c.031-.323.208-.615.573-.615s.51.3.51.615m.333.229c0-.573-.188-1.073-.844-1.073-.635,0-.927.458-.927,1.042a.867.867,0,0,0,.906.989.772.772,0,0,0,.854-.677h-.323a.49.49,0,0,1-.5.448.61.61,0,0,1-.583-.687v-.042Zm-2.031.906v-.261c-.063,0-.125.021-.177.021-.25,0-.271-.1-.271-.323V15.265h.437v-.24h-.437V14.5l-.344.146v.375h-.385v.24h.385v1.281c0,.323.167.448.479.448a1.583,1.583,0,0,0,.313-.021m-1.323-1.636v-.313c-.042,0-.073-.01-.1-.01a.622.622,0,0,0-.593.323l-.01-.313h-.334c0,.188.011.386.011.573v1.385h.344V15.931c0-.375.135-.6.531-.6.041,0,.094.01.156.01m-1.781.5H220.7c.031-.323.208-.615.573-.615.344,0,.511.3.511.615m.334.229c0-.573-.188-1.073-.844-1.073-.635,0-.927.458-.927,1.042a.867.867,0,0,0,.906.989.772.772,0,0,0,.854-.677h-.323a.49.49,0,0,1-.5.448.61.61,0,0,1-.584-.687v-.042Zm-2.469.115c0,.469-.406.511-.771.511h-.479V15.671h.594c.364,0,.656.1.656.511m-.1-1.271c0,.365-.281.49-.6.49h-.542v-.938h.594c.292.01.552.125.552.448m.49,1.292a.663.663,0,0,0-.635-.688.613.613,0,0,0,.521-.635c0-.511-.448-.7-.886-.7h-.989v2.8h.938c.521,0,1.052-.156,1.052-.781" transform="translate(-27.131)" fill="#192853"/>
    </g>
  </g>
</svg>
