<?xml version="1.0" encoding="UTF-8"?><svg xmlns="http://www.w3.org/2000/svg" xmlns:xlink="http://www.w3.org/1999/xlink" viewBox="0 0 685 671.5"><defs><style>.cls-1{fill:#b2c0d1;}.cls-1,.cls-2,.cls-3,.cls-4,.cls-5,.cls-6,.cls-7,.cls-8,.cls-9,.cls-10{stroke-width:0px;}.cls-2{fill:#194275;}.cls-11{opacity:.5;}.cls-12{clip-path:url(#clippath-2);}.cls-13,.cls-10{isolation:isolate;}.cls-14{opacity:.8;}.cls-3{fill:#ccd5e0;}.cls-4{fill:none;}.cls-15{clip-path:url(#clippath-1);}.cls-16{clip-path:url(#clippath-4);}.cls-17{opacity:.35;}.cls-5{fill:#6681a3;}.cls-18{opacity:.69;}.cls-6{fill:#7f96b2;}.cls-19{clip-path:url(#clippath);}.cls-20{clip-path:url(#clippath-3);}.cls-7{fill:#325684;}.cls-21{clip-path:url(#clippath-5);}.cls-8{fill:#002d66;}.cls-9{fill:#e5eaef;}.cls-22{opacity:.25;}.cls-10{fill:#000;mix-blend-mode:color;}</style><clipPath id="clippath"><rect class="cls-4" x=".3" y="0" width="684.7" height="671"/></clipPath><clipPath id="clippath-1"><rect class="cls-4" x="-289.13" y="321.97" width="669.78" height="669.78"/></clipPath><clipPath id="clippath-2"><rect class="cls-4" x="-421.64" y="189.47" width="934.78" height="934.78"/></clipPath><clipPath id="clippath-3"><rect class="cls-4" x="-596.92" y="14.19" width="1285.34" height="1285.34"/></clipPath><clipPath id="clippath-4"><rect class="cls-4" x="-804.65" y="-193.55" width="1700.82" height="1700.82"/></clipPath><clipPath id="clippath-5"><rect class="cls-4" x="-27.23" y="583.87" width="145.97" height="145.97"/></clipPath></defs><g class="cls-13"><g id="Layer_1"><g id="Group_15624"><g id="Group_15655"><rect id="Rectangle_1890" class="cls-8" y=".5" width="684.7" height="671"/><g class="cls-19"><g id="Group_15652" class="cls-17"><path id="Path_28080" class="cls-3" d="M45.76,502.85c-85.06,0-154.02,68.96-154.02,154.02s68.96,154.02,154.02,154.02,154.02-68.96,154.02-154.02h0c0-85.06-68.96-154.01-154.02-154.02M45.76,753.98c-53.64,0-97.13-43.48-97.13-97.12,0-53.64,43.48-97.13,97.12-97.13,53.64,0,97.13,43.48,97.13,97.12v.02c0,53.64-43.48,97.11-97.12,97.12"/><path id="Path_28081" class="cls-1" d="M45.76,426.16c-127.41,0-230.7,103.28-230.7,230.7s103.28,230.7,230.7,230.7,230.7-103.3,230.7-230.7-103.3-230.7-230.7-230.7M45.76,841.19c-101.82,0-184.35-82.54-184.35-184.34,0-101.81,82.54-184.35,184.35-184.35h0c101.8,0,184.34,82.54,184.34,184.35s-82.54,184.33-184.34,184.33"/><g id="Group_15639" class="cls-14"><g id="Group_15638"><g class="cls-15"><g id="Group_15637"><path id="Path_28082" class="cls-6" d="M45.76,321.97c-184.96,0-334.89,149.93-334.89,334.89S-139.2,991.75,45.76,991.75s334.89-149.95,334.89-334.89S230.69,321.97,45.76,321.97M45.76,924.44c-147.8,0-267.61-119.81-267.61-267.59S-102.04,389.25,45.75,389.25s267.58,119.81,267.58,267.61-119.81,267.58-267.58,267.58"/></g></g></g></g><g id="Group_15642" class="cls-18"><g id="Group_15641"><g class="cls-12"><g id="Group_15640"><path id="Path_28083" class="cls-5" d="M45.76,189.46c-258.14,0-467.39,209.25-467.39,467.39s209.25,467.39,467.39,467.39,467.39-209.29,467.39-467.39S303.86,189.46,45.76,189.46M45.76,1030.32c-206.27,0-373.49-167.22-373.49-373.46S-160.52,283.36,45.76,283.36s373.46,167.22,373.46,373.49-167.22,373.46-373.46,373.46"/></g></g></g></g><g id="Group_15645" class="cls-11"><g id="Group_15644"><g class="cls-20"><g id="Group_15643"><path id="Path_28084" class="cls-7" d="M45.76,14.19c-354.95,0-642.67,287.73-642.67,642.67S-309.19,1299.53,45.76,1299.53s642.67-287.77,642.67-642.67S400.66,14.19,45.76,14.19M45.76,1170.37c-283.63,0-513.56-229.93-513.56-513.51S-237.88,143.3,45.76,143.3s513.51,229.92,513.51,513.56S329.34,1170.37,45.76,1170.37"/></g></g></g></g><g id="Group_15648" class="cls-22"><g id="Group_15647"><g class="cls-16"><g id="Group_15646"><path id="Path_28085" class="cls-2" d="M45.76-193.55c-469.68,0-850.41,380.73-850.41,850.41S-423.92,1507.27,45.76,1507.27s850.41-380.79,850.41-850.41S515.38-193.55,45.76-193.55M45.76,1336.35c-375.31,0-679.56-304.25-679.56-679.5S-329.56-22.7,45.76-22.7s679.5,304.25,679.5,679.56S421.01,1336.35,45.75,1336.35"/></g></g></g></g><g id="Group_15651"><g id="Group_15650"><g class="cls-21"><g id="Group_15649"><path id="Path_28086" class="cls-9" d="M45.76,583.87c-40.31,0-72.98,32.68-72.98,72.99,0,40.31,32.68,72.98,72.99,72.98,40.31,0,72.98-32.68,72.98-72.99,0-40.31-32.68-72.98-72.99-72.98M45.76,702.88c-25.42,0-46.03-20.6-46.03-46.02s20.6-46.03,46.02-46.03c25.42,0,46.03,20.6,46.03,46.02h0c0,25.43-20.61,46.03-46.02,46.03"/></g></g></g></g></g></g></g><rect id="Rectangle_1890-2" class="cls-10" x="-12.24" y="-12" width="709.19" height="695"/></g></g></g></svg>