<svg xmlns="http://www.w3.org/2000/svg" width="928.545" height="928.55" viewBox="0 0 928.545 928.55">
  <g id="Group_13351" data-name="Group 13351" transform="translate(1012.461 236.92) rotate(68)">
    <g id="Group_798" data-name="Group 798">
      <path id="Path_4038" data-name="Path 4038" d="M358.62,543.41l-11.24,6.72a345.883,345.883,0,0,1,2.71,43.31c0,190.04-154.61,344.64-344.65,344.64S-339.2,783.48-339.2,593.44-184.6,248.8,5.44,248.8a343.38,343.38,0,0,1,235.34,93.08l2.23-14.45a354.518,354.518,0,0,0-98.74-62.6A354.432,354.432,0,0,0,5.44,236.8a354.384,354.384,0,0,0-138.82,28.03,355.367,355.367,0,0,0-113.36,76.42,355.386,355.386,0,0,0-76.43,113.37,357.772,357.772,0,0,0,0,277.64,355.386,355.386,0,0,0,76.43,113.37,355.559,355.559,0,0,0,113.36,76.43A354.553,354.553,0,0,0,5.44,950.08a354.6,354.6,0,0,0,138.83-28.02,355.559,355.559,0,0,0,113.36-76.43,355.713,355.713,0,0,0,76.43-113.37,354.384,354.384,0,0,0,28.03-138.82A359.8,359.8,0,0,0,358.62,543.41Z" fill="#b3dece"/>
    </g>
    <path id="Path_4040" data-name="Path 4040" d="M358.62,543.41l-11.24,6.72a344.061,344.061,0,0,0-106.6-208.25l2.23-14.45q7.485,6.675,14.62,13.82a355.712,355.712,0,0,1,76.43,113.37A352.936,352.936,0,0,1,358.62,543.41Z" fill="#fff"/>
  </g>
</svg>
