<svg id="Group_864" data-name="Group 864" xmlns="http://www.w3.org/2000/svg" width="140.634" height="24.784" viewBox="0 0 140.634 24.784">
  <rect id="Rectangle_472" data-name="Rectangle 472" width="43.953" height="24.784" fill="#0d38ed"/>
  <rect id="Rectangle_473" data-name="Rectangle 473" width="43.953" height="24.784" transform="translate(48.339)" fill="#0dabed"/>
  <rect id="Rectangle_474" data-name="Rectangle 474" width="43.953" height="24.784" transform="translate(96.68)" fill="#9629bd"/>
  <path id="Path_3968" data-name="Path 3968" d="M1495.316,2355.063c1.889,0,2.8-.612,2.8-1.854s-.915-1.835-2.8-1.835h-8.26v3.69Zm-11.313-6.2h11.714c3.569,0,5.551,1.605,5.551,4.3,0,2.313-1.489,3.864-4.024,4.227l5.74,4.857h-4.4l-5.4-4.687h-6.125v4.687H1484Z" transform="translate(-1471.451 -2343.169)" fill="#fff"/>
  <path id="Path_3969" data-name="Path 3969" d="M1546.037,2348.867h3.052v10.748h13.583v2.641h-16.635Z" transform="translate(-1435.659 -2343.169)" fill="#fff"/>
  <path id="Path_3970" data-name="Path 3970" d="M1522.48,2351.506h-7.726v-2.638h18.5v2.638h-7.726v10.747h-3.052Z" transform="translate(-1453.709 -2343.168)" fill="#fff"/>
</svg>
