<svg xmlns="http://www.w3.org/2000/svg" width="41.662" height="41.011" viewBox="0 0 41.662 41.011">
  <g id="Legacy_of_excellence" data-name="Legacy of excellence" transform="translate(-2111.858 -1046.761)">
    <g id="Group_14484" data-name="Group 14484" transform="translate(2111.858 1059.789)">
      <g id="Group_14474" data-name="Group 14474" transform="translate(30.549 0)">
        <path id="Path_25145" data-name="Path 25145" d="M2301.571,1139.131a2.2,2.2,0,0,1-1.978-1.238l-4.122-8.509h0a2.2,2.2,0,0,1,1.018-2.932l2.6-1.261a2.2,2.2,0,0,1,2.932,1.018l4.122,8.508a2.2,2.2,0,0,1-1.018,2.932l-2.6,1.261A2.183,2.183,0,0,1,2301.571,1139.131Zm-1.525-13.309a1.335,1.335,0,0,0-.584.135l-2.6,1.261a1.346,1.346,0,0,0-.624,1.8h0l4.122,8.508a1.348,1.348,0,0,0,1.8.625l2.6-1.261a1.35,1.35,0,0,0,.625-1.8l-4.122-8.509A1.348,1.348,0,0,0,2300.046,1125.823Z" transform="translate(-2295.251 -1124.974)"/>
      </g>
      <g id="Group_14475" data-name="Group 14475" transform="translate(0 0.053)">
        <path id="Path_25146" data-name="Path 25146" d="M2116.559,1139.324a2.182,2.182,0,0,1-1.085-.289l-2.511-1.435a2.2,2.2,0,0,1-.816-2.995l4.691-8.208a2.2,2.2,0,0,1,2.994-.817l2.511,1.435a2.2,2.2,0,0,1,.817,2.994h0l-4.691,8.208A2.2,2.2,0,0,1,2116.559,1139.324Zm2.19-13.182a1.361,1.361,0,0,0-.359.049,1.335,1.335,0,0,0-.815.628l-4.691,8.208a1.347,1.347,0,0,0,.5,1.836l2.511,1.434a1.347,1.347,0,0,0,1.835-.5l4.691-8.208a1.347,1.347,0,0,0-.5-1.835l-2.511-1.435A1.328,1.328,0,0,0,2118.749,1126.142Zm4.042,3.657h0Z" transform="translate(-2111.858 -1125.292)"/>
      </g>
      <g id="Group_14476" data-name="Group 14476" transform="translate(5.911 4.303)">
        <path id="Path_25147" data-name="Path 25147" d="M2149.366,1161a.423.423,0,0,1-.288-.113l-1.6-1.476a.425.425,0,0,1-.081-.523l4.5-7.874a.425.425,0,0,1,.578-.159l2.867,1.622,3.523-.064h.008a.425.425,0,0,1,.007.849l-3.639.066a.415.415,0,0,1-.217-.055l-2.6-1.471-4.125,7.214,1.352,1.247a.425.425,0,0,1-.288.737Z" transform="translate(-2147.341 -1150.805)"/>
      </g>
      <g id="Group_14477" data-name="Group 14477" transform="translate(19.37 9.427)">
        <path id="Path_25148" data-name="Path 25148" d="M2232.056,1200.12a2.294,2.294,0,0,1-1.571-.616l-2.206-2.035a.425.425,0,0,1,.576-.625l2.207,2.036a1.474,1.474,0,0,0,2.078-.08l.134-.144a1.474,1.474,0,0,0-.072-2.071l-1.669-1.548a.425.425,0,0,1-.136-.3.431.431,0,0,1,.249-.4.424.424,0,0,1,.464.071l2.092,1.938a1.472,1.472,0,0,0,2.075-.077l.143-.151a1.474,1.474,0,0,0-.079-2.068l-1.67-1.545a.424.424,0,0,1-.119-.431.43.43,0,0,1,.3-.294.425.425,0,0,1,.4.094l2.092,1.938a1.474,1.474,0,0,0,2.078-.08l.135-.147a1.472,1.472,0,0,0-.074-2.069l-1.669-1.548a.429.429,0,0,1,.113-.7.423.423,0,0,1,.465.07l2.092,1.939a1.474,1.474,0,0,0,2.077-.08l.141-.148a1.474,1.474,0,0,0-.079-2.068l-7.232-6.677a.425.425,0,1,1,.576-.624l7.234,6.678a2.327,2.327,0,0,1,.121,3.272l-.141.148a2.3,2.3,0,0,1-1.608.737,2.365,2.365,0,0,1-.784-.1,2.315,2.315,0,0,1-.606,1.751l-.137.148a2.314,2.314,0,0,0-3,2.389l-.144.15a2.289,2.289,0,0,1-1.6.735,2.347,2.347,0,0,1-.786-.1,2.322,2.322,0,0,1-.607,1.753l-.135.146a2.309,2.309,0,0,1-1.613.741Z" transform="translate(-2228.142 -1181.564)"/>
      </g>
      <g id="Group_14482" data-name="Group 14482" transform="translate(6.81 12.794)">
        <g id="Group_14478" data-name="Group 14478" transform="translate(2.118 2.037)">
          <path id="Path_25149" data-name="Path 25149" d="M2167.787,1220.741a2.316,2.316,0,0,1-.234-.012,2.183,2.183,0,0,1-1.5-.811l-.122-.156a2.32,2.32,0,0,1,.31-3.161l.027-.023,2.462-2.036a2.3,2.3,0,0,1,1.711-.524,2.177,2.177,0,0,1,1.491.812l.118.147,0,0a2.328,2.328,0,0,1-.276,3.137l-.027.024-2.494,2.062A2.3,2.3,0,0,1,2167.787,1220.741Zm2.421-5.885a1.453,1.453,0,0,0-.932.341l-2.462,2.036a1.488,1.488,0,0,0-.21,2l.12.155a1.339,1.339,0,0,0,.916.492,1.455,1.455,0,0,0,1.08-.335l2.494-2.062a1.472,1.472,0,0,0,.179-1.977l-.119-.148a1.332,1.332,0,0,0-.915-.5A1.433,1.433,0,0,0,2170.208,1214.857Z" transform="translate(-2165.452 -1214.007)"/>
        </g>
        <g id="Group_14479" data-name="Group 14479" transform="translate(4.973 4.681)">
          <path id="Path_25150" data-name="Path 25150" d="M2184.925,1236.615a2.282,2.282,0,0,1-.238-.012,2.176,2.176,0,0,1-1.492-.813l-.118-.147a2.325,2.325,0,0,1,.285-3.15l.035-.029,2.475-2.046a2.3,2.3,0,0,1,1.71-.524,2.178,2.178,0,0,1,1.492.812l.119.148,0,0a2.329,2.329,0,0,1-.275,3.137l-.028.023-2.494,2.062A2.3,2.3,0,0,1,2184.925,1236.615Zm2.42-5.885a1.457,1.457,0,0,0-.932.341l-2.475,2.046a1.472,1.472,0,0,0-.2,1.994l.118.146a1.336,1.336,0,0,0,.917.5,1.456,1.456,0,0,0,1.081-.335l2.494-2.062a1.472,1.472,0,0,0,.18-1.977l-.119-.148a1.336,1.336,0,0,0-.916-.5A1.442,1.442,0,0,0,2187.346,1230.731Z" transform="translate(-2182.591 -1229.881)"/>
        </g>
        <g id="Group_14480" data-name="Group 14480" transform="translate(8.557 7.932)">
          <path id="Path_25151" data-name="Path 25151" d="M2206.443,1254.918a2.317,2.317,0,0,1-.236-.012,2.175,2.175,0,0,1-1.493-.811l-.119-.148a2.322,2.322,0,0,1,.268-3.13l1.064-.883a2.3,2.3,0,0,1,1.711-.525,2.176,2.176,0,0,1,1.491.812l.119.148v0a2.328,2.328,0,0,1-.26,3.12l-1.076.889A2.286,2.286,0,0,1,2206.443,1254.918Zm.959-4.671a1.457,1.457,0,0,0-.933.342l-1.046.866a1.464,1.464,0,0,0-.165,1.961l.119.148a1.333,1.333,0,0,0,.916.5,1.446,1.446,0,0,0,1.078-.334l1.057-.872a1.469,1.469,0,0,0,.157-1.954l-.119-.149a1.337,1.337,0,0,0-.915-.5A1.425,1.425,0,0,0,2207.4,1250.247Z" transform="translate(-2204.11 -1249.397)"/>
        </g>
        <g id="Group_14481" data-name="Group 14481">
          <path id="Path_25152" data-name="Path 25152" d="M2155.069,1207.3a2.335,2.335,0,0,1-.235-.012,2.178,2.178,0,0,1-1.492-.809l-.123-.157a2.328,2.328,0,0,1,.262-3.118l1.077-.889a2.288,2.288,0,0,1,1.705-.524,2.179,2.179,0,0,1,1.493.809l.12.149v0a2.331,2.331,0,0,1-.248,3.111l-.022.02-1.063.88A2.3,2.3,0,0,1,2155.069,1207.3Zm.96-4.671a1.455,1.455,0,0,0-.931.341l-1.056.871a1.468,1.468,0,0,0-.156,1.955l.122.156a1.333,1.333,0,0,0,.912.49,1.458,1.458,0,0,0,1.081-.335l1.051-.87a1.475,1.475,0,0,0,.16-1.957l-.119-.149a1.337,1.337,0,0,0-.917-.5A1.436,1.436,0,0,0,2156.029,1202.627Z" transform="translate(-2152.738 -1201.777)"/>
        </g>
      </g>
      <g id="Group_14483" data-name="Group 14483" transform="translate(13.004 3.975)">
        <path id="Path_25153" data-name="Path 25153" d="M2209.254,1160.146a.425.425,0,0,1-.266-.756l2.595-2.086-3.623-7.48-2.694,1.291a.429.429,0,0,1-.22.04l-8.978-.78-4.777,3.849a1.511,1.511,0,0,0-.187,2.063l.124.155a1.472,1.472,0,0,0,2.067.228l3.56-2.873a.427.427,0,0,1,.3-.093l6.707.583a.425.425,0,1,1-.073.846l-6.536-.568-3.428,2.766a2.326,2.326,0,0,1-3.262-.358l-.124-.155a2.348,2.348,0,0,1,.31-3.25l4.916-3.962a.422.422,0,0,1,.3-.093l9.033.785,2.971-1.423a.425.425,0,0,1,.566.2l3.954,8.165a.425.425,0,0,1-.116.516l-2.858,2.3A.423.423,0,0,1,2209.254,1160.146Z" transform="translate(-2189.928 -1148.834)"/>
      </g>
    </g>
    <g id="Group_14487" data-name="Group 14487" transform="translate(2126.612 1046.761)">
      <g id="Group_14485" data-name="Group 14485" transform="translate(0 0)">
        <path id="Path_25154" data-name="Path 25154" d="M2206.512,1058.921c-.124,0-.248,0-.369-.01a6.081,6.081,0,1,1,2.716-11.681.425.425,0,0,1-.326.784,5.232,5.232,0,1,0-2.34,10.049c.11.006.225.008.339.009.049,0,.1,0,.148,0a5.243,5.243,0,0,0,5.062-5.055.425.425,0,1,1,.849.027,6.093,6.093,0,0,1-5.876,5.876C2206.652,1058.921,2206.582,1058.921,2206.512,1058.921Z" transform="translate(-2200.431 -1046.761)"/>
      </g>
      <g id="Group_14486" data-name="Group 14486" transform="translate(2.928 2.094)">
        <path id="Path_25155" data-name="Path 25155" d="M2221.141,1065.272a.424.424,0,0,1-.264-.092l-2.708-2.151a.425.425,0,0,1,.529-.665l2.411,1.916,4.821-4.821a.425.425,0,0,1,.6.6l-5.09,5.089A.423.423,0,0,1,2221.141,1065.272Z" transform="translate(-2218.009 -1059.333)"/>
      </g>
    </g>
  </g>
</svg>
