<svg xmlns="http://www.w3.org/2000/svg" width="161.143" height="35.835" viewBox="0 0 161.143 35.835">
  <g id="Group_13756" data-name="Group 13756" transform="translate(-328.886 -6689)">
    <g id="Logo_copy_Shiprocket_black_copy" data-name="Logo copy_Shiprocket black copy" transform="translate(328.886 6689.126)">
      <g id="Group_427" data-name="Group 427" transform="translate(0 -0.126)">
        <path id="Path_3805" data-name="Path 3805" d="M12.317,24.891l9.45-5.451a1.876,1.876,0,0,0,0-3.244l-9.243-5.357a1.868,1.868,0,0,0-2.961,1.528V23.231a1.862,1.862,0,0,0,2.754,1.66Zm1.6-16.373,12.129,7.017a2.508,2.508,0,0,0,2.471,0l.075-.057a1.876,1.876,0,0,0,0-3.244l-16.071-9.3A1.872,1.872,0,0,0,9.563,4.462v.189a.437.437,0,0,1-.66.377L7.149,4.01a.431.431,0,0,1-.207-.472A4.594,4.594,0,0,1,13.921.6l16.052,9.3a4.59,4.59,0,0,1,.019,7.922h0L10.865,28.852a2.646,2.646,0,0,0-1.32,2.282h0a1.867,1.867,0,0,0,2.961,1.528l16.09-9.28a1.876,1.876,0,0,0,0-3.244l-.151-.094a.441.441,0,0,1,0-.755L30.2,18.27a.428.428,0,0,1,.509.057,4.573,4.573,0,0,1-.755,7.394L13.921,34.982a4.582,4.582,0,0,1-7.073-3.81h0V8.9A2.306,2.306,0,0,0,5.678,6.877h0A1.872,1.872,0,0,0,2.716,8.4V27.173A1.867,1.867,0,0,0,5.678,28.7h0a.44.44,0,0,1,.66.377V31.1a.424.424,0,0,1-.3.415A4.567,4.567,0,0,1,0,27.173V8.424a4.588,4.588,0,0,1,6.847-4C9.2,5.8,11.563,7.16,13.921,8.518Z" transform="translate(0 0.126)" fill="#46237a" fill-rule="evenodd"/>
        <path id="Path_3806" data-name="Path 3806" d="M63.8,80.325a.694.694,0,0,0,1.094.566l5.942-3.433a.69.69,0,0,0,0-1.188l-5.942-3.414a.694.694,0,0,0-1.094.566Z" transform="translate(-51.766 -58.987)" fill="#18f040"/>
      </g>
      <g id="Group_428" data-name="Group 428" transform="translate(35.009 5.802)">
        <path id="Path_3807" data-name="Path 3807" d="M198.03,42.7l-2.471,1.471a4.268,4.268,0,0,0-1.32-1.566,3.036,3.036,0,0,0-1.679-.415,3.183,3.183,0,0,0-2.113.717,2.188,2.188,0,0,0-.83,1.773c0,.981.736,1.773,2.188,2.377l2.018.83a8.5,8.5,0,0,1,3.6,2.433,5.511,5.511,0,0,1,1.132,3.508,6.156,6.156,0,0,1-1.867,4.6,6.343,6.343,0,0,1-4.64,1.83,6.262,6.262,0,0,1-4.338-1.547,7.133,7.133,0,0,1-2.113-4.376l3.093-.679a5.009,5.009,0,0,0,.736,2.452,3.18,3.18,0,0,0,2.754,1.3,3.393,3.393,0,0,0,3.15-4.452,3.092,3.092,0,0,0-.509-.905,3.743,3.743,0,0,0-.905-.773,7.6,7.6,0,0,0-1.3-.679l-1.943-.811c-2.773-1.169-4.15-2.886-4.15-5.131a4.907,4.907,0,0,1,1.735-3.81A6.24,6.24,0,0,1,192.6,39.3,6.036,6.036,0,0,1,198.03,42.7Z" transform="translate(-185.6 -37.791)"/>
        <path id="Path_3808" data-name="Path 3808" d="M270.719,31.3h2.943V41.712a5.06,5.06,0,0,1,3.471-1.415,4.518,4.518,0,0,1,3.452,1.4,5.693,5.693,0,0,1,1.094,3.886v7.809h-2.943V45.862a3.674,3.674,0,0,0-.547-2.226,2.051,2.051,0,0,0-1.754-.679,2.377,2.377,0,0,0-2.169.962,6.469,6.469,0,0,0-.622,3.32v6.168H270.7l.019-22.107Z" transform="translate(-254.648 -31.3)"/>
        <path id="Path_3809" data-name="Path 3809" d="M346.3,44.605a1.907,1.907,0,0,1,3.263-1.339,1.781,1.781,0,0,1,.566,1.339,1.852,1.852,0,0,1-.566,1.358,1.781,1.781,0,0,1-1.339.566,1.852,1.852,0,0,1-1.358-.566A1.793,1.793,0,0,1,346.3,44.605Zm3.4,5.3V62.638h-2.943V49.906Z" transform="translate(-315.988 -40.55)"/>
        <path id="Path_3810" data-name="Path 3810" d="M386.943,99.032H384V79.358h2.943v1.377A5.386,5.386,0,0,1,390.9,79a5.493,5.493,0,0,1,4.338,1.943,7.005,7.005,0,0,1,1.735,4.848,6.834,6.834,0,0,1-1.716,4.772,5.582,5.582,0,0,1-8.3.113l-.019,8.356Zm7-13.223a4.412,4.412,0,0,0-1-2.98,3.23,3.23,0,0,0-2.546-1.169,3.331,3.331,0,0,0-2.622,1.132,4.238,4.238,0,0,0-1,2.961,4.429,4.429,0,0,0,1,2.961,3.3,3.3,0,0,0,2.622,1.132,3.176,3.176,0,0,0,2.528-1.151A4.216,4.216,0,0,0,393.941,85.809Z" transform="translate(-346.577 -70.003)"/>
        <path id="Path_3811" data-name="Path 3811" d="M469.119,79.358h2.943V80.49a5.807,5.807,0,0,1,1.434-1.169A3.23,3.23,0,0,1,475,79a4.729,4.729,0,0,1,2.433.755l-1.339,2.7a2.893,2.893,0,0,0-1.641-.6c-1.6,0-2.414,1.207-2.414,3.64v6.6H469.1l.019-12.732Z" transform="translate(-415.625 -70.003)"/>
        <path id="Path_3812" data-name="Path 3812" d="M517.9,85.64a6.3,6.3,0,0,1,1.981-4.7,6.972,6.972,0,0,1,9.658,0,6.5,6.5,0,0,1,1.962,4.791,6.417,6.417,0,0,1-1.981,4.791,6.76,6.76,0,0,1-4.885,1.924A6.638,6.638,0,0,1,517.9,85.64Zm3,.057a4.267,4.267,0,0,0,1.019,3.018,3.94,3.94,0,0,0,5.508.019,4.746,4.746,0,0,0,0-5.923,3.584,3.584,0,0,0-2.754-1.132,3.543,3.543,0,0,0-2.735,1.132A4.066,4.066,0,0,0,520.9,85.7Z" transform="translate(-455.22 -70.003)"/>
        <path id="Path_3813" data-name="Path 3813" d="M613.807,79.983v3.9A7.413,7.413,0,0,0,612,82.209a3.457,3.457,0,0,0-1.849-.472,3.6,3.6,0,0,0-2.754,1.169A4.077,4.077,0,0,0,606.3,85.83a4.232,4.232,0,0,0,1.056,2.943,3.549,3.549,0,0,0,2.735,1.151,3.75,3.75,0,0,0,1.867-.453,7.434,7.434,0,0,0,1.849-1.735v3.886a7.681,7.681,0,0,1-3.584.924,6.863,6.863,0,0,1-4.942-1.905,6.376,6.376,0,0,1-1.981-4.772,6.452,6.452,0,0,1,2.018-4.81A6.847,6.847,0,0,1,610.26,79.1,7.123,7.123,0,0,1,613.807,79.983Z" transform="translate(-524.511 -70.08)"/>
        <path id="Path_3814" data-name="Path 3814" d="M680.824,31.3V44.768l4.15-4.112h3.961l-5.546,5.357,5.942,7.394h-3.81l-4.206-5.376-.472.472v4.9H677.9V31.3Z" transform="translate(-585.039 -31.3)"/>
        <path id="Path_3815" data-name="Path 3815" d="M755.142,86.332h-9.129a3.765,3.765,0,0,0,1.019,2.49,3.156,3.156,0,0,0,2.32.924,2.906,2.906,0,0,0,1.811-.528,7.682,7.682,0,0,0,1.6-1.943l2.49,1.377a9.189,9.189,0,0,1-1.226,1.679,6.467,6.467,0,0,1-1.377,1.151,5.323,5.323,0,0,1-1.584.66,8.156,8.156,0,0,1-1.849.207,5.982,5.982,0,0,1-4.584-1.83,6.876,6.876,0,0,1-1.735-4.885,7.048,7.048,0,0,1,1.679-4.885,6.377,6.377,0,0,1,8.922-.057,7.091,7.091,0,0,1,1.622,4.942Zm-3.018-2.4a3.037,3.037,0,0,0-3.961-2.188,2.659,2.659,0,0,0-.849.472,3.532,3.532,0,0,0-.66.736,3.271,3.271,0,0,0-.415.981Z" transform="translate(-637.779 -69.921)"/>
        <path id="Path_3816" data-name="Path 3816" d="M824.106,63.532v10h-2.943v-10H819.9V60.778h1.264V56.1h2.943v4.678h2.282v2.754Z" transform="translate(-700.255 -51.422)"/>
      </g>
    </g>
  </g>
</svg>
