<svg xmlns="http://www.w3.org/2000/svg" width="68.306" height="38.938" viewBox="0 0 68.306 38.938">
  <path id="soundcloud-logo" d="M16.357,33.076a.282.282,0,0,0-.274.267l-.5,3.794.5,3.729a.282.282,0,0,0,.274.267.285.285,0,0,0,.272-.265h0l.592-3.73-.592-3.795a.287.287,0,0,0-.272-.267ZM19.166,31a.284.284,0,0,0-.569,0s-.671,6.135-.671,6.135l.671,6a.284.284,0,0,0,.568,0l.764-6Zm10.581-5.659a.527.527,0,0,0-.516.512L28.7,37.143l.535,7.294a.517.517,0,0,0,1.034,0v0l.6-7.295-.6-11.286A.531.531,0,0,0,29.747,25.344ZM24.27,29.267a.411.411,0,0,0-.4.394l-.6,7.478.6,7.235a.4.4,0,0,0,.8,0l.685-7.235-.685-7.48A.412.412,0,0,0,24.27,29.267ZM35.312,44.946a.641.641,0,0,0,.633-.628l.525-7.171L35.946,22.12a.634.634,0,0,0-1.267,0l-.465,15.025.465,7.174A.638.638,0,0,0,35.312,44.946Zm11.394.034a.877.877,0,0,0,.867-.863v0l.366-6.965L47.572,19.8a.867.867,0,0,0-1.734,0l-.327,17.347c0,.011.327,6.976.327,6.976A.875.875,0,0,0,46.706,44.979Zm-5.74-.027a.755.755,0,0,0,.75-.747v.005l.445-7.062-.446-15.135a.75.75,0,0,0-1.5,0l-.4,15.136.4,7.061A.751.751,0,0,0,40.965,44.952ZM27,44.886a.469.469,0,0,0,.458-.451l.645-7.3-.645-6.94a.459.459,0,0,0-.917,0l-.568,6.937.568,7.295A.465.465,0,0,0,27,44.886Zm-5.433-.4a.353.353,0,0,0,.342-.334l.724-7.014-.724-7.278a.355.355,0,0,0-.343-.335.351.351,0,0,0-.342.335l-.638,7.278.638,7.012A.35.35,0,0,0,21.565,44.486Zm22.26-22.725a.81.81,0,0,0-.81.806l-.361,14.582.361,7.017a.809.809,0,0,0,1.618-.005v.006l.406-7.017-.406-14.585A.81.81,0,0,0,43.825,21.761ZM32.519,44.96a.586.586,0,0,0,.575-.57l.564-7.245-.564-13.868a.576.576,0,0,0-1.151,0l-.5,13.868.5,7.248A.582.582,0,0,0,32.519,44.96Zm6.3-.684v0l.485-7.126-.485-15.532a.692.692,0,0,0-1.383,0l-.43,15.532.431,7.129a.691.691,0,0,0,1.383,0v0ZM75.489,28.194a8.388,8.388,0,0,0-3.25.652A14.826,14.826,0,0,0,57.475,15.334a15.02,15.02,0,0,0-5.374,1c-.634.245-.8.5-.809.988V43.992a1.017,1.017,0,0,0,.907.993c.021,0,23.139.014,23.289.014a8.4,8.4,0,0,0,0-16.805ZM49.574,17.3a.935.935,0,0,0-.926.923l-.379,18.927.38,6.869a.925.925,0,0,0,1.85-.007v.008l.412-6.87L50.5,18.225A.934.934,0,0,0,49.574,17.3ZM22.368,50.34c-.994-.234-1.263-.358-1.263-.752,0-.278.224-.565.9-.565a1.911,1.911,0,0,1,1.424.645l.9-.877a3,3,0,0,0-2.283-.985c-1.237,0-2.24.7-2.24,1.837,0,1.236.807,1.6,1.961,1.871,1.182.268,1.4.448,1.4.851,0,.475-.35.681-1.092.681a2.029,2.029,0,0,1-1.6-.718l-.9.807A2.907,2.907,0,0,0,22,54.272c1.712,0,2.464-.806,2.464-2C24.464,50.913,23.362,50.573,22.368,50.34Zm5.769-2.534c-1.71,0-2.722,1.325-2.722,3.233s1.011,3.232,2.722,3.232,2.723-1.324,2.723-3.232S29.847,47.806,28.137,47.806Zm0,5.222c-1.011,0-1.433-.869-1.433-1.988s.422-1.989,1.433-1.989,1.433.869,1.433,1.989S29.15,53.028,28.137,53.028Zm7.784-1.6c0,1-.494,1.621-1.29,1.621s-1.28-.636-1.28-1.639V47.9H32.1v3.521c0,1.826,1.022,2.847,2.535,2.847,1.594,0,2.544-1.048,2.544-2.865V47.9H35.921Zm6.663-.869c0,.35.018,1.137.018,1.37-.081-.162-.286-.475-.439-.708L39.941,47.9h-1.2v6.271h1.236V51.414c0-.35-.018-1.137-.018-1.37.08.161.287.475.439.708l2.3,3.421h1.12V47.9H42.584v2.653ZM47.393,47.9H45.432v6.271H47.3a2.981,2.981,0,0,0,3.207-3.135A2.793,2.793,0,0,0,47.393,47.9Zm-.09,5.053h-.617V49.122h.663c1.326,0,1.873.635,1.873,1.917A1.733,1.733,0,0,1,47.3,52.956Zm7.085-3.906a1.192,1.192,0,0,1,1.147.681l1.164-.537a2.367,2.367,0,0,0-2.293-1.388c-1.637,0-2.785,1.325-2.785,3.233,0,1.979,1.1,3.232,2.74,3.232a2.4,2.4,0,0,0,2.32-1.415l-1.056-.627a1.313,1.313,0,0,1-1.228.8c-.94,0-1.487-.86-1.487-1.988C52.909,49.875,53.448,49.051,54.388,49.051ZM59.039,47.9H57.785v6.271h3.769V52.937H59.039V47.9Zm5.818-.1c-1.712,0-2.723,1.325-2.723,3.233s1.012,3.232,2.723,3.232,2.722-1.324,2.722-3.232S66.567,47.806,64.857,47.806Zm0,5.222c-1.013,0-1.433-.869-1.433-1.988s.42-1.989,1.433-1.989,1.432.869,1.432,1.989S65.868,53.028,64.857,53.028Zm7.782-1.6c0,1-.491,1.621-1.288,1.621s-1.281-.636-1.281-1.639V47.9H68.816v3.521c0,1.826,1.021,2.847,2.535,2.847,1.594,0,2.543-1.048,2.543-2.865V47.9H72.639ZM77.422,47.9H75.461v6.271h1.871a2.98,2.98,0,0,0,3.206-3.135A2.792,2.792,0,0,0,77.422,47.9Zm-.09,5.053h-.618V49.122h.663c1.324,0,1.871.635,1.871,1.917A1.732,1.732,0,0,1,77.332,52.956Z" transform="translate(-15.583 -15.334)"/>
</svg>
