<svg id="Group_15125" data-name="Group 15125" xmlns="http://www.w3.org/2000/svg" width="22.388" height="18.535" viewBox="0 0 22.388 18.535">
  <path id="Path_25948" data-name="Path 25948" d="M456.336,700.781a1.393,1.393,0,0,1-1.394-1.393V682.246h8.766l2.428,1.905h9.8v2.788C468.954,692.959,464.431,700.781,456.336,700.781Z" transform="translate(-454.942 -682.246)" fill="#939fa5" opacity="0.46"/>
  <path id="Path_25949" data-name="Path 25949" d="M468.181,689.131h-9.8V701.58a1.393,1.393,0,0,1-1.393,1.393h19.6a1.393,1.393,0,0,0,1.393-1.393V689.131Z" transform="translate(-455.593 -684.438)" fill="#939fa5"/>
  <g id="Group_14952" data-name="Group 14952" transform="translate(10.164 8.643)">
    <g id="Group_14951" data-name="Group 14951">
      <path id="Path_25950" data-name="Path 25950" d="M473.308,697.917l-1.727-2.99-1.727,2.99h1.265v2.952h.923v-2.952Z" transform="translate(-469.855 -694.927)" fill="#fff"/>
    </g>
  </g>
</svg>
