<svg id="YouTube_full-color_icon__2017_" data-name="YouTube_full-color_icon_(2017)" xmlns="http://www.w3.org/2000/svg" width="50.812" height="34.374" viewBox="0 0 50.812 34.374">
  <g id="Group_13693" data-name="Group 13693" transform="translate(0 0)">
    <path id="Path_24615" data-name="Path 24615" d="M49.75,5.368a6.26,6.26,0,0,0-4.492-4.341C41.3,0,25.406,0,25.406,0S9.516,0,5.555,1.027A6.26,6.26,0,0,0,1.062,5.368C0,9.2,0,17.187,0,17.187s0,7.991,1.062,11.819a6.259,6.259,0,0,0,4.492,4.341c3.961,1.027,19.851,1.027,19.851,1.027s15.89,0,19.851-1.027a6.259,6.259,0,0,0,4.492-4.341c1.062-3.828,1.062-11.819,1.062-11.819S50.808,9.2,49.75,5.368Z" transform="translate(0 0)"/>
    <path id="Path_24616" data-name="Path 24616" d="M11.425,19.26l11.731-6.772L11.425,5.715Z" transform="translate(9.689 4.7)" fill="#fff"/>
  </g>
</svg>
